G04 Generated by Ultiboard 13.0 *
%FSLAX25Y25*%
%MOIN*%

%ADD10C,0.00001*%
%ADD11C,0.00500*%
%ADD12C,0.08000*%
%ADD13R,0.00984X0.04724*%
%ADD14C,0.15748*%
%ADD15R,0.04000X0.05000*%
%ADD16R,0.05000X0.04000*%
%ADD17C,0.07000*%
%ADD18R,0.04083X0.04083*%
%ADD19C,0.03917*%
%ADD20R,0.04500X0.04500*%
%ADD21C,0.03500*%


G04 ColorRGB 9900CC for the following layer *
%LNSolder Mask Bottom*%
%LPD*%
G54D10*
G54D11*
X-10557Y-8589D02*
X-10557Y15058D01*
X-10557Y-8589D02*
X21082Y-8589D01*
X305833Y-8589D02*
X274194Y-8589D01*
X305833Y-8589D02*
X305833Y15058D01*
X305833Y227880D02*
X305833Y204233D01*
X305833Y227880D02*
X274194Y227880D01*
X-10557Y227880D02*
X21082Y227880D01*
X-10557Y227880D02*
X-10557Y204233D01*
X-30243Y-8589D02*
X-69613Y-8589D01*
X-49928Y-28274D02*
X-49928Y11096D01*
X-64691Y-8589D02*
G75*
D01*
G02X-64691Y-8589I14763J0*
G01*
X325518Y-8589D02*
X364888Y-8589D01*
X345203Y-28274D02*
X345203Y11096D01*
X330439Y-8589D02*
G75*
D01*
G02X330439Y-8589I14764J0*
G01*
X340282Y-8589D02*
G75*
D01*
G02X340282Y-8589I4921J0*
G01*
X-30243Y227880D02*
X-69613Y227880D01*
X-49928Y208195D02*
X-49928Y247565D01*
X-64691Y227880D02*
G75*
D01*
G02X-64691Y227880I14763J0*
G01*
X-59770Y227880D02*
G75*
D01*
G02X-59770Y227880I9842J0*
G01*
X-54849Y227880D02*
G75*
D01*
G02X-54849Y227880I4921J0*
G01*
G54D12*
X99000Y69000D03*
X158000Y69000D03*
X136000Y113000D03*
X194000Y113000D03*
X215000Y52000D03*
X234000Y52000D03*
X253000Y52000D03*
X272000Y52000D03*
X132631Y157435D03*
X142631Y157435D03*
X152631Y157435D03*
X162631Y157435D03*
X172631Y157435D03*
X182631Y157435D03*
X192631Y157435D03*
X112631Y157435D03*
X162631Y167435D03*
X172631Y167435D03*
X182631Y167435D03*
X142631Y167435D03*
X152631Y167435D03*
X132631Y167435D03*
X112631Y167435D03*
X122631Y167435D03*
X102631Y167435D03*
X122631Y157435D03*
X102631Y157435D03*
X133937Y9843D03*
X143937Y9843D03*
X153937Y9843D03*
X163937Y9843D03*
X173937Y9843D03*
X183937Y9843D03*
X193937Y9843D03*
X203937Y9843D03*
X213937Y9843D03*
X223937Y9843D03*
X233937Y9843D03*
X243937Y9843D03*
X63937Y9843D03*
X123937Y9843D03*
X93937Y9843D03*
X73937Y9843D03*
X83937Y9843D03*
X113937Y9843D03*
X103937Y9843D03*
X83000Y146000D03*
G54D13*
X163484Y84583D03*
X166043Y84583D03*
X168602Y84583D03*
X171161Y84583D03*
X173720Y84583D03*
X176280Y84583D03*
X178839Y84583D03*
X181398Y84583D03*
X183957Y84583D03*
X186516Y84583D03*
X163484Y107417D03*
X166043Y107417D03*
X171161Y107417D03*
X168602Y107417D03*
X173720Y107417D03*
X178839Y107417D03*
X181398Y107417D03*
X176280Y107417D03*
X186516Y107417D03*
X183957Y107417D03*
X104484Y84583D03*
X107043Y84583D03*
X109602Y84583D03*
X112161Y84583D03*
X114720Y84583D03*
X117280Y84583D03*
X119839Y84583D03*
X122398Y84583D03*
X124957Y84583D03*
X127516Y84583D03*
X109602Y107417D03*
X104484Y107417D03*
X107043Y107417D03*
X117280Y107417D03*
X112161Y107417D03*
X114720Y107417D03*
X124957Y107417D03*
X119839Y107417D03*
X122398Y107417D03*
X127516Y107417D03*
G54D14*
X9843Y207480D03*
X285433Y207480D03*
X9843Y11811D03*
X285433Y11811D03*
G54D15*
X150100Y89000D03*
X157800Y89000D03*
X91200Y88000D03*
X98900Y88000D03*
X91100Y107000D03*
X98800Y107000D03*
G54D16*
X157000Y102100D03*
X157000Y109800D03*
G54D17*
X81000Y43441D03*
X73913Y48559D03*
X88087Y48559D03*
G54D18*
X192631Y167435D03*
G54D19*
X190590Y165394D02*
X194672Y165394D01*
X194672Y169476D01*
X190590Y169476D01*
X190590Y165394D01*D02*
G54D20*
X53937Y9843D03*
G54D21*
X51687Y7593D02*
X56187Y7593D01*
X56187Y12093D01*
X51687Y12093D01*
X51687Y7593D01*D02*

M02*
