G04 Generated by Ultiboard 13.0 *
%FSLAX25Y25*%
%MOIN*%

%ADD10C,0.00001*%
%ADD11C,0.00039*%
%ADD12C,0.00394*%
%ADD13C,0.01000*%
%ADD14C,0.00500*%


G04 ColorRGB 000000 for the following layer *
%LNDrill Symbols-Copper Top-Copper Bottom*%
%LPD*%
G54D11*
X97200Y69000D02*
X100800Y69000D01*
X99000Y67200D02*
X99000Y70800D01*
X156200Y69000D02*
X159800Y69000D01*
X158000Y67200D02*
X158000Y70800D01*
X136000Y111200D02*
X136000Y114800D01*
X134200Y113000D02*
X137800Y113000D01*
X192200Y113000D02*
X195800Y113000D01*
X194000Y111200D02*
X194000Y114800D01*
X81000Y41641D02*
X81000Y45241D01*
X79200Y43441D02*
X82800Y43441D01*
X72113Y48559D02*
X75713Y48559D01*
X73913Y46759D02*
X73913Y50359D01*
X88087Y46759D02*
X88087Y50359D01*
X86287Y48559D02*
X89887Y48559D01*
X213100Y52000D02*
G75*
D01*
G02X213100Y52000I1900J0*
G01*
X232100Y52000D02*
G75*
D01*
G02X232100Y52000I1900J0*
G01*
X251100Y52000D02*
G75*
D01*
G02X251100Y52000I1900J0*
G01*
X270100Y52000D02*
G75*
D01*
G02X270100Y52000I1900J0*
G01*
X130732Y157435D02*
G75*
D01*
G02X130732Y157435I1899J0*
G01*
X140732Y157435D02*
G75*
D01*
G02X140732Y157435I1899J0*
G01*
X150732Y157435D02*
G75*
D01*
G02X150732Y157435I1899J0*
G01*
X160732Y157435D02*
G75*
D01*
G02X160732Y157435I1899J0*
G01*
X170732Y157435D02*
G75*
D01*
G02X170732Y157435I1899J0*
G01*
X180732Y157435D02*
G75*
D01*
G02X180732Y157435I1899J0*
G01*
X190732Y157435D02*
G75*
D01*
G02X190732Y157435I1899J0*
G01*
X110732Y157435D02*
G75*
D01*
G02X110732Y157435I1899J0*
G01*
X190732Y167435D02*
G75*
D01*
G02X190732Y167435I1899J0*
G01*
X160732Y167435D02*
G75*
D01*
G02X160732Y167435I1899J0*
G01*
X170732Y167435D02*
G75*
D01*
G02X170732Y167435I1899J0*
G01*
X180732Y167435D02*
G75*
D01*
G02X180732Y167435I1899J0*
G01*
X140732Y167435D02*
G75*
D01*
G02X140732Y167435I1899J0*
G01*
X150732Y167435D02*
G75*
D01*
G02X150732Y167435I1899J0*
G01*
X130732Y167435D02*
G75*
D01*
G02X130732Y167435I1899J0*
G01*
X110732Y167435D02*
G75*
D01*
G02X110732Y167435I1899J0*
G01*
X120732Y167435D02*
G75*
D01*
G02X120732Y167435I1899J0*
G01*
X100732Y167435D02*
G75*
D01*
G02X100732Y167435I1899J0*
G01*
X120732Y157435D02*
G75*
D01*
G02X120732Y157435I1899J0*
G01*
X100732Y157435D02*
G75*
D01*
G02X100732Y157435I1899J0*
G01*
X132037Y9843D02*
G75*
D01*
G02X132037Y9843I1900J0*
G01*
X142037Y9843D02*
G75*
D01*
G02X142037Y9843I1900J0*
G01*
X152037Y9843D02*
G75*
D01*
G02X152037Y9843I1900J0*
G01*
X162037Y9843D02*
G75*
D01*
G02X162037Y9843I1900J0*
G01*
X172037Y9843D02*
G75*
D01*
G02X172037Y9843I1900J0*
G01*
X182037Y9843D02*
G75*
D01*
G02X182037Y9843I1900J0*
G01*
X192037Y9843D02*
G75*
D01*
G02X192037Y9843I1900J0*
G01*
X202037Y9843D02*
G75*
D01*
G02X202037Y9843I1900J0*
G01*
X212037Y9843D02*
G75*
D01*
G02X212037Y9843I1900J0*
G01*
X222037Y9843D02*
G75*
D01*
G02X222037Y9843I1900J0*
G01*
X232037Y9843D02*
G75*
D01*
G02X232037Y9843I1900J0*
G01*
X242037Y9843D02*
G75*
D01*
G02X242037Y9843I1900J0*
G01*
X62037Y9843D02*
G75*
D01*
G02X62037Y9843I1900J0*
G01*
X122037Y9843D02*
G75*
D01*
G02X122037Y9843I1900J0*
G01*
X52037Y9843D02*
G75*
D01*
G02X52037Y9843I1900J0*
G01*
X92037Y9843D02*
G75*
D01*
G02X92037Y9843I1900J0*
G01*
X72037Y9843D02*
G75*
D01*
G02X72037Y9843I1900J0*
G01*
X82037Y9843D02*
G75*
D01*
G02X82037Y9843I1900J0*
G01*
X112037Y9843D02*
G75*
D01*
G02X112037Y9843I1900J0*
G01*
X102037Y9843D02*
G75*
D01*
G02X102037Y9843I1900J0*
G01*
X83000Y144200D02*
X83000Y147800D01*
X81200Y146000D02*
X84800Y146000D01*
X422240Y157211D02*
G75*
D01*
G02X422240Y157211I1900J0*
G01*
X422340Y173353D02*
X425940Y173353D01*
X424140Y171553D02*
X424140Y175153D01*
G54D12*
X6363Y210960D02*
X13322Y204000D01*
X6363Y204000D02*
X13322Y210960D01*
X281953Y204000D02*
X288913Y210960D01*
X281953Y210960D02*
X288913Y204000D01*
X6363Y15291D02*
X13322Y8331D01*
X6363Y8331D02*
X13322Y15291D01*
X281953Y15291D02*
X288913Y8331D01*
X281953Y8331D02*
X288913Y15291D01*
X420660Y137589D02*
X427620Y144549D01*
X420660Y144549D02*
X427620Y137589D01*
X465216Y139382D02*
X467841Y137695D01*
X470466Y137695D01*
X473090Y139382D01*
X473090Y142757D01*
X473090Y144444D01*
X470466Y146131D01*
X467841Y146131D01*
X465216Y144444D01*
X465216Y142757D01*
X467841Y141069D01*
X470466Y141069D01*
X473090Y142757D01*
X482277Y137695D02*
X479652Y137695D01*
X477027Y139382D01*
X477027Y141069D01*
X478340Y141913D01*
X477027Y142757D01*
X477027Y144444D01*
X479652Y146131D01*
X482277Y146131D01*
X484901Y144444D01*
X484901Y142757D01*
X483589Y141913D01*
X484901Y141069D01*
X484901Y139382D01*
X482277Y137695D01*
X478340Y141913D02*
X483589Y141913D01*
X492775Y137695D02*
X492775Y138538D01*
X508523Y141069D02*
X500649Y141069D01*
X507211Y146131D01*
X507211Y137695D01*
X505899Y137695D02*
X508523Y137695D01*
X512460Y144444D02*
X515085Y146131D01*
X517710Y146131D01*
X520334Y144444D01*
X520334Y143600D01*
X512460Y137695D01*
X520334Y137695D01*
X520334Y138538D01*
X532145Y146131D02*
X524271Y146131D01*
X524271Y142757D01*
X529521Y142757D01*
X532145Y141069D01*
X532145Y139382D01*
X529521Y137695D01*
X524271Y137695D01*
X536082Y144444D02*
X538707Y146131D01*
X541332Y146131D01*
X543956Y144444D01*
X543956Y143600D01*
X536082Y137695D01*
X543956Y137695D01*
X543956Y138538D01*
X547893Y144444D02*
X550518Y146131D01*
X553143Y146131D01*
X555767Y144444D01*
X555767Y139382D01*
X553143Y137695D01*
X550518Y137695D01*
X547893Y139382D01*
X547893Y144444D01*
X555767Y144444D02*
X547893Y139382D01*
X613248Y141069D02*
X605374Y141069D01*
X611935Y146131D01*
X611935Y137695D01*
X610623Y137695D02*
X613248Y137695D01*
X680571Y137695D02*
X680571Y146131D01*
X685820Y146131D01*
X688445Y144444D01*
X688445Y143600D01*
X685820Y141913D01*
X680571Y141913D01*
X696319Y137695D02*
X696319Y146131D01*
X692382Y146131D02*
X700256Y146131D01*
X704193Y137695D02*
X704193Y146131D01*
X712067Y137695D02*
X712067Y146131D01*
X704193Y141913D02*
X712067Y141913D01*
X749862Y144444D02*
X752487Y146131D01*
X755111Y146131D01*
X757736Y144444D01*
X757736Y139382D01*
X755111Y137695D01*
X752487Y137695D01*
X749862Y139382D01*
X749862Y144444D01*
X757736Y144444D02*
X749862Y139382D01*
X780046Y137695D02*
X778733Y137695D01*
X776109Y139382D01*
X776109Y144444D01*
X778733Y146131D01*
X780046Y146131D01*
X785295Y137695D02*
X785295Y146131D01*
X790544Y146131D01*
X793169Y144444D01*
X793169Y143600D01*
X790544Y141913D01*
X785295Y141913D01*
X786607Y141913D02*
X793169Y137695D01*
X797106Y139382D02*
X799731Y137695D01*
X802355Y137695D01*
X804980Y139382D01*
X804980Y144444D01*
X802355Y146131D01*
X799731Y146131D01*
X797106Y144444D01*
X797106Y139382D01*
X808917Y146131D02*
X808917Y139382D01*
X811542Y137695D01*
X814166Y137695D01*
X816791Y139382D01*
X816791Y146131D01*
X820728Y137695D02*
X820728Y146131D01*
X828602Y137695D01*
X828602Y146131D01*
X832539Y137695D02*
X837788Y137695D01*
X840413Y139382D01*
X840413Y144444D01*
X837788Y146131D01*
X832539Y146131D01*
X833851Y146131D02*
X833851Y137695D01*
X845662Y146131D02*
X846975Y146131D01*
X849599Y144444D01*
X849599Y139382D01*
X846975Y137695D01*
X845662Y137695D01*
X466529Y161429D02*
X467841Y162273D01*
X470466Y162273D01*
X473090Y160586D01*
X473090Y158898D01*
X471778Y158055D01*
X473090Y157211D01*
X473090Y155524D01*
X470466Y153836D01*
X467841Y153836D01*
X466529Y154680D01*
X467841Y158055D02*
X471778Y158055D01*
X482277Y153836D02*
X479652Y153836D01*
X477027Y155524D01*
X477027Y157211D01*
X478340Y158055D01*
X477027Y158898D01*
X477027Y160586D01*
X479652Y162273D01*
X482277Y162273D01*
X484901Y160586D01*
X484901Y158898D01*
X483589Y158055D01*
X484901Y157211D01*
X484901Y155524D01*
X482277Y153836D01*
X478340Y158055D02*
X483589Y158055D01*
X492775Y153836D02*
X492775Y154680D01*
X500649Y160586D02*
X503274Y162273D01*
X505899Y162273D01*
X508523Y160586D01*
X508523Y155524D01*
X505899Y153836D01*
X503274Y153836D01*
X500649Y155524D01*
X500649Y160586D01*
X508523Y160586D02*
X500649Y155524D01*
X512460Y160586D02*
X515085Y162273D01*
X517710Y162273D01*
X520334Y160586D01*
X520334Y155524D01*
X517710Y153836D01*
X515085Y153836D01*
X512460Y155524D01*
X512460Y160586D01*
X520334Y160586D02*
X512460Y155524D01*
X524271Y160586D02*
X526896Y162273D01*
X529521Y162273D01*
X532145Y160586D01*
X532145Y155524D01*
X529521Y153836D01*
X526896Y153836D01*
X524271Y155524D01*
X524271Y160586D01*
X532145Y160586D02*
X524271Y155524D01*
X536082Y160586D02*
X538707Y162273D01*
X541332Y162273D01*
X543956Y160586D01*
X543956Y155524D01*
X541332Y153836D01*
X538707Y153836D01*
X536082Y155524D01*
X536082Y160586D01*
X543956Y160586D02*
X536082Y155524D01*
X547893Y160586D02*
X550518Y162273D01*
X553143Y162273D01*
X555767Y160586D01*
X555767Y155524D01*
X553143Y153836D01*
X550518Y153836D01*
X547893Y155524D01*
X547893Y160586D01*
X555767Y160586D02*
X547893Y155524D01*
X607342Y157211D02*
X599468Y157211D01*
X606030Y162273D01*
X606030Y153836D01*
X604718Y153836D02*
X607342Y153836D01*
X619153Y157211D02*
X611279Y157211D01*
X617841Y162273D01*
X617841Y153836D01*
X616529Y153836D02*
X619153Y153836D01*
X680571Y153836D02*
X680571Y162273D01*
X685820Y162273D01*
X688445Y160586D01*
X688445Y159742D01*
X685820Y158055D01*
X680571Y158055D01*
X696319Y153836D02*
X696319Y162273D01*
X692382Y162273D02*
X700256Y162273D01*
X704193Y153836D02*
X704193Y162273D01*
X712067Y153836D02*
X712067Y162273D01*
X704193Y158055D02*
X712067Y158055D01*
X749862Y160586D02*
X752487Y162273D01*
X755111Y162273D01*
X757736Y160586D01*
X757736Y155524D01*
X755111Y153836D01*
X752487Y153836D01*
X749862Y155524D01*
X749862Y160586D01*
X757736Y160586D02*
X749862Y155524D01*
X780046Y153836D02*
X778733Y153836D01*
X776109Y155524D01*
X776109Y160586D01*
X778733Y162273D01*
X780046Y162273D01*
X785295Y153836D02*
X785295Y162273D01*
X790544Y162273D01*
X793169Y160586D01*
X793169Y159742D01*
X790544Y158055D01*
X785295Y158055D01*
X786607Y158055D02*
X793169Y153836D01*
X797106Y155524D02*
X799731Y153836D01*
X802355Y153836D01*
X804980Y155524D01*
X804980Y160586D01*
X802355Y162273D01*
X799731Y162273D01*
X797106Y160586D01*
X797106Y155524D01*
X808917Y162273D02*
X808917Y155524D01*
X811542Y153836D01*
X814166Y153836D01*
X816791Y155524D01*
X816791Y162273D01*
X820728Y153836D02*
X820728Y162273D01*
X828602Y153836D01*
X828602Y162273D01*
X832539Y153836D02*
X837788Y153836D01*
X840413Y155524D01*
X840413Y160586D01*
X837788Y162273D01*
X832539Y162273D01*
X833851Y162273D02*
X833851Y153836D01*
X845662Y162273D02*
X846975Y162273D01*
X849599Y160586D01*
X849599Y155524D01*
X846975Y153836D01*
X845662Y153836D01*
X466529Y177571D02*
X467841Y178415D01*
X470466Y178415D01*
X473090Y176727D01*
X473090Y175040D01*
X471778Y174196D01*
X473090Y173353D01*
X473090Y171665D01*
X470466Y169978D01*
X467841Y169978D01*
X466529Y170822D01*
X467841Y174196D02*
X471778Y174196D01*
X483589Y178415D02*
X479652Y178415D01*
X477027Y176727D01*
X477027Y173353D01*
X477027Y171665D01*
X479652Y169978D01*
X482277Y169978D01*
X484901Y171665D01*
X484901Y173353D01*
X482277Y175040D01*
X479652Y175040D01*
X477027Y173353D01*
X492775Y169978D02*
X492775Y170822D01*
X500649Y176727D02*
X503274Y178415D01*
X505899Y178415D01*
X508523Y176727D01*
X508523Y171665D01*
X505899Y169978D01*
X503274Y169978D01*
X500649Y171665D01*
X500649Y176727D01*
X508523Y176727D02*
X500649Y171665D01*
X512460Y176727D02*
X515085Y178415D01*
X517710Y178415D01*
X520334Y176727D01*
X520334Y171665D01*
X517710Y169978D01*
X515085Y169978D01*
X512460Y171665D01*
X512460Y176727D01*
X520334Y176727D02*
X512460Y171665D01*
X524271Y176727D02*
X526896Y178415D01*
X529521Y178415D01*
X532145Y176727D01*
X532145Y171665D01*
X529521Y169978D01*
X526896Y169978D01*
X524271Y171665D01*
X524271Y176727D01*
X532145Y176727D02*
X524271Y171665D01*
X536082Y176727D02*
X538707Y178415D01*
X541332Y178415D01*
X543956Y176727D01*
X543956Y171665D01*
X541332Y169978D01*
X538707Y169978D01*
X536082Y171665D01*
X536082Y176727D01*
X543956Y176727D02*
X536082Y171665D01*
X547893Y176727D02*
X550518Y178415D01*
X553143Y178415D01*
X555767Y176727D01*
X555767Y171665D01*
X553143Y169978D01*
X550518Y169978D01*
X547893Y171665D01*
X547893Y176727D01*
X555767Y176727D02*
X547893Y171665D01*
X610623Y169978D02*
X607998Y169978D01*
X605374Y171665D01*
X605374Y173353D01*
X606686Y174196D01*
X605374Y175040D01*
X605374Y176727D01*
X607998Y178415D01*
X610623Y178415D01*
X613248Y176727D01*
X613248Y175040D01*
X611935Y174196D01*
X613248Y173353D01*
X613248Y171665D01*
X610623Y169978D01*
X606686Y174196D02*
X611935Y174196D01*
X680571Y169978D02*
X680571Y178415D01*
X685820Y178415D01*
X688445Y176727D01*
X688445Y175884D01*
X685820Y174196D01*
X680571Y174196D01*
X696319Y169978D02*
X696319Y178415D01*
X692382Y178415D02*
X700256Y178415D01*
X704193Y169978D02*
X704193Y178415D01*
X712067Y169978D02*
X712067Y178415D01*
X704193Y174196D02*
X712067Y174196D01*
X749862Y176727D02*
X752487Y178415D01*
X755111Y178415D01*
X757736Y176727D01*
X757736Y171665D01*
X755111Y169978D01*
X752487Y169978D01*
X749862Y171665D01*
X749862Y176727D01*
X757736Y176727D02*
X749862Y171665D01*
X780046Y169978D02*
X778733Y169978D01*
X776109Y171665D01*
X776109Y176727D01*
X778733Y178415D01*
X780046Y178415D01*
X785295Y169978D02*
X785295Y178415D01*
X790544Y178415D01*
X793169Y176727D01*
X793169Y175884D01*
X790544Y174196D01*
X785295Y174196D01*
X786607Y174196D02*
X793169Y169978D01*
X797106Y171665D02*
X799731Y169978D01*
X802355Y169978D01*
X804980Y171665D01*
X804980Y176727D01*
X802355Y178415D01*
X799731Y178415D01*
X797106Y176727D01*
X797106Y171665D01*
X808917Y178415D02*
X808917Y171665D01*
X811542Y169978D01*
X814166Y169978D01*
X816791Y171665D01*
X816791Y178415D01*
X820728Y169978D02*
X820728Y178415D01*
X828602Y169978D01*
X828602Y178415D01*
X832539Y169978D02*
X837788Y169978D01*
X840413Y171665D01*
X840413Y176727D01*
X837788Y178415D01*
X832539Y178415D01*
X833851Y178415D02*
X833851Y169978D01*
X845662Y178415D02*
X846975Y178415D01*
X849599Y176727D01*
X849599Y171665D01*
X846975Y169978D01*
X845662Y169978D01*
G04 ColorRGB 00FFFF for the following layer *
%LNBoard Outline*%
%LPD*%
G54D10*
G54D13*
X-500Y1575D02*
X294776Y1575D01*
X294776Y216535D01*
X-500Y216535D01*
X-500Y1575D01*
G54D14*
X-10557Y-8589D02*
X-10557Y15058D01*
X-10557Y-8589D02*
X21082Y-8589D01*
X305833Y-8589D02*
X274194Y-8589D01*
X305833Y-8589D02*
X305833Y15058D01*
X305833Y227880D02*
X305833Y204233D01*
X305833Y227880D02*
X274194Y227880D01*
X-10557Y227880D02*
X21082Y227880D01*
X-10557Y227880D02*
X-10557Y204233D01*
X-30243Y-8589D02*
X-69613Y-8589D01*
X-49928Y-28274D02*
X-49928Y11096D01*
X-64691Y-8589D02*
G75*
D01*
G02X-64691Y-8589I14763J0*
G01*
X325518Y-8589D02*
X364888Y-8589D01*
X345203Y-28274D02*
X345203Y11096D01*
X330439Y-8589D02*
G75*
D01*
G02X330439Y-8589I14764J0*
G01*
X340282Y-8589D02*
G75*
D01*
G02X340282Y-8589I4921J0*
G01*
X-30243Y227880D02*
X-69613Y227880D01*
X-49928Y208195D02*
X-49928Y247565D01*
X-64691Y227880D02*
G75*
D01*
G02X-64691Y227880I14763J0*
G01*
X-59770Y227880D02*
G75*
D01*
G02X-59770Y227880I9842J0*
G01*
X-54849Y227880D02*
G75*
D01*
G02X-54849Y227880I4921J0*
G01*
G04 ColorRGB 66FFCC for the following layer *
%LNLegend Description*%
%LPD*%
G54D12*
X386542Y132998D02*
X868825Y132998D01*
X868825Y229849D01*
X386542Y229849D01*
X386542Y132998D01*
X461739Y197565D02*
X461739Y132998D01*
X560557Y197565D02*
X560557Y132998D01*
X659376Y197565D02*
X659376Y132998D01*
X734573Y197565D02*
X734573Y132998D01*
X868825Y197565D02*
X868825Y132998D01*
X386542Y149140D02*
X868825Y149140D01*
X386542Y165282D02*
X868825Y165282D01*
X390019Y187807D02*
X392644Y186120D01*
X395269Y186120D01*
X397893Y187807D01*
X390019Y192869D01*
X392644Y194556D01*
X395269Y194556D01*
X397893Y192869D01*
X401830Y183589D02*
X403143Y183589D01*
X409704Y192025D01*
X401830Y192025D02*
X405767Y186964D01*
X413641Y186120D02*
X413641Y191182D01*
X413641Y192025D01*
X413641Y191182D02*
X414954Y192025D01*
X416266Y192025D01*
X417578Y191182D01*
X418891Y192025D01*
X420203Y192025D01*
X421515Y191182D01*
X421515Y186120D01*
X417578Y191182D02*
X417578Y186120D01*
X425452Y187807D02*
X428077Y186120D01*
X430702Y186120D01*
X433327Y187807D01*
X433327Y189494D01*
X430702Y191182D01*
X428077Y191182D01*
X425452Y189494D01*
X425452Y194556D02*
X425452Y186120D01*
X437264Y187807D02*
X439888Y186120D01*
X442513Y186120D01*
X445138Y187807D01*
X445138Y190338D01*
X442513Y192025D01*
X439888Y192025D01*
X437264Y190338D01*
X437264Y187807D01*
X450387Y194556D02*
X450387Y187807D01*
X453012Y186120D01*
X386542Y181424D02*
X868825Y181424D01*
X488838Y187807D02*
X491463Y186120D01*
X494088Y186120D01*
X496712Y187807D01*
X488838Y192869D01*
X491463Y194556D01*
X494088Y194556D01*
X496712Y192869D01*
X504586Y186120D02*
X504586Y191182D01*
X504586Y192869D02*
X504586Y193713D01*
X512460Y192025D02*
X520334Y192025D01*
X512460Y186120D01*
X520334Y186120D01*
X532145Y187807D02*
X529521Y186120D01*
X526896Y186120D01*
X524271Y187807D01*
X524271Y190338D01*
X526896Y192025D01*
X529521Y192025D01*
X532145Y190338D01*
X530833Y189494D01*
X524271Y189494D01*
X564035Y187807D02*
X566660Y186120D01*
X569285Y186120D01*
X571909Y187807D01*
X571909Y192869D01*
X569285Y194556D01*
X566660Y194556D01*
X564035Y192869D01*
X564035Y187807D01*
X569285Y187807D02*
X571909Y186120D01*
X575846Y192025D02*
X575846Y187807D01*
X578471Y186120D01*
X581096Y186120D01*
X583720Y187807D01*
X583720Y192025D01*
X583720Y187807D02*
X583720Y186120D01*
X588970Y192025D02*
X592907Y192025D01*
X594219Y191182D01*
X594219Y186964D01*
X592907Y186120D01*
X588970Y186120D01*
X587657Y186964D01*
X587657Y188651D01*
X588970Y189494D01*
X594219Y189494D01*
X594219Y186964D02*
X595531Y186120D01*
X599468Y186120D02*
X599468Y191182D01*
X599468Y192025D01*
X599468Y191182D02*
X600781Y192025D01*
X603405Y192025D01*
X604718Y191182D01*
X604718Y186120D01*
X617841Y186964D02*
X616529Y186120D01*
X615216Y186964D01*
X615216Y194556D01*
X612592Y192025D02*
X617841Y192025D01*
X627027Y186120D02*
X627027Y191182D01*
X627027Y192869D02*
X627027Y193713D01*
X641463Y186964D02*
X640151Y186120D01*
X638838Y186964D01*
X638838Y194556D01*
X636214Y192025D02*
X641463Y192025D01*
X646712Y183589D02*
X648025Y183589D01*
X654586Y192025D01*
X646712Y192025D02*
X650649Y186964D01*
X662854Y186120D02*
X662854Y194556D01*
X668103Y194556D01*
X670728Y192869D01*
X670728Y192025D01*
X668103Y190338D01*
X662854Y190338D01*
X675977Y194556D02*
X675977Y187807D01*
X678602Y186120D01*
X687788Y192025D02*
X691725Y192025D01*
X693038Y191182D01*
X693038Y186964D01*
X691725Y186120D01*
X687788Y186120D01*
X686476Y186964D01*
X686476Y188651D01*
X687788Y189494D01*
X693038Y189494D01*
X693038Y186964D02*
X694350Y186120D01*
X704849Y186964D02*
X703536Y186120D01*
X702224Y186964D01*
X702224Y194556D01*
X699599Y192025D02*
X704849Y192025D01*
X717972Y187807D02*
X715348Y186120D01*
X712723Y186120D01*
X710098Y187807D01*
X710098Y190338D01*
X712723Y192025D01*
X715348Y192025D01*
X717972Y190338D01*
X716660Y189494D01*
X710098Y189494D01*
X729783Y187807D02*
X727159Y186120D01*
X724534Y186120D01*
X721909Y187807D01*
X721909Y189494D01*
X724534Y191182D01*
X727159Y191182D01*
X729783Y189494D01*
X729783Y194556D02*
X729783Y186120D01*
X738051Y187807D02*
X740676Y186120D01*
X743300Y186120D01*
X745925Y187807D01*
X738051Y192869D01*
X740676Y194556D01*
X743300Y194556D01*
X745925Y192869D01*
X751174Y194556D02*
X751174Y187807D01*
X753799Y186120D01*
X761673Y187807D02*
X764298Y186120D01*
X766922Y186120D01*
X769547Y187807D01*
X769547Y190338D01*
X766922Y192025D01*
X764298Y192025D01*
X761673Y190338D01*
X761673Y187807D01*
X780046Y186964D02*
X778733Y186120D01*
X777421Y186964D01*
X777421Y194556D01*
X774796Y192025D02*
X780046Y192025D01*
X797106Y194556D02*
X797106Y186120D01*
X804980Y186120D01*
X816791Y187807D02*
X814166Y186120D01*
X811542Y186120D01*
X808917Y187807D01*
X808917Y190338D01*
X811542Y192025D01*
X814166Y192025D01*
X816791Y190338D01*
X815479Y189494D01*
X808917Y189494D01*
X820728Y186120D02*
X820728Y191182D01*
X820728Y192025D01*
X820728Y191182D02*
X822040Y192025D01*
X824665Y192025D01*
X825977Y191182D01*
X825977Y186120D01*
X832539Y185276D02*
X835164Y183589D01*
X837788Y183589D01*
X840413Y185276D01*
X840413Y187807D01*
X840413Y190338D01*
X837788Y192025D01*
X835164Y192025D01*
X832539Y190338D01*
X832539Y187807D01*
X835164Y186120D01*
X837788Y186120D01*
X840413Y187807D01*
X850912Y186964D02*
X849599Y186120D01*
X848287Y186964D01*
X848287Y194556D01*
X845662Y192025D02*
X850912Y192025D01*
X856161Y190338D02*
X858786Y192025D01*
X861410Y192025D01*
X864035Y190338D01*
X864035Y186120D01*
X856161Y194556D02*
X856161Y186120D01*
X386542Y197565D02*
X868825Y197565D01*
X510886Y202262D02*
X510886Y207324D01*
X513510Y210698D01*
X516135Y210698D01*
X518760Y207324D01*
X518760Y202262D01*
X510886Y204793D02*
X518760Y204793D01*
X524009Y210698D02*
X524009Y203949D01*
X526634Y202262D01*
X535820Y210698D02*
X535820Y203949D01*
X538445Y202262D01*
X558130Y208167D02*
X558130Y203949D01*
X560754Y202262D01*
X563379Y202262D01*
X566004Y203949D01*
X566004Y208167D01*
X566004Y203949D02*
X566004Y202262D01*
X569941Y202262D02*
X569941Y207324D01*
X569941Y208167D01*
X569941Y207324D02*
X571253Y208167D01*
X573878Y208167D01*
X575190Y207324D01*
X575190Y202262D01*
X585689Y202262D02*
X585689Y207324D01*
X585689Y209011D02*
X585689Y209854D01*
X600124Y203105D02*
X598812Y202262D01*
X597500Y203105D01*
X597500Y210698D01*
X594875Y208167D02*
X600124Y208167D01*
X605374Y203949D02*
X607998Y202262D01*
X610623Y202262D01*
X613248Y203949D01*
X605374Y206480D01*
X607998Y208167D01*
X610623Y208167D01*
X613248Y206480D01*
X630308Y208167D02*
X634245Y208167D01*
X635557Y207324D01*
X635557Y203105D01*
X634245Y202262D01*
X630308Y202262D01*
X628996Y203105D01*
X628996Y204793D01*
X630308Y205636D01*
X635557Y205636D01*
X635557Y203105D02*
X636870Y202262D01*
X640807Y205636D02*
X644744Y208167D01*
X646056Y208167D01*
X648681Y206480D01*
X640807Y202262D02*
X640807Y208167D01*
X660492Y203949D02*
X657867Y202262D01*
X655243Y202262D01*
X652618Y203949D01*
X652618Y206480D01*
X655243Y208167D01*
X657867Y208167D01*
X660492Y206480D01*
X659180Y205636D01*
X652618Y205636D01*
X680177Y202262D02*
X680177Y207324D01*
X680177Y209011D02*
X680177Y209854D01*
X688051Y202262D02*
X688051Y207324D01*
X688051Y208167D01*
X688051Y207324D02*
X689363Y208167D01*
X691988Y208167D01*
X693300Y207324D01*
X693300Y202262D01*
X711673Y202262D02*
X711673Y207324D01*
X711673Y208167D01*
X711673Y207324D02*
X712985Y208167D01*
X714298Y208167D01*
X715610Y207324D01*
X716922Y208167D01*
X718235Y208167D01*
X719547Y207324D01*
X719547Y202262D01*
X715610Y207324D02*
X715610Y202262D01*
X727421Y202262D02*
X727421Y207324D01*
X727421Y209011D02*
X727421Y209854D01*
X736607Y210698D02*
X736607Y203949D01*
X739232Y202262D01*
X386542Y213707D02*
X868825Y213707D01*
X558130Y218403D02*
X563379Y218403D01*
X566004Y220091D01*
X566004Y225153D01*
X563379Y226840D01*
X558130Y226840D01*
X559442Y226840D02*
X559442Y218403D01*
X569941Y221778D02*
X573878Y224309D01*
X575190Y224309D01*
X577815Y222622D01*
X569941Y218403D02*
X569941Y224309D01*
X585689Y218403D02*
X585689Y223465D01*
X585689Y225153D02*
X585689Y225996D01*
X594875Y226840D02*
X594875Y220091D01*
X597500Y218403D01*
X606686Y226840D02*
X606686Y220091D01*
X609311Y218403D01*
X628996Y226840D02*
X628996Y218403D01*
X636870Y218403D01*
X648681Y220091D02*
X646056Y218403D01*
X643431Y218403D01*
X640807Y220091D01*
X640807Y222622D01*
X643431Y224309D01*
X646056Y224309D01*
X648681Y222622D01*
X647369Y221778D01*
X640807Y221778D01*
X652618Y217560D02*
X655243Y215872D01*
X657867Y215872D01*
X660492Y217560D01*
X660492Y220091D01*
X660492Y222622D01*
X657867Y224309D01*
X655243Y224309D01*
X652618Y222622D01*
X652618Y220091D01*
X655243Y218403D01*
X657867Y218403D01*
X660492Y220091D01*
X672303Y220091D02*
X669678Y218403D01*
X667054Y218403D01*
X664429Y220091D01*
X664429Y222622D01*
X667054Y224309D01*
X669678Y224309D01*
X672303Y222622D01*
X670991Y221778D01*
X664429Y221778D01*
X676240Y218403D02*
X676240Y223465D01*
X676240Y224309D01*
X676240Y223465D02*
X677552Y224309D01*
X680177Y224309D01*
X681489Y223465D01*
X681489Y218403D01*
X695925Y220091D02*
X693300Y218403D01*
X690676Y218403D01*
X688051Y220091D01*
X688051Y221778D01*
X690676Y223465D01*
X693300Y223465D01*
X695925Y221778D01*
X695925Y226840D02*
X695925Y218403D01*

M02*
