G04 Generated by Ultiboard 13.0 *
%FSLAX25Y25*%
%MOIN*%

%ADD10C,0.00001*%
%ADD11C,0.01000*%
%ADD12C,0.02000*%
%ADD13C,0.03000*%
%ADD14C,0.00500*%
%ADD15C,0.08000*%
%ADD16R,0.00984X0.04724*%
%ADD17C,0.15748*%
%ADD18R,0.04000X0.05000*%
%ADD19R,0.05000X0.04000*%
%ADD20C,0.07000*%
%ADD21R,0.04083X0.04083*%
%ADD22C,0.03917*%
%ADD23R,0.04500X0.04500*%
%ADD24C,0.03500*%


G04 ColorRGB 0000FF for the following layer *
%LNCopper Bottom*%
%LPD*%
G54D10*
G54D11*
X132631Y147631D02*
X130000Y145000D01*
X132631Y157435D02*
X132631Y147631D01*
X142631Y145631D02*
X140000Y143000D01*
X142631Y157435D02*
X142631Y145631D01*
X152631Y143631D02*
X150000Y141000D01*
X152631Y157435D02*
X152631Y143631D01*
X162631Y141631D02*
X160000Y139000D01*
X162631Y157435D02*
X162631Y141631D01*
X150000Y141000D02*
X117000Y141000D01*
X122000Y137000D02*
X119839Y134839D01*
X160000Y139000D02*
X120000Y139000D01*
X112000Y145000D02*
X109602Y142602D01*
X130000Y145000D02*
X112000Y145000D01*
X140000Y143000D02*
X114000Y143000D01*
X172631Y139631D02*
X170000Y137000D01*
X122000Y137000D01*
X172631Y157435D02*
X172631Y139631D01*
X182631Y137631D02*
X180000Y135000D01*
X182631Y157435D02*
X182631Y137631D01*
X180000Y135000D02*
X125000Y135000D01*
X192631Y135631D02*
X192631Y157435D01*
X190000Y133000D02*
X192631Y135631D01*
X128000Y133000D02*
X190000Y133000D01*
X197000Y131000D02*
X200000Y134000D01*
X202000Y132000D02*
X199000Y129000D01*
X162631Y167435D02*
X163000Y167803D01*
X109602Y107417D02*
X109602Y142602D01*
X114720Y107417D02*
X114720Y138720D01*
X117000Y141000D02*
X114720Y138720D01*
X119839Y107417D02*
X119839Y134839D01*
X124957Y107417D02*
X124957Y129957D01*
X128000Y133000D01*
X122398Y107417D02*
X122398Y132398D01*
X125000Y135000D01*
X117280Y107417D02*
X117280Y136280D01*
X120000Y139000D01*
X112161Y107417D02*
X112161Y141161D01*
X114000Y143000D01*
X172631Y167435D02*
X172631Y174631D01*
X200000Y175000D02*
X202000Y173000D01*
X202000Y132000D02*
X202000Y173000D01*
X175000Y177000D02*
X172631Y174631D01*
X172000Y131000D02*
X197000Y131000D01*
X175000Y129000D02*
X199000Y129000D01*
X197565Y167435D02*
X200000Y165000D01*
X200000Y134000D01*
X192631Y167435D02*
X197565Y167435D01*
X182631Y172631D02*
X185000Y175000D01*
X200000Y175000D01*
X182631Y167435D02*
X182631Y172631D01*
X163000Y177000D02*
X165000Y179000D01*
X163000Y167803D02*
X163000Y177000D01*
X152631Y178631D02*
X155000Y181000D01*
X152631Y167435D02*
X152631Y178631D01*
X142631Y180631D02*
X145000Y183000D01*
X142631Y167435D02*
X142631Y180631D01*
X132631Y182631D02*
X135000Y185000D01*
X132631Y167435D02*
X132631Y182631D01*
X204000Y175000D02*
X202000Y177000D01*
X175000Y177000D01*
X201000Y127000D02*
X204000Y130000D01*
X204000Y175000D01*
X178000Y127000D02*
X201000Y127000D01*
X180000Y125000D02*
X203000Y125000D01*
X206000Y128000D02*
X203000Y125000D01*
X182000Y123000D02*
X205000Y123000D01*
X208000Y126000D02*
X205000Y123000D01*
X204000Y179000D02*
X206000Y177000D01*
X206000Y128000D01*
X165000Y179000D02*
X204000Y179000D01*
X206000Y181000D02*
X208000Y179000D01*
X155000Y181000D02*
X206000Y181000D01*
X208000Y179000D02*
X208000Y126000D01*
X208000Y183000D02*
X210000Y181000D01*
X145000Y183000D02*
X208000Y183000D01*
X210000Y123000D02*
X208000Y121000D01*
X185000Y121000D02*
X208000Y121000D01*
X210000Y181000D02*
X210000Y123000D01*
X135000Y185000D02*
X209000Y185000D01*
X212000Y182000D02*
X212000Y121000D01*
X209000Y185000D02*
X212000Y182000D01*
X212000Y121000D02*
X210000Y119000D01*
X187000Y119000D01*
X117280Y20280D02*
X113937Y16937D01*
X117280Y84583D02*
X117280Y20280D01*
X113937Y16937D02*
X113937Y9843D01*
X119839Y20161D02*
X123937Y16063D01*
X119839Y84583D02*
X119839Y20161D01*
X123937Y16063D02*
X123937Y9843D01*
X112000Y21000D02*
X114720Y23720D01*
X114720Y84583D01*
X103937Y18937D02*
X106000Y21000D01*
X112000Y21000D01*
X103937Y9843D02*
X103937Y18937D01*
X112161Y28161D02*
X112161Y84583D01*
X108000Y24000D02*
X112161Y28161D01*
X109602Y32602D02*
X109602Y84583D01*
X109602Y32602D02*
X106000Y29000D01*
X93937Y20937D02*
X97000Y24000D01*
X93937Y9843D02*
X93937Y20937D01*
X97000Y24000D02*
X108000Y24000D01*
X87000Y29000D02*
X83937Y25937D01*
X106000Y29000D02*
X87000Y29000D01*
X83937Y25937D02*
X83937Y9843D01*
X133937Y9843D02*
X133937Y19063D01*
X132000Y21000D01*
X125000Y21000D02*
X122398Y23602D01*
X122398Y84583D01*
X132000Y21000D02*
X125000Y21000D01*
X143937Y9843D02*
X143937Y22063D01*
X141000Y25000D01*
X129000Y25000D01*
X124957Y29043D01*
X124957Y84583D01*
X173720Y84583D02*
X173720Y10059D01*
X173937Y9843D01*
X187000Y119000D02*
X183957Y115957D01*
X183957Y107417D01*
X185000Y121000D02*
X181398Y117398D01*
X181398Y107417D01*
X182000Y123000D02*
X178839Y119839D01*
X178839Y107417D01*
X180000Y125000D02*
X176280Y121280D01*
X176280Y107417D01*
X168602Y107417D02*
X168602Y127602D01*
X172000Y131000D01*
X171161Y107417D02*
X171161Y125161D01*
X175000Y129000D01*
X173720Y107417D02*
X173720Y122720D01*
X178000Y127000D01*
X163937Y16937D02*
X171161Y24161D01*
X171161Y84583D02*
X171161Y24161D01*
X163937Y9843D02*
X163937Y16937D01*
X183937Y16063D02*
X176280Y23720D01*
X176280Y84583D01*
X183937Y9843D02*
X183937Y16063D01*
X153937Y9843D02*
X153937Y19937D01*
X168602Y25602D02*
X168602Y84583D01*
X157000Y23000D02*
X166000Y23000D01*
X153937Y19937D02*
X157000Y23000D01*
X166000Y23000D02*
X168602Y25602D01*
X178839Y26161D02*
X182000Y23000D01*
X178839Y84583D02*
X178839Y26161D01*
X191000Y23000D02*
X193937Y20063D01*
X182000Y23000D02*
X191000Y23000D01*
X193937Y20063D02*
X193937Y9843D01*
X181398Y27602D02*
X184000Y25000D01*
X181398Y84583D02*
X181398Y27602D01*
X200000Y25000D02*
X203937Y21063D01*
X184000Y25000D02*
X200000Y25000D01*
X203937Y21063D02*
X203937Y9843D01*
X213937Y24063D02*
X213937Y9843D01*
X211000Y27000D02*
X213937Y24063D01*
X183957Y30043D02*
X187000Y27000D01*
X211000Y27000D02*
X187000Y27000D01*
X183957Y84583D02*
X183957Y30043D01*
X127516Y107417D02*
X127516Y111516D01*
X129000Y113000D01*
X136000Y113000D01*
X186516Y107417D02*
X186516Y111516D01*
X188000Y113000D01*
X194000Y113000D02*
X188000Y113000D01*
G54D12*
X158000Y115000D02*
X157000Y114000D01*
X157000Y109800D01*
X147000Y104000D02*
X145000Y102000D01*
X107043Y107417D02*
X107043Y102043D01*
X99800Y102000D02*
X98800Y103000D01*
X145000Y102000D02*
X99800Y102000D01*
X107043Y79043D02*
X107043Y84583D01*
X107043Y79043D02*
X106000Y78000D01*
X100000Y78000D01*
X127516Y84583D02*
X127516Y90000D01*
X186516Y95516D02*
X187000Y96000D01*
X186516Y84583D02*
X186516Y90000D01*
X166043Y84583D02*
X166043Y79043D01*
X165000Y78000D01*
X159000Y78000D01*
X99000Y69000D02*
X99000Y87900D01*
X158000Y69000D02*
X158000Y88800D01*
X166043Y102957D02*
X168000Y101000D01*
X166043Y112957D02*
X164000Y115000D01*
X166043Y102957D02*
X166043Y112957D01*
X73937Y9843D02*
X73937Y28937D01*
X77000Y32000D01*
X85000Y32000D02*
X88087Y35087D01*
X77000Y32000D02*
X85000Y32000D01*
X88087Y35087D02*
X88087Y48559D01*
X101000Y147000D02*
X98800Y144800D01*
X98800Y103000D02*
X98800Y144800D01*
X112631Y149631D02*
X110000Y147000D01*
X101000Y147000D01*
X112631Y157435D02*
X112631Y149631D01*
X149000Y115000D02*
X147000Y113000D01*
X149000Y115000D02*
X164000Y115000D01*
X147000Y113000D02*
X147000Y104000D01*
X168000Y101000D02*
X247000Y101000D01*
X247000Y101000D02*
X253000Y95000D01*
X253000Y52000D01*
G54D13*
X150100Y89000D02*
X150100Y94900D01*
X149000Y96000D01*
X157000Y102100D02*
X157000Y96000D01*
X127516Y90000D02*
X127516Y95516D01*
X186516Y90000D02*
X186516Y95516D01*
X73913Y48559D02*
X64378Y48559D01*
X91100Y107000D02*
X91100Y88100D01*
X234000Y90000D02*
X228000Y96000D01*
X127516Y96000D02*
X228000Y96000D01*
X243937Y31063D02*
X234000Y41000D01*
X234000Y90000D01*
X243937Y9843D02*
X243937Y31063D01*
X71435Y157435D02*
X102631Y157435D01*
X83000Y146000D02*
X83000Y157435D01*
X65000Y96000D02*
X127516Y96000D01*
X63937Y9843D02*
X63937Y149937D01*
X71435Y157435D01*
G54D14*
X-10557Y-8589D02*
X-10557Y15058D01*
X-10557Y-8589D02*
X21082Y-8589D01*
X305833Y-8589D02*
X274194Y-8589D01*
X305833Y-8589D02*
X305833Y15058D01*
X305833Y227880D02*
X305833Y204233D01*
X305833Y227880D02*
X274194Y227880D01*
X-10557Y227880D02*
X21082Y227880D01*
X-10557Y227880D02*
X-10557Y204233D01*
X-30243Y-8589D02*
X-69613Y-8589D01*
X-49928Y-28274D02*
X-49928Y11096D01*
X-64691Y-8589D02*
G75*
D01*
G02X-64691Y-8589I14763J0*
G01*
X325518Y-8589D02*
X364888Y-8589D01*
X345203Y-28274D02*
X345203Y11096D01*
X330439Y-8589D02*
G75*
D01*
G02X330439Y-8589I14764J0*
G01*
X340282Y-8589D02*
G75*
D01*
G02X340282Y-8589I4921J0*
G01*
X-30243Y227880D02*
X-69613Y227880D01*
X-49928Y208195D02*
X-49928Y247565D01*
X-64691Y227880D02*
G75*
D01*
G02X-64691Y227880I14763J0*
G01*
X-59770Y227880D02*
G75*
D01*
G02X-59770Y227880I9842J0*
G01*
X-54849Y227880D02*
G75*
D01*
G02X-54849Y227880I4921J0*
G01*
G54D15*
X99000Y69000D03*
X158000Y69000D03*
X136000Y113000D03*
X194000Y113000D03*
X215000Y52000D03*
X234000Y52000D03*
X253000Y52000D03*
X272000Y52000D03*
X132631Y157435D03*
X142631Y157435D03*
X152631Y157435D03*
X162631Y157435D03*
X172631Y157435D03*
X182631Y157435D03*
X192631Y157435D03*
X112631Y157435D03*
X162631Y167435D03*
X172631Y167435D03*
X182631Y167435D03*
X142631Y167435D03*
X152631Y167435D03*
X132631Y167435D03*
X112631Y167435D03*
X122631Y167435D03*
X102631Y167435D03*
X122631Y157435D03*
X102631Y157435D03*
X133937Y9843D03*
X143937Y9843D03*
X153937Y9843D03*
X163937Y9843D03*
X173937Y9843D03*
X183937Y9843D03*
X193937Y9843D03*
X203937Y9843D03*
X213937Y9843D03*
X223937Y9843D03*
X233937Y9843D03*
X243937Y9843D03*
X63937Y9843D03*
X123937Y9843D03*
X93937Y9843D03*
X73937Y9843D03*
X83937Y9843D03*
X113937Y9843D03*
X103937Y9843D03*
X83000Y146000D03*
G54D16*
X163484Y84583D03*
X166043Y84583D03*
X168602Y84583D03*
X171161Y84583D03*
X173720Y84583D03*
X176280Y84583D03*
X178839Y84583D03*
X181398Y84583D03*
X183957Y84583D03*
X186516Y84583D03*
X163484Y107417D03*
X166043Y107417D03*
X171161Y107417D03*
X168602Y107417D03*
X173720Y107417D03*
X178839Y107417D03*
X181398Y107417D03*
X176280Y107417D03*
X186516Y107417D03*
X183957Y107417D03*
X104484Y84583D03*
X107043Y84583D03*
X109602Y84583D03*
X112161Y84583D03*
X114720Y84583D03*
X117280Y84583D03*
X119839Y84583D03*
X122398Y84583D03*
X124957Y84583D03*
X127516Y84583D03*
X109602Y107417D03*
X104484Y107417D03*
X107043Y107417D03*
X117280Y107417D03*
X112161Y107417D03*
X114720Y107417D03*
X124957Y107417D03*
X119839Y107417D03*
X122398Y107417D03*
X127516Y107417D03*
G54D17*
X9843Y207480D03*
X285433Y207480D03*
X9843Y11811D03*
X285433Y11811D03*
G54D18*
X150100Y89000D03*
X157800Y89000D03*
X91200Y88000D03*
X98900Y88000D03*
X91100Y107000D03*
X98800Y107000D03*
G54D19*
X157000Y102100D03*
X157000Y109800D03*
G54D20*
X81000Y43441D03*
X73913Y48559D03*
X88087Y48559D03*
G54D21*
X192631Y167435D03*
G54D22*
X190590Y165394D02*
X194672Y165394D01*
X194672Y169476D01*
X190590Y169476D01*
X190590Y165394D01*D02*
G54D23*
X53937Y9843D03*
G54D24*
X51687Y7593D02*
X56187Y7593D01*
X56187Y12093D01*
X51687Y12093D01*
X51687Y7593D01*D02*

M02*
