G04 Generated by Ultiboard 13.0 *
%FSLAX25Y25*%
%MOIN*%

%ADD11C,0.03600*%
%ADD12C,0.09843*%
%ADD13C,0.03800*%


G04 ColorRGB 000000 for the following layer *
%LNDrill-Copper Top-Copper Bottom*%
%LPD*%
G54D11*
X99000Y69000D03*
X158000Y69000D03*
X136000Y113000D03*
X194000Y113000D03*
X81000Y43441D03*
X73913Y48559D03*
X88087Y48559D03*
X83000Y146000D03*
G54D12*
X9843Y207480D03*
X285433Y207480D03*
X9843Y11811D03*
X285433Y11811D03*
G54D13*
X215000Y52000D03*
X234000Y52000D03*
X253000Y52000D03*
X272000Y52000D03*
X132631Y157435D03*
X142631Y157435D03*
X152631Y157435D03*
X162631Y157435D03*
X172631Y157435D03*
X182631Y157435D03*
X192631Y157435D03*
X112631Y157435D03*
X192631Y167435D03*
X162631Y167435D03*
X172631Y167435D03*
X182631Y167435D03*
X142631Y167435D03*
X152631Y167435D03*
X132631Y167435D03*
X112631Y167435D03*
X122631Y167435D03*
X102631Y167435D03*
X122631Y157435D03*
X102631Y157435D03*
X133937Y9843D03*
X143937Y9843D03*
X153937Y9843D03*
X163937Y9843D03*
X173937Y9843D03*
X183937Y9843D03*
X193937Y9843D03*
X203937Y9843D03*
X213937Y9843D03*
X223937Y9843D03*
X233937Y9843D03*
X243937Y9843D03*
X63937Y9843D03*
X123937Y9843D03*
X53937Y9843D03*
X93937Y9843D03*
X73937Y9843D03*
X83937Y9843D03*
X113937Y9843D03*
X103937Y9843D03*

M02*
