G04 Generated by Ultiboard 13.0 *
%FSLAX25Y25*%
%MOIN*%

%ADD10C,0.00001*%
%ADD11C,0.00800*%
%ADD12C,0.00667*%
%ADD13C,0.00100*%
%ADD14C,0.00500*%


G04 ColorRGB FF14FF for the following layer *
%LNSilkscreen Bottom*%
%LPD*%
G54D10*
G54D11*
X162008Y104858D02*
X187992Y104858D01*
X187992Y87142D01*
X162008Y87142D01*
X162008Y94031D02*
X162179Y94039D01*
X162350Y94061D01*
X162517Y94099D01*
X162681Y94150D01*
X162840Y94216D01*
X162992Y94295D01*
X163137Y94387D01*
X163273Y94492D01*
X163400Y94608D01*
X163516Y94735D01*
X163620Y94871D01*
X163713Y95016D01*
X163792Y95168D01*
X163858Y95327D01*
X163909Y95491D01*
X163946Y95658D01*
X163969Y95828D01*
X163976Y96000D01*
X163969Y96172D01*
X163946Y96342D01*
X163909Y96509D01*
X163858Y96673D01*
X163792Y96832D01*
X163713Y96984D01*
X163620Y97129D01*
X163516Y97265D01*
X163400Y97392D01*
X163273Y97508D01*
X163137Y97613D01*
X162992Y97705D01*
X162840Y97784D01*
X162681Y97850D01*
X162517Y97901D01*
X162350Y97939D01*
X162179Y97961D01*
X162008Y97969D01*
X162008Y87142D02*
X162008Y94031D01*
X162008Y97969D02*
X162008Y104858D01*
X103008Y104858D02*
X128992Y104858D01*
X128992Y87142D01*
X103008Y87142D01*
X103008Y94031D02*
X103179Y94039D01*
X103350Y94061D01*
X103517Y94099D01*
X103681Y94150D01*
X103840Y94216D01*
X103992Y94295D01*
X104137Y94387D01*
X104273Y94492D01*
X104400Y94608D01*
X104516Y94735D01*
X104620Y94871D01*
X104713Y95016D01*
X104792Y95168D01*
X104858Y95327D01*
X104909Y95491D01*
X104946Y95658D01*
X104969Y95828D01*
X104976Y96000D01*
X104969Y96172D01*
X104946Y96342D01*
X104909Y96509D01*
X104858Y96673D01*
X104792Y96832D01*
X104713Y96984D01*
X104620Y97129D01*
X104516Y97265D01*
X104400Y97392D01*
X104273Y97508D01*
X104137Y97613D01*
X103992Y97705D01*
X103840Y97784D01*
X103681Y97850D01*
X103517Y97901D01*
X103350Y97939D01*
X103179Y97961D01*
X103008Y97969D01*
X103008Y87142D02*
X103008Y94031D01*
X103008Y97969D02*
X103008Y104858D01*
X67220Y59780D02*
X94780Y59780D01*
X94780Y32220D01*
X67220Y32220D01*
X67220Y59780D01*
G54D12*
X129954Y83405D02*
X129954Y86834D01*
X130808Y87691D01*
X131661Y87691D01*
X132514Y86834D01*
X132514Y83405D01*
X133794Y84262D02*
X134648Y83405D01*
X135501Y83405D01*
X136354Y84262D01*
X136354Y84691D01*
X133794Y87691D01*
X136354Y87691D01*
X136354Y87262D01*
X189009Y82224D02*
X189009Y85652D01*
X189863Y86510D01*
X190716Y86510D01*
X191569Y85652D01*
X191569Y82224D01*
X193276Y82652D02*
X193703Y82224D01*
X194556Y82224D01*
X195409Y83081D01*
X195409Y83938D01*
X194983Y84367D01*
X195409Y84795D01*
X195409Y85652D01*
X194556Y86510D01*
X193703Y86510D01*
X193276Y86081D01*
X193703Y84367D02*
X194983Y84367D01*
X102135Y52766D02*
X102135Y57052D01*
X100429Y57052D01*
X99575Y56195D01*
X99575Y55766D01*
X100429Y54909D01*
X102135Y54909D01*
X101709Y54909D02*
X99575Y52766D01*
X97869Y56195D02*
X97015Y57052D01*
X97015Y52766D01*
X98295Y52766D02*
X95735Y52766D01*
X152381Y82387D02*
X153234Y81530D01*
X154088Y81530D01*
X154941Y82387D01*
X154941Y84958D01*
X154088Y85816D01*
X153234Y85816D01*
X152381Y84958D01*
X148541Y83244D02*
X151101Y83244D01*
X148968Y85816D01*
X148968Y81530D01*
X149394Y81530D02*
X148541Y81530D01*
X151381Y99387D02*
X152234Y98530D01*
X153088Y98530D01*
X153941Y99387D01*
X153941Y101958D01*
X153088Y102816D01*
X152234Y102816D01*
X151381Y101958D01*
X149674Y102387D02*
X149248Y102816D01*
X148394Y102816D01*
X147541Y101958D01*
X147541Y101101D01*
X147968Y100673D01*
X147541Y100244D01*
X147541Y99387D01*
X148394Y98530D01*
X149248Y98530D01*
X149674Y98958D01*
X149248Y100673D02*
X147968Y100673D01*
X93381Y81387D02*
X94234Y80530D01*
X95088Y80530D01*
X95941Y81387D01*
X95941Y83958D01*
X95088Y84816D01*
X94234Y84816D01*
X93381Y83958D01*
X92101Y83958D02*
X91248Y84816D01*
X90394Y84816D01*
X89541Y83958D01*
X89541Y83530D01*
X92101Y80530D01*
X89541Y80530D01*
X89541Y80958D01*
X92679Y112366D02*
X93532Y111509D01*
X94386Y111509D01*
X95239Y112366D01*
X95239Y114937D01*
X94386Y115794D01*
X93532Y115794D01*
X92679Y114937D01*
X90972Y114937D02*
X90119Y115794D01*
X90119Y111509D01*
X91399Y111509D02*
X88839Y111509D01*
G54D13*
X151711Y91466D02*
X156157Y91465D01*
X151725Y86541D02*
X156110Y86550D01*
X154534Y103711D02*
X154535Y108157D01*
X159459Y103725D02*
X159450Y108110D01*
X92811Y90466D02*
X97257Y90465D01*
X92825Y85541D02*
X97210Y85550D01*
X92711Y109466D02*
X97157Y109465D01*
X92725Y104541D02*
X97110Y104550D01*
G54D14*
X-10557Y-8589D02*
X-10557Y15058D01*
X-10557Y-8589D02*
X21082Y-8589D01*
X305833Y-8589D02*
X274194Y-8589D01*
X305833Y-8589D02*
X305833Y15058D01*
X305833Y227880D02*
X305833Y204233D01*
X305833Y227880D02*
X274194Y227880D01*
X-10557Y227880D02*
X21082Y227880D01*
X-10557Y227880D02*
X-10557Y204233D01*
X-30243Y-8589D02*
X-69613Y-8589D01*
X-49928Y-28274D02*
X-49928Y11096D01*
X-64691Y-8589D02*
G75*
D01*
G02X-64691Y-8589I14763J0*
G01*
X325518Y-8589D02*
X364888Y-8589D01*
X345203Y-28274D02*
X345203Y11096D01*
X330439Y-8589D02*
G75*
D01*
G02X330439Y-8589I14764J0*
G01*
X340282Y-8589D02*
G75*
D01*
G02X340282Y-8589I4921J0*
G01*
X-30243Y227880D02*
X-69613Y227880D01*
X-49928Y208195D02*
X-49928Y247565D01*
X-64691Y227880D02*
G75*
D01*
G02X-64691Y227880I14763J0*
G01*
X-59770Y227880D02*
G75*
D01*
G02X-59770Y227880I9842J0*
G01*
X-54849Y227880D02*
G75*
D01*
G02X-54849Y227880I4921J0*
G01*

M02*
