M48
INCH,TZ
VER,1
FMAT,2
DETECT,ON
ATC,ON
T1C0.03600
T2C0.09843
T3C0.03800
%
T1
X0.99000Y0.69000
X1.58000
X1.36000Y1.13000
X1.94000
X0.81000Y0.43441
X0.73913Y0.48559
X0.88087
X0.83000Y1.46000
T2
X0.09843Y2.07480
X2.85433
X0.09843Y0.11811
X2.85433
T3
X2.15000Y0.52000
X2.34000
X2.53000
X2.72000
X1.32631Y1.57435
X1.42631
X1.52631
X1.62631
X1.72631
X1.82631
X1.92631
X1.12631
X1.92631Y1.67435
X1.62631
X1.72631
X1.82631
X1.42631
X1.52631
X1.32631
X1.12631
X1.22631
X1.02631
X1.22631Y1.57435
X1.02631
X1.33937Y0.09843
X1.43937
X1.53937
X1.63937
X1.73937
X1.83937
X1.93937
X2.03937
X2.13937
X2.23937
X2.33937
X2.43937
X0.63937
X1.23937
X0.53937
X0.93937
X0.73937
X0.83937
X1.13937
X1.03937
M30
