G04 Generated by Ultiboard 13.0 *
%FSLAX24Y24*%
%MOIN*%

%ADD10C,0.0001*%
%ADD11C,0.0067*%
%ADD12C,0.0010*%
%ADD13C,0.0080*%
%ADD14C,0.0050*%


G04 ColorRGB FF14FF for the following layer *
%LNSilkscreen Bottom*%
%LPD*%
G54D10*
G54D11*
X-18871Y-12604D02*
X-18871Y-12176D01*
X-19041Y-12176D01*
X-19127Y-12262D01*
X-19127Y-12304D01*
X-19041Y-12390D01*
X-18871Y-12390D01*
X-18913Y-12390D02*
X-19127Y-12604D01*
X-19297Y-12262D02*
X-19383Y-12176D01*
X-19383Y-12604D01*
X-19255Y-12604D02*
X-19511Y-12604D01*
X-19746Y-9742D02*
X-19661Y-9828D01*
X-19575Y-9828D01*
X-19490Y-9742D01*
X-19490Y-9485D01*
X-19575Y-9400D01*
X-19661Y-9400D01*
X-19746Y-9485D01*
X-19874Y-9485D02*
X-19959Y-9400D01*
X-20045Y-9400D01*
X-20130Y-9485D01*
X-20130Y-9528D01*
X-19874Y-9828D01*
X-20130Y-9828D01*
X-20130Y-9785D01*
X-16089Y-9541D02*
X-16089Y-9198D01*
X-16003Y-9112D01*
X-15918Y-9112D01*
X-15833Y-9198D01*
X-15833Y-9541D01*
X-15705Y-9455D02*
X-15619Y-9541D01*
X-15534Y-9541D01*
X-15449Y-9455D01*
X-15449Y-9412D01*
X-15705Y-9112D01*
X-15449Y-9112D01*
X-15449Y-9155D01*
X-13846Y-9642D02*
X-13761Y-9728D01*
X-13675Y-9728D01*
X-13590Y-9642D01*
X-13590Y-9385D01*
X-13675Y-9300D01*
X-13761Y-9300D01*
X-13846Y-9385D01*
X-14230Y-9557D02*
X-13974Y-9557D01*
X-14187Y-9300D01*
X-14187Y-9728D01*
X-14145Y-9728D02*
X-14230Y-9728D01*
X-10183Y-9659D02*
X-10183Y-9316D01*
X-10098Y-9230D01*
X-10013Y-9230D01*
X-9927Y-9316D01*
X-9927Y-9659D01*
X-9757Y-9616D02*
X-9714Y-9659D01*
X-9629Y-9659D01*
X-9543Y-9573D01*
X-9543Y-9487D01*
X-9586Y-9444D01*
X-9543Y-9402D01*
X-9543Y-9316D01*
X-9629Y-9230D01*
X-9714Y-9230D01*
X-9757Y-9273D01*
X-9714Y-9444D02*
X-9586Y-9444D01*
X-13946Y-7942D02*
X-13861Y-8028D01*
X-13775Y-8028D01*
X-13690Y-7942D01*
X-13690Y-7685D01*
X-13775Y-7600D01*
X-13861Y-7600D01*
X-13946Y-7685D01*
X-14117Y-7642D02*
X-14159Y-7600D01*
X-14245Y-7600D01*
X-14330Y-7685D01*
X-14330Y-7771D01*
X-14287Y-7814D01*
X-14330Y-7857D01*
X-14330Y-7942D01*
X-14245Y-8028D01*
X-14159Y-8028D01*
X-14117Y-7985D01*
X-14159Y-7814D02*
X-14287Y-7814D01*
X-19816Y-6645D02*
X-19731Y-6730D01*
X-19646Y-6730D01*
X-19560Y-6645D01*
X-19560Y-6387D01*
X-19646Y-6302D01*
X-19731Y-6302D01*
X-19816Y-6387D01*
X-19987Y-6387D02*
X-20072Y-6302D01*
X-20072Y-6730D01*
X-19944Y-6730D02*
X-20200Y-6730D01*
X12737Y-5292D02*
X12394Y-5292D01*
X12308Y-5207D01*
X12308Y-5122D01*
X12394Y-5036D01*
X12737Y-5036D01*
X12694Y-4866D02*
X12737Y-4823D01*
X12737Y-4738D01*
X12651Y-4652D01*
X12565Y-4652D01*
X12522Y-4695D01*
X12480Y-4652D01*
X12394Y-4652D01*
X12308Y-4738D01*
X12308Y-4823D01*
X12351Y-4866D01*
X12522Y-4823D02*
X12522Y-4695D01*
X12837Y-10392D02*
X12494Y-10392D01*
X12408Y-10307D01*
X12408Y-10222D01*
X12494Y-10136D01*
X12837Y-10136D01*
X12580Y-9752D02*
X12580Y-10008D01*
X12837Y-9795D01*
X12408Y-9795D01*
X12408Y-9838D02*
X12408Y-9752D01*
X21837Y-11992D02*
X21494Y-11992D01*
X21408Y-11907D01*
X21408Y-11822D01*
X21494Y-11736D01*
X21837Y-11736D01*
X21751Y-11566D02*
X21837Y-11480D01*
X21408Y-11480D01*
X21408Y-11608D02*
X21408Y-11352D01*
X22637Y-3692D02*
X22294Y-3692D01*
X22208Y-3607D01*
X22208Y-3522D01*
X22294Y-3436D01*
X22637Y-3436D01*
X22551Y-3308D02*
X22637Y-3223D01*
X22637Y-3138D01*
X22551Y-3052D01*
X22508Y-3052D01*
X22208Y-3308D01*
X22208Y-3052D01*
X22251Y-3052D01*
X25337Y-6908D02*
X24994Y-6908D01*
X24908Y-6823D01*
X24908Y-6738D01*
X24994Y-6652D01*
X25337Y-6652D01*
X25337Y-6268D02*
X25337Y-6524D01*
X25165Y-6524D01*
X25165Y-6354D01*
X25080Y-6268D01*
X24994Y-6268D01*
X24908Y-6354D01*
X24908Y-6524D01*
X8918Y-8797D02*
X8833Y-8882D01*
X8833Y-8968D01*
X8918Y-9053D01*
X9175Y-9053D01*
X9261Y-8968D01*
X9261Y-8882D01*
X9175Y-8797D01*
X9175Y-8626D02*
X9261Y-8541D01*
X8833Y-8541D01*
X8833Y-8669D02*
X8833Y-8413D01*
X9175Y-8285D02*
X9261Y-8200D01*
X9261Y-8114D01*
X9175Y-8029D01*
X8918Y-8029D01*
X8833Y-8114D01*
X8833Y-8200D01*
X8918Y-8285D01*
X9175Y-8285D01*
X9175Y-8029D02*
X8918Y-8285D01*
X9333Y-8861D02*
X9761Y-8861D01*
X9761Y-8690D01*
X9675Y-8605D01*
X9633Y-8605D01*
X9547Y-8690D01*
X9547Y-8861D01*
X9547Y-8818D02*
X9333Y-8605D01*
X9675Y-8477D02*
X9761Y-8392D01*
X9761Y-8306D01*
X9675Y-8221D01*
X9633Y-8221D01*
X9333Y-8477D01*
X9333Y-8221D01*
X9375Y-8221D01*
X11294Y-12020D02*
X11208Y-12106D01*
X11208Y-12191D01*
X11294Y-12276D01*
X11551Y-12276D01*
X11637Y-12191D01*
X11637Y-12106D01*
X11551Y-12020D01*
X11551Y-11850D02*
X11637Y-11764D01*
X11208Y-11764D01*
X11208Y-11892D02*
X11208Y-11636D01*
X11637Y-11252D02*
X11637Y-11508D01*
X11465Y-11508D01*
X11465Y-11338D01*
X11380Y-11252D01*
X11294Y-11252D01*
X11208Y-11338D01*
X11208Y-11508D01*
X12594Y-8128D02*
X12508Y-8214D01*
X12508Y-8299D01*
X12594Y-8384D01*
X12851Y-8384D01*
X12937Y-8299D01*
X12937Y-8214D01*
X12851Y-8128D01*
X12851Y-7958D02*
X12937Y-7872D01*
X12508Y-7872D01*
X12508Y-8000D02*
X12508Y-7744D01*
X12680Y-7360D02*
X12680Y-7616D01*
X12937Y-7403D01*
X12508Y-7403D01*
X12508Y-7446D02*
X12508Y-7360D01*
X17918Y-10797D02*
X17833Y-10882D01*
X17833Y-10968D01*
X17918Y-11053D01*
X18175Y-11053D01*
X18261Y-10968D01*
X18261Y-10882D01*
X18175Y-10797D01*
X18175Y-10669D02*
X18261Y-10584D01*
X18261Y-10498D01*
X18175Y-10413D01*
X18133Y-10413D01*
X17833Y-10669D01*
X17833Y-10413D01*
X17875Y-10413D01*
X18175Y-10285D02*
X18261Y-10200D01*
X18261Y-10114D01*
X18175Y-10029D01*
X17918Y-10029D01*
X17833Y-10114D01*
X17833Y-10200D01*
X17918Y-10285D01*
X18175Y-10285D01*
X18175Y-10029D02*
X17918Y-10285D01*
X19533Y-7661D02*
X19961Y-7661D01*
X19961Y-7490D01*
X19875Y-7405D01*
X19833Y-7405D01*
X19747Y-7490D01*
X19747Y-7661D01*
X19747Y-7618D02*
X19533Y-7405D01*
X19533Y-7149D02*
X19747Y-7149D01*
X19875Y-7021D01*
X19961Y-7021D01*
X19961Y-7277D01*
X19875Y-7277D01*
X20218Y-7373D02*
X20133Y-7459D01*
X20133Y-7544D01*
X20218Y-7629D01*
X20475Y-7629D01*
X20561Y-7544D01*
X20561Y-7459D01*
X20475Y-7373D01*
X20475Y-7245D02*
X20561Y-7160D01*
X20561Y-7075D01*
X20475Y-6989D01*
X20433Y-6989D01*
X20133Y-7245D01*
X20133Y-6989D01*
X20175Y-6989D01*
X20561Y-6605D02*
X20561Y-6861D01*
X20390Y-6861D01*
X20390Y-6691D01*
X20304Y-6605D01*
X20218Y-6605D01*
X20133Y-6691D01*
X20133Y-6861D01*
X18386Y-8116D02*
X18814Y-8116D01*
X18814Y-7945D01*
X18729Y-7860D01*
X18686Y-7860D01*
X18600Y-7945D01*
X18600Y-8116D01*
X18600Y-8073D02*
X18386Y-7860D01*
X18772Y-7689D02*
X18814Y-7646D01*
X18814Y-7561D01*
X18729Y-7476D01*
X18643Y-7476D01*
X18600Y-7518D01*
X18557Y-7476D01*
X18472Y-7476D01*
X18386Y-7561D01*
X18386Y-7646D01*
X18429Y-7689D01*
X18600Y-7646D02*
X18600Y-7518D01*
X25533Y-8729D02*
X25961Y-8729D01*
X25961Y-8559D01*
X25875Y-8473D01*
X25833Y-8473D01*
X25747Y-8559D01*
X25747Y-8729D01*
X25747Y-8687D02*
X25533Y-8473D01*
X25875Y-8303D02*
X25961Y-8217D01*
X25533Y-8217D01*
X25533Y-8345D02*
X25533Y-8089D01*
X25918Y-7919D02*
X25961Y-7876D01*
X25961Y-7791D01*
X25875Y-7705D01*
X25790Y-7705D01*
X25747Y-7748D01*
X25704Y-7705D01*
X25618Y-7705D01*
X25533Y-7791D01*
X25533Y-7876D01*
X25575Y-7919D01*
X25747Y-7876D02*
X25747Y-7748D01*
X21494Y-5420D02*
X21408Y-5506D01*
X21408Y-5591D01*
X21494Y-5676D01*
X21751Y-5676D01*
X21837Y-5591D01*
X21837Y-5506D01*
X21751Y-5420D01*
X21751Y-5292D02*
X21837Y-5207D01*
X21837Y-5122D01*
X21751Y-5036D01*
X21708Y-5036D01*
X21408Y-5292D01*
X21408Y-5036D01*
X21451Y-5036D01*
X21580Y-4652D02*
X21580Y-4908D01*
X21837Y-4695D01*
X21408Y-4695D01*
X21408Y-4738D02*
X21408Y-4652D01*
G54D12*
X-19803Y-8835D02*
X-19359Y-8835D01*
X-19802Y-9327D02*
X-19363Y-9326D01*
X-13913Y-8735D02*
X-13469Y-8735D01*
X-13912Y-9227D02*
X-13473Y-9226D01*
X-13631Y-7510D02*
X-13631Y-7065D01*
X-13138Y-7509D02*
X-13139Y-7070D01*
X-19813Y-6935D02*
X-19369Y-6935D01*
X-19812Y-7427D02*
X-19373Y-7426D01*
X28233Y-18396D02*
X28233Y-17951D01*
X28725Y-18394D02*
X28725Y-17956D01*
X28626Y3862D02*
X28626Y3417D01*
X28134Y3861D02*
X28134Y3422D01*
X9328Y-7791D02*
X9328Y-7346D01*
X9820Y-7789D02*
X9820Y-7351D01*
X9933Y-7796D02*
X9933Y-7351D01*
X10425Y-7794D02*
X10425Y-7356D01*
X11062Y-10689D02*
X11507Y-10689D01*
X11064Y-11182D02*
X11502Y-11181D01*
X11933Y-7296D02*
X11933Y-6851D01*
X12425Y-7294D02*
X12425Y-6856D01*
X18826Y-10538D02*
X18826Y-10983D01*
X18334Y-10539D02*
X18334Y-10978D01*
X19533Y-8496D02*
X19533Y-8051D01*
X20025Y-8494D02*
X20025Y-8056D01*
X20626Y-8038D02*
X20626Y-8483D01*
X20134Y-8039D02*
X20134Y-8478D01*
X18933Y-7686D02*
X18933Y-7241D01*
X19425Y-7684D02*
X19425Y-7246D01*
X25426Y-7938D02*
X25426Y-8383D01*
X24934Y-7939D02*
X24934Y-8378D01*
X20561Y-4420D02*
X21005Y-4420D01*
X20562Y-4913D02*
X21001Y-4912D01*
G54D13*
X-18783Y-7395D02*
X-16185Y-7395D01*
X-16185Y-9167D01*
X-18783Y-9167D01*
X-18783Y-8478D02*
X-18766Y-8477D01*
X-18749Y-8475D01*
X-18733Y-8471D01*
X-18716Y-8466D01*
X-18700Y-8460D01*
X-18685Y-8452D01*
X-18671Y-8442D01*
X-18657Y-8432D01*
X-18644Y-8420D01*
X-18633Y-8408D01*
X-18622Y-8394D01*
X-18613Y-8380D01*
X-18605Y-8364D01*
X-18598Y-8348D01*
X-18593Y-8332D01*
X-18590Y-8315D01*
X-18587Y-8298D01*
X-18587Y-8281D01*
X-18587Y-8264D01*
X-18590Y-8247D01*
X-18593Y-8230D01*
X-18598Y-8214D01*
X-18605Y-8198D01*
X-18613Y-8183D01*
X-18622Y-8168D01*
X-18633Y-8155D01*
X-18644Y-8142D01*
X-18657Y-8130D01*
X-18671Y-8120D01*
X-18685Y-8111D01*
X-18700Y-8103D01*
X-18716Y-8096D01*
X-18733Y-8091D01*
X-18749Y-8087D01*
X-18766Y-8085D01*
X-18783Y-8084D01*
X-18783Y-9167D02*
X-18783Y-8478D01*
X-18783Y-8084D02*
X-18783Y-7395D01*
X-12883Y-7395D02*
X-10285Y-7395D01*
X-10285Y-9167D01*
X-12883Y-9167D01*
X-12883Y-8478D02*
X-12866Y-8477D01*
X-12849Y-8475D01*
X-12833Y-8471D01*
X-12816Y-8466D01*
X-12800Y-8460D01*
X-12785Y-8452D01*
X-12771Y-8442D01*
X-12757Y-8432D01*
X-12744Y-8420D01*
X-12733Y-8408D01*
X-12722Y-8394D01*
X-12713Y-8380D01*
X-12705Y-8364D01*
X-12698Y-8348D01*
X-12693Y-8332D01*
X-12690Y-8315D01*
X-12687Y-8298D01*
X-12687Y-8281D01*
X-12687Y-8264D01*
X-12690Y-8247D01*
X-12693Y-8230D01*
X-12698Y-8214D01*
X-12705Y-8198D01*
X-12713Y-8183D01*
X-12722Y-8168D01*
X-12733Y-8155D01*
X-12744Y-8142D01*
X-12757Y-8130D01*
X-12771Y-8120D01*
X-12785Y-8111D01*
X-12800Y-8103D01*
X-12816Y-8096D01*
X-12833Y-8091D01*
X-12849Y-8087D01*
X-12866Y-8085D01*
X-12883Y-8084D01*
X-12883Y-8084D01*
X-12883Y-9167D02*
X-12883Y-8478D01*
X-12883Y-8084D02*
X-12883Y-7395D01*
X-22362Y-11903D02*
X-19606Y-11903D01*
X-19606Y-14659D01*
X-22362Y-14659D01*
X-22362Y-11903D01*
X27746Y-18733D02*
X28140Y-18733D01*
X28140Y-18576D01*
X28061Y-18498D01*
X28022Y-18498D01*
X27943Y-18576D01*
X27943Y-18733D01*
X27943Y-18694D02*
X27746Y-18498D01*
X27746Y-18224D02*
X27746Y-18302D01*
X27825Y-18380D01*
X27904Y-18380D01*
X27943Y-18341D01*
X27983Y-18380D01*
X28061Y-18380D01*
X28140Y-18302D01*
X28140Y-18224D01*
X28061Y-18145D01*
X27983Y-18145D01*
X27943Y-18185D01*
X27904Y-18145D01*
X27825Y-18145D01*
X27746Y-18224D01*
X27943Y-18341D02*
X27943Y-18185D01*
X28246Y2367D02*
X28640Y2367D01*
X28640Y2524D01*
X28561Y2602D01*
X28522Y2602D01*
X28443Y2524D01*
X28443Y2367D01*
X28443Y2406D02*
X28246Y2602D01*
X28325Y2720D02*
X28246Y2798D01*
X28246Y2876D01*
X28325Y2955D01*
X28483Y2955D01*
X28561Y2955D01*
X28640Y2876D01*
X28640Y2798D01*
X28561Y2720D01*
X28483Y2720D01*
X28404Y2798D01*
X28404Y2876D01*
X28483Y2955D01*
X12471Y-9621D02*
X9912Y-9621D01*
X9912Y-8244D01*
X12471Y-8244D01*
X12471Y-9621D01*
X12179Y-5353D02*
X9580Y-5353D01*
X9580Y-3581D01*
X12179Y-3581D01*
X12179Y-4270D02*
X12162Y-4271D01*
X12145Y-4273D01*
X12128Y-4277D01*
X12111Y-4282D01*
X12096Y-4289D01*
X12080Y-4296D01*
X12066Y-4306D01*
X12052Y-4316D01*
X12040Y-4328D01*
X12028Y-4340D01*
X12017Y-4354D01*
X12008Y-4369D01*
X12000Y-4384D01*
X11994Y-4400D01*
X11989Y-4416D01*
X11985Y-4433D01*
X11983Y-4450D01*
X11982Y-4467D01*
X11983Y-4484D01*
X11985Y-4501D01*
X11989Y-4518D01*
X11994Y-4534D01*
X12000Y-4550D01*
X12008Y-4565D01*
X12017Y-4580D01*
X12028Y-4593D01*
X12040Y-4606D01*
X12052Y-4618D01*
X12066Y-4628D01*
X12080Y-4637D01*
X12096Y-4645D01*
X12111Y-4652D01*
X12128Y-4657D01*
X12145Y-4661D01*
X12162Y-4663D01*
X12179Y-4664D01*
X12179Y-4664D01*
X12179Y-3581D02*
X12179Y-4270D01*
X12179Y-4664D02*
X12179Y-5353D01*
X19894Y-11946D02*
X19894Y-9387D01*
X21272Y-9387D01*
X21272Y-11946D01*
X19894Y-11946D01*
X24780Y-8432D02*
X21380Y-8432D01*
X21380Y-6902D01*
X24780Y-6902D01*
X24394Y-8303D02*
G75*
D01*
G02X24394Y-8303I98J0*
G01*
X24780Y-7470D02*
X24762Y-7471D01*
X24745Y-7473D01*
X24729Y-7477D01*
X24712Y-7482D01*
X24696Y-7489D01*
X24681Y-7496D01*
X24667Y-7506D01*
X24653Y-7516D01*
X24640Y-7528D01*
X24629Y-7540D01*
X24618Y-7554D01*
X24609Y-7569D01*
X24601Y-7584D01*
X24595Y-7600D01*
X24589Y-7616D01*
X24586Y-7633D01*
X24583Y-7650D01*
X24583Y-7667D01*
X24583Y-7684D01*
X24586Y-7701D01*
X24589Y-7718D01*
X24595Y-7734D01*
X24601Y-7750D01*
X24609Y-7765D01*
X24618Y-7780D01*
X24629Y-7793D01*
X24640Y-7806D01*
X24653Y-7818D01*
X24667Y-7828D01*
X24681Y-7837D01*
X24696Y-7845D01*
X24712Y-7852D01*
X24729Y-7857D01*
X24745Y-7861D01*
X24762Y-7863D01*
X24780Y-7864D01*
X24780Y-6902D02*
X24780Y-7470D01*
X24780Y-7864D02*
X24780Y-8432D01*
X22095Y-3302D02*
X19536Y-3302D01*
X19536Y-1924D01*
X22095Y-1924D01*
X22095Y-3302D01*
G54D14*
X-30140Y-18998D02*
X-30140Y-16553D01*
X-30140Y-18998D02*
X-24027Y-18998D01*
X30986Y-18998D02*
X24873Y-18998D01*
X30986Y-18998D02*
X30986Y-16553D01*
X30986Y5454D02*
X30986Y3009D01*
X30986Y5454D02*
X24873Y5454D01*
X-30140Y5454D02*
X-24027Y5454D01*
X-30140Y5454D02*
X-30140Y3009D01*
X-32109Y-18998D02*
X-36046Y-18998D01*
X-34077Y-20966D02*
X-34077Y-17029D01*
X-35553Y-18998D02*
G75*
D01*
G02X-35553Y-18998I1476J0*
G01*
X32954Y-18998D02*
X36891Y-18998D01*
X34923Y-20966D02*
X34923Y-17029D01*
X33446Y-18998D02*
G75*
D01*
G02X33446Y-18998I1477J0*
G01*
X34431Y-18998D02*
G75*
D01*
G02X34431Y-18998I492J0*
G01*
X-32109Y5454D02*
X-36046Y5454D01*
X-34077Y3486D02*
X-34077Y7423D01*
X-35553Y5454D02*
G75*
D01*
G02X-35553Y5454I1476J0*
G01*
X-35061Y5454D02*
G75*
D01*
G02X-35061Y5454I984J0*
G01*
X-34569Y5454D02*
G75*
D01*
G02X-34569Y5454I492J0*
G01*

M02*
