G04 Generated by Ultiboard 13.0 *
%FSLAX24Y24*%
%MOIN*%

%ADD10C,0.0001*%
%ADD11C,0.0039*%
%ADD12C,0.0004*%
%ADD13C,0.0100*%
%ADD14C,0.0050*%


G04 ColorRGB 000000 for the following layer *
%LNDrill Symbols-Copper Top-Copper Bottom*%
%LPD*%
G54D11*
X-28100Y-17192D02*
X-28100Y-16208D01*
X-28592Y-16700D02*
X-27608Y-16700D01*
X-541Y-17192D02*
X-541Y-16208D01*
X-1033Y-16700D02*
X-49Y-16700D01*
X-28100Y2375D02*
X-28100Y3359D01*
X-28592Y2867D02*
X-27608Y2867D01*
X-541Y2375D02*
X-541Y3359D01*
X-1033Y2867D02*
X-49Y2867D01*
X-15891Y-16897D02*
G75*
D01*
G02X-15891Y-16897I200J0*
G01*
X-14891Y-16897D02*
G75*
D01*
G02X-14891Y-16897I200J0*
G01*
X-13891Y-16897D02*
G75*
D01*
G02X-13891Y-16897I200J0*
G01*
X-12891Y-16897D02*
G75*
D01*
G02X-12891Y-16897I200J0*
G01*
X-11891Y-16897D02*
G75*
D01*
G02X-11891Y-16897I200J0*
G01*
X-10891Y-16897D02*
G75*
D01*
G02X-10891Y-16897I200J0*
G01*
X-9891Y-16897D02*
G75*
D01*
G02X-9891Y-16897I200J0*
G01*
X-8891Y-16897D02*
G75*
D01*
G02X-8891Y-16897I200J0*
G01*
X-7891Y-16897D02*
G75*
D01*
G02X-7891Y-16897I200J0*
G01*
X-6891Y-16897D02*
G75*
D01*
G02X-6891Y-16897I200J0*
G01*
X-5891Y-16897D02*
G75*
D01*
G02X-5891Y-16897I200J0*
G01*
X-4891Y-16897D02*
G75*
D01*
G02X-4891Y-16897I200J0*
G01*
X-22891Y-16897D02*
G75*
D01*
G02X-22891Y-16897I200J0*
G01*
X-16891Y-16897D02*
G75*
D01*
G02X-16891Y-16897I200J0*
G01*
X-23891Y-16897D02*
G75*
D01*
G02X-23891Y-16897I200J0*
G01*
X-19891Y-16897D02*
G75*
D01*
G02X-19891Y-16897I200J0*
G01*
X-21891Y-16897D02*
G75*
D01*
G02X-21891Y-16897I200J0*
G01*
X-20891Y-16897D02*
G75*
D01*
G02X-20891Y-16897I200J0*
G01*
X-17891Y-16897D02*
G75*
D01*
G02X-17891Y-16897I200J0*
G01*
X-18891Y-16897D02*
G75*
D01*
G02X-18891Y-16897I200J0*
G01*
X-7784Y-12681D02*
G75*
D01*
G02X-7784Y-12681I200J0*
G01*
X-5884Y-12681D02*
G75*
D01*
G02X-5884Y-12681I200J0*
G01*
X-3984Y-12681D02*
G75*
D01*
G02X-3984Y-12681I200J0*
G01*
X-2084Y-12681D02*
G75*
D01*
G02X-2084Y-12681I200J0*
G01*
X-16021Y-2138D02*
G75*
D01*
G02X-16021Y-2138I200J0*
G01*
X-15021Y-2138D02*
G75*
D01*
G02X-15021Y-2138I200J0*
G01*
X-14021Y-2138D02*
G75*
D01*
G02X-14021Y-2138I200J0*
G01*
X-13021Y-2138D02*
G75*
D01*
G02X-13021Y-2138I200J0*
G01*
X-12021Y-2138D02*
G75*
D01*
G02X-12021Y-2138I200J0*
G01*
X-11021Y-2138D02*
G75*
D01*
G02X-11021Y-2138I200J0*
G01*
X-10021Y-2138D02*
G75*
D01*
G02X-10021Y-2138I200J0*
G01*
X-18021Y-2138D02*
G75*
D01*
G02X-18021Y-2138I200J0*
G01*
X-10021Y-1138D02*
G75*
D01*
G02X-10021Y-1138I200J0*
G01*
X-13021Y-1138D02*
G75*
D01*
G02X-13021Y-1138I200J0*
G01*
X-12021Y-1138D02*
G75*
D01*
G02X-12021Y-1138I200J0*
G01*
X-11021Y-1138D02*
G75*
D01*
G02X-11021Y-1138I200J0*
G01*
X-15021Y-1138D02*
G75*
D01*
G02X-15021Y-1138I200J0*
G01*
X-14021Y-1138D02*
G75*
D01*
G02X-14021Y-1138I200J0*
G01*
X-16021Y-1138D02*
G75*
D01*
G02X-16021Y-1138I200J0*
G01*
X-18021Y-1138D02*
G75*
D01*
G02X-18021Y-1138I200J0*
G01*
X-17021Y-1138D02*
G75*
D01*
G02X-17021Y-1138I200J0*
G01*
X-19021Y-1138D02*
G75*
D01*
G02X-19021Y-1138I200J0*
G01*
X-17021Y-2138D02*
G75*
D01*
G02X-17021Y-2138I200J0*
G01*
X-19021Y-2138D02*
G75*
D01*
G02X-19021Y-2138I200J0*
G01*
X3280Y-16767D02*
G75*
D01*
G02X3280Y-16767I200J0*
G01*
X3280Y-17767D02*
G75*
D01*
G02X3280Y-17767I200J0*
G01*
X4280Y-16767D02*
G75*
D01*
G02X4280Y-16767I200J0*
G01*
X4280Y-17767D02*
G75*
D01*
G02X4280Y-17767I200J0*
G01*
X5280Y-16767D02*
G75*
D01*
G02X5280Y-16767I200J0*
G01*
X5280Y-17767D02*
G75*
D01*
G02X5280Y-17767I200J0*
G01*
X6280Y-16767D02*
G75*
D01*
G02X6280Y-16767I200J0*
G01*
X6280Y-17767D02*
G75*
D01*
G02X6280Y-17767I200J0*
G01*
X7280Y-16767D02*
G75*
D01*
G02X7280Y-16767I200J0*
G01*
X7280Y-17767D02*
G75*
D01*
G02X7280Y-17767I200J0*
G01*
X12280Y-17767D02*
G75*
D01*
G02X12280Y-17767I200J0*
G01*
X12280Y-16767D02*
G75*
D01*
G02X12280Y-16767I200J0*
G01*
X9280Y-17767D02*
G75*
D01*
G02X9280Y-17767I200J0*
G01*
X8280Y-17767D02*
G75*
D01*
G02X8280Y-17767I200J0*
G01*
X10280Y-17767D02*
G75*
D01*
G02X10280Y-17767I200J0*
G01*
X11280Y-17767D02*
G75*
D01*
G02X11280Y-17767I200J0*
G01*
X9280Y-16767D02*
G75*
D01*
G02X9280Y-16767I200J0*
G01*
X8280Y-16767D02*
G75*
D01*
G02X8280Y-16767I200J0*
G01*
X11280Y-16767D02*
G75*
D01*
G02X11280Y-16767I200J0*
G01*
X10280Y-16767D02*
G75*
D01*
G02X10280Y-16767I200J0*
G01*
X25280Y-17767D02*
G75*
D01*
G02X25280Y-17767I200J0*
G01*
X25280Y-16767D02*
G75*
D01*
G02X25280Y-16767I200J0*
G01*
X19280Y-17767D02*
G75*
D01*
G02X19280Y-17767I200J0*
G01*
X19280Y-16767D02*
G75*
D01*
G02X19280Y-16767I200J0*
G01*
X18280Y-17767D02*
G75*
D01*
G02X18280Y-17767I200J0*
G01*
X15280Y-17767D02*
G75*
D01*
G02X15280Y-17767I200J0*
G01*
X13280Y-17767D02*
G75*
D01*
G02X13280Y-17767I200J0*
G01*
X14280Y-17767D02*
G75*
D01*
G02X14280Y-17767I200J0*
G01*
X17280Y-17767D02*
G75*
D01*
G02X17280Y-17767I200J0*
G01*
X16280Y-17767D02*
G75*
D01*
G02X16280Y-17767I200J0*
G01*
X14280Y-16767D02*
G75*
D01*
G02X14280Y-16767I200J0*
G01*
X13280Y-16767D02*
G75*
D01*
G02X13280Y-16767I200J0*
G01*
X15280Y-16767D02*
G75*
D01*
G02X15280Y-16767I200J0*
G01*
X17280Y-16767D02*
G75*
D01*
G02X17280Y-16767I200J0*
G01*
X16280Y-16767D02*
G75*
D01*
G02X16280Y-16767I200J0*
G01*
X18280Y-16767D02*
G75*
D01*
G02X18280Y-16767I200J0*
G01*
X21280Y-17767D02*
G75*
D01*
G02X21280Y-17767I200J0*
G01*
X20280Y-17767D02*
G75*
D01*
G02X20280Y-17767I200J0*
G01*
X23280Y-17767D02*
G75*
D01*
G02X23280Y-17767I200J0*
G01*
X22280Y-17767D02*
G75*
D01*
G02X22280Y-17767I200J0*
G01*
X24280Y-17767D02*
G75*
D01*
G02X24280Y-17767I200J0*
G01*
X22280Y-16767D02*
G75*
D01*
G02X22280Y-16767I200J0*
G01*
X20280Y-16767D02*
G75*
D01*
G02X20280Y-16767I200J0*
G01*
X21280Y-16767D02*
G75*
D01*
G02X21280Y-16767I200J0*
G01*
X23280Y-16767D02*
G75*
D01*
G02X23280Y-16767I200J0*
G01*
X24280Y-16767D02*
G75*
D01*
G02X24280Y-16767I200J0*
G01*
X26280Y-17767D02*
G75*
D01*
G02X26280Y-17767I200J0*
G01*
X27280Y-17767D02*
G75*
D01*
G02X27280Y-17767I200J0*
G01*
X26280Y-16767D02*
G75*
D01*
G02X26280Y-16767I200J0*
G01*
X27280Y-16767D02*
G75*
D01*
G02X27280Y-16767I200J0*
G01*
X29080Y-16767D02*
G75*
D01*
G02X29080Y-16767I200J0*
G01*
X29080Y-17767D02*
G75*
D01*
G02X29080Y-17767I200J0*
G01*
X5620Y-11267D02*
G75*
D01*
G02X5620Y-11267I200J0*
G01*
X5620Y-8267D02*
G75*
D01*
G02X5620Y-8267I200J0*
G01*
X5620Y-9267D02*
G75*
D01*
G02X5620Y-9267I200J0*
G01*
X5620Y-10267D02*
G75*
D01*
G02X5620Y-10267I200J0*
G01*
X5620Y-6267D02*
G75*
D01*
G02X5620Y-6267I200J0*
G01*
X5620Y-7267D02*
G75*
D01*
G02X5620Y-7267I200J0*
G01*
X5620Y-5267D02*
G75*
D01*
G02X5620Y-5267I200J0*
G01*
X4620Y-11267D02*
G75*
D01*
G02X4620Y-11267I200J0*
G01*
X4620Y-8267D02*
G75*
D01*
G02X4620Y-8267I200J0*
G01*
X4620Y-9267D02*
G75*
D01*
G02X4620Y-9267I200J0*
G01*
X4620Y-10267D02*
G75*
D01*
G02X4620Y-10267I200J0*
G01*
X4620Y-6267D02*
G75*
D01*
G02X4620Y-6267I200J0*
G01*
X4620Y-7267D02*
G75*
D01*
G02X4620Y-7267I200J0*
G01*
X4620Y-5267D02*
G75*
D01*
G02X4620Y-5267I200J0*
G01*
X5620Y-3267D02*
G75*
D01*
G02X5620Y-3267I200J0*
G01*
X5620Y-4267D02*
G75*
D01*
G02X5620Y-4267I200J0*
G01*
X5620Y-2267D02*
G75*
D01*
G02X5620Y-2267I200J0*
G01*
X4620Y-3267D02*
G75*
D01*
G02X4620Y-3267I200J0*
G01*
X4620Y-4267D02*
G75*
D01*
G02X4620Y-4267I200J0*
G01*
X4620Y-2267D02*
G75*
D01*
G02X4620Y-2267I200J0*
G01*
X12280Y3233D02*
G75*
D01*
G02X12280Y3233I200J0*
G01*
X12280Y4233D02*
G75*
D01*
G02X12280Y4233I200J0*
G01*
X6280Y3233D02*
G75*
D01*
G02X6280Y3233I200J0*
G01*
X6280Y4233D02*
G75*
D01*
G02X6280Y4233I200J0*
G01*
X4280Y3233D02*
G75*
D01*
G02X4280Y3233I200J0*
G01*
X3280Y3233D02*
G75*
D01*
G02X3280Y3233I200J0*
G01*
X5280Y3233D02*
G75*
D01*
G02X5280Y3233I200J0*
G01*
X3280Y4233D02*
G75*
D01*
G02X3280Y4233I200J0*
G01*
X4280Y4233D02*
G75*
D01*
G02X4280Y4233I200J0*
G01*
X5280Y4233D02*
G75*
D01*
G02X5280Y4233I200J0*
G01*
X9280Y3233D02*
G75*
D01*
G02X9280Y3233I200J0*
G01*
X7280Y3233D02*
G75*
D01*
G02X7280Y3233I200J0*
G01*
X8280Y3233D02*
G75*
D01*
G02X8280Y3233I200J0*
G01*
X10280Y3233D02*
G75*
D01*
G02X10280Y3233I200J0*
G01*
X11280Y3233D02*
G75*
D01*
G02X11280Y3233I200J0*
G01*
X9280Y4233D02*
G75*
D01*
G02X9280Y4233I200J0*
G01*
X8280Y4233D02*
G75*
D01*
G02X8280Y4233I200J0*
G01*
X7280Y4233D02*
G75*
D01*
G02X7280Y4233I200J0*
G01*
X11280Y4233D02*
G75*
D01*
G02X11280Y4233I200J0*
G01*
X10280Y4233D02*
G75*
D01*
G02X10280Y4233I200J0*
G01*
X25280Y3233D02*
G75*
D01*
G02X25280Y3233I200J0*
G01*
X25280Y4233D02*
G75*
D01*
G02X25280Y4233I200J0*
G01*
X19280Y3233D02*
G75*
D01*
G02X19280Y3233I200J0*
G01*
X19280Y4233D02*
G75*
D01*
G02X19280Y4233I200J0*
G01*
X18280Y3233D02*
G75*
D01*
G02X18280Y3233I200J0*
G01*
X15280Y3233D02*
G75*
D01*
G02X15280Y3233I200J0*
G01*
X13280Y3233D02*
G75*
D01*
G02X13280Y3233I200J0*
G01*
X14280Y3233D02*
G75*
D01*
G02X14280Y3233I200J0*
G01*
X17280Y3233D02*
G75*
D01*
G02X17280Y3233I200J0*
G01*
X16280Y3233D02*
G75*
D01*
G02X16280Y3233I200J0*
G01*
X14280Y4233D02*
G75*
D01*
G02X14280Y4233I200J0*
G01*
X13280Y4233D02*
G75*
D01*
G02X13280Y4233I200J0*
G01*
X15280Y4233D02*
G75*
D01*
G02X15280Y4233I200J0*
G01*
X17280Y4233D02*
G75*
D01*
G02X17280Y4233I200J0*
G01*
X16280Y4233D02*
G75*
D01*
G02X16280Y4233I200J0*
G01*
X18280Y4233D02*
G75*
D01*
G02X18280Y4233I200J0*
G01*
X21280Y3233D02*
G75*
D01*
G02X21280Y3233I200J0*
G01*
X20280Y3233D02*
G75*
D01*
G02X20280Y3233I200J0*
G01*
X23280Y3233D02*
G75*
D01*
G02X23280Y3233I200J0*
G01*
X22280Y3233D02*
G75*
D01*
G02X22280Y3233I200J0*
G01*
X24280Y3233D02*
G75*
D01*
G02X24280Y3233I200J0*
G01*
X22280Y4233D02*
G75*
D01*
G02X22280Y4233I200J0*
G01*
X20280Y4233D02*
G75*
D01*
G02X20280Y4233I200J0*
G01*
X21280Y4233D02*
G75*
D01*
G02X21280Y4233I200J0*
G01*
X23280Y4233D02*
G75*
D01*
G02X23280Y4233I200J0*
G01*
X24280Y4233D02*
G75*
D01*
G02X24280Y4233I200J0*
G01*
X26280Y3233D02*
G75*
D01*
G02X26280Y3233I200J0*
G01*
X27280Y3233D02*
G75*
D01*
G02X27280Y3233I200J0*
G01*
X26280Y4233D02*
G75*
D01*
G02X26280Y4233I200J0*
G01*
X27280Y4233D02*
G75*
D01*
G02X27280Y4233I200J0*
G01*
X29080Y3233D02*
G75*
D01*
G02X29080Y3233I200J0*
G01*
X29080Y4233D02*
G75*
D01*
G02X29080Y4233I200J0*
G01*
X28780Y633D02*
G75*
D01*
G02X28780Y633I200J0*
G01*
X28780Y1633D02*
G75*
D01*
G02X28780Y1633I200J0*
G01*
X13780Y-9167D02*
G75*
D01*
G02X13780Y-9167I200J0*
G01*
X13180Y-5567D02*
G75*
D01*
G02X13180Y-5567I200J0*
G01*
X22180Y-4667D02*
G75*
D01*
G02X22180Y-4667I200J0*
G01*
X22880Y-10667D02*
G75*
D01*
G02X22880Y-10667I200J0*
G01*
X23880Y-10667D02*
G75*
D01*
G02X23880Y-10667I200J0*
G01*
X28280Y-12777D02*
G75*
D01*
G02X28280Y-12777I200J0*
G01*
X29280Y-12777D02*
G75*
D01*
G02X29280Y-12777I200J0*
G01*
X28280Y-14777D02*
G75*
D01*
G02X28280Y-14777I200J0*
G01*
X29280Y-14777D02*
G75*
D01*
G02X29280Y-14777I200J0*
G01*
X28280Y-13777D02*
G75*
D01*
G02X28280Y-13777I200J0*
G01*
X29280Y-13777D02*
G75*
D01*
G02X29280Y-13777I200J0*
G01*
X29280Y-10777D02*
G75*
D01*
G02X29280Y-10777I200J0*
G01*
X28280Y-10777D02*
G75*
D01*
G02X28280Y-10777I200J0*
G01*
X28280Y-11777D02*
G75*
D01*
G02X28280Y-11777I200J0*
G01*
X29280Y-11777D02*
G75*
D01*
G02X29280Y-11777I200J0*
G01*
X11680Y-667D02*
G75*
D01*
G02X11680Y-667I200J0*
G01*
X12780Y-2767D02*
G75*
D01*
G02X12780Y-2767I200J0*
G01*
X15980Y-9167D02*
G75*
D01*
G02X15980Y-9167I200J0*
G01*
X14980Y-9167D02*
G75*
D01*
G02X14980Y-9167I200J0*
G01*
X15980Y-13167D02*
G75*
D01*
G02X15980Y-13167I200J0*
G01*
X23880Y-167D02*
G75*
D01*
G02X23880Y-167I200J0*
G01*
X22880Y-167D02*
G75*
D01*
G02X22880Y-167I200J0*
G01*
X23880Y-12567D02*
G75*
D01*
G02X23880Y-12567I200J0*
G01*
X22880Y-12567D02*
G75*
D01*
G02X22880Y-12567I200J0*
G01*
X23880Y-2067D02*
G75*
D01*
G02X23880Y-2067I200J0*
G01*
X28780Y-2867D02*
G75*
D01*
G02X28780Y-2867I200J0*
G01*
X28780Y-1867D02*
G75*
D01*
G02X28780Y-1867I200J0*
G01*
X28780Y-867D02*
G75*
D01*
G02X28780Y-867I200J0*
G01*
X28780Y-6167D02*
G75*
D01*
G02X28780Y-6167I200J0*
G01*
X28780Y-5167D02*
G75*
D01*
G02X28780Y-5167I200J0*
G01*
X28780Y-4167D02*
G75*
D01*
G02X28780Y-4167I200J0*
G01*
X28780Y-9467D02*
G75*
D01*
G02X28780Y-9467I200J0*
G01*
X28780Y-8467D02*
G75*
D01*
G02X28780Y-8467I200J0*
G01*
X28780Y-7467D02*
G75*
D01*
G02X28780Y-7467I200J0*
G01*
X46924Y-8238D02*
X47187Y-8407D01*
X47449Y-8407D01*
X47712Y-8238D01*
X47712Y-7901D01*
X47712Y-7732D01*
X47449Y-7563D01*
X47187Y-7563D01*
X46924Y-7732D01*
X46924Y-7901D01*
X47187Y-8069D01*
X47449Y-8069D01*
X47712Y-7901D01*
X48630Y-8407D02*
X48368Y-8407D01*
X48105Y-8238D01*
X48105Y-8069D01*
X48236Y-7985D01*
X48105Y-7901D01*
X48105Y-7732D01*
X48368Y-7563D01*
X48630Y-7563D01*
X48893Y-7732D01*
X48893Y-7901D01*
X48761Y-7985D01*
X48893Y-8069D01*
X48893Y-8238D01*
X48630Y-8407D01*
X48236Y-7985D02*
X48761Y-7985D01*
X49680Y-8407D02*
X49680Y-8322D01*
X51255Y-8069D02*
X50467Y-8069D01*
X51124Y-7563D01*
X51124Y-8407D01*
X50992Y-8407D02*
X51255Y-8407D01*
X51649Y-7732D02*
X51911Y-7563D01*
X52174Y-7563D01*
X52436Y-7732D01*
X52436Y-7816D01*
X51649Y-8407D01*
X52436Y-8407D01*
X52436Y-8322D01*
X53617Y-7563D02*
X52830Y-7563D01*
X52830Y-7901D01*
X53355Y-7901D01*
X53617Y-8069D01*
X53617Y-8238D01*
X53355Y-8407D01*
X52830Y-8407D01*
X54011Y-7732D02*
X54273Y-7563D01*
X54536Y-7563D01*
X54798Y-7732D01*
X54798Y-7816D01*
X54011Y-8407D01*
X54798Y-8407D01*
X54798Y-8322D01*
X60546Y-8069D02*
X59759Y-8069D01*
X60415Y-7563D01*
X60415Y-8407D01*
X60284Y-8407D02*
X60546Y-8407D01*
X67278Y-8407D02*
X67278Y-7563D01*
X67803Y-7563D01*
X68066Y-7732D01*
X68066Y-7816D01*
X67803Y-7985D01*
X67278Y-7985D01*
X68853Y-8407D02*
X68853Y-7563D01*
X68460Y-7563D02*
X69247Y-7563D01*
X69641Y-8407D02*
X69641Y-7563D01*
X70428Y-8407D02*
X70428Y-7563D01*
X69641Y-7985D02*
X70428Y-7985D01*
X74208Y-7732D02*
X74470Y-7563D01*
X74733Y-7563D01*
X74995Y-7732D01*
X74995Y-8238D01*
X74733Y-8407D01*
X74470Y-8407D01*
X74208Y-8238D01*
X74208Y-7732D01*
X74995Y-7732D02*
X74208Y-8238D01*
X77226Y-8407D02*
X77095Y-8407D01*
X76832Y-8238D01*
X76832Y-7732D01*
X77095Y-7563D01*
X77226Y-7563D01*
X77751Y-8407D02*
X77751Y-7563D01*
X78276Y-7563D01*
X78538Y-7732D01*
X78538Y-7816D01*
X78276Y-7985D01*
X77751Y-7985D01*
X77882Y-7985D02*
X78538Y-8407D01*
X78932Y-8238D02*
X79195Y-8407D01*
X79457Y-8407D01*
X79719Y-8238D01*
X79719Y-7732D01*
X79457Y-7563D01*
X79195Y-7563D01*
X78932Y-7732D01*
X78932Y-8238D01*
X80113Y-7563D02*
X80113Y-8238D01*
X80376Y-8407D01*
X80638Y-8407D01*
X80901Y-8238D01*
X80901Y-7563D01*
X81294Y-8407D02*
X81294Y-7563D01*
X82082Y-8407D01*
X82082Y-7563D01*
X82475Y-8407D02*
X83000Y-8407D01*
X83263Y-8238D01*
X83263Y-7732D01*
X83000Y-7563D01*
X82475Y-7563D01*
X82607Y-7563D02*
X82607Y-8407D01*
X83788Y-7563D02*
X83919Y-7563D01*
X84181Y-7732D01*
X84181Y-8238D01*
X83919Y-8407D01*
X83788Y-8407D01*
X42817Y-8561D02*
X42817Y-7577D01*
X42324Y-8069D02*
X43309Y-8069D01*
X42617Y-6455D02*
G75*
D01*
G02X42617Y-6455I200J0*
G01*
X47712Y-6455D02*
X46924Y-6455D01*
X47580Y-5949D01*
X47580Y-6793D01*
X47449Y-6793D02*
X47712Y-6793D01*
X48105Y-6118D02*
X48368Y-5949D01*
X48630Y-5949D01*
X48893Y-6118D01*
X48893Y-6624D01*
X48630Y-6793D01*
X48368Y-6793D01*
X48105Y-6624D01*
X48105Y-6118D01*
X48893Y-6118D02*
X48105Y-6624D01*
X49680Y-6793D02*
X49680Y-6708D01*
X50467Y-6118D02*
X50730Y-5949D01*
X50992Y-5949D01*
X51255Y-6118D01*
X51255Y-6624D01*
X50992Y-6793D01*
X50730Y-6793D01*
X50467Y-6624D01*
X50467Y-6118D01*
X51255Y-6118D02*
X50467Y-6624D01*
X51649Y-6118D02*
X51911Y-5949D01*
X52174Y-5949D01*
X52436Y-6118D01*
X52436Y-6624D01*
X52174Y-6793D01*
X51911Y-6793D01*
X51649Y-6624D01*
X51649Y-6118D01*
X52436Y-6118D02*
X51649Y-6624D01*
X52830Y-6118D02*
X53092Y-5949D01*
X53355Y-5949D01*
X53617Y-6118D01*
X53617Y-6624D01*
X53355Y-6793D01*
X53092Y-6793D01*
X52830Y-6624D01*
X52830Y-6118D01*
X53617Y-6118D02*
X52830Y-6624D01*
X54011Y-6118D02*
X54273Y-5949D01*
X54536Y-5949D01*
X54798Y-6118D01*
X54798Y-6624D01*
X54536Y-6793D01*
X54273Y-6793D01*
X54011Y-6624D01*
X54011Y-6118D01*
X54798Y-6118D02*
X54011Y-6624D01*
X58578Y-6118D02*
X58840Y-5949D01*
X59103Y-5949D01*
X59365Y-6118D01*
X59365Y-6202D01*
X58578Y-6793D01*
X59365Y-6793D01*
X59365Y-6708D01*
X59759Y-6118D02*
X60021Y-5949D01*
X60284Y-5949D01*
X60546Y-6118D01*
X60546Y-6624D01*
X60284Y-6793D01*
X60021Y-6793D01*
X59759Y-6624D01*
X59759Y-6118D01*
X60546Y-6118D02*
X59759Y-6624D01*
X61727Y-6455D02*
X60940Y-6455D01*
X61596Y-5949D01*
X61596Y-6793D01*
X61465Y-6793D02*
X61727Y-6793D01*
X67278Y-6793D02*
X67278Y-5949D01*
X67803Y-5949D01*
X68066Y-6118D01*
X68066Y-6202D01*
X67803Y-6371D01*
X67278Y-6371D01*
X68853Y-6793D02*
X68853Y-5949D01*
X68460Y-5949D02*
X69247Y-5949D01*
X69641Y-6793D02*
X69641Y-5949D01*
X70428Y-6793D02*
X70428Y-5949D01*
X69641Y-6371D02*
X70428Y-6371D01*
X74208Y-6118D02*
X74470Y-5949D01*
X74733Y-5949D01*
X74995Y-6118D01*
X74995Y-6624D01*
X74733Y-6793D01*
X74470Y-6793D01*
X74208Y-6624D01*
X74208Y-6118D01*
X74995Y-6118D02*
X74208Y-6624D01*
X77226Y-6793D02*
X77095Y-6793D01*
X76832Y-6624D01*
X76832Y-6118D01*
X77095Y-5949D01*
X77226Y-5949D01*
X77751Y-6793D02*
X77751Y-5949D01*
X78276Y-5949D01*
X78538Y-6118D01*
X78538Y-6202D01*
X78276Y-6371D01*
X77751Y-6371D01*
X77882Y-6371D02*
X78538Y-6793D01*
X78932Y-6624D02*
X79195Y-6793D01*
X79457Y-6793D01*
X79719Y-6624D01*
X79719Y-6118D01*
X79457Y-5949D01*
X79195Y-5949D01*
X78932Y-6118D01*
X78932Y-6624D01*
X80113Y-5949D02*
X80113Y-6624D01*
X80376Y-6793D01*
X80638Y-6793D01*
X80901Y-6624D01*
X80901Y-5949D01*
X81294Y-6793D02*
X81294Y-5949D01*
X82082Y-6793D01*
X82082Y-5949D01*
X82475Y-6793D02*
X83000Y-6793D01*
X83263Y-6624D01*
X83263Y-6118D01*
X83000Y-5949D01*
X82475Y-5949D01*
X82607Y-5949D02*
X82607Y-6793D01*
X83788Y-5949D02*
X83919Y-5949D01*
X84181Y-6118D01*
X84181Y-6624D01*
X83919Y-6793D01*
X83788Y-6793D01*
X47055Y-4419D02*
X47187Y-4335D01*
X47449Y-4335D01*
X47712Y-4503D01*
X47712Y-4672D01*
X47580Y-4757D01*
X47712Y-4841D01*
X47712Y-5010D01*
X47449Y-5178D01*
X47187Y-5178D01*
X47055Y-5094D01*
X47187Y-4757D02*
X47580Y-4757D01*
X48761Y-4335D02*
X48368Y-4335D01*
X48105Y-4503D01*
X48105Y-4841D01*
X48105Y-5010D01*
X48368Y-5178D01*
X48630Y-5178D01*
X48893Y-5010D01*
X48893Y-4841D01*
X48630Y-4672D01*
X48368Y-4672D01*
X48105Y-4841D01*
X49680Y-5178D02*
X49680Y-5094D01*
X50467Y-4503D02*
X50730Y-4335D01*
X50992Y-4335D01*
X51255Y-4503D01*
X51255Y-5010D01*
X50992Y-5178D01*
X50730Y-5178D01*
X50467Y-5010D01*
X50467Y-4503D01*
X51255Y-4503D02*
X50467Y-5010D01*
X51649Y-4503D02*
X51911Y-4335D01*
X52174Y-4335D01*
X52436Y-4503D01*
X52436Y-5010D01*
X52174Y-5178D01*
X51911Y-5178D01*
X51649Y-5010D01*
X51649Y-4503D01*
X52436Y-4503D02*
X51649Y-5010D01*
X52830Y-4503D02*
X53092Y-4335D01*
X53355Y-4335D01*
X53617Y-4503D01*
X53617Y-5010D01*
X53355Y-5178D01*
X53092Y-5178D01*
X52830Y-5010D01*
X52830Y-4503D01*
X53617Y-4503D02*
X52830Y-5010D01*
X54011Y-4503D02*
X54273Y-4335D01*
X54536Y-4335D01*
X54798Y-4503D01*
X54798Y-5010D01*
X54536Y-5178D01*
X54273Y-5178D01*
X54011Y-5010D01*
X54011Y-4503D01*
X54798Y-4503D02*
X54011Y-5010D01*
X59299Y-4503D02*
X59562Y-4335D01*
X59562Y-5178D01*
X59168Y-5178D02*
X59956Y-5178D01*
X61137Y-4335D02*
X60349Y-4335D01*
X60349Y-4672D01*
X60874Y-4672D01*
X61137Y-4841D01*
X61137Y-5010D01*
X60874Y-5178D01*
X60349Y-5178D01*
X67278Y-5178D02*
X67278Y-4335D01*
X67803Y-4335D01*
X68066Y-4503D01*
X68066Y-4588D01*
X67803Y-4757D01*
X67278Y-4757D01*
X68853Y-5178D02*
X68853Y-4335D01*
X68460Y-4335D02*
X69247Y-4335D01*
X69641Y-5178D02*
X69641Y-4335D01*
X70428Y-5178D02*
X70428Y-4335D01*
X69641Y-4757D02*
X70428Y-4757D01*
X74208Y-4503D02*
X74470Y-4335D01*
X74733Y-4335D01*
X74995Y-4503D01*
X74995Y-5010D01*
X74733Y-5178D01*
X74470Y-5178D01*
X74208Y-5010D01*
X74208Y-4503D01*
X74995Y-4503D02*
X74208Y-5010D01*
X77226Y-5178D02*
X77095Y-5178D01*
X76832Y-5010D01*
X76832Y-4503D01*
X77095Y-4335D01*
X77226Y-4335D01*
X77751Y-5178D02*
X77751Y-4335D01*
X78276Y-4335D01*
X78538Y-4503D01*
X78538Y-4588D01*
X78276Y-4757D01*
X77751Y-4757D01*
X77882Y-4757D02*
X78538Y-5178D01*
X78932Y-5010D02*
X79195Y-5178D01*
X79457Y-5178D01*
X79719Y-5010D01*
X79719Y-4503D01*
X79457Y-4335D01*
X79195Y-4335D01*
X78932Y-4503D01*
X78932Y-5010D01*
X80113Y-4335D02*
X80113Y-5010D01*
X80376Y-5178D01*
X80638Y-5178D01*
X80901Y-5010D01*
X80901Y-4335D01*
X81294Y-5178D02*
X81294Y-4335D01*
X82082Y-5178D01*
X82082Y-4335D01*
X82475Y-5178D02*
X83000Y-5178D01*
X83263Y-5010D01*
X83263Y-4503D01*
X83000Y-4335D01*
X82475Y-4335D01*
X82607Y-4335D02*
X82607Y-5178D01*
X83788Y-4335D02*
X83919Y-4335D01*
X84181Y-4503D01*
X84181Y-5010D01*
X83919Y-5178D01*
X83788Y-5178D01*
X47055Y-2805D02*
X47187Y-2721D01*
X47449Y-2721D01*
X47712Y-2889D01*
X47712Y-3058D01*
X47580Y-3142D01*
X47712Y-3227D01*
X47712Y-3396D01*
X47449Y-3564D01*
X47187Y-3564D01*
X47055Y-3480D01*
X47187Y-3142D02*
X47580Y-3142D01*
X48893Y-2721D02*
X48105Y-2721D01*
X48105Y-3058D01*
X48630Y-3058D01*
X48893Y-3227D01*
X48893Y-3396D01*
X48630Y-3564D01*
X48105Y-3564D01*
X49680Y-3564D02*
X49680Y-3480D01*
X50467Y-2889D02*
X50730Y-2721D01*
X50992Y-2721D01*
X51255Y-2889D01*
X51255Y-3396D01*
X50992Y-3564D01*
X50730Y-3564D01*
X50467Y-3396D01*
X50467Y-2889D01*
X51255Y-2889D02*
X50467Y-3396D01*
X51649Y-2889D02*
X51911Y-2721D01*
X52174Y-2721D01*
X52436Y-2889D01*
X52436Y-3396D01*
X52174Y-3564D01*
X51911Y-3564D01*
X51649Y-3396D01*
X51649Y-2889D01*
X52436Y-2889D02*
X51649Y-3396D01*
X52830Y-2889D02*
X53092Y-2721D01*
X53355Y-2721D01*
X53617Y-2889D01*
X53617Y-3396D01*
X53355Y-3564D01*
X53092Y-3564D01*
X52830Y-3396D01*
X52830Y-2889D01*
X53617Y-2889D02*
X52830Y-3396D01*
X54011Y-2889D02*
X54273Y-2721D01*
X54536Y-2721D01*
X54798Y-2889D01*
X54798Y-3396D01*
X54536Y-3564D01*
X54273Y-3564D01*
X54011Y-3396D01*
X54011Y-2889D01*
X54798Y-2889D02*
X54011Y-3396D01*
X59890Y-2805D02*
X60021Y-2721D01*
X60284Y-2721D01*
X60546Y-2889D01*
X60546Y-3058D01*
X60415Y-3142D01*
X60546Y-3227D01*
X60546Y-3396D01*
X60284Y-3564D01*
X60021Y-3564D01*
X59890Y-3480D01*
X60021Y-3142D02*
X60415Y-3142D01*
X67278Y-3564D02*
X67278Y-2721D01*
X67803Y-2721D01*
X68066Y-2889D01*
X68066Y-2974D01*
X67803Y-3142D01*
X67278Y-3142D01*
X68853Y-3564D02*
X68853Y-2721D01*
X68460Y-2721D02*
X69247Y-2721D01*
X69641Y-3564D02*
X69641Y-2721D01*
X70428Y-3564D02*
X70428Y-2721D01*
X69641Y-3142D02*
X70428Y-3142D01*
X74208Y-2889D02*
X74470Y-2721D01*
X74733Y-2721D01*
X74995Y-2889D01*
X74995Y-3396D01*
X74733Y-3564D01*
X74470Y-3564D01*
X74208Y-3396D01*
X74208Y-2889D01*
X74995Y-2889D02*
X74208Y-3396D01*
X77226Y-3564D02*
X77095Y-3564D01*
X76832Y-3396D01*
X76832Y-2889D01*
X77095Y-2721D01*
X77226Y-2721D01*
X77751Y-3564D02*
X77751Y-2721D01*
X78276Y-2721D01*
X78538Y-2889D01*
X78538Y-2974D01*
X78276Y-3142D01*
X77751Y-3142D01*
X77882Y-3142D02*
X78538Y-3564D01*
X78932Y-3396D02*
X79195Y-3564D01*
X79457Y-3564D01*
X79719Y-3396D01*
X79719Y-2889D01*
X79457Y-2721D01*
X79195Y-2721D01*
X78932Y-2889D01*
X78932Y-3396D01*
X80113Y-2721D02*
X80113Y-3396D01*
X80376Y-3564D01*
X80638Y-3564D01*
X80901Y-3396D01*
X80901Y-2721D01*
X81294Y-3564D02*
X81294Y-2721D01*
X82082Y-3564D01*
X82082Y-2721D01*
X82475Y-3564D02*
X83000Y-3564D01*
X83263Y-3396D01*
X83263Y-2889D01*
X83000Y-2721D01*
X82475Y-2721D01*
X82607Y-2721D02*
X82607Y-3564D01*
X83788Y-2721D02*
X83919Y-2721D01*
X84181Y-2889D01*
X84181Y-3396D01*
X83919Y-3564D01*
X83788Y-3564D01*
X46924Y-1275D02*
X47187Y-1106D01*
X47449Y-1106D01*
X47712Y-1275D01*
X47712Y-1360D01*
X46924Y-1950D01*
X47712Y-1950D01*
X47712Y-1866D01*
X48105Y-1275D02*
X48368Y-1106D01*
X48630Y-1106D01*
X48893Y-1275D01*
X48893Y-1781D01*
X48630Y-1950D01*
X48368Y-1950D01*
X48105Y-1781D01*
X48105Y-1275D01*
X48893Y-1275D02*
X48105Y-1781D01*
X49680Y-1950D02*
X49680Y-1866D01*
X50467Y-1275D02*
X50730Y-1106D01*
X50992Y-1106D01*
X51255Y-1275D01*
X51255Y-1781D01*
X50992Y-1950D01*
X50730Y-1950D01*
X50467Y-1781D01*
X50467Y-1275D01*
X51255Y-1275D02*
X50467Y-1781D01*
X51649Y-1275D02*
X51911Y-1106D01*
X52174Y-1106D01*
X52436Y-1275D01*
X52436Y-1781D01*
X52174Y-1950D01*
X51911Y-1950D01*
X51649Y-1781D01*
X51649Y-1275D01*
X52436Y-1275D02*
X51649Y-1781D01*
X52830Y-1275D02*
X53092Y-1106D01*
X53355Y-1106D01*
X53617Y-1275D01*
X53617Y-1781D01*
X53355Y-1950D01*
X53092Y-1950D01*
X52830Y-1781D01*
X52830Y-1275D01*
X53617Y-1275D02*
X52830Y-1781D01*
X54011Y-1275D02*
X54273Y-1106D01*
X54536Y-1106D01*
X54798Y-1275D01*
X54798Y-1781D01*
X54536Y-1950D01*
X54273Y-1950D01*
X54011Y-1781D01*
X54011Y-1275D01*
X54798Y-1275D02*
X54011Y-1781D01*
X59890Y-1275D02*
X60153Y-1106D01*
X60153Y-1950D01*
X59759Y-1950D02*
X60546Y-1950D01*
X67278Y-1950D02*
X67278Y-1106D01*
X67803Y-1106D01*
X68066Y-1275D01*
X68066Y-1360D01*
X67803Y-1528D01*
X67278Y-1528D01*
X68853Y-1950D02*
X68853Y-1106D01*
X68460Y-1106D02*
X69247Y-1106D01*
X69641Y-1950D02*
X69641Y-1106D01*
X70428Y-1950D02*
X70428Y-1106D01*
X69641Y-1528D02*
X70428Y-1528D01*
X74208Y-1275D02*
X74470Y-1106D01*
X74733Y-1106D01*
X74995Y-1275D01*
X74995Y-1781D01*
X74733Y-1950D01*
X74470Y-1950D01*
X74208Y-1781D01*
X74208Y-1275D01*
X74995Y-1275D02*
X74208Y-1781D01*
X77226Y-1950D02*
X77095Y-1950D01*
X76832Y-1781D01*
X76832Y-1275D01*
X77095Y-1106D01*
X77226Y-1106D01*
X77751Y-1950D02*
X77751Y-1106D01*
X78276Y-1106D01*
X78538Y-1275D01*
X78538Y-1360D01*
X78276Y-1528D01*
X77751Y-1528D01*
X77882Y-1528D02*
X78538Y-1950D01*
X78932Y-1781D02*
X79195Y-1950D01*
X79457Y-1950D01*
X79719Y-1781D01*
X79719Y-1275D01*
X79457Y-1106D01*
X79195Y-1106D01*
X78932Y-1275D01*
X78932Y-1781D01*
X80113Y-1106D02*
X80113Y-1781D01*
X80376Y-1950D01*
X80638Y-1950D01*
X80901Y-1781D01*
X80901Y-1106D01*
X81294Y-1950D02*
X81294Y-1106D01*
X82082Y-1950D01*
X82082Y-1106D01*
X82475Y-1950D02*
X83000Y-1950D01*
X83263Y-1781D01*
X83263Y-1275D01*
X83000Y-1106D01*
X82475Y-1106D01*
X82607Y-1106D02*
X82607Y-1950D01*
X83788Y-1106D02*
X83919Y-1106D01*
X84181Y-1275D01*
X84181Y-1781D01*
X83919Y-1950D01*
X83788Y-1950D01*
X47055Y339D02*
X47318Y508D01*
X47318Y-336D01*
X46924Y-336D02*
X47712Y-336D01*
X48893Y508D02*
X48105Y508D01*
X48105Y170D01*
X48630Y170D01*
X48893Y2D01*
X48893Y-167D01*
X48630Y-336D01*
X48105Y-336D01*
X49680Y-336D02*
X49680Y-252D01*
X50467Y339D02*
X50730Y508D01*
X50992Y508D01*
X51255Y339D01*
X51255Y-167D01*
X50992Y-336D01*
X50730Y-336D01*
X50467Y-167D01*
X50467Y339D01*
X51255Y339D02*
X50467Y-167D01*
X51649Y339D02*
X51911Y508D01*
X52174Y508D01*
X52436Y339D01*
X52436Y-167D01*
X52174Y-336D01*
X51911Y-336D01*
X51649Y-167D01*
X51649Y339D01*
X52436Y339D02*
X51649Y-167D01*
X52830Y339D02*
X53092Y508D01*
X53355Y508D01*
X53617Y339D01*
X53617Y-167D01*
X53355Y-336D01*
X53092Y-336D01*
X52830Y-167D01*
X52830Y339D01*
X53617Y339D02*
X52830Y-167D01*
X54011Y339D02*
X54273Y508D01*
X54536Y508D01*
X54798Y339D01*
X54798Y-167D01*
X54536Y-336D01*
X54273Y-336D01*
X54011Y-167D01*
X54011Y339D01*
X54798Y339D02*
X54011Y-167D01*
X59299Y339D02*
X59562Y508D01*
X59562Y-336D01*
X59168Y-336D02*
X59956Y-336D01*
X60481Y339D02*
X60743Y508D01*
X60743Y-336D01*
X60349Y-336D02*
X61137Y-336D01*
X67278Y-336D02*
X67278Y508D01*
X67803Y508D01*
X68066Y339D01*
X68066Y255D01*
X67803Y86D01*
X67278Y86D01*
X68853Y-336D02*
X68853Y508D01*
X68460Y508D02*
X69247Y508D01*
X69641Y-336D02*
X69641Y508D01*
X70428Y-336D02*
X70428Y508D01*
X69641Y86D02*
X70428Y86D01*
X74208Y339D02*
X74470Y508D01*
X74733Y508D01*
X74995Y339D01*
X74995Y-167D01*
X74733Y-336D01*
X74470Y-336D01*
X74208Y-167D01*
X74208Y339D01*
X74995Y339D02*
X74208Y-167D01*
X77226Y-336D02*
X77095Y-336D01*
X76832Y-167D01*
X76832Y339D01*
X77095Y508D01*
X77226Y508D01*
X77751Y-336D02*
X77751Y508D01*
X78276Y508D01*
X78538Y339D01*
X78538Y255D01*
X78276Y86D01*
X77751Y86D01*
X77882Y86D02*
X78538Y-336D01*
X78932Y-167D02*
X79195Y-336D01*
X79457Y-336D01*
X79719Y-167D01*
X79719Y339D01*
X79457Y508D01*
X79195Y508D01*
X78932Y339D01*
X78932Y-167D01*
X80113Y508D02*
X80113Y-167D01*
X80376Y-336D01*
X80638Y-336D01*
X80901Y-167D01*
X80901Y508D01*
X81294Y-336D02*
X81294Y508D01*
X82082Y-336D01*
X82082Y508D01*
X82475Y-336D02*
X83000Y-336D01*
X83263Y-167D01*
X83263Y339D01*
X83000Y508D01*
X82475Y508D01*
X82607Y508D02*
X82607Y-336D01*
X83788Y508D02*
X83919Y508D01*
X84181Y339D01*
X84181Y-167D01*
X83919Y-336D01*
X83788Y-336D01*
G54D12*
X-19312Y-10854D02*
X-19057Y-11108D01*
X-19312Y-11108D02*
X-19057Y-10854D01*
X-13412Y-10854D02*
X-13157Y-11108D01*
X-13412Y-11108D02*
X-13157Y-10854D01*
X-15612Y-6454D02*
X-15357Y-6708D01*
X-15612Y-6708D02*
X-15357Y-6454D01*
X-9812Y-6454D02*
X-9557Y-6708D01*
X-9812Y-6708D02*
X-9557Y-6454D01*
X-20912Y-3154D02*
X-20657Y-3408D01*
X-20912Y-3408D02*
X-20657Y-3154D01*
X-21868Y-13200D02*
X-21518Y-13200D01*
X-21518Y-12850D01*
X-21868Y-12850D01*
X-21868Y-13200D01*
X-21159Y-13712D02*
X-20809Y-13712D01*
X-20809Y-13362D01*
X-21159Y-13362D01*
X-21159Y-13712D01*
X-20451Y-13200D02*
X-20101Y-13200D01*
X-20101Y-12850D01*
X-20451Y-12850D01*
X-20451Y-13200D01*
X3852Y-1040D02*
X4107Y-1294D01*
X3852Y-1294D02*
X4107Y-1040D01*
X6852Y-12040D02*
X7107Y-12294D01*
X6852Y-12294D02*
X7107Y-12040D01*
X8380Y627D02*
X8486Y733D01*
X8380Y839D01*
X8273Y733D01*
X8380Y627D01*
X8752Y-10640D02*
X9007Y-10894D01*
X8752Y-10894D02*
X9007Y-10640D01*
X9052Y-1840D02*
X9307Y-2094D01*
X9052Y-2094D02*
X9307Y-1840D01*
X9380Y-5673D02*
X9486Y-5567D01*
X9380Y-5461D01*
X9273Y-5567D01*
X9380Y-5673D01*
X8880Y-7273D02*
X8986Y-7167D01*
X8880Y-7061D01*
X8773Y-7167D01*
X8880Y-7273D01*
X10180Y-6273D02*
X10286Y-6167D01*
X10180Y-6061D01*
X10073Y-6167D01*
X10180Y-6273D01*
X9580Y-10867D02*
X9780Y-10867D01*
X9680Y-10696D01*
X9580Y-10867D01*
X10152Y-11840D02*
X10407Y-12094D01*
X10152Y-12094D02*
X10407Y-11840D01*
X10880Y-1773D02*
X10986Y-1667D01*
X10880Y-1561D01*
X10773Y-1667D01*
X10880Y-1773D01*
X11680Y-2673D02*
X11786Y-2567D01*
X11680Y-2461D01*
X11573Y-2567D01*
X11680Y-2673D01*
X11280Y-7273D02*
X11386Y-7167D01*
X11280Y-7061D01*
X11173Y-7167D01*
X11280Y-7273D01*
X18252Y-3440D02*
X18507Y-3694D01*
X18252Y-3694D02*
X18507Y-3440D01*
X17980Y-6473D02*
X18086Y-6367D01*
X17980Y-6261D01*
X17873Y-6367D01*
X17980Y-6473D01*
X18452Y-4540D02*
X18707Y-4794D01*
X18452Y-4794D02*
X18707Y-4540D01*
X18452Y-8840D02*
X18707Y-9094D01*
X18452Y-9094D02*
X18707Y-8840D01*
X19852Y-12440D02*
X20107Y-12694D01*
X19852Y-12694D02*
X20107Y-12440D01*
X20980Y-7973D02*
X21086Y-7867D01*
X20980Y-7761D01*
X20873Y-7867D01*
X20980Y-7973D01*
X22252Y-5540D02*
X22507Y-5794D01*
X22252Y-5794D02*
X22507Y-5540D01*
X22780Y-2873D02*
X22886Y-2767D01*
X22780Y-2661D01*
X22673Y-2767D01*
X22780Y-2873D01*
X25180Y-7273D02*
X25286Y-7167D01*
X25180Y-7061D01*
X25073Y-7167D01*
X25180Y-7273D01*
X42689Y-4714D02*
X42944Y-4968D01*
X42689Y-4968D02*
X42944Y-4714D01*
X42642Y-3402D02*
X42992Y-3402D01*
X42992Y-3052D01*
X42642Y-3052D01*
X42642Y-3402D01*
X42717Y-1713D02*
X42917Y-1713D01*
X42817Y-1542D01*
X42717Y-1713D01*
X42817Y-104D02*
X42923Y2D01*
X42817Y108D01*
X42710Y2D01*
X42817Y-104D01*
G04 ColorRGB 00FFFF for the following layer *
%LNBoard Outline*%
%LPD*%
G54D10*
G54D13*
X-29134Y-18898D02*
X30886Y-18898D01*
X30886Y5354D01*
X-29134Y5354D01*
X-29134Y-18898D01*
G54D14*
X-30140Y-18998D02*
X-30140Y-16553D01*
X-30140Y-18998D02*
X-24027Y-18998D01*
X30986Y-18998D02*
X24873Y-18998D01*
X30986Y-18998D02*
X30986Y-16553D01*
X30986Y5454D02*
X30986Y3009D01*
X30986Y5454D02*
X24873Y5454D01*
X-30140Y5454D02*
X-24027Y5454D01*
X-30140Y5454D02*
X-30140Y3009D01*
X-32109Y-18998D02*
X-36046Y-18998D01*
X-34077Y-20966D02*
X-34077Y-17029D01*
X-35553Y-18998D02*
G75*
D01*
G02X-35553Y-18998I1476J0*
G01*
X32954Y-18998D02*
X36891Y-18998D01*
X34923Y-20966D02*
X34923Y-17029D01*
X33446Y-18998D02*
G75*
D01*
G02X33446Y-18998I1477J0*
G01*
X34431Y-18998D02*
G75*
D01*
G02X34431Y-18998I492J0*
G01*
X-32109Y5454D02*
X-36046Y5454D01*
X-34077Y3486D02*
X-34077Y7423D01*
X-35553Y5454D02*
G75*
D01*
G02X-35553Y5454I1476J0*
G01*
X-35061Y5454D02*
G75*
D01*
G02X-35061Y5454I984J0*
G01*
X-34569Y5454D02*
G75*
D01*
G02X-34569Y5454I492J0*
G01*
G04 ColorRGB 66FFCC for the following layer *
%LNLegend Description*%
%LPD*%
G54D11*
X39057Y-8876D02*
X86104Y-8876D01*
X86104Y5651D01*
X39057Y5651D01*
X39057Y-8876D01*
X46576Y2423D02*
X46576Y-8876D01*
X55277Y2423D02*
X55277Y-8876D01*
X65159Y2423D02*
X65159Y-8876D01*
X72679Y2423D02*
X72679Y-8876D01*
X86104Y2423D02*
X86104Y-8876D01*
X39057Y-7262D02*
X86104Y-7262D01*
X39057Y-5648D02*
X86104Y-5648D01*
X39057Y-4034D02*
X86104Y-4034D01*
X39057Y-2420D02*
X86104Y-2420D01*
X39057Y-806D02*
X86104Y-806D01*
X39404Y1447D02*
X39667Y1278D01*
X39929Y1278D01*
X40192Y1447D01*
X39404Y1953D01*
X39667Y2122D01*
X39929Y2122D01*
X40192Y1953D01*
X40586Y1025D02*
X40717Y1025D01*
X41373Y1869D01*
X40586Y1869D02*
X40979Y1363D01*
X41767Y1278D02*
X41767Y1784D01*
X41767Y1869D01*
X41767Y1784D02*
X41898Y1869D01*
X42029Y1869D01*
X42160Y1784D01*
X42292Y1869D01*
X42423Y1869D01*
X42554Y1784D01*
X42554Y1278D01*
X42160Y1784D02*
X42160Y1278D01*
X42948Y1447D02*
X43210Y1278D01*
X43473Y1278D01*
X43735Y1447D01*
X43735Y1616D01*
X43473Y1784D01*
X43210Y1784D01*
X42948Y1616D01*
X42948Y2122D02*
X42948Y1278D01*
X44129Y1447D02*
X44391Y1278D01*
X44654Y1278D01*
X44916Y1447D01*
X44916Y1700D01*
X44654Y1869D01*
X44391Y1869D01*
X44129Y1700D01*
X44129Y1447D01*
X45441Y2122D02*
X45441Y1447D01*
X45704Y1278D01*
X39057Y809D02*
X86104Y809D01*
X48696Y1447D02*
X48958Y1278D01*
X49221Y1278D01*
X49483Y1447D01*
X48696Y1953D01*
X48958Y2122D01*
X49221Y2122D01*
X49483Y1953D01*
X50271Y1278D02*
X50271Y1784D01*
X50271Y1953D02*
X50271Y2038D01*
X51058Y1869D02*
X51845Y1869D01*
X51058Y1278D01*
X51845Y1278D01*
X53027Y1447D02*
X52764Y1278D01*
X52502Y1278D01*
X52239Y1447D01*
X52239Y1700D01*
X52502Y1869D01*
X52764Y1869D01*
X53027Y1700D01*
X52895Y1616D01*
X52239Y1616D01*
X55625Y1447D02*
X55887Y1278D01*
X56150Y1278D01*
X56412Y1447D01*
X56412Y1953D01*
X56150Y2122D01*
X55887Y2122D01*
X55625Y1953D01*
X55625Y1447D01*
X56150Y1447D02*
X56412Y1278D01*
X56806Y1869D02*
X56806Y1447D01*
X57069Y1278D01*
X57331Y1278D01*
X57593Y1447D01*
X57593Y1869D01*
X57593Y1447D02*
X57593Y1278D01*
X58118Y1869D02*
X58512Y1869D01*
X58643Y1784D01*
X58643Y1363D01*
X58512Y1278D01*
X58118Y1278D01*
X57987Y1363D01*
X57987Y1531D01*
X58118Y1616D01*
X58643Y1616D01*
X58643Y1363D02*
X58775Y1278D01*
X59168Y1278D02*
X59168Y1784D01*
X59168Y1869D01*
X59168Y1784D02*
X59299Y1869D01*
X59562Y1869D01*
X59693Y1784D01*
X59693Y1278D01*
X61006Y1363D02*
X60874Y1278D01*
X60743Y1363D01*
X60743Y2122D01*
X60481Y1869D02*
X61006Y1869D01*
X61924Y1278D02*
X61924Y1784D01*
X61924Y1953D02*
X61924Y2038D01*
X63368Y1363D02*
X63236Y1278D01*
X63105Y1363D01*
X63105Y2122D01*
X62843Y1869D02*
X63368Y1869D01*
X63893Y1025D02*
X64024Y1025D01*
X64680Y1869D01*
X63893Y1869D02*
X64286Y1363D01*
X65507Y1278D02*
X65507Y2122D01*
X66032Y2122D01*
X66294Y1953D01*
X66294Y1869D01*
X66032Y1700D01*
X65507Y1700D01*
X66819Y2122D02*
X66819Y1447D01*
X67082Y1278D01*
X68000Y1869D02*
X68394Y1869D01*
X68525Y1784D01*
X68525Y1363D01*
X68394Y1278D01*
X68000Y1278D01*
X67869Y1363D01*
X67869Y1531D01*
X68000Y1616D01*
X68525Y1616D01*
X68525Y1363D02*
X68656Y1278D01*
X69706Y1363D02*
X69575Y1278D01*
X69444Y1363D01*
X69444Y2122D01*
X69181Y1869D02*
X69706Y1869D01*
X71019Y1447D02*
X70756Y1278D01*
X70494Y1278D01*
X70231Y1447D01*
X70231Y1700D01*
X70494Y1869D01*
X70756Y1869D01*
X71019Y1700D01*
X70887Y1616D01*
X70231Y1616D01*
X72200Y1447D02*
X71937Y1278D01*
X71675Y1278D01*
X71412Y1447D01*
X71412Y1616D01*
X71675Y1784D01*
X71937Y1784D01*
X72200Y1616D01*
X72200Y2122D02*
X72200Y1278D01*
X73027Y1447D02*
X73289Y1278D01*
X73551Y1278D01*
X73814Y1447D01*
X73027Y1953D01*
X73289Y2122D01*
X73551Y2122D01*
X73814Y1953D01*
X74339Y2122D02*
X74339Y1447D01*
X74601Y1278D01*
X75389Y1447D02*
X75651Y1278D01*
X75914Y1278D01*
X76176Y1447D01*
X76176Y1700D01*
X75914Y1869D01*
X75651Y1869D01*
X75389Y1700D01*
X75389Y1447D01*
X77226Y1363D02*
X77095Y1278D01*
X76964Y1363D01*
X76964Y2122D01*
X76701Y1869D02*
X77226Y1869D01*
X78932Y2122D02*
X78932Y1278D01*
X79719Y1278D01*
X80901Y1447D02*
X80638Y1278D01*
X80376Y1278D01*
X80113Y1447D01*
X80113Y1700D01*
X80376Y1869D01*
X80638Y1869D01*
X80901Y1700D01*
X80769Y1616D01*
X80113Y1616D01*
X81294Y1278D02*
X81294Y1784D01*
X81294Y1869D01*
X81294Y1784D02*
X81425Y1869D01*
X81688Y1869D01*
X81819Y1784D01*
X81819Y1278D01*
X82475Y1194D02*
X82738Y1025D01*
X83000Y1025D01*
X83263Y1194D01*
X83263Y1447D01*
X83263Y1700D01*
X83000Y1869D01*
X82738Y1869D01*
X82475Y1700D01*
X82475Y1447D01*
X82738Y1278D01*
X83000Y1278D01*
X83263Y1447D01*
X84313Y1363D02*
X84181Y1278D01*
X84050Y1363D01*
X84050Y2122D01*
X83788Y1869D02*
X84313Y1869D01*
X84838Y1700D02*
X85100Y1869D01*
X85362Y1869D01*
X85625Y1700D01*
X85625Y1278D01*
X84838Y2122D02*
X84838Y1278D01*
X39057Y2423D02*
X86104Y2423D01*
X50901Y2892D02*
X50901Y3399D01*
X51163Y3736D01*
X51425Y3736D01*
X51688Y3399D01*
X51688Y2892D01*
X50901Y3146D02*
X51688Y3146D01*
X52213Y3736D02*
X52213Y3061D01*
X52475Y2892D01*
X53394Y3736D02*
X53394Y3061D01*
X53656Y2892D01*
X55625Y3483D02*
X55625Y3061D01*
X55887Y2892D01*
X56150Y2892D01*
X56412Y3061D01*
X56412Y3483D01*
X56412Y3061D02*
X56412Y2892D01*
X56806Y2892D02*
X56806Y3399D01*
X56806Y3483D01*
X56806Y3399D02*
X56937Y3483D01*
X57200Y3483D01*
X57331Y3399D01*
X57331Y2892D01*
X58381Y2892D02*
X58381Y3399D01*
X58381Y3567D02*
X58381Y3652D01*
X59824Y2977D02*
X59693Y2892D01*
X59562Y2977D01*
X59562Y3736D01*
X59299Y3483D02*
X59824Y3483D01*
X60349Y3061D02*
X60612Y2892D01*
X60874Y2892D01*
X61137Y3061D01*
X60349Y3314D01*
X60612Y3483D01*
X60874Y3483D01*
X61137Y3314D01*
X62843Y3483D02*
X63236Y3483D01*
X63368Y3399D01*
X63368Y2977D01*
X63236Y2892D01*
X62843Y2892D01*
X62712Y2977D01*
X62712Y3146D01*
X62843Y3230D01*
X63368Y3230D01*
X63368Y2977D02*
X63499Y2892D01*
X63893Y3230D02*
X64286Y3483D01*
X64418Y3483D01*
X64680Y3314D01*
X63893Y2892D02*
X63893Y3483D01*
X65861Y3061D02*
X65599Y2892D01*
X65336Y2892D01*
X65074Y3061D01*
X65074Y3314D01*
X65336Y3483D01*
X65599Y3483D01*
X65861Y3314D01*
X65730Y3230D01*
X65074Y3230D01*
X67830Y2892D02*
X67830Y3399D01*
X67830Y3567D02*
X67830Y3652D01*
X68617Y2892D02*
X68617Y3399D01*
X68617Y3483D01*
X68617Y3399D02*
X68748Y3483D01*
X69011Y3483D01*
X69142Y3399D01*
X69142Y2892D01*
X70979Y2892D02*
X70979Y3399D01*
X70979Y3483D01*
X70979Y3399D02*
X71111Y3483D01*
X71242Y3483D01*
X71373Y3399D01*
X71504Y3483D01*
X71635Y3483D01*
X71767Y3399D01*
X71767Y2892D01*
X71373Y3399D02*
X71373Y2892D01*
X72554Y2892D02*
X72554Y3399D01*
X72554Y3567D02*
X72554Y3652D01*
X73473Y3736D02*
X73473Y3061D01*
X73735Y2892D01*
X39057Y4037D02*
X86104Y4037D01*
X55625Y4507D02*
X56150Y4507D01*
X56412Y4675D01*
X56412Y5182D01*
X56150Y5350D01*
X55625Y5350D01*
X55756Y5350D02*
X55756Y4507D01*
X56806Y4844D02*
X57200Y5097D01*
X57331Y5097D01*
X57593Y4928D01*
X56806Y4507D02*
X56806Y5097D01*
X58381Y4507D02*
X58381Y5013D01*
X58381Y5182D02*
X58381Y5266D01*
X59299Y5350D02*
X59299Y4675D01*
X59562Y4507D01*
X60481Y5350D02*
X60481Y4675D01*
X60743Y4507D01*
X62712Y5350D02*
X62712Y4507D01*
X63499Y4507D01*
X64680Y4675D02*
X64418Y4507D01*
X64155Y4507D01*
X63893Y4675D01*
X63893Y4928D01*
X64155Y5097D01*
X64418Y5097D01*
X64680Y4928D01*
X64549Y4844D01*
X63893Y4844D01*
X65074Y4422D02*
X65336Y4254D01*
X65599Y4254D01*
X65861Y4422D01*
X65861Y4675D01*
X65861Y4928D01*
X65599Y5097D01*
X65336Y5097D01*
X65074Y4928D01*
X65074Y4675D01*
X65336Y4507D01*
X65599Y4507D01*
X65861Y4675D01*
X67042Y4675D02*
X66780Y4507D01*
X66517Y4507D01*
X66255Y4675D01*
X66255Y4928D01*
X66517Y5097D01*
X66780Y5097D01*
X67042Y4928D01*
X66911Y4844D01*
X66255Y4844D01*
X67436Y4507D02*
X67436Y5013D01*
X67436Y5097D01*
X67436Y5013D02*
X67567Y5097D01*
X67830Y5097D01*
X67961Y5013D01*
X67961Y4507D01*
X69404Y4675D02*
X69142Y4507D01*
X68880Y4507D01*
X68617Y4675D01*
X68617Y4844D01*
X68880Y5013D01*
X69142Y5013D01*
X69404Y4844D01*
X69404Y5350D02*
X69404Y4507D01*

M02*
