G04 Generated by Ultiboard 13.0 *
%FSLAX24Y24*%
%MOIN*%

%ADD10C,0.0001*%
%ADD11C,0.0080*%
%ADD12C,0.0067*%
%ADD13C,0.0010*%
%ADD14C,0.0079*%
%ADD15C,0.0098*%
%ADD16C,0.0001*%
%ADD17C,0.0100*%
%ADD18C,0.0037*%
%ADD19C,0.0050*%


G04 ColorRGB FFFF00 for the following layer *
%LNSilkscreen Top*%
%LPD*%
G54D10*
G54D11*
X-26100Y-16700D02*
X-26108Y-16526D01*
X-26130Y-16353D01*
X-26168Y-16182D01*
X-26221Y-16016D01*
X-26287Y-15855D01*
X-26368Y-15700D01*
X-26462Y-15553D01*
X-26568Y-15414D01*
X-26686Y-15286D01*
X-26814Y-15168D01*
X-26953Y-15062D01*
X-27100Y-14968D01*
X-27255Y-14887D01*
X-27416Y-14821D01*
X-27582Y-14768D01*
X-27753Y-14730D01*
X-27926Y-14708D01*
X-28100Y-14700D01*
X-28274Y-14708D01*
X-28447Y-14730D01*
X-28618Y-14768D01*
X-28784Y-14821D01*
X-28945Y-14887D01*
X-29100Y-14968D01*
X-29247Y-15062D01*
X-29386Y-15168D01*
X-29514Y-15286D01*
X-29632Y-15414D01*
X-29738Y-15553D01*
X-29832Y-15700D01*
X-29913Y-15855D01*
X-29979Y-16016D01*
X-30032Y-16182D01*
X-30070Y-16353D01*
X-30092Y-16526D01*
X-30100Y-16700D01*
X-30092Y-16874D01*
X-30070Y-17047D01*
X-30032Y-17218D01*
X-29979Y-17384D01*
X-29913Y-17545D01*
X-29832Y-17700D01*
X-29738Y-17847D01*
X-29632Y-17986D01*
X-29514Y-18114D01*
X-29386Y-18232D01*
X-29247Y-18338D01*
X-29100Y-18432D01*
X-28945Y-18513D01*
X-28784Y-18579D01*
X-28618Y-18632D01*
X-28447Y-18670D01*
X-28274Y-18692D01*
X-28100Y-18700D01*
X-27926Y-18692D01*
X-27753Y-18670D01*
X-27582Y-18632D01*
X-27416Y-18579D01*
X-27255Y-18513D01*
X-27100Y-18432D01*
X-26953Y-18338D01*
X-26814Y-18232D01*
X-26686Y-18114D01*
X-26568Y-17986D01*
X-26462Y-17847D01*
X-26368Y-17700D01*
X-26287Y-17545D01*
X-26221Y-17384D01*
X-26168Y-17218D01*
X-26130Y-17047D01*
X-26108Y-16874D01*
X-26100Y-16700D01*
X1459Y-16700D02*
X1451Y-16526D01*
X1429Y-16353D01*
X1391Y-16182D01*
X1338Y-16016D01*
X1272Y-15855D01*
X1191Y-15700D01*
X1097Y-15553D01*
X991Y-15414D01*
X873Y-15286D01*
X745Y-15168D01*
X606Y-15062D01*
X459Y-14968D01*
X304Y-14887D01*
X143Y-14821D01*
X-23Y-14768D01*
X-194Y-14730D01*
X-367Y-14708D01*
X-541Y-14700D01*
X-715Y-14708D01*
X-888Y-14730D01*
X-1059Y-14768D01*
X-1225Y-14821D01*
X-1386Y-14887D01*
X-1541Y-14968D01*
X-1688Y-15062D01*
X-1827Y-15168D01*
X-1955Y-15286D01*
X-2073Y-15414D01*
X-2179Y-15553D01*
X-2273Y-15700D01*
X-2354Y-15855D01*
X-2420Y-16016D01*
X-2473Y-16182D01*
X-2511Y-16353D01*
X-2533Y-16526D01*
X-2541Y-16700D01*
X-2533Y-16874D01*
X-2511Y-17047D01*
X-2473Y-17218D01*
X-2420Y-17384D01*
X-2354Y-17545D01*
X-2273Y-17700D01*
X-2179Y-17847D01*
X-2073Y-17986D01*
X-1955Y-18114D01*
X-1827Y-18232D01*
X-1688Y-18338D01*
X-1541Y-18432D01*
X-1386Y-18513D01*
X-1225Y-18579D01*
X-1059Y-18632D01*
X-888Y-18670D01*
X-715Y-18692D01*
X-541Y-18700D01*
X-367Y-18692D01*
X-194Y-18670D01*
X-23Y-18632D01*
X143Y-18579D01*
X304Y-18513D01*
X459Y-18432D01*
X606Y-18338D01*
X745Y-18232D01*
X873Y-18114D01*
X991Y-17986D01*
X1097Y-17847D01*
X1191Y-17700D01*
X1272Y-17545D01*
X1338Y-17384D01*
X1391Y-17218D01*
X1429Y-17047D01*
X1451Y-16874D01*
X1459Y-16700D01*
X-4209Y-15901D02*
X-4209Y-14523D01*
X-4898Y-14523D01*
X-4898Y-15901D01*
X-4209Y-15901D01*
X-25467Y-1826D02*
X-25467Y-4464D01*
X-22830Y-4464D01*
X-22830Y-1826D01*
X-25467Y-1826D01*
X-26100Y2867D02*
X-26108Y3041D01*
X-26130Y3214D01*
X-26168Y3385D01*
X-26221Y3551D01*
X-26287Y3712D01*
X-26368Y3867D01*
X-26462Y4014D01*
X-26568Y4153D01*
X-26686Y4281D01*
X-26814Y4399D01*
X-26953Y4505D01*
X-27100Y4599D01*
X-27255Y4680D01*
X-27416Y4746D01*
X-27582Y4799D01*
X-27753Y4837D01*
X-27926Y4859D01*
X-28100Y4867D01*
X-28274Y4859D01*
X-28447Y4837D01*
X-28618Y4799D01*
X-28784Y4746D01*
X-28945Y4680D01*
X-29100Y4599D01*
X-29247Y4505D01*
X-29386Y4399D01*
X-29514Y4281D01*
X-29632Y4153D01*
X-29738Y4014D01*
X-29832Y3867D01*
X-29913Y3712D01*
X-29979Y3551D01*
X-30032Y3385D01*
X-30070Y3214D01*
X-30092Y3041D01*
X-30100Y2867D01*
X-30092Y2693D01*
X-30070Y2520D01*
X-30032Y2349D01*
X-29979Y2183D01*
X-29913Y2022D01*
X-29832Y1867D01*
X-29738Y1720D01*
X-29632Y1581D01*
X-29514Y1453D01*
X-29386Y1335D01*
X-29247Y1229D01*
X-29100Y1135D01*
X-28945Y1054D01*
X-28784Y988D01*
X-28618Y935D01*
X-28447Y897D01*
X-28274Y875D01*
X-28100Y867D01*
X-27926Y875D01*
X-27753Y897D01*
X-27582Y935D01*
X-27416Y988D01*
X-27255Y1054D01*
X-27100Y1135D01*
X-26953Y1229D01*
X-26814Y1335D01*
X-26686Y1453D01*
X-26568Y1581D01*
X-26462Y1720D01*
X-26368Y1867D01*
X-26287Y2022D01*
X-26221Y2183D01*
X-26168Y2349D01*
X-26130Y2520D01*
X-26108Y2693D01*
X-26100Y2867D01*
X1459Y2867D02*
X1451Y3041D01*
X1429Y3214D01*
X1391Y3385D01*
X1338Y3551D01*
X1272Y3712D01*
X1191Y3867D01*
X1097Y4014D01*
X991Y4153D01*
X873Y4281D01*
X745Y4399D01*
X606Y4505D01*
X459Y4599D01*
X304Y4680D01*
X143Y4746D01*
X-23Y4799D01*
X-194Y4837D01*
X-367Y4859D01*
X-541Y4867D01*
X-715Y4859D01*
X-888Y4837D01*
X-1059Y4799D01*
X-1225Y4746D01*
X-1386Y4680D01*
X-1541Y4599D01*
X-1688Y4505D01*
X-1827Y4399D01*
X-1955Y4281D01*
X-2073Y4153D01*
X-2179Y4014D01*
X-2273Y3867D01*
X-2354Y3712D01*
X-2420Y3551D01*
X-2473Y3385D01*
X-2511Y3214D01*
X-2533Y3041D01*
X-2541Y2867D01*
X-2533Y2693D01*
X-2511Y2520D01*
X-2473Y2349D01*
X-2420Y2183D01*
X-2354Y2022D01*
X-2273Y1867D01*
X-2179Y1720D01*
X-2073Y1581D01*
X-1955Y1453D01*
X-1827Y1335D01*
X-1688Y1229D01*
X-1541Y1135D01*
X-1386Y1054D01*
X-1225Y988D01*
X-1059Y935D01*
X-888Y897D01*
X-715Y875D01*
X-541Y867D01*
X-367Y875D01*
X-194Y897D01*
X-23Y935D01*
X143Y988D01*
X304Y1054D01*
X459Y1135D01*
X606Y1229D01*
X745Y1335D01*
X873Y1453D01*
X991Y1581D01*
X1097Y1720D01*
X1191Y1867D01*
X1272Y2022D01*
X1338Y2183D01*
X1391Y2349D01*
X1429Y2520D01*
X1451Y2693D01*
X1459Y2867D01*
X-24191Y-17397D02*
X-4191Y-17397D01*
X-4191Y-16397D02*
X-24191Y-16397D01*
X-24191Y-17397D01*
X-23824Y-17397D02*
X-23691Y-17147D01*
X-23574Y-17397D01*
X-4191Y-17397D02*
X-4191Y-16397D01*
X-8084Y-13181D02*
X-7084Y-13181D01*
X-7084Y-12181D01*
X-8084Y-12181D01*
X-8084Y-13181D01*
X-6184Y-13181D02*
X-5184Y-13181D01*
X-5184Y-12181D01*
X-6184Y-12181D01*
X-6184Y-13181D01*
X-4284Y-13181D02*
X-3284Y-13181D01*
X-3284Y-12181D01*
X-4284Y-12181D01*
X-4284Y-13181D01*
X-2384Y-13181D02*
X-1384Y-13181D01*
X-1384Y-12181D01*
X-2384Y-12181D01*
X-2384Y-13181D01*
X-19321Y-638D02*
X-14404Y-638D01*
X-19321Y-2638D02*
X-14488Y-2638D01*
X-9321Y-638D02*
X-9321Y-2638D01*
X-10071Y-638D02*
X-9321Y-638D01*
X-10404Y-638D02*
X-13988Y-638D01*
X-10238Y-971D02*
X-10154Y-888D01*
X-10238Y-638D02*
X-10238Y-971D01*
X-14321Y-888D02*
X-14321Y-895D01*
X-14320Y-902D01*
X-14318Y-909D01*
X-14316Y-916D01*
X-14313Y-923D01*
X-14310Y-929D01*
X-14306Y-935D01*
X-14302Y-941D01*
X-14297Y-947D01*
X-14291Y-951D01*
X-14286Y-956D01*
X-14279Y-960D01*
X-14273Y-963D01*
X-14266Y-966D01*
X-14259Y-968D01*
X-14252Y-970D01*
X-14245Y-971D01*
X-14238Y-971D01*
X-14230Y-971D01*
X-14223Y-970D01*
X-14216Y-968D01*
X-14209Y-966D01*
X-14203Y-963D01*
X-14196Y-960D01*
X-14190Y-956D01*
X-14184Y-951D01*
X-14179Y-947D01*
X-14174Y-941D01*
X-14169Y-935D01*
X-14166Y-929D01*
X-14162Y-923D01*
X-14159Y-916D01*
X-14157Y-909D01*
X-14156Y-902D01*
X-14155Y-895D01*
X-14154Y-888D01*
X-14155Y-880D01*
X-14156Y-873D01*
X-14157Y-866D01*
X-14159Y-859D01*
X-14162Y-852D01*
X-14166Y-846D01*
X-14169Y-840D01*
X-14174Y-834D01*
X-14179Y-829D01*
X-14184Y-824D01*
X-14190Y-819D01*
X-14196Y-815D01*
X-14203Y-812D01*
X-14209Y-809D01*
X-14216Y-807D01*
X-14223Y-806D01*
X-14230Y-805D01*
X-14238Y-804D01*
X-14245Y-805D01*
X-14252Y-806D01*
X-14259Y-807D01*
X-14266Y-809D01*
X-14273Y-812D01*
X-14279Y-815D01*
X-14286Y-819D01*
X-14291Y-824D01*
X-14297Y-829D01*
X-14302Y-834D01*
X-14306Y-840D01*
X-14310Y-846D01*
X-14313Y-852D01*
X-14316Y-859D01*
X-14318Y-866D01*
X-14320Y-873D01*
X-14321Y-880D01*
X-14321Y-888D01*
X-14321Y-888D01*
X-14154Y-721D02*
X-14155Y-714D01*
X-14156Y-707D01*
X-14157Y-699D01*
X-14159Y-692D01*
X-14162Y-686D01*
X-14166Y-679D01*
X-14169Y-673D01*
X-14174Y-667D01*
X-14179Y-662D01*
X-14184Y-657D01*
X-14190Y-653D01*
X-14196Y-649D01*
X-14203Y-645D01*
X-14209Y-643D01*
X-14216Y-640D01*
X-14223Y-639D01*
X-14230Y-638D01*
X-14238Y-638D01*
X-14245Y-638D01*
X-14252Y-639D01*
X-14259Y-640D01*
X-14266Y-643D01*
X-14273Y-645D01*
X-14279Y-649D01*
X-14286Y-653D01*
X-14291Y-657D01*
X-14297Y-662D01*
X-14302Y-667D01*
X-14306Y-673D01*
X-14310Y-679D01*
X-14313Y-686D01*
X-14316Y-692D01*
X-14318Y-699D01*
X-14320Y-707D01*
X-14321Y-714D01*
X-14321Y-721D01*
X-14321Y-721D01*
X-14321Y-888D01*
X-9321Y-2638D02*
X-10071Y-2638D01*
X-10404Y-2638D02*
X-13988Y-2638D01*
X-10238Y-2471D02*
X-10245Y-2471D01*
X-10252Y-2472D01*
X-10259Y-2474D01*
X-10266Y-2476D01*
X-10273Y-2479D01*
X-10279Y-2482D01*
X-10286Y-2486D01*
X-10291Y-2490D01*
X-10297Y-2495D01*
X-10302Y-2501D01*
X-10306Y-2506D01*
X-10310Y-2513D01*
X-10313Y-2519D01*
X-10316Y-2526D01*
X-10318Y-2533D01*
X-10320Y-2540D01*
X-10321Y-2547D01*
X-10321Y-2554D01*
X-10321Y-2562D01*
X-10320Y-2569D01*
X-10318Y-2576D01*
X-10316Y-2583D01*
X-10313Y-2590D01*
X-10310Y-2596D01*
X-10306Y-2602D01*
X-10302Y-2608D01*
X-10297Y-2613D01*
X-10291Y-2618D01*
X-10286Y-2623D01*
X-10279Y-2626D01*
X-10273Y-2630D01*
X-10266Y-2633D01*
X-10259Y-2635D01*
X-10252Y-2636D01*
X-10245Y-2637D01*
X-10238Y-2638D01*
X-10230Y-2637D01*
X-10223Y-2636D01*
X-10216Y-2635D01*
X-10209Y-2633D01*
X-10203Y-2630D01*
X-10196Y-2626D01*
X-10190Y-2623D01*
X-10184Y-2618D01*
X-10179Y-2613D01*
X-10174Y-2608D01*
X-10169Y-2602D01*
X-10166Y-2596D01*
X-10162Y-2590D01*
X-10159Y-2583D01*
X-10157Y-2576D01*
X-10156Y-2569D01*
X-10155Y-2562D01*
X-10154Y-2554D01*
X-10321Y-2304D02*
X-10154Y-2304D01*
X-10238Y-2471D02*
X-10230Y-2471D01*
X-10223Y-2470D01*
X-10216Y-2468D01*
X-10209Y-2466D01*
X-10203Y-2463D01*
X-10196Y-2460D01*
X-10190Y-2456D01*
X-10184Y-2451D01*
X-10179Y-2447D01*
X-10174Y-2441D01*
X-10169Y-2435D01*
X-10166Y-2429D01*
X-10162Y-2423D01*
X-10159Y-2416D01*
X-10157Y-2409D01*
X-10156Y-2402D01*
X-10155Y-2395D01*
X-10154Y-2388D01*
X-10154Y-2304D02*
X-10154Y-2388D01*
X-14404Y-2554D02*
X-14238Y-2388D01*
X-14238Y-2380D01*
X-14239Y-2373D01*
X-14241Y-2366D01*
X-14243Y-2359D01*
X-14246Y-2352D01*
X-14249Y-2346D01*
X-14253Y-2340D01*
X-14257Y-2334D01*
X-14262Y-2329D01*
X-14268Y-2324D01*
X-14273Y-2319D01*
X-14279Y-2315D01*
X-14286Y-2312D01*
X-14293Y-2309D01*
X-14300Y-2307D01*
X-14307Y-2306D01*
X-14314Y-2305D01*
X-14321Y-2304D01*
X-14328Y-2305D01*
X-14336Y-2306D01*
X-14343Y-2307D01*
X-14350Y-2309D01*
X-14356Y-2312D01*
X-14363Y-2315D01*
X-14369Y-2319D01*
X-14375Y-2324D01*
X-14380Y-2329D01*
X-14385Y-2334D01*
X-14389Y-2340D01*
X-14393Y-2346D01*
X-14397Y-2352D01*
X-14399Y-2359D01*
X-14402Y-2366D01*
X-14403Y-2373D01*
X-14404Y-2380D01*
X-14404Y-2388D01*
X-14404Y-2388D01*
X-14404Y-2554D02*
X-14404Y-2562D01*
X-14403Y-2569D01*
X-14402Y-2576D01*
X-14399Y-2583D01*
X-14397Y-2590D01*
X-14393Y-2596D01*
X-14389Y-2602D01*
X-14385Y-2608D01*
X-14380Y-2613D01*
X-14375Y-2618D01*
X-14369Y-2623D01*
X-14363Y-2626D01*
X-14356Y-2630D01*
X-14350Y-2633D01*
X-14343Y-2635D01*
X-14336Y-2636D01*
X-14328Y-2637D01*
X-14321Y-2638D01*
X-14314Y-2637D01*
X-14307Y-2636D01*
X-14300Y-2635D01*
X-14293Y-2633D01*
X-14286Y-2630D01*
X-14279Y-2626D01*
X-14273Y-2623D01*
X-14268Y-2618D01*
X-14262Y-2613D01*
X-14257Y-2608D01*
X-14253Y-2602D01*
X-14249Y-2596D01*
X-14246Y-2590D01*
X-14243Y-2583D01*
X-14241Y-2576D01*
X-14239Y-2569D01*
X-14238Y-2562D01*
X-14238Y-2554D01*
X-14404Y-2554D02*
X-14404Y-2388D01*
X-14238Y-2388D02*
X-14238Y-2554D01*
X-14154Y-2638D02*
X-14071Y-2554D01*
X-14154Y-2304D02*
X-14154Y-2638D01*
X-19321Y-2638D02*
X-19321Y-638D01*
X13063Y-18017D02*
X13063Y-18010D01*
X13062Y-18002D01*
X13060Y-17995D01*
X13058Y-17988D01*
X13055Y-17982D01*
X13052Y-17975D01*
X13048Y-17969D01*
X13043Y-17963D01*
X13038Y-17958D01*
X13033Y-17953D01*
X13027Y-17949D01*
X13021Y-17945D01*
X13015Y-17941D01*
X13008Y-17939D01*
X13001Y-17936D01*
X12994Y-17935D01*
X12987Y-17934D01*
X12980Y-17934D01*
X12972Y-17934D01*
X12965Y-17935D01*
X12958Y-17936D01*
X12951Y-17939D01*
X12944Y-17941D01*
X12938Y-17945D01*
X12932Y-17949D01*
X12926Y-17953D01*
X12921Y-17958D01*
X12916Y-17963D01*
X12911Y-17969D01*
X12907Y-17975D01*
X12904Y-17982D01*
X12901Y-17988D01*
X12899Y-17995D01*
X12897Y-18002D01*
X12897Y-18010D01*
X12896Y-18017D01*
X12897Y-18024D01*
X12897Y-18031D01*
X12899Y-18038D01*
X12901Y-18045D01*
X12904Y-18052D01*
X12907Y-18059D01*
X12911Y-18065D01*
X12916Y-18070D01*
X12921Y-18076D01*
X12926Y-18081D01*
X12932Y-18085D01*
X12938Y-18089D01*
X12944Y-18092D01*
X12951Y-18095D01*
X12958Y-18097D01*
X12965Y-18099D01*
X12972Y-18100D01*
X12980Y-18100D01*
X12987Y-18100D01*
X12994Y-18099D01*
X13001Y-18097D01*
X13008Y-18095D01*
X13015Y-18092D01*
X13021Y-18089D01*
X13027Y-18085D01*
X13033Y-18081D01*
X13038Y-18076D01*
X13043Y-18070D01*
X13048Y-18065D01*
X13052Y-18059D01*
X13055Y-18052D01*
X13058Y-18045D01*
X13060Y-18038D01*
X13062Y-18031D01*
X13063Y-18024D01*
X13063Y-18017D01*
X12896Y-18184D02*
X12897Y-18191D01*
X12897Y-18198D01*
X12899Y-18205D01*
X12901Y-18212D01*
X12904Y-18219D01*
X12907Y-18225D01*
X12911Y-18231D01*
X12916Y-18237D01*
X12921Y-18243D01*
X12926Y-18247D01*
X12932Y-18252D01*
X12938Y-18256D01*
X12944Y-18259D01*
X12951Y-18262D01*
X12958Y-18264D01*
X12965Y-18266D01*
X12972Y-18267D01*
X12980Y-18267D01*
X12987Y-18267D01*
X12994Y-18266D01*
X13001Y-18264D01*
X13008Y-18262D01*
X13015Y-18259D01*
X13021Y-18256D01*
X13027Y-18252D01*
X13033Y-18247D01*
X13038Y-18243D01*
X13043Y-18237D01*
X13048Y-18231D01*
X13052Y-18225D01*
X13055Y-18219D01*
X13058Y-18212D01*
X13060Y-18205D01*
X13062Y-18198D01*
X13063Y-18191D01*
X13063Y-18184D01*
X13063Y-18184D01*
X12896Y-16600D02*
X12730Y-16600D01*
X12813Y-16434D02*
X12820Y-16433D01*
X12827Y-16432D01*
X12834Y-16431D01*
X12841Y-16429D01*
X12848Y-16426D01*
X12855Y-16422D01*
X12861Y-16419D01*
X12866Y-16414D01*
X12872Y-16409D01*
X12877Y-16404D01*
X12881Y-16398D01*
X12885Y-16392D01*
X12888Y-16385D01*
X12891Y-16379D01*
X12893Y-16372D01*
X12895Y-16365D01*
X12896Y-16358D01*
X12896Y-16350D01*
X12896Y-16343D01*
X12895Y-16336D01*
X12893Y-16329D01*
X12891Y-16322D01*
X12888Y-16315D01*
X12885Y-16309D01*
X12881Y-16302D01*
X12877Y-16297D01*
X12872Y-16291D01*
X12866Y-16286D01*
X12861Y-16282D01*
X12855Y-16278D01*
X12848Y-16275D01*
X12841Y-16272D01*
X12834Y-16270D01*
X12827Y-16268D01*
X12820Y-16267D01*
X12813Y-16267D01*
X12806Y-16267D01*
X12798Y-16268D01*
X12791Y-16270D01*
X12784Y-16272D01*
X12778Y-16275D01*
X12771Y-16278D01*
X12765Y-16282D01*
X12759Y-16286D01*
X12754Y-16291D01*
X12749Y-16297D01*
X12745Y-16302D01*
X12741Y-16309D01*
X12737Y-16315D01*
X12735Y-16322D01*
X12732Y-16329D01*
X12731Y-16336D01*
X12730Y-16343D01*
X12730Y-16350D01*
X7730Y-18267D02*
X3980Y-18267D01*
X7646Y-16267D02*
X4063Y-16267D01*
X2980Y-16267D02*
X2980Y-18267D01*
X3730Y-18267D01*
X3896Y-18267D02*
X3896Y-17934D01*
X3813Y-18017D01*
X3730Y-16267D02*
X2980Y-16267D01*
X3980Y-16600D02*
X3813Y-16600D01*
X3896Y-16434D02*
X3903Y-16433D01*
X3911Y-16432D01*
X3918Y-16431D01*
X3925Y-16429D01*
X3931Y-16426D01*
X3938Y-16422D01*
X3944Y-16419D01*
X3950Y-16414D01*
X3955Y-16409D01*
X3960Y-16404D01*
X3964Y-16398D01*
X3968Y-16392D01*
X3972Y-16385D01*
X3974Y-16379D01*
X3977Y-16372D01*
X3978Y-16365D01*
X3979Y-16358D01*
X3980Y-16350D01*
X3979Y-16343D01*
X3978Y-16336D01*
X3977Y-16329D01*
X3974Y-16322D01*
X3972Y-16315D01*
X3968Y-16309D01*
X3964Y-16302D01*
X3960Y-16297D01*
X3955Y-16291D01*
X3950Y-16286D01*
X3944Y-16282D01*
X3938Y-16278D01*
X3931Y-16275D01*
X3925Y-16272D01*
X3918Y-16270D01*
X3911Y-16268D01*
X3903Y-16267D01*
X3896Y-16267D01*
X3889Y-16267D01*
X3882Y-16268D01*
X3875Y-16270D01*
X3868Y-16272D01*
X3861Y-16275D01*
X3855Y-16278D01*
X3848Y-16282D01*
X3843Y-16286D01*
X3837Y-16291D01*
X3832Y-16297D01*
X3828Y-16302D01*
X3824Y-16309D01*
X3821Y-16315D01*
X3818Y-16322D01*
X3816Y-16329D01*
X3814Y-16336D01*
X3813Y-16343D01*
X3813Y-16350D01*
X3896Y-16434D02*
X3889Y-16434D01*
X3882Y-16435D01*
X3875Y-16436D01*
X3868Y-16439D01*
X3861Y-16441D01*
X3855Y-16445D01*
X3848Y-16449D01*
X3843Y-16453D01*
X3837Y-16458D01*
X3832Y-16463D01*
X3828Y-16469D01*
X3824Y-16475D01*
X3821Y-16482D01*
X3818Y-16488D01*
X3816Y-16495D01*
X3814Y-16502D01*
X3813Y-16510D01*
X3813Y-16517D01*
X3813Y-16600D02*
X3813Y-16517D01*
X12646Y-18267D02*
X8063Y-18267D01*
X7980Y-18017D02*
X7979Y-18010D01*
X7978Y-18002D01*
X7977Y-17995D01*
X7974Y-17988D01*
X7972Y-17982D01*
X7968Y-17975D01*
X7964Y-17969D01*
X7960Y-17963D01*
X7955Y-17958D01*
X7950Y-17953D01*
X7944Y-17949D01*
X7938Y-17945D01*
X7931Y-17941D01*
X7925Y-17939D01*
X7918Y-17936D01*
X7911Y-17935D01*
X7903Y-17934D01*
X7896Y-17934D01*
X7889Y-17934D01*
X7882Y-17935D01*
X7875Y-17936D01*
X7868Y-17939D01*
X7861Y-17941D01*
X7855Y-17945D01*
X7848Y-17949D01*
X7843Y-17953D01*
X7837Y-17958D01*
X7832Y-17963D01*
X7828Y-17969D01*
X7824Y-17975D01*
X7821Y-17982D01*
X7818Y-17988D01*
X7816Y-17995D01*
X7814Y-18002D01*
X7813Y-18010D01*
X7813Y-18017D01*
X7813Y-18024D01*
X7814Y-18031D01*
X7816Y-18038D01*
X7818Y-18045D01*
X7821Y-18052D01*
X7824Y-18059D01*
X7828Y-18065D01*
X7832Y-18070D01*
X7837Y-18076D01*
X7843Y-18081D01*
X7848Y-18085D01*
X7855Y-18089D01*
X7861Y-18092D01*
X7868Y-18095D01*
X7875Y-18097D01*
X7882Y-18099D01*
X7889Y-18100D01*
X7896Y-18100D01*
X7903Y-18100D01*
X7911Y-18099D01*
X7918Y-18097D01*
X7925Y-18095D01*
X7931Y-18092D01*
X7938Y-18089D01*
X7944Y-18085D01*
X7950Y-18081D01*
X7955Y-18076D01*
X7960Y-18070D01*
X7964Y-18065D01*
X7968Y-18059D01*
X7972Y-18052D01*
X7974Y-18045D01*
X7977Y-18038D01*
X7978Y-18031D01*
X7979Y-18024D01*
X7980Y-18017D01*
X7980Y-18184D02*
X7980Y-18017D01*
X7813Y-18184D02*
X7813Y-18191D01*
X7814Y-18198D01*
X7816Y-18205D01*
X7818Y-18212D01*
X7821Y-18219D01*
X7824Y-18225D01*
X7828Y-18231D01*
X7832Y-18237D01*
X7837Y-18243D01*
X7843Y-18247D01*
X7848Y-18252D01*
X7855Y-18256D01*
X7861Y-18259D01*
X7868Y-18262D01*
X7875Y-18264D01*
X7882Y-18266D01*
X7889Y-18267D01*
X7896Y-18267D01*
X7903Y-18267D01*
X7911Y-18266D01*
X7918Y-18264D01*
X7925Y-18262D01*
X7931Y-18259D01*
X7938Y-18256D01*
X7944Y-18252D01*
X7950Y-18247D01*
X7955Y-18243D01*
X7960Y-18237D01*
X7964Y-18231D01*
X7968Y-18225D01*
X7972Y-18219D01*
X7974Y-18212D01*
X7977Y-18205D01*
X7978Y-18198D01*
X7979Y-18191D01*
X7980Y-18184D01*
X7980Y-18184D01*
X12813Y-17934D02*
X12730Y-18017D01*
X12813Y-18267D02*
X12813Y-17934D01*
X12646Y-16267D02*
X8146Y-16267D01*
X7813Y-16600D02*
X7813Y-16267D01*
X8063Y-16350D02*
X8063Y-16343D01*
X8062Y-16336D01*
X8060Y-16329D01*
X8058Y-16322D01*
X8055Y-16315D01*
X8052Y-16309D01*
X8048Y-16302D01*
X8043Y-16297D01*
X8038Y-16291D01*
X8033Y-16286D01*
X8027Y-16282D01*
X8021Y-16278D01*
X8015Y-16275D01*
X8008Y-16272D01*
X8001Y-16270D01*
X7994Y-16268D01*
X7987Y-16267D01*
X7980Y-16267D01*
X7972Y-16267D01*
X7965Y-16268D01*
X7958Y-16270D01*
X7951Y-16272D01*
X7944Y-16275D01*
X7938Y-16278D01*
X7932Y-16282D01*
X7926Y-16286D01*
X7921Y-16291D01*
X7916Y-16297D01*
X7911Y-16302D01*
X7907Y-16309D01*
X7904Y-16315D01*
X7901Y-16322D01*
X7899Y-16329D01*
X7897Y-16336D01*
X7897Y-16343D01*
X7896Y-16350D01*
X7813Y-16267D02*
X7730Y-16350D01*
X8063Y-16350D02*
X7896Y-16517D01*
X8063Y-16350D02*
X8063Y-16517D01*
X7896Y-16517D02*
X7896Y-16350D01*
X7896Y-16517D02*
X7897Y-16524D01*
X7897Y-16531D01*
X7899Y-16538D01*
X7901Y-16545D01*
X7904Y-16552D01*
X7907Y-16559D01*
X7911Y-16565D01*
X7916Y-16570D01*
X7921Y-16576D01*
X7926Y-16581D01*
X7932Y-16585D01*
X7938Y-16589D01*
X7944Y-16592D01*
X7951Y-16595D01*
X7958Y-16597D01*
X7965Y-16599D01*
X7972Y-16600D01*
X7980Y-16600D01*
X7987Y-16600D01*
X7994Y-16599D01*
X8001Y-16597D01*
X8008Y-16595D01*
X8015Y-16592D01*
X8021Y-16589D01*
X8027Y-16585D01*
X8033Y-16581D01*
X8038Y-16576D01*
X8043Y-16570D01*
X8048Y-16565D01*
X8052Y-16559D01*
X8055Y-16552D01*
X8058Y-16545D01*
X8060Y-16538D01*
X8062Y-16531D01*
X8063Y-16524D01*
X8063Y-16517D01*
X12813Y-16434D02*
X12806Y-16434D01*
X12798Y-16435D01*
X12791Y-16436D01*
X12784Y-16439D01*
X12778Y-16441D01*
X12771Y-16445D01*
X12765Y-16449D01*
X12759Y-16453D01*
X12754Y-16458D01*
X12749Y-16463D01*
X12745Y-16469D01*
X12741Y-16475D01*
X12737Y-16482D01*
X12735Y-16488D01*
X12732Y-16495D01*
X12731Y-16502D01*
X12730Y-16510D01*
X12730Y-16517D01*
X12730Y-16600D02*
X12730Y-16517D01*
X27980Y-18267D02*
X23230Y-18267D01*
X27980Y-16267D02*
X23313Y-16267D01*
X22646Y-18267D02*
X18230Y-18267D01*
X22646Y-16267D02*
X18230Y-16267D01*
X17646Y-18267D02*
X13146Y-18267D01*
X13063Y-18184D02*
X13063Y-18017D01*
X18146Y-18017D02*
X18146Y-18010D01*
X18145Y-18002D01*
X18143Y-17995D01*
X18141Y-17988D01*
X18138Y-17982D01*
X18135Y-17975D01*
X18131Y-17969D01*
X18127Y-17963D01*
X18122Y-17958D01*
X18116Y-17953D01*
X18111Y-17949D01*
X18105Y-17945D01*
X18098Y-17941D01*
X18091Y-17939D01*
X18084Y-17936D01*
X18077Y-17935D01*
X18070Y-17934D01*
X18063Y-17934D01*
X18056Y-17934D01*
X18048Y-17935D01*
X18041Y-17936D01*
X18034Y-17939D01*
X18028Y-17941D01*
X18021Y-17945D01*
X18015Y-17949D01*
X18009Y-17953D01*
X18004Y-17958D01*
X17999Y-17963D01*
X17995Y-17969D01*
X17991Y-17975D01*
X17987Y-17982D01*
X17985Y-17988D01*
X17982Y-17995D01*
X17981Y-18002D01*
X17980Y-18010D01*
X17980Y-18017D01*
X17980Y-18024D01*
X17981Y-18031D01*
X17982Y-18038D01*
X17985Y-18045D01*
X17987Y-18052D01*
X17991Y-18059D01*
X17995Y-18065D01*
X17999Y-18070D01*
X18004Y-18076D01*
X18009Y-18081D01*
X18015Y-18085D01*
X18021Y-18089D01*
X18028Y-18092D01*
X18034Y-18095D01*
X18041Y-18097D01*
X18048Y-18099D01*
X18056Y-18100D01*
X18063Y-18100D01*
X18070Y-18100D01*
X18077Y-18099D01*
X18084Y-18097D01*
X18091Y-18095D01*
X18098Y-18092D01*
X18105Y-18089D01*
X18111Y-18085D01*
X18116Y-18081D01*
X18122Y-18076D01*
X18127Y-18070D01*
X18131Y-18065D01*
X18135Y-18059D01*
X18138Y-18052D01*
X18141Y-18045D01*
X18143Y-18038D01*
X18145Y-18031D01*
X18146Y-18024D01*
X18146Y-18017D01*
X18146Y-18184D02*
X18146Y-18017D01*
X17980Y-18184D02*
X17980Y-18191D01*
X17981Y-18198D01*
X17982Y-18205D01*
X17985Y-18212D01*
X17987Y-18219D01*
X17991Y-18225D01*
X17995Y-18231D01*
X17999Y-18237D01*
X18004Y-18243D01*
X18009Y-18247D01*
X18015Y-18252D01*
X18021Y-18256D01*
X18028Y-18259D01*
X18034Y-18262D01*
X18041Y-18264D01*
X18048Y-18266D01*
X18056Y-18267D01*
X18063Y-18267D01*
X18070Y-18267D01*
X18077Y-18266D01*
X18084Y-18264D01*
X18091Y-18262D01*
X18098Y-18259D01*
X18105Y-18256D01*
X18111Y-18252D01*
X18116Y-18247D01*
X18122Y-18243D01*
X18127Y-18237D01*
X18131Y-18231D01*
X18135Y-18225D01*
X18138Y-18219D01*
X18141Y-18212D01*
X18143Y-18205D01*
X18145Y-18198D01*
X18146Y-18191D01*
X18146Y-18184D01*
X18146Y-18184D01*
X17813Y-18100D02*
X17820Y-18100D01*
X17827Y-18099D01*
X17834Y-18097D01*
X17841Y-18095D01*
X17848Y-18092D01*
X17855Y-18089D01*
X17861Y-18085D01*
X17866Y-18081D01*
X17872Y-18076D01*
X17877Y-18070D01*
X17881Y-18065D01*
X17885Y-18059D01*
X17888Y-18052D01*
X17891Y-18045D01*
X17893Y-18038D01*
X17895Y-18031D01*
X17896Y-18024D01*
X17896Y-18017D01*
X17896Y-18010D01*
X17895Y-18002D01*
X17893Y-17995D01*
X17891Y-17988D01*
X17888Y-17982D01*
X17885Y-17975D01*
X17881Y-17969D01*
X17877Y-17963D01*
X17872Y-17958D01*
X17866Y-17953D01*
X17861Y-17949D01*
X17855Y-17945D01*
X17848Y-17941D01*
X17841Y-17939D01*
X17834Y-17936D01*
X17827Y-17935D01*
X17820Y-17934D01*
X17813Y-17934D01*
X17806Y-17934D01*
X17798Y-17935D01*
X17791Y-17936D01*
X17784Y-17939D01*
X17778Y-17941D01*
X17771Y-17945D01*
X17765Y-17949D01*
X17759Y-17953D01*
X17754Y-17958D01*
X17749Y-17963D01*
X17745Y-17969D01*
X17741Y-17975D01*
X17737Y-17982D01*
X17735Y-17988D01*
X17732Y-17995D01*
X17731Y-18002D01*
X17730Y-18010D01*
X17730Y-18017D01*
X17896Y-18267D02*
X17730Y-18267D01*
X17813Y-18100D02*
X17806Y-18101D01*
X17798Y-18102D01*
X17791Y-18103D01*
X17784Y-18105D01*
X17778Y-18108D01*
X17771Y-18111D01*
X17765Y-18115D01*
X17759Y-18120D01*
X17754Y-18125D01*
X17749Y-18130D01*
X17745Y-18136D01*
X17741Y-18142D01*
X17737Y-18148D01*
X17735Y-18155D01*
X17732Y-18162D01*
X17731Y-18169D01*
X17730Y-18176D01*
X17730Y-18184D01*
X17730Y-18267D02*
X17730Y-18184D01*
X17646Y-16267D02*
X13230Y-16267D01*
X13146Y-16350D02*
X13146Y-16343D01*
X13145Y-16336D01*
X13143Y-16329D01*
X13141Y-16322D01*
X13138Y-16315D01*
X13135Y-16309D01*
X13131Y-16302D01*
X13127Y-16297D01*
X13122Y-16291D01*
X13116Y-16286D01*
X13111Y-16282D01*
X13105Y-16278D01*
X13098Y-16275D01*
X13091Y-16272D01*
X13084Y-16270D01*
X13077Y-16268D01*
X13070Y-16267D01*
X13063Y-16267D01*
X13056Y-16267D01*
X13048Y-16268D01*
X13041Y-16270D01*
X13034Y-16272D01*
X13028Y-16275D01*
X13021Y-16278D01*
X13015Y-16282D01*
X13009Y-16286D01*
X13004Y-16291D01*
X12999Y-16297D01*
X12995Y-16302D01*
X12991Y-16309D01*
X12987Y-16315D01*
X12985Y-16322D01*
X12982Y-16329D01*
X12981Y-16336D01*
X12980Y-16343D01*
X12980Y-16350D01*
X13146Y-16350D02*
X12980Y-16517D01*
X12980Y-16524D01*
X12981Y-16531D01*
X12982Y-16538D01*
X12985Y-16545D01*
X12987Y-16552D01*
X12991Y-16559D01*
X12995Y-16565D01*
X12999Y-16570D01*
X13004Y-16576D01*
X13009Y-16581D01*
X13015Y-16585D01*
X13021Y-16589D01*
X13028Y-16592D01*
X13034Y-16595D01*
X13041Y-16597D01*
X13048Y-16599D01*
X13056Y-16600D01*
X13063Y-16600D01*
X13070Y-16600D01*
X13077Y-16599D01*
X13084Y-16597D01*
X13091Y-16595D01*
X13098Y-16592D01*
X13105Y-16589D01*
X13111Y-16585D01*
X13116Y-16581D01*
X13122Y-16576D01*
X13127Y-16570D01*
X13131Y-16565D01*
X13135Y-16559D01*
X13138Y-16552D01*
X13141Y-16545D01*
X13143Y-16538D01*
X13145Y-16531D01*
X13146Y-16524D01*
X13146Y-16517D01*
X12980Y-16517D02*
X12980Y-16350D01*
X13146Y-16350D02*
X13146Y-16517D01*
X18146Y-16350D02*
X18146Y-16343D01*
X18145Y-16336D01*
X18143Y-16329D01*
X18141Y-16322D01*
X18138Y-16315D01*
X18135Y-16309D01*
X18131Y-16302D01*
X18127Y-16297D01*
X18122Y-16291D01*
X18116Y-16286D01*
X18111Y-16282D01*
X18105Y-16278D01*
X18098Y-16275D01*
X18091Y-16272D01*
X18084Y-16270D01*
X18077Y-16268D01*
X18070Y-16267D01*
X18063Y-16267D01*
X18056Y-16267D01*
X18048Y-16268D01*
X18041Y-16270D01*
X18034Y-16272D01*
X18028Y-16275D01*
X18021Y-16278D01*
X18015Y-16282D01*
X18009Y-16286D01*
X18004Y-16291D01*
X17999Y-16297D01*
X17995Y-16302D01*
X17991Y-16309D01*
X17987Y-16315D01*
X17985Y-16322D01*
X17982Y-16329D01*
X17981Y-16336D01*
X17980Y-16343D01*
X17980Y-16350D01*
X18146Y-16517D02*
X18146Y-16350D01*
X17980Y-16517D01*
X17980Y-16524D01*
X17981Y-16531D01*
X17982Y-16538D01*
X17985Y-16545D01*
X17987Y-16552D01*
X17991Y-16559D01*
X17995Y-16565D01*
X17999Y-16570D01*
X18004Y-16576D01*
X18009Y-16581D01*
X18015Y-16585D01*
X18021Y-16589D01*
X18028Y-16592D01*
X18034Y-16595D01*
X18041Y-16597D01*
X18048Y-16599D01*
X18056Y-16600D01*
X18063Y-16600D01*
X18070Y-16600D01*
X18077Y-16599D01*
X18084Y-16597D01*
X18091Y-16595D01*
X18098Y-16592D01*
X18105Y-16589D01*
X18111Y-16585D01*
X18116Y-16581D01*
X18122Y-16576D01*
X18127Y-16570D01*
X18131Y-16565D01*
X18135Y-16559D01*
X18138Y-16552D01*
X18141Y-16545D01*
X18143Y-16538D01*
X18145Y-16531D01*
X18146Y-16524D01*
X18146Y-16517D01*
X17730Y-16517D02*
X17730Y-16524D01*
X17731Y-16531D01*
X17732Y-16538D01*
X17735Y-16545D01*
X17737Y-16552D01*
X17741Y-16559D01*
X17745Y-16565D01*
X17749Y-16570D01*
X17754Y-16576D01*
X17759Y-16581D01*
X17765Y-16585D01*
X17771Y-16589D01*
X17778Y-16592D01*
X17784Y-16595D01*
X17791Y-16597D01*
X17798Y-16599D01*
X17806Y-16600D01*
X17813Y-16600D01*
X17820Y-16600D01*
X17827Y-16599D01*
X17834Y-16597D01*
X17841Y-16595D01*
X17848Y-16592D01*
X17855Y-16589D01*
X17861Y-16585D01*
X17866Y-16581D01*
X17872Y-16576D01*
X17877Y-16570D01*
X17881Y-16565D01*
X17885Y-16559D01*
X17888Y-16552D01*
X17891Y-16545D01*
X17893Y-16538D01*
X17895Y-16531D01*
X17896Y-16524D01*
X17896Y-16517D01*
X17896Y-16510D01*
X17895Y-16502D01*
X17893Y-16495D01*
X17891Y-16488D01*
X17888Y-16482D01*
X17885Y-16475D01*
X17881Y-16469D01*
X17877Y-16463D01*
X17872Y-16458D01*
X17866Y-16453D01*
X17861Y-16449D01*
X17855Y-16445D01*
X17848Y-16441D01*
X17841Y-16439D01*
X17834Y-16436D01*
X17827Y-16435D01*
X17820Y-16434D01*
X17813Y-16434D01*
X17820Y-16433D01*
X17827Y-16432D01*
X17834Y-16431D01*
X17841Y-16429D01*
X17848Y-16426D01*
X17855Y-16422D01*
X17861Y-16419D01*
X17866Y-16414D01*
X17872Y-16409D01*
X17877Y-16404D01*
X17881Y-16398D01*
X17885Y-16392D01*
X17888Y-16385D01*
X17891Y-16379D01*
X17893Y-16372D01*
X17895Y-16365D01*
X17896Y-16358D01*
X17896Y-16350D01*
X17896Y-16343D01*
X17895Y-16336D01*
X17893Y-16329D01*
X17891Y-16322D01*
X17888Y-16315D01*
X17885Y-16309D01*
X17881Y-16302D01*
X17877Y-16297D01*
X17872Y-16291D01*
X17866Y-16286D01*
X17861Y-16282D01*
X17855Y-16278D01*
X17848Y-16275D01*
X17841Y-16272D01*
X17834Y-16270D01*
X17827Y-16268D01*
X17820Y-16267D01*
X17813Y-16267D01*
X17806Y-16267D01*
X17798Y-16268D01*
X17791Y-16270D01*
X17784Y-16272D01*
X17778Y-16275D01*
X17771Y-16278D01*
X17765Y-16282D01*
X17759Y-16286D01*
X17754Y-16291D01*
X17749Y-16297D01*
X17745Y-16302D01*
X17741Y-16309D01*
X17737Y-16315D01*
X17735Y-16322D01*
X17732Y-16329D01*
X17731Y-16336D01*
X17730Y-16343D01*
X17730Y-16350D01*
X17980Y-16517D02*
X17980Y-16350D01*
X22813Y-18100D02*
X22820Y-18100D01*
X22827Y-18099D01*
X22834Y-18097D01*
X22841Y-18095D01*
X22848Y-18092D01*
X22855Y-18089D01*
X22861Y-18085D01*
X22866Y-18081D01*
X22872Y-18076D01*
X22877Y-18070D01*
X22881Y-18065D01*
X22885Y-18059D01*
X22888Y-18052D01*
X22891Y-18045D01*
X22893Y-18038D01*
X22895Y-18031D01*
X22896Y-18024D01*
X22896Y-18017D01*
X22896Y-18010D01*
X22895Y-18002D01*
X22893Y-17995D01*
X22891Y-17988D01*
X22888Y-17982D01*
X22885Y-17975D01*
X22881Y-17969D01*
X22877Y-17963D01*
X22872Y-17958D01*
X22866Y-17953D01*
X22861Y-17949D01*
X22855Y-17945D01*
X22848Y-17941D01*
X22841Y-17939D01*
X22834Y-17936D01*
X22827Y-17935D01*
X22820Y-17934D01*
X22813Y-17934D01*
X22806Y-17934D01*
X22798Y-17935D01*
X22791Y-17936D01*
X22784Y-17939D01*
X22778Y-17941D01*
X22771Y-17945D01*
X22765Y-17949D01*
X22759Y-17953D01*
X22754Y-17958D01*
X22749Y-17963D01*
X22745Y-17969D01*
X22741Y-17975D01*
X22737Y-17982D01*
X22735Y-17988D01*
X22732Y-17995D01*
X22731Y-18002D01*
X22730Y-18010D01*
X22730Y-18017D01*
X22730Y-18184D02*
X22730Y-18191D01*
X22731Y-18198D01*
X22732Y-18205D01*
X22735Y-18212D01*
X22737Y-18219D01*
X22741Y-18225D01*
X22745Y-18231D01*
X22749Y-18237D01*
X22754Y-18243D01*
X22759Y-18247D01*
X22765Y-18252D01*
X22771Y-18256D01*
X22778Y-18259D01*
X22784Y-18262D01*
X22791Y-18264D01*
X22798Y-18266D01*
X22806Y-18267D01*
X22813Y-18267D01*
X22820Y-18267D01*
X22827Y-18266D01*
X22834Y-18264D01*
X22841Y-18262D01*
X22848Y-18259D01*
X22855Y-18256D01*
X22861Y-18252D01*
X22866Y-18247D01*
X22872Y-18243D01*
X22877Y-18237D01*
X22881Y-18231D01*
X22885Y-18225D01*
X22888Y-18219D01*
X22891Y-18212D01*
X22893Y-18205D01*
X22895Y-18198D01*
X22896Y-18191D01*
X22896Y-18184D01*
X22896Y-18176D01*
X22895Y-18169D01*
X22893Y-18162D01*
X22891Y-18155D01*
X22888Y-18148D01*
X22885Y-18142D01*
X22881Y-18136D01*
X22877Y-18130D01*
X22872Y-18125D01*
X22866Y-18120D01*
X22861Y-18115D01*
X22855Y-18111D01*
X22848Y-18108D01*
X22841Y-18105D01*
X22834Y-18103D01*
X22827Y-18102D01*
X22820Y-18101D01*
X22813Y-18100D01*
X22813Y-18100D01*
X23146Y-18017D02*
X23146Y-18010D01*
X23145Y-18002D01*
X23143Y-17995D01*
X23141Y-17988D01*
X23138Y-17982D01*
X23135Y-17975D01*
X23131Y-17969D01*
X23127Y-17963D01*
X23122Y-17958D01*
X23116Y-17953D01*
X23111Y-17949D01*
X23105Y-17945D01*
X23098Y-17941D01*
X23091Y-17939D01*
X23084Y-17936D01*
X23077Y-17935D01*
X23070Y-17934D01*
X23063Y-17934D01*
X23056Y-17934D01*
X23048Y-17935D01*
X23041Y-17936D01*
X23034Y-17939D01*
X23028Y-17941D01*
X23021Y-17945D01*
X23015Y-17949D01*
X23009Y-17953D01*
X23004Y-17958D01*
X22999Y-17963D01*
X22995Y-17969D01*
X22991Y-17975D01*
X22987Y-17982D01*
X22985Y-17988D01*
X22982Y-17995D01*
X22981Y-18002D01*
X22980Y-18010D01*
X22980Y-18017D01*
X22980Y-18024D01*
X22981Y-18031D01*
X22982Y-18038D01*
X22985Y-18045D01*
X22987Y-18052D01*
X22991Y-18059D01*
X22995Y-18065D01*
X22999Y-18070D01*
X23004Y-18076D01*
X23009Y-18081D01*
X23015Y-18085D01*
X23021Y-18089D01*
X23028Y-18092D01*
X23034Y-18095D01*
X23041Y-18097D01*
X23048Y-18099D01*
X23056Y-18100D01*
X23063Y-18100D01*
X23070Y-18100D01*
X23077Y-18099D01*
X23084Y-18097D01*
X23091Y-18095D01*
X23098Y-18092D01*
X23105Y-18089D01*
X23111Y-18085D01*
X23116Y-18081D01*
X23122Y-18076D01*
X23127Y-18070D01*
X23131Y-18065D01*
X23135Y-18059D01*
X23138Y-18052D01*
X23141Y-18045D01*
X23143Y-18038D01*
X23145Y-18031D01*
X23146Y-18024D01*
X23146Y-18017D01*
X23146Y-18184D02*
X23146Y-18017D01*
X22980Y-18184D02*
X22980Y-18191D01*
X22981Y-18198D01*
X22982Y-18205D01*
X22985Y-18212D01*
X22987Y-18219D01*
X22991Y-18225D01*
X22995Y-18231D01*
X22999Y-18237D01*
X23004Y-18243D01*
X23009Y-18247D01*
X23015Y-18252D01*
X23021Y-18256D01*
X23028Y-18259D01*
X23034Y-18262D01*
X23041Y-18264D01*
X23048Y-18266D01*
X23056Y-18267D01*
X23063Y-18267D01*
X23070Y-18267D01*
X23077Y-18266D01*
X23084Y-18264D01*
X23091Y-18262D01*
X23098Y-18259D01*
X23105Y-18256D01*
X23111Y-18252D01*
X23116Y-18247D01*
X23122Y-18243D01*
X23127Y-18237D01*
X23131Y-18231D01*
X23135Y-18225D01*
X23138Y-18219D01*
X23141Y-18212D01*
X23143Y-18205D01*
X23145Y-18198D01*
X23146Y-18191D01*
X23146Y-18184D01*
X23146Y-18184D01*
X22730Y-16434D02*
X22813Y-16267D01*
X23146Y-16350D02*
X23146Y-16343D01*
X23145Y-16336D01*
X23143Y-16329D01*
X23141Y-16322D01*
X23138Y-16315D01*
X23135Y-16309D01*
X23131Y-16302D01*
X23127Y-16297D01*
X23122Y-16291D01*
X23116Y-16286D01*
X23111Y-16282D01*
X23105Y-16278D01*
X23098Y-16275D01*
X23091Y-16272D01*
X23084Y-16270D01*
X23077Y-16268D01*
X23070Y-16267D01*
X23063Y-16267D01*
X23056Y-16267D01*
X23048Y-16268D01*
X23041Y-16270D01*
X23034Y-16272D01*
X23028Y-16275D01*
X23021Y-16278D01*
X23015Y-16282D01*
X23009Y-16286D01*
X23004Y-16291D01*
X22999Y-16297D01*
X22995Y-16302D01*
X22991Y-16309D01*
X22987Y-16315D01*
X22985Y-16322D01*
X22982Y-16329D01*
X22981Y-16336D01*
X22980Y-16343D01*
X22980Y-16350D01*
X22896Y-16517D02*
X22730Y-16517D01*
X22813Y-16600D02*
X22813Y-16434D01*
X22730Y-16517D02*
X22730Y-16434D01*
X23146Y-16350D02*
X22980Y-16517D01*
X22980Y-16350D01*
X23146Y-16350D02*
X23146Y-16517D01*
X22980Y-16517D02*
X22980Y-16524D01*
X22981Y-16531D01*
X22982Y-16538D01*
X22985Y-16545D01*
X22987Y-16552D01*
X22991Y-16559D01*
X22995Y-16565D01*
X22999Y-16570D01*
X23004Y-16576D01*
X23009Y-16581D01*
X23015Y-16585D01*
X23021Y-16589D01*
X23028Y-16592D01*
X23034Y-16595D01*
X23041Y-16597D01*
X23048Y-16599D01*
X23056Y-16600D01*
X23063Y-16600D01*
X23070Y-16600D01*
X23077Y-16599D01*
X23084Y-16597D01*
X23091Y-16595D01*
X23098Y-16592D01*
X23105Y-16589D01*
X23111Y-16585D01*
X23116Y-16581D01*
X23122Y-16576D01*
X23127Y-16570D01*
X23131Y-16565D01*
X23135Y-16559D01*
X23138Y-16552D01*
X23141Y-16545D01*
X23143Y-16538D01*
X23145Y-16531D01*
X23146Y-16524D01*
X23146Y-16517D01*
X27980Y-16267D02*
X27980Y-18267D01*
X28155Y-16267D02*
X28155Y-18267D01*
X30405Y-18267D01*
X30405Y-16267D01*
X28155Y-16267D01*
X6320Y-1767D02*
X6320Y-6684D01*
X4320Y-1767D02*
X4320Y-6600D01*
X6320Y-11767D02*
X4320Y-11767D01*
X6320Y-11017D02*
X6320Y-11767D01*
X6320Y-10684D02*
X6320Y-7100D01*
X5986Y-10850D02*
X6070Y-10934D01*
X6320Y-10850D02*
X5986Y-10850D01*
X6070Y-6767D02*
X6062Y-6767D01*
X6055Y-6768D01*
X6048Y-6770D01*
X6041Y-6772D01*
X6034Y-6775D01*
X6028Y-6778D01*
X6022Y-6782D01*
X6016Y-6786D01*
X6011Y-6791D01*
X6006Y-6797D01*
X6001Y-6802D01*
X5997Y-6809D01*
X5994Y-6815D01*
X5991Y-6822D01*
X5989Y-6829D01*
X5987Y-6836D01*
X5987Y-6843D01*
X5986Y-6850D01*
X5987Y-6858D01*
X5987Y-6865D01*
X5989Y-6872D01*
X5991Y-6879D01*
X5994Y-6885D01*
X5997Y-6892D01*
X6001Y-6898D01*
X6006Y-6904D01*
X6011Y-6909D01*
X6016Y-6914D01*
X6022Y-6919D01*
X6028Y-6922D01*
X6034Y-6926D01*
X6041Y-6929D01*
X6048Y-6931D01*
X6055Y-6932D01*
X6062Y-6933D01*
X6070Y-6934D01*
X6077Y-6933D01*
X6084Y-6932D01*
X6091Y-6931D01*
X6098Y-6929D01*
X6105Y-6926D01*
X6111Y-6922D01*
X6117Y-6919D01*
X6123Y-6914D01*
X6128Y-6909D01*
X6133Y-6904D01*
X6138Y-6898D01*
X6142Y-6892D01*
X6145Y-6885D01*
X6148Y-6879D01*
X6150Y-6872D01*
X6152Y-6865D01*
X6153Y-6858D01*
X6153Y-6850D01*
X6153Y-6843D01*
X6152Y-6836D01*
X6150Y-6829D01*
X6148Y-6822D01*
X6145Y-6815D01*
X6142Y-6809D01*
X6138Y-6802D01*
X6133Y-6797D01*
X6128Y-6791D01*
X6123Y-6786D01*
X6117Y-6782D01*
X6111Y-6778D01*
X6105Y-6775D01*
X6098Y-6772D01*
X6091Y-6770D01*
X6084Y-6768D01*
X6077Y-6767D01*
X6070Y-6767D01*
X6236Y-6934D02*
X6243Y-6933D01*
X6251Y-6932D01*
X6258Y-6931D01*
X6265Y-6929D01*
X6271Y-6926D01*
X6278Y-6922D01*
X6284Y-6919D01*
X6290Y-6914D01*
X6295Y-6909D01*
X6300Y-6904D01*
X6304Y-6898D01*
X6308Y-6892D01*
X6312Y-6885D01*
X6314Y-6879D01*
X6317Y-6872D01*
X6318Y-6865D01*
X6319Y-6858D01*
X6320Y-6850D01*
X6319Y-6843D01*
X6318Y-6836D01*
X6317Y-6829D01*
X6314Y-6822D01*
X6312Y-6815D01*
X6308Y-6809D01*
X6304Y-6802D01*
X6300Y-6797D01*
X6295Y-6791D01*
X6290Y-6786D01*
X6284Y-6782D01*
X6278Y-6778D01*
X6271Y-6775D01*
X6265Y-6772D01*
X6258Y-6770D01*
X6251Y-6768D01*
X6243Y-6767D01*
X6236Y-6767D01*
X6236Y-6767D01*
X6070Y-6767D01*
X4320Y-11767D02*
X4320Y-11017D01*
X4320Y-10684D02*
X4320Y-7100D01*
X4486Y-10850D02*
X4486Y-10843D01*
X4485Y-10836D01*
X4483Y-10829D01*
X4481Y-10822D01*
X4478Y-10815D01*
X4475Y-10809D01*
X4471Y-10802D01*
X4467Y-10797D01*
X4462Y-10791D01*
X4456Y-10786D01*
X4451Y-10782D01*
X4445Y-10778D01*
X4438Y-10775D01*
X4431Y-10772D01*
X4424Y-10770D01*
X4417Y-10768D01*
X4410Y-10767D01*
X4403Y-10767D01*
X4396Y-10767D01*
X4388Y-10768D01*
X4381Y-10770D01*
X4374Y-10772D01*
X4368Y-10775D01*
X4361Y-10778D01*
X4355Y-10782D01*
X4349Y-10786D01*
X4344Y-10791D01*
X4339Y-10797D01*
X4335Y-10802D01*
X4331Y-10809D01*
X4327Y-10815D01*
X4325Y-10822D01*
X4322Y-10829D01*
X4321Y-10836D01*
X4320Y-10843D01*
X4320Y-10850D01*
X4320Y-10858D01*
X4321Y-10865D01*
X4322Y-10872D01*
X4325Y-10879D01*
X4327Y-10885D01*
X4331Y-10892D01*
X4335Y-10898D01*
X4339Y-10904D01*
X4344Y-10909D01*
X4349Y-10914D01*
X4355Y-10919D01*
X4361Y-10922D01*
X4368Y-10926D01*
X4374Y-10929D01*
X4381Y-10931D01*
X4388Y-10932D01*
X4396Y-10933D01*
X4403Y-10934D01*
X4403Y-10934D01*
X4653Y-10767D02*
X4653Y-10934D01*
X4486Y-10850D02*
X4487Y-10858D01*
X4487Y-10865D01*
X4489Y-10872D01*
X4491Y-10879D01*
X4494Y-10885D01*
X4497Y-10892D01*
X4501Y-10898D01*
X4506Y-10904D01*
X4511Y-10909D01*
X4516Y-10914D01*
X4522Y-10919D01*
X4528Y-10922D01*
X4534Y-10926D01*
X4541Y-10929D01*
X4548Y-10931D01*
X4555Y-10932D01*
X4562Y-10933D01*
X4570Y-10934D01*
X4653Y-10934D02*
X4570Y-10934D01*
X4403Y-6684D02*
X4570Y-6850D01*
X4577Y-6850D01*
X4584Y-6849D01*
X4591Y-6847D01*
X4598Y-6845D01*
X4605Y-6842D01*
X4611Y-6839D01*
X4617Y-6835D01*
X4623Y-6831D01*
X4628Y-6826D01*
X4633Y-6820D01*
X4638Y-6815D01*
X4642Y-6809D01*
X4645Y-6802D01*
X4648Y-6795D01*
X4650Y-6788D01*
X4652Y-6781D01*
X4653Y-6774D01*
X4653Y-6767D01*
X4653Y-6760D01*
X4652Y-6752D01*
X4650Y-6745D01*
X4648Y-6738D01*
X4645Y-6732D01*
X4642Y-6725D01*
X4638Y-6719D01*
X4633Y-6713D01*
X4628Y-6708D01*
X4623Y-6703D01*
X4617Y-6699D01*
X4611Y-6695D01*
X4605Y-6691D01*
X4598Y-6689D01*
X4591Y-6686D01*
X4584Y-6685D01*
X4577Y-6684D01*
X4570Y-6684D01*
X4403Y-6684D02*
X4396Y-6684D01*
X4388Y-6685D01*
X4381Y-6686D01*
X4374Y-6689D01*
X4368Y-6691D01*
X4361Y-6695D01*
X4355Y-6699D01*
X4349Y-6703D01*
X4344Y-6708D01*
X4339Y-6713D01*
X4335Y-6719D01*
X4331Y-6725D01*
X4327Y-6732D01*
X4325Y-6738D01*
X4322Y-6745D01*
X4321Y-6752D01*
X4320Y-6760D01*
X4320Y-6767D01*
X4320Y-6774D01*
X4321Y-6781D01*
X4322Y-6788D01*
X4325Y-6795D01*
X4327Y-6802D01*
X4331Y-6809D01*
X4335Y-6815D01*
X4339Y-6820D01*
X4344Y-6826D01*
X4349Y-6831D01*
X4355Y-6835D01*
X4361Y-6839D01*
X4368Y-6842D01*
X4374Y-6845D01*
X4381Y-6847D01*
X4388Y-6849D01*
X4396Y-6850D01*
X4403Y-6850D01*
X4403Y-6684D02*
X4570Y-6684D01*
X4570Y-6850D02*
X4403Y-6850D01*
X4320Y-6934D02*
X4403Y-7017D01*
X4653Y-6934D02*
X4320Y-6934D01*
X4320Y-1767D02*
X6320Y-1767D01*
X13063Y2983D02*
X13063Y2990D01*
X13062Y2998D01*
X13060Y3005D01*
X13058Y3012D01*
X13055Y3018D01*
X13052Y3025D01*
X13048Y3031D01*
X13043Y3037D01*
X13038Y3042D01*
X13033Y3047D01*
X13027Y3051D01*
X13021Y3055D01*
X13015Y3059D01*
X13008Y3061D01*
X13001Y3064D01*
X12994Y3065D01*
X12987Y3066D01*
X12980Y3066D01*
X12972Y3066D01*
X12965Y3065D01*
X12958Y3064D01*
X12951Y3061D01*
X12944Y3059D01*
X12938Y3055D01*
X12932Y3051D01*
X12926Y3047D01*
X12921Y3042D01*
X12916Y3037D01*
X12911Y3031D01*
X12907Y3025D01*
X12904Y3018D01*
X12901Y3012D01*
X12899Y3005D01*
X12897Y2998D01*
X12897Y2990D01*
X12896Y2983D01*
X12897Y2976D01*
X12897Y2969D01*
X12899Y2962D01*
X12901Y2955D01*
X12904Y2948D01*
X12907Y2941D01*
X12911Y2935D01*
X12916Y2930D01*
X12921Y2924D01*
X12926Y2919D01*
X12932Y2915D01*
X12938Y2911D01*
X12944Y2908D01*
X12951Y2905D01*
X12958Y2903D01*
X12965Y2901D01*
X12972Y2900D01*
X12980Y2900D01*
X12987Y2900D01*
X12994Y2901D01*
X13001Y2903D01*
X13008Y2905D01*
X13015Y2908D01*
X13021Y2911D01*
X13027Y2915D01*
X13033Y2919D01*
X13038Y2924D01*
X13043Y2930D01*
X13048Y2935D01*
X13052Y2941D01*
X13055Y2948D01*
X13058Y2955D01*
X13060Y2962D01*
X13062Y2969D01*
X13063Y2976D01*
X13063Y2983D01*
X13063Y2983D01*
X12896Y2816D02*
X12897Y2809D01*
X12897Y2802D01*
X12899Y2795D01*
X12901Y2788D01*
X12904Y2781D01*
X12907Y2775D01*
X12911Y2769D01*
X12916Y2763D01*
X12921Y2757D01*
X12926Y2753D01*
X12932Y2748D01*
X12938Y2744D01*
X12944Y2741D01*
X12951Y2738D01*
X12958Y2736D01*
X12965Y2734D01*
X12972Y2733D01*
X12980Y2733D01*
X12987Y2733D01*
X12994Y2734D01*
X13001Y2736D01*
X13008Y2738D01*
X13015Y2741D01*
X13021Y2744D01*
X13027Y2748D01*
X13033Y2753D01*
X13038Y2757D01*
X13043Y2763D01*
X13048Y2769D01*
X13052Y2775D01*
X13055Y2781D01*
X13058Y2788D01*
X13060Y2795D01*
X13062Y2802D01*
X13063Y2809D01*
X13063Y2816D01*
X13063Y2816D01*
X12896Y4400D02*
X12730Y4400D01*
X12813Y4566D02*
X12820Y4567D01*
X12827Y4568D01*
X12834Y4569D01*
X12841Y4571D01*
X12848Y4574D01*
X12855Y4578D01*
X12861Y4581D01*
X12866Y4586D01*
X12872Y4591D01*
X12877Y4596D01*
X12881Y4602D01*
X12885Y4608D01*
X12888Y4615D01*
X12891Y4621D01*
X12893Y4628D01*
X12895Y4635D01*
X12896Y4642D01*
X12896Y4650D01*
X12896Y4657D01*
X12895Y4664D01*
X12893Y4671D01*
X12891Y4678D01*
X12888Y4685D01*
X12885Y4691D01*
X12881Y4698D01*
X12877Y4703D01*
X12872Y4709D01*
X12866Y4714D01*
X12861Y4718D01*
X12855Y4722D01*
X12848Y4725D01*
X12841Y4728D01*
X12834Y4730D01*
X12827Y4732D01*
X12820Y4733D01*
X12813Y4733D01*
X12806Y4733D01*
X12798Y4732D01*
X12791Y4730D01*
X12784Y4728D01*
X12778Y4725D01*
X12771Y4722D01*
X12765Y4718D01*
X12759Y4714D01*
X12754Y4709D01*
X12749Y4703D01*
X12745Y4698D01*
X12741Y4691D01*
X12737Y4685D01*
X12735Y4678D01*
X12732Y4671D01*
X12731Y4664D01*
X12730Y4657D01*
X12730Y4650D01*
X7730Y2733D02*
X3980Y2733D01*
X7646Y4733D02*
X4063Y4733D01*
X2980Y4733D02*
X2980Y2733D01*
X3730Y2733D01*
X3896Y2733D02*
X3896Y3066D01*
X3813Y2983D01*
X3730Y4733D02*
X2980Y4733D01*
X3980Y4400D02*
X3813Y4400D01*
X3896Y4566D02*
X3903Y4567D01*
X3911Y4568D01*
X3918Y4569D01*
X3925Y4571D01*
X3931Y4574D01*
X3938Y4578D01*
X3944Y4581D01*
X3950Y4586D01*
X3955Y4591D01*
X3960Y4596D01*
X3964Y4602D01*
X3968Y4608D01*
X3972Y4615D01*
X3974Y4621D01*
X3977Y4628D01*
X3978Y4635D01*
X3979Y4642D01*
X3980Y4650D01*
X3979Y4657D01*
X3978Y4664D01*
X3977Y4671D01*
X3974Y4678D01*
X3972Y4685D01*
X3968Y4691D01*
X3964Y4698D01*
X3960Y4703D01*
X3955Y4709D01*
X3950Y4714D01*
X3944Y4718D01*
X3938Y4722D01*
X3931Y4725D01*
X3925Y4728D01*
X3918Y4730D01*
X3911Y4732D01*
X3903Y4733D01*
X3896Y4733D01*
X3889Y4733D01*
X3882Y4732D01*
X3875Y4730D01*
X3868Y4728D01*
X3861Y4725D01*
X3855Y4722D01*
X3848Y4718D01*
X3843Y4714D01*
X3837Y4709D01*
X3832Y4703D01*
X3828Y4698D01*
X3824Y4691D01*
X3821Y4685D01*
X3818Y4678D01*
X3816Y4671D01*
X3814Y4664D01*
X3813Y4657D01*
X3813Y4650D01*
X3896Y4566D02*
X3889Y4566D01*
X3882Y4565D01*
X3875Y4564D01*
X3868Y4561D01*
X3861Y4559D01*
X3855Y4555D01*
X3848Y4551D01*
X3843Y4547D01*
X3837Y4542D01*
X3832Y4537D01*
X3828Y4531D01*
X3824Y4525D01*
X3821Y4518D01*
X3818Y4512D01*
X3816Y4505D01*
X3814Y4498D01*
X3813Y4490D01*
X3813Y4483D01*
X3813Y4400D02*
X3813Y4483D01*
X12646Y2733D02*
X8063Y2733D01*
X7980Y2983D02*
X7979Y2990D01*
X7978Y2998D01*
X7977Y3005D01*
X7974Y3012D01*
X7972Y3018D01*
X7968Y3025D01*
X7964Y3031D01*
X7960Y3037D01*
X7955Y3042D01*
X7950Y3047D01*
X7944Y3051D01*
X7938Y3055D01*
X7931Y3059D01*
X7925Y3061D01*
X7918Y3064D01*
X7911Y3065D01*
X7903Y3066D01*
X7896Y3066D01*
X7889Y3066D01*
X7882Y3065D01*
X7875Y3064D01*
X7868Y3061D01*
X7861Y3059D01*
X7855Y3055D01*
X7848Y3051D01*
X7843Y3047D01*
X7837Y3042D01*
X7832Y3037D01*
X7828Y3031D01*
X7824Y3025D01*
X7821Y3018D01*
X7818Y3012D01*
X7816Y3005D01*
X7814Y2998D01*
X7813Y2990D01*
X7813Y2983D01*
X7813Y2976D01*
X7814Y2969D01*
X7816Y2962D01*
X7818Y2955D01*
X7821Y2948D01*
X7824Y2941D01*
X7828Y2935D01*
X7832Y2930D01*
X7837Y2924D01*
X7843Y2919D01*
X7848Y2915D01*
X7855Y2911D01*
X7861Y2908D01*
X7868Y2905D01*
X7875Y2903D01*
X7882Y2901D01*
X7889Y2900D01*
X7896Y2900D01*
X7903Y2900D01*
X7911Y2901D01*
X7918Y2903D01*
X7925Y2905D01*
X7931Y2908D01*
X7938Y2911D01*
X7944Y2915D01*
X7950Y2919D01*
X7955Y2924D01*
X7960Y2930D01*
X7964Y2935D01*
X7968Y2941D01*
X7972Y2948D01*
X7974Y2955D01*
X7977Y2962D01*
X7978Y2969D01*
X7979Y2976D01*
X7980Y2983D01*
X7980Y2983D01*
X7980Y2816D02*
X7980Y2983D01*
X7813Y2816D02*
X7813Y2809D01*
X7814Y2802D01*
X7816Y2795D01*
X7818Y2788D01*
X7821Y2781D01*
X7824Y2775D01*
X7828Y2769D01*
X7832Y2763D01*
X7837Y2757D01*
X7843Y2753D01*
X7848Y2748D01*
X7855Y2744D01*
X7861Y2741D01*
X7868Y2738D01*
X7875Y2736D01*
X7882Y2734D01*
X7889Y2733D01*
X7896Y2733D01*
X7903Y2733D01*
X7911Y2734D01*
X7918Y2736D01*
X7925Y2738D01*
X7931Y2741D01*
X7938Y2744D01*
X7944Y2748D01*
X7950Y2753D01*
X7955Y2757D01*
X7960Y2763D01*
X7964Y2769D01*
X7968Y2775D01*
X7972Y2781D01*
X7974Y2788D01*
X7977Y2795D01*
X7978Y2802D01*
X7979Y2809D01*
X7980Y2816D01*
X7980Y2816D01*
X12813Y3066D02*
X12730Y2983D01*
X12813Y2733D02*
X12813Y3066D01*
X12646Y4733D02*
X8146Y4733D01*
X7813Y4400D02*
X7813Y4733D01*
X8063Y4650D02*
X8063Y4657D01*
X8062Y4664D01*
X8060Y4671D01*
X8058Y4678D01*
X8055Y4685D01*
X8052Y4691D01*
X8048Y4698D01*
X8043Y4703D01*
X8038Y4709D01*
X8033Y4714D01*
X8027Y4718D01*
X8021Y4722D01*
X8015Y4725D01*
X8008Y4728D01*
X8001Y4730D01*
X7994Y4732D01*
X7987Y4733D01*
X7980Y4733D01*
X7972Y4733D01*
X7965Y4732D01*
X7958Y4730D01*
X7951Y4728D01*
X7944Y4725D01*
X7938Y4722D01*
X7932Y4718D01*
X7926Y4714D01*
X7921Y4709D01*
X7916Y4703D01*
X7911Y4698D01*
X7907Y4691D01*
X7904Y4685D01*
X7901Y4678D01*
X7899Y4671D01*
X7897Y4664D01*
X7897Y4657D01*
X7896Y4650D01*
X7813Y4733D02*
X7730Y4650D01*
X8063Y4650D02*
X7896Y4483D01*
X8063Y4650D02*
X8063Y4483D01*
X7896Y4483D02*
X7896Y4650D01*
X7896Y4483D02*
X7897Y4476D01*
X7897Y4469D01*
X7899Y4462D01*
X7901Y4455D01*
X7904Y4448D01*
X7907Y4441D01*
X7911Y4435D01*
X7916Y4430D01*
X7921Y4424D01*
X7926Y4419D01*
X7932Y4415D01*
X7938Y4411D01*
X7944Y4408D01*
X7951Y4405D01*
X7958Y4403D01*
X7965Y4401D01*
X7972Y4400D01*
X7980Y4400D01*
X7987Y4400D01*
X7994Y4401D01*
X8001Y4403D01*
X8008Y4405D01*
X8015Y4408D01*
X8021Y4411D01*
X8027Y4415D01*
X8033Y4419D01*
X8038Y4424D01*
X8043Y4430D01*
X8048Y4435D01*
X8052Y4441D01*
X8055Y4448D01*
X8058Y4455D01*
X8060Y4462D01*
X8062Y4469D01*
X8063Y4476D01*
X8063Y4483D01*
X12813Y4566D02*
X12806Y4566D01*
X12798Y4565D01*
X12791Y4564D01*
X12784Y4561D01*
X12778Y4559D01*
X12771Y4555D01*
X12765Y4551D01*
X12759Y4547D01*
X12754Y4542D01*
X12749Y4537D01*
X12745Y4531D01*
X12741Y4525D01*
X12737Y4518D01*
X12735Y4512D01*
X12732Y4505D01*
X12731Y4498D01*
X12730Y4490D01*
X12730Y4483D01*
X12730Y4400D02*
X12730Y4483D01*
X27980Y2733D02*
X23230Y2733D01*
X27980Y4733D02*
X23313Y4733D01*
X22646Y2733D02*
X18230Y2733D01*
X22646Y4733D02*
X18230Y4733D01*
X17646Y2733D02*
X13146Y2733D01*
X13063Y2816D02*
X13063Y2983D01*
X18146Y2983D02*
X18146Y2990D01*
X18145Y2998D01*
X18143Y3005D01*
X18141Y3012D01*
X18138Y3018D01*
X18135Y3025D01*
X18131Y3031D01*
X18127Y3037D01*
X18122Y3042D01*
X18116Y3047D01*
X18111Y3051D01*
X18105Y3055D01*
X18098Y3059D01*
X18091Y3061D01*
X18084Y3064D01*
X18077Y3065D01*
X18070Y3066D01*
X18063Y3066D01*
X18056Y3066D01*
X18048Y3065D01*
X18041Y3064D01*
X18034Y3061D01*
X18028Y3059D01*
X18021Y3055D01*
X18015Y3051D01*
X18009Y3047D01*
X18004Y3042D01*
X17999Y3037D01*
X17995Y3031D01*
X17991Y3025D01*
X17987Y3018D01*
X17985Y3012D01*
X17982Y3005D01*
X17981Y2998D01*
X17980Y2990D01*
X17980Y2983D01*
X17980Y2976D01*
X17981Y2969D01*
X17982Y2962D01*
X17985Y2955D01*
X17987Y2948D01*
X17991Y2941D01*
X17995Y2935D01*
X17999Y2930D01*
X18004Y2924D01*
X18009Y2919D01*
X18015Y2915D01*
X18021Y2911D01*
X18028Y2908D01*
X18034Y2905D01*
X18041Y2903D01*
X18048Y2901D01*
X18056Y2900D01*
X18063Y2900D01*
X18070Y2900D01*
X18077Y2901D01*
X18084Y2903D01*
X18091Y2905D01*
X18098Y2908D01*
X18105Y2911D01*
X18111Y2915D01*
X18116Y2919D01*
X18122Y2924D01*
X18127Y2930D01*
X18131Y2935D01*
X18135Y2941D01*
X18138Y2948D01*
X18141Y2955D01*
X18143Y2962D01*
X18145Y2969D01*
X18146Y2976D01*
X18146Y2983D01*
X18146Y2983D01*
X18146Y2816D02*
X18146Y2983D01*
X17980Y2816D02*
X17980Y2809D01*
X17981Y2802D01*
X17982Y2795D01*
X17985Y2788D01*
X17987Y2781D01*
X17991Y2775D01*
X17995Y2769D01*
X17999Y2763D01*
X18004Y2757D01*
X18009Y2753D01*
X18015Y2748D01*
X18021Y2744D01*
X18028Y2741D01*
X18034Y2738D01*
X18041Y2736D01*
X18048Y2734D01*
X18056Y2733D01*
X18063Y2733D01*
X18070Y2733D01*
X18077Y2734D01*
X18084Y2736D01*
X18091Y2738D01*
X18098Y2741D01*
X18105Y2744D01*
X18111Y2748D01*
X18116Y2753D01*
X18122Y2757D01*
X18127Y2763D01*
X18131Y2769D01*
X18135Y2775D01*
X18138Y2781D01*
X18141Y2788D01*
X18143Y2795D01*
X18145Y2802D01*
X18146Y2809D01*
X18146Y2816D01*
X18146Y2816D01*
X17813Y2900D02*
X17820Y2900D01*
X17827Y2901D01*
X17834Y2903D01*
X17841Y2905D01*
X17848Y2908D01*
X17855Y2911D01*
X17861Y2915D01*
X17866Y2919D01*
X17872Y2924D01*
X17877Y2930D01*
X17881Y2935D01*
X17885Y2941D01*
X17888Y2948D01*
X17891Y2955D01*
X17893Y2962D01*
X17895Y2969D01*
X17896Y2976D01*
X17896Y2983D01*
X17896Y2990D01*
X17895Y2998D01*
X17893Y3005D01*
X17891Y3012D01*
X17888Y3018D01*
X17885Y3025D01*
X17881Y3031D01*
X17877Y3037D01*
X17872Y3042D01*
X17866Y3047D01*
X17861Y3051D01*
X17855Y3055D01*
X17848Y3059D01*
X17841Y3061D01*
X17834Y3064D01*
X17827Y3065D01*
X17820Y3066D01*
X17813Y3066D01*
X17806Y3066D01*
X17798Y3065D01*
X17791Y3064D01*
X17784Y3061D01*
X17778Y3059D01*
X17771Y3055D01*
X17765Y3051D01*
X17759Y3047D01*
X17754Y3042D01*
X17749Y3037D01*
X17745Y3031D01*
X17741Y3025D01*
X17737Y3018D01*
X17735Y3012D01*
X17732Y3005D01*
X17731Y2998D01*
X17730Y2990D01*
X17730Y2983D01*
X17896Y2733D02*
X17730Y2733D01*
X17813Y2900D02*
X17806Y2899D01*
X17798Y2898D01*
X17791Y2897D01*
X17784Y2895D01*
X17778Y2892D01*
X17771Y2889D01*
X17765Y2885D01*
X17759Y2880D01*
X17754Y2875D01*
X17749Y2870D01*
X17745Y2864D01*
X17741Y2858D01*
X17737Y2852D01*
X17735Y2845D01*
X17732Y2838D01*
X17731Y2831D01*
X17730Y2824D01*
X17730Y2816D01*
X17730Y2733D02*
X17730Y2816D01*
X17646Y4733D02*
X13230Y4733D01*
X13146Y4650D02*
X13146Y4657D01*
X13145Y4664D01*
X13143Y4671D01*
X13141Y4678D01*
X13138Y4685D01*
X13135Y4691D01*
X13131Y4698D01*
X13127Y4703D01*
X13122Y4709D01*
X13116Y4714D01*
X13111Y4718D01*
X13105Y4722D01*
X13098Y4725D01*
X13091Y4728D01*
X13084Y4730D01*
X13077Y4732D01*
X13070Y4733D01*
X13063Y4733D01*
X13056Y4733D01*
X13048Y4732D01*
X13041Y4730D01*
X13034Y4728D01*
X13028Y4725D01*
X13021Y4722D01*
X13015Y4718D01*
X13009Y4714D01*
X13004Y4709D01*
X12999Y4703D01*
X12995Y4698D01*
X12991Y4691D01*
X12987Y4685D01*
X12985Y4678D01*
X12982Y4671D01*
X12981Y4664D01*
X12980Y4657D01*
X12980Y4650D01*
X13146Y4650D02*
X12980Y4483D01*
X12980Y4476D01*
X12981Y4469D01*
X12982Y4462D01*
X12985Y4455D01*
X12987Y4448D01*
X12991Y4441D01*
X12995Y4435D01*
X12999Y4430D01*
X13004Y4424D01*
X13009Y4419D01*
X13015Y4415D01*
X13021Y4411D01*
X13028Y4408D01*
X13034Y4405D01*
X13041Y4403D01*
X13048Y4401D01*
X13056Y4400D01*
X13063Y4400D01*
X13070Y4400D01*
X13077Y4401D01*
X13084Y4403D01*
X13091Y4405D01*
X13098Y4408D01*
X13105Y4411D01*
X13111Y4415D01*
X13116Y4419D01*
X13122Y4424D01*
X13127Y4430D01*
X13131Y4435D01*
X13135Y4441D01*
X13138Y4448D01*
X13141Y4455D01*
X13143Y4462D01*
X13145Y4469D01*
X13146Y4476D01*
X13146Y4483D01*
X12980Y4483D02*
X12980Y4650D01*
X13146Y4650D02*
X13146Y4483D01*
X18146Y4650D02*
X18146Y4657D01*
X18145Y4664D01*
X18143Y4671D01*
X18141Y4678D01*
X18138Y4685D01*
X18135Y4691D01*
X18131Y4698D01*
X18127Y4703D01*
X18122Y4709D01*
X18116Y4714D01*
X18111Y4718D01*
X18105Y4722D01*
X18098Y4725D01*
X18091Y4728D01*
X18084Y4730D01*
X18077Y4732D01*
X18070Y4733D01*
X18063Y4733D01*
X18056Y4733D01*
X18048Y4732D01*
X18041Y4730D01*
X18034Y4728D01*
X18028Y4725D01*
X18021Y4722D01*
X18015Y4718D01*
X18009Y4714D01*
X18004Y4709D01*
X17999Y4703D01*
X17995Y4698D01*
X17991Y4691D01*
X17987Y4685D01*
X17985Y4678D01*
X17982Y4671D01*
X17981Y4664D01*
X17980Y4657D01*
X17980Y4650D01*
X18146Y4483D02*
X18146Y4650D01*
X17980Y4483D01*
X17980Y4476D01*
X17981Y4469D01*
X17982Y4462D01*
X17985Y4455D01*
X17987Y4448D01*
X17991Y4441D01*
X17995Y4435D01*
X17999Y4430D01*
X18004Y4424D01*
X18009Y4419D01*
X18015Y4415D01*
X18021Y4411D01*
X18028Y4408D01*
X18034Y4405D01*
X18041Y4403D01*
X18048Y4401D01*
X18056Y4400D01*
X18063Y4400D01*
X18070Y4400D01*
X18077Y4401D01*
X18084Y4403D01*
X18091Y4405D01*
X18098Y4408D01*
X18105Y4411D01*
X18111Y4415D01*
X18116Y4419D01*
X18122Y4424D01*
X18127Y4430D01*
X18131Y4435D01*
X18135Y4441D01*
X18138Y4448D01*
X18141Y4455D01*
X18143Y4462D01*
X18145Y4469D01*
X18146Y4476D01*
X18146Y4483D01*
X17730Y4483D02*
X17730Y4476D01*
X17731Y4469D01*
X17732Y4462D01*
X17735Y4455D01*
X17737Y4448D01*
X17741Y4441D01*
X17745Y4435D01*
X17749Y4430D01*
X17754Y4424D01*
X17759Y4419D01*
X17765Y4415D01*
X17771Y4411D01*
X17778Y4408D01*
X17784Y4405D01*
X17791Y4403D01*
X17798Y4401D01*
X17806Y4400D01*
X17813Y4400D01*
X17820Y4400D01*
X17827Y4401D01*
X17834Y4403D01*
X17841Y4405D01*
X17848Y4408D01*
X17855Y4411D01*
X17861Y4415D01*
X17866Y4419D01*
X17872Y4424D01*
X17877Y4430D01*
X17881Y4435D01*
X17885Y4441D01*
X17888Y4448D01*
X17891Y4455D01*
X17893Y4462D01*
X17895Y4469D01*
X17896Y4476D01*
X17896Y4483D01*
X17896Y4490D01*
X17895Y4498D01*
X17893Y4505D01*
X17891Y4512D01*
X17888Y4518D01*
X17885Y4525D01*
X17881Y4531D01*
X17877Y4537D01*
X17872Y4542D01*
X17866Y4547D01*
X17861Y4551D01*
X17855Y4555D01*
X17848Y4559D01*
X17841Y4561D01*
X17834Y4564D01*
X17827Y4565D01*
X17820Y4566D01*
X17813Y4566D01*
X17820Y4567D01*
X17827Y4568D01*
X17834Y4569D01*
X17841Y4571D01*
X17848Y4574D01*
X17855Y4578D01*
X17861Y4581D01*
X17866Y4586D01*
X17872Y4591D01*
X17877Y4596D01*
X17881Y4602D01*
X17885Y4608D01*
X17888Y4615D01*
X17891Y4621D01*
X17893Y4628D01*
X17895Y4635D01*
X17896Y4642D01*
X17896Y4650D01*
X17896Y4657D01*
X17895Y4664D01*
X17893Y4671D01*
X17891Y4678D01*
X17888Y4685D01*
X17885Y4691D01*
X17881Y4698D01*
X17877Y4703D01*
X17872Y4709D01*
X17866Y4714D01*
X17861Y4718D01*
X17855Y4722D01*
X17848Y4725D01*
X17841Y4728D01*
X17834Y4730D01*
X17827Y4732D01*
X17820Y4733D01*
X17813Y4733D01*
X17806Y4733D01*
X17798Y4732D01*
X17791Y4730D01*
X17784Y4728D01*
X17778Y4725D01*
X17771Y4722D01*
X17765Y4718D01*
X17759Y4714D01*
X17754Y4709D01*
X17749Y4703D01*
X17745Y4698D01*
X17741Y4691D01*
X17737Y4685D01*
X17735Y4678D01*
X17732Y4671D01*
X17731Y4664D01*
X17730Y4657D01*
X17730Y4650D01*
X17980Y4483D02*
X17980Y4650D01*
X22813Y2900D02*
X22820Y2900D01*
X22827Y2901D01*
X22834Y2903D01*
X22841Y2905D01*
X22848Y2908D01*
X22855Y2911D01*
X22861Y2915D01*
X22866Y2919D01*
X22872Y2924D01*
X22877Y2930D01*
X22881Y2935D01*
X22885Y2941D01*
X22888Y2948D01*
X22891Y2955D01*
X22893Y2962D01*
X22895Y2969D01*
X22896Y2976D01*
X22896Y2983D01*
X22896Y2990D01*
X22895Y2998D01*
X22893Y3005D01*
X22891Y3012D01*
X22888Y3018D01*
X22885Y3025D01*
X22881Y3031D01*
X22877Y3037D01*
X22872Y3042D01*
X22866Y3047D01*
X22861Y3051D01*
X22855Y3055D01*
X22848Y3059D01*
X22841Y3061D01*
X22834Y3064D01*
X22827Y3065D01*
X22820Y3066D01*
X22813Y3066D01*
X22806Y3066D01*
X22798Y3065D01*
X22791Y3064D01*
X22784Y3061D01*
X22778Y3059D01*
X22771Y3055D01*
X22765Y3051D01*
X22759Y3047D01*
X22754Y3042D01*
X22749Y3037D01*
X22745Y3031D01*
X22741Y3025D01*
X22737Y3018D01*
X22735Y3012D01*
X22732Y3005D01*
X22731Y2998D01*
X22730Y2990D01*
X22730Y2983D01*
X22730Y2816D02*
X22730Y2809D01*
X22731Y2802D01*
X22732Y2795D01*
X22735Y2788D01*
X22737Y2781D01*
X22741Y2775D01*
X22745Y2769D01*
X22749Y2763D01*
X22754Y2757D01*
X22759Y2753D01*
X22765Y2748D01*
X22771Y2744D01*
X22778Y2741D01*
X22784Y2738D01*
X22791Y2736D01*
X22798Y2734D01*
X22806Y2733D01*
X22813Y2733D01*
X22820Y2733D01*
X22827Y2734D01*
X22834Y2736D01*
X22841Y2738D01*
X22848Y2741D01*
X22855Y2744D01*
X22861Y2748D01*
X22866Y2753D01*
X22872Y2757D01*
X22877Y2763D01*
X22881Y2769D01*
X22885Y2775D01*
X22888Y2781D01*
X22891Y2788D01*
X22893Y2795D01*
X22895Y2802D01*
X22896Y2809D01*
X22896Y2816D01*
X22896Y2824D01*
X22895Y2831D01*
X22893Y2838D01*
X22891Y2845D01*
X22888Y2852D01*
X22885Y2858D01*
X22881Y2864D01*
X22877Y2870D01*
X22872Y2875D01*
X22866Y2880D01*
X22861Y2885D01*
X22855Y2889D01*
X22848Y2892D01*
X22841Y2895D01*
X22834Y2897D01*
X22827Y2898D01*
X22820Y2899D01*
X22813Y2900D01*
X22813Y2900D01*
X23146Y2983D02*
X23146Y2990D01*
X23145Y2998D01*
X23143Y3005D01*
X23141Y3012D01*
X23138Y3018D01*
X23135Y3025D01*
X23131Y3031D01*
X23127Y3037D01*
X23122Y3042D01*
X23116Y3047D01*
X23111Y3051D01*
X23105Y3055D01*
X23098Y3059D01*
X23091Y3061D01*
X23084Y3064D01*
X23077Y3065D01*
X23070Y3066D01*
X23063Y3066D01*
X23056Y3066D01*
X23048Y3065D01*
X23041Y3064D01*
X23034Y3061D01*
X23028Y3059D01*
X23021Y3055D01*
X23015Y3051D01*
X23009Y3047D01*
X23004Y3042D01*
X22999Y3037D01*
X22995Y3031D01*
X22991Y3025D01*
X22987Y3018D01*
X22985Y3012D01*
X22982Y3005D01*
X22981Y2998D01*
X22980Y2990D01*
X22980Y2983D01*
X22980Y2976D01*
X22981Y2969D01*
X22982Y2962D01*
X22985Y2955D01*
X22987Y2948D01*
X22991Y2941D01*
X22995Y2935D01*
X22999Y2930D01*
X23004Y2924D01*
X23009Y2919D01*
X23015Y2915D01*
X23021Y2911D01*
X23028Y2908D01*
X23034Y2905D01*
X23041Y2903D01*
X23048Y2901D01*
X23056Y2900D01*
X23063Y2900D01*
X23070Y2900D01*
X23077Y2901D01*
X23084Y2903D01*
X23091Y2905D01*
X23098Y2908D01*
X23105Y2911D01*
X23111Y2915D01*
X23116Y2919D01*
X23122Y2924D01*
X23127Y2930D01*
X23131Y2935D01*
X23135Y2941D01*
X23138Y2948D01*
X23141Y2955D01*
X23143Y2962D01*
X23145Y2969D01*
X23146Y2976D01*
X23146Y2983D01*
X23146Y2983D01*
X23146Y2816D02*
X23146Y2983D01*
X22980Y2816D02*
X22980Y2809D01*
X22981Y2802D01*
X22982Y2795D01*
X22985Y2788D01*
X22987Y2781D01*
X22991Y2775D01*
X22995Y2769D01*
X22999Y2763D01*
X23004Y2757D01*
X23009Y2753D01*
X23015Y2748D01*
X23021Y2744D01*
X23028Y2741D01*
X23034Y2738D01*
X23041Y2736D01*
X23048Y2734D01*
X23056Y2733D01*
X23063Y2733D01*
X23070Y2733D01*
X23077Y2734D01*
X23084Y2736D01*
X23091Y2738D01*
X23098Y2741D01*
X23105Y2744D01*
X23111Y2748D01*
X23116Y2753D01*
X23122Y2757D01*
X23127Y2763D01*
X23131Y2769D01*
X23135Y2775D01*
X23138Y2781D01*
X23141Y2788D01*
X23143Y2795D01*
X23145Y2802D01*
X23146Y2809D01*
X23146Y2816D01*
X23146Y2816D01*
X22730Y4566D02*
X22813Y4733D01*
X23146Y4650D02*
X23146Y4657D01*
X23145Y4664D01*
X23143Y4671D01*
X23141Y4678D01*
X23138Y4685D01*
X23135Y4691D01*
X23131Y4698D01*
X23127Y4703D01*
X23122Y4709D01*
X23116Y4714D01*
X23111Y4718D01*
X23105Y4722D01*
X23098Y4725D01*
X23091Y4728D01*
X23084Y4730D01*
X23077Y4732D01*
X23070Y4733D01*
X23063Y4733D01*
X23056Y4733D01*
X23048Y4732D01*
X23041Y4730D01*
X23034Y4728D01*
X23028Y4725D01*
X23021Y4722D01*
X23015Y4718D01*
X23009Y4714D01*
X23004Y4709D01*
X22999Y4703D01*
X22995Y4698D01*
X22991Y4691D01*
X22987Y4685D01*
X22985Y4678D01*
X22982Y4671D01*
X22981Y4664D01*
X22980Y4657D01*
X22980Y4650D01*
X22896Y4483D02*
X22730Y4483D01*
X22813Y4400D02*
X22813Y4566D01*
X22730Y4483D02*
X22730Y4566D01*
X23146Y4650D02*
X22980Y4483D01*
X22980Y4650D01*
X23146Y4650D02*
X23146Y4483D01*
X22980Y4483D02*
X22980Y4476D01*
X22981Y4469D01*
X22982Y4462D01*
X22985Y4455D01*
X22987Y4448D01*
X22991Y4441D01*
X22995Y4435D01*
X22999Y4430D01*
X23004Y4424D01*
X23009Y4419D01*
X23015Y4415D01*
X23021Y4411D01*
X23028Y4408D01*
X23034Y4405D01*
X23041Y4403D01*
X23048Y4401D01*
X23056Y4400D01*
X23063Y4400D01*
X23070Y4400D01*
X23077Y4401D01*
X23084Y4403D01*
X23091Y4405D01*
X23098Y4408D01*
X23105Y4411D01*
X23111Y4415D01*
X23116Y4419D01*
X23122Y4424D01*
X23127Y4430D01*
X23131Y4435D01*
X23135Y4441D01*
X23138Y4448D01*
X23141Y4455D01*
X23143Y4462D01*
X23145Y4469D01*
X23146Y4476D01*
X23146Y4483D01*
X27980Y4733D02*
X27980Y2733D01*
X30405Y2733D02*
X30405Y4733D01*
X28155Y4733D01*
X28155Y2733D01*
X30405Y2733D01*
X30105Y133D02*
X30105Y2133D01*
X27855Y2133D01*
X27855Y133D01*
X30105Y133D01*
X14480Y-8667D02*
X13480Y-8667D01*
X13480Y-9667D01*
X14480Y-9667D01*
X14480Y-8667D01*
X10105Y-105D02*
X10105Y-1365D01*
X11089Y-1365D01*
X11089Y-105D01*
X10105Y-105D01*
X13880Y-5067D02*
X12880Y-5067D01*
X12880Y-6067D01*
X13880Y-6067D01*
X13880Y-5067D01*
X15680Y-12434D02*
X15680Y-10600D01*
X16680Y-10600D02*
X16680Y-12434D01*
X15680Y-10600D02*
X16680Y-10600D01*
X16680Y-12434D02*
X15680Y-12434D01*
X24550Y-7393D02*
X23409Y-7393D01*
X23409Y-8141D01*
X24550Y-8141D01*
X24550Y-7393D01*
X22137Y-7792D02*
X22137Y-7142D01*
X21822Y-7142D01*
X21822Y-7792D01*
X22137Y-7792D01*
X22880Y-4167D02*
X21880Y-4167D01*
X21880Y-5167D01*
X22880Y-5167D01*
X22880Y-4167D01*
X23580Y-10167D02*
X22580Y-10167D01*
X22580Y-11167D01*
X23580Y-11167D01*
X23580Y-10167D01*
X24580Y-10167D02*
X23580Y-10167D01*
X23580Y-11167D01*
X24580Y-11167D01*
X24580Y-10167D01*
X29980Y-10277D02*
X29980Y-14277D01*
X27980Y-10277D02*
X27980Y-14194D01*
X28146Y-14360D02*
X28146Y-14353D01*
X28145Y-14346D01*
X28143Y-14339D01*
X28141Y-14332D01*
X28138Y-14325D01*
X28135Y-14319D01*
X28131Y-14312D01*
X28127Y-14307D01*
X28122Y-14301D01*
X28116Y-14296D01*
X28111Y-14292D01*
X28105Y-14288D01*
X28098Y-14285D01*
X28091Y-14282D01*
X28084Y-14280D01*
X28077Y-14278D01*
X28070Y-14277D01*
X28063Y-14277D01*
X28056Y-14277D01*
X28048Y-14278D01*
X28041Y-14280D01*
X28034Y-14282D01*
X28028Y-14285D01*
X28021Y-14288D01*
X28015Y-14292D01*
X28009Y-14296D01*
X28004Y-14301D01*
X27999Y-14307D01*
X27995Y-14312D01*
X27991Y-14319D01*
X27987Y-14325D01*
X27985Y-14332D01*
X27982Y-14339D01*
X27981Y-14346D01*
X27980Y-14353D01*
X27980Y-14360D01*
X27980Y-14368D01*
X27981Y-14375D01*
X27982Y-14382D01*
X27985Y-14389D01*
X27987Y-14395D01*
X27991Y-14402D01*
X27995Y-14408D01*
X27999Y-14414D01*
X28004Y-14419D01*
X28009Y-14424D01*
X28015Y-14429D01*
X28021Y-14432D01*
X28028Y-14436D01*
X28034Y-14439D01*
X28041Y-14441D01*
X28048Y-14442D01*
X28056Y-14443D01*
X28063Y-14444D01*
X28313Y-14277D02*
X28313Y-14444D01*
X29980Y-15277D02*
X27980Y-15277D01*
X29646Y-14360D02*
X29980Y-14360D01*
X29730Y-14444D02*
X29646Y-14360D01*
X29980Y-14527D02*
X29980Y-15277D01*
X27980Y-15277D02*
X27980Y-14527D01*
X28146Y-14360D02*
X28147Y-14368D01*
X28147Y-14375D01*
X28149Y-14382D01*
X28151Y-14389D01*
X28154Y-14395D01*
X28157Y-14402D01*
X28161Y-14408D01*
X28166Y-14414D01*
X28171Y-14419D01*
X28176Y-14424D01*
X28182Y-14429D01*
X28188Y-14432D01*
X28194Y-14436D01*
X28201Y-14439D01*
X28208Y-14441D01*
X28215Y-14442D01*
X28222Y-14443D01*
X28230Y-14444D01*
X28313Y-14444D02*
X28230Y-14444D01*
X27980Y-10277D02*
X29980Y-10277D01*
X11380Y-1167D02*
X12380Y-1167D01*
X12380Y-167D01*
X11380Y-167D01*
X11380Y-1167D01*
X13480Y-2267D02*
X12480Y-2267D01*
X12480Y-3267D01*
X13480Y-3267D01*
X13480Y-2267D01*
X16680Y-8042D02*
X14680Y-8042D01*
X14680Y-10292D01*
X16680Y-10292D01*
X16680Y-8042D01*
X16680Y-12667D02*
X15680Y-12667D01*
X15680Y-13667D01*
X16680Y-13667D01*
X16680Y-12667D01*
X24580Y958D02*
X22580Y958D01*
X22580Y-1292D01*
X24580Y-1292D01*
X24580Y958D01*
X24580Y-11442D02*
X22580Y-11442D01*
X22580Y-13692D01*
X24580Y-13692D01*
X24580Y-11442D01*
X24580Y-1567D02*
X23580Y-1567D01*
X23580Y-2567D01*
X24580Y-2567D01*
X24580Y-1567D01*
X30105Y-3367D02*
X30105Y-367D01*
X27855Y-367D01*
X27855Y-3367D01*
X30105Y-3367D01*
X30105Y-6667D02*
X30105Y-3667D01*
X27855Y-3667D01*
X27855Y-6667D01*
X30105Y-6667D01*
X30105Y-9967D02*
X30105Y-6967D01*
X27855Y-6967D01*
X27855Y-9967D01*
X30105Y-9967D01*
G54D12*
X-3351Y-16288D02*
X-3351Y-15945D01*
X-3436Y-15859D01*
X-3521Y-15859D01*
X-3607Y-15945D01*
X-3607Y-16288D01*
X-3991Y-16031D02*
X-3735Y-16031D01*
X-3948Y-16288D01*
X-3948Y-15859D01*
X-3905Y-15859D02*
X-3991Y-15859D01*
X-6246Y-14471D02*
X-6161Y-14385D01*
X-6075Y-14385D01*
X-5990Y-14471D01*
X-5990Y-14728D01*
X-6075Y-14814D01*
X-6161Y-14814D01*
X-6246Y-14728D01*
X-6587Y-14814D02*
X-6459Y-14814D01*
X-6374Y-14728D01*
X-6374Y-14557D01*
X-6374Y-14471D01*
X-6459Y-14385D01*
X-6545Y-14385D01*
X-6630Y-14471D01*
X-6630Y-14557D01*
X-6545Y-14642D01*
X-6459Y-14642D01*
X-6374Y-14557D01*
X-2346Y-13871D02*
X-2261Y-13785D01*
X-2175Y-13785D01*
X-2090Y-13871D01*
X-2090Y-14128D01*
X-2175Y-14214D01*
X-2261Y-14214D01*
X-2346Y-14128D01*
X-2730Y-14214D02*
X-2474Y-14214D01*
X-2474Y-14042D01*
X-2645Y-14042D01*
X-2730Y-13957D01*
X-2730Y-13871D01*
X-2645Y-13785D01*
X-2474Y-13785D01*
X-6896Y-11971D02*
X-6939Y-12014D01*
X-7024Y-12014D01*
X-7109Y-11928D01*
X-7109Y-11842D01*
X-7067Y-11800D01*
X-7109Y-11757D01*
X-7109Y-11671D01*
X-7024Y-11585D01*
X-6939Y-11585D01*
X-6896Y-11628D01*
X-6939Y-11800D02*
X-7067Y-11800D01*
X-7365Y-11585D02*
X-7365Y-11628D01*
X-7877Y-12014D02*
X-7621Y-12014D01*
X-7621Y-11842D01*
X-7792Y-11842D01*
X-7877Y-11757D01*
X-7877Y-11671D01*
X-7792Y-11585D01*
X-7621Y-11585D01*
X-8005Y-12014D02*
X-8133Y-11585D01*
X-8261Y-12014D01*
X-5392Y-11800D02*
X-5478Y-11800D01*
X-5478Y-11671D01*
X-5392Y-11585D01*
X-5307Y-11585D01*
X-5222Y-11671D01*
X-5222Y-11928D01*
X-5307Y-12014D01*
X-5478Y-12014D01*
X-5606Y-11585D02*
X-5606Y-12014D01*
X-5862Y-11585D01*
X-5862Y-12014D01*
X-5990Y-11585D02*
X-6160Y-11585D01*
X-6246Y-11671D01*
X-6246Y-11928D01*
X-6160Y-12014D01*
X-5990Y-12014D01*
X-6032Y-12014D02*
X-6032Y-11585D01*
X-3096Y-11971D02*
X-3139Y-12014D01*
X-3224Y-12014D01*
X-3309Y-11928D01*
X-3309Y-11842D01*
X-3267Y-11800D01*
X-3309Y-11757D01*
X-3309Y-11671D01*
X-3224Y-11585D01*
X-3139Y-11585D01*
X-3096Y-11628D01*
X-3139Y-11800D02*
X-3267Y-11800D01*
X-3565Y-11585D02*
X-3565Y-11628D01*
X-3864Y-11971D02*
X-3907Y-12014D01*
X-3992Y-12014D01*
X-4077Y-11928D01*
X-4077Y-11842D01*
X-4035Y-11800D01*
X-4077Y-11757D01*
X-4077Y-11671D01*
X-3992Y-11585D01*
X-3907Y-11585D01*
X-3864Y-11628D01*
X-3907Y-11800D02*
X-4035Y-11800D01*
X-4205Y-12014D02*
X-4333Y-11585D01*
X-4461Y-12014D01*
X-1846Y-12014D02*
X-1590Y-12014D01*
X-1590Y-11842D01*
X-1761Y-11842D01*
X-1846Y-11757D01*
X-1846Y-11671D01*
X-1761Y-11585D01*
X-1590Y-11585D01*
X-1974Y-12014D02*
X-2102Y-11585D01*
X-2230Y-12014D01*
X-23715Y-6795D02*
X-23630Y-6710D01*
X-23544Y-6710D01*
X-23459Y-6795D01*
X-23459Y-7053D01*
X-23544Y-7138D01*
X-23630Y-7138D01*
X-23715Y-7053D01*
X-24014Y-6710D02*
X-23928Y-6710D01*
X-23843Y-6795D01*
X-23843Y-6881D01*
X-23886Y-6924D01*
X-23843Y-6967D01*
X-23843Y-7053D01*
X-23928Y-7138D01*
X-24014Y-7138D01*
X-24099Y-7053D01*
X-24099Y-6967D01*
X-24056Y-6924D01*
X-24099Y-6881D01*
X-24099Y-6795D01*
X-24014Y-6710D01*
X-23886Y-6924D02*
X-24056Y-6924D01*
X-20743Y-4438D02*
X-20743Y-4095D01*
X-20828Y-4010D01*
X-20914Y-4010D01*
X-20999Y-4095D01*
X-20999Y-4438D01*
X-21383Y-4438D02*
X-21127Y-4438D01*
X-21127Y-4267D01*
X-21298Y-4267D01*
X-21383Y-4181D01*
X-21383Y-4095D01*
X-21298Y-4010D01*
X-21127Y-4010D01*
X-555Y-3638D02*
X-555Y-3210D01*
X-811Y-3210D01*
X-982Y-3510D02*
X-1110Y-3510D01*
X-1152Y-3467D01*
X-1152Y-3253D01*
X-1110Y-3210D01*
X-982Y-3210D01*
X-939Y-3253D01*
X-939Y-3338D01*
X-982Y-3381D01*
X-1152Y-3381D01*
X-1152Y-3253D02*
X-1195Y-3210D01*
X-1323Y-3510D02*
X-1323Y-3295D01*
X-1408Y-3210D01*
X-1494Y-3210D01*
X-1579Y-3295D01*
X-1579Y-3510D01*
X-1579Y-3295D02*
X-1579Y-3210D01*
X-1707Y-3381D02*
X-1835Y-3510D01*
X-1878Y-3510D01*
X-1963Y-3424D01*
X-1707Y-3210D02*
X-1707Y-3510D01*
X-2347Y-3295D02*
X-2262Y-3210D01*
X-2176Y-3210D01*
X-2091Y-3295D01*
X-2091Y-3424D01*
X-2176Y-3510D01*
X-2262Y-3510D01*
X-2347Y-3424D01*
X-2304Y-3381D01*
X-2091Y-3381D01*
X-2475Y-3210D02*
X-2475Y-3467D01*
X-2475Y-3510D01*
X-2475Y-3467D02*
X-2518Y-3510D01*
X-2603Y-3510D01*
X-2646Y-3467D01*
X-2646Y-3210D01*
X-3072Y-3253D02*
X-3030Y-3210D01*
X-2987Y-3253D01*
X-2987Y-3638D01*
X-2902Y-3510D02*
X-3072Y-3510D01*
X-3755Y-3210D02*
X-3755Y-3638D01*
X-3627Y-3638D02*
X-3883Y-3638D01*
X-4011Y-3381D02*
X-4139Y-3510D01*
X-4182Y-3510D01*
X-4267Y-3424D01*
X-4011Y-3210D02*
X-4011Y-3510D01*
X-4651Y-3295D02*
X-4566Y-3210D01*
X-4480Y-3210D01*
X-4395Y-3295D01*
X-4395Y-3424D01*
X-4480Y-3510D01*
X-4566Y-3510D01*
X-4651Y-3424D01*
X-4608Y-3381D01*
X-4395Y-3381D01*
X-4779Y-3210D02*
X-4779Y-3467D01*
X-4779Y-3510D01*
X-4779Y-3467D02*
X-4822Y-3510D01*
X-4864Y-3510D01*
X-4907Y-3467D01*
X-4950Y-3510D01*
X-4992Y-3510D01*
X-5035Y-3467D01*
X-5035Y-3210D01*
X-4907Y-3467D02*
X-4907Y-3210D01*
X-5163Y-3295D02*
X-5248Y-3210D01*
X-5334Y-3210D01*
X-5419Y-3295D01*
X-5419Y-3381D01*
X-5334Y-3467D01*
X-5248Y-3467D01*
X-5163Y-3381D01*
X-5163Y-3638D02*
X-5163Y-3210D01*
X-5590Y-3638D02*
X-5590Y-3295D01*
X-5675Y-3210D01*
X-5974Y-3510D02*
X-6102Y-3510D01*
X-6144Y-3467D01*
X-6144Y-3253D01*
X-6102Y-3210D01*
X-5974Y-3210D01*
X-5931Y-3253D01*
X-5931Y-3338D01*
X-5974Y-3381D01*
X-6144Y-3381D01*
X-6144Y-3253D02*
X-6187Y-3210D01*
X-6315Y-3081D02*
X-6358Y-3081D01*
X-6571Y-3510D01*
X-6315Y-3510D02*
X-6443Y-3253D01*
X-1387Y-2695D02*
X-1302Y-2610D01*
X-1216Y-2610D01*
X-1131Y-2695D01*
X-1131Y-2953D01*
X-1216Y-3038D01*
X-1302Y-3038D01*
X-1387Y-2953D01*
X-1643Y-2610D02*
X-1643Y-2867D01*
X-1643Y-2953D02*
X-1643Y-2995D01*
X-1899Y-2781D02*
X-2027Y-2910D01*
X-2070Y-2910D01*
X-2155Y-2824D01*
X-1899Y-2610D02*
X-1899Y-2910D01*
X-2496Y-2653D02*
X-2454Y-2610D01*
X-2368Y-2610D01*
X-2283Y-2695D01*
X-2283Y-2824D01*
X-2368Y-2910D01*
X-2454Y-2910D01*
X-2496Y-2867D01*
X-2667Y-2910D02*
X-2667Y-2695D01*
X-2752Y-2610D01*
X-2838Y-2610D01*
X-2923Y-2695D01*
X-2923Y-2910D01*
X-2923Y-2695D02*
X-2923Y-2610D01*
X-3179Y-2610D02*
X-3179Y-2867D01*
X-3179Y-2953D02*
X-3179Y-2995D01*
X-3648Y-2653D02*
X-3606Y-2610D01*
X-3563Y-2653D01*
X-3563Y-3038D01*
X-3478Y-2910D02*
X-3648Y-2910D01*
X-4459Y-2610D02*
X-4203Y-2610D01*
X-4203Y-2824D01*
X-4203Y-3038D01*
X-4459Y-3038D01*
X-4203Y-2824D02*
X-4374Y-2824D01*
X-4800Y-2653D02*
X-4758Y-2610D01*
X-4672Y-2610D01*
X-4587Y-2695D01*
X-4587Y-2824D01*
X-4672Y-2910D01*
X-4758Y-2910D01*
X-4800Y-2867D01*
X-4971Y-2781D02*
X-5099Y-2910D01*
X-5142Y-2910D01*
X-5227Y-2824D01*
X-4971Y-2610D02*
X-4971Y-2910D01*
X-5398Y-2910D02*
X-5526Y-2910D01*
X-5568Y-2867D01*
X-5568Y-2653D01*
X-5526Y-2610D01*
X-5398Y-2610D01*
X-5355Y-2653D01*
X-5355Y-2738D01*
X-5398Y-2781D01*
X-5568Y-2781D01*
X-5568Y-2653D02*
X-5611Y-2610D01*
X-5739Y-2610D02*
X-5739Y-2867D01*
X-5739Y-2910D01*
X-5739Y-2867D02*
X-5782Y-2910D01*
X-5867Y-2910D01*
X-5910Y-2867D01*
X-5910Y-2610D01*
X-2070Y-2224D02*
X-2155Y-2224D01*
X-2155Y-2095D01*
X-2070Y-2010D01*
X-1984Y-2010D01*
X-1899Y-2095D01*
X-1899Y-2353D01*
X-1984Y-2438D01*
X-2155Y-2438D01*
X-2283Y-2181D02*
X-2411Y-2310D01*
X-2454Y-2310D01*
X-2539Y-2224D01*
X-2283Y-2010D02*
X-2283Y-2310D01*
X-2710Y-2310D02*
X-2838Y-2310D01*
X-2880Y-2267D01*
X-2880Y-2053D01*
X-2838Y-2010D01*
X-2710Y-2010D01*
X-2667Y-2053D01*
X-2667Y-2138D01*
X-2710Y-2181D01*
X-2880Y-2181D01*
X-2880Y-2053D02*
X-2923Y-2010D01*
X-3051Y-2095D02*
X-3136Y-2010D01*
X-3222Y-2010D01*
X-3307Y-2095D01*
X-3307Y-2224D01*
X-3222Y-2310D01*
X-3136Y-2310D01*
X-3051Y-2224D01*
X-3051Y-1881D02*
X-3051Y-2310D01*
X-3435Y-2224D02*
X-3520Y-2310D01*
X-3606Y-2310D01*
X-3691Y-2224D01*
X-3691Y-2010D01*
X-3435Y-2438D02*
X-3435Y-2010D01*
X-3947Y-2010D02*
X-3947Y-2267D01*
X-3947Y-2353D02*
X-3947Y-2395D01*
X-4459Y-2095D02*
X-4374Y-2010D01*
X-4288Y-2010D01*
X-4203Y-2095D01*
X-4203Y-2224D01*
X-4288Y-2310D01*
X-4374Y-2310D01*
X-4459Y-2224D01*
X-4459Y-2095D01*
X-4459Y-1881D01*
X-4502Y-1881D01*
X-4587Y-2310D02*
X-4587Y-2095D01*
X-4672Y-2010D01*
X-4758Y-2010D01*
X-4843Y-2095D01*
X-4843Y-2310D01*
X-4843Y-2095D02*
X-4843Y-2010D01*
X-5227Y-2095D02*
X-5142Y-2010D01*
X-5056Y-2010D01*
X-4971Y-2095D01*
X-4971Y-2224D01*
X-5056Y-2310D01*
X-5142Y-2310D01*
X-5227Y-2224D01*
X-5184Y-2181D01*
X-4971Y-2181D01*
X-24030Y-505D02*
X-23945Y-420D01*
X-23859Y-420D01*
X-23774Y-505D01*
X-23774Y-763D01*
X-23859Y-848D01*
X-23945Y-848D01*
X-24030Y-763D01*
X-24286Y-420D02*
X-24286Y-634D01*
X-24414Y-763D01*
X-24414Y-848D01*
X-24158Y-848D01*
X-24158Y-763D01*
X10537Y-1426D02*
X10322Y-1554D01*
X10537Y-1682D01*
X10322Y-1554D02*
X10108Y-1554D01*
X10451Y-1852D02*
X10537Y-1938D01*
X10108Y-1938D01*
X10108Y-1810D02*
X10108Y-2066D01*
X12533Y169D02*
X12961Y169D01*
X12961Y-2D01*
X12875Y-87D01*
X12833Y-87D01*
X12747Y-2D01*
X12747Y169D01*
X12747Y126D02*
X12533Y-87D01*
X12533Y-471D02*
X12533Y-215D01*
X12747Y-215D01*
X12961Y-215D01*
X12961Y-471D01*
X12747Y-215D02*
X12747Y-386D01*
X12618Y-599D02*
X12533Y-685D01*
X12533Y-770D01*
X12618Y-855D01*
X12875Y-599D01*
X12961Y-685D01*
X12961Y-770D01*
X12875Y-855D01*
X12533Y-1239D02*
X12533Y-983D01*
X12747Y-983D01*
X12961Y-983D01*
X12961Y-1239D01*
X12747Y-983D02*
X12747Y-1154D01*
X12533Y-1495D02*
X12961Y-1495D01*
X12961Y-1367D02*
X12961Y-1623D01*
X13033Y-3491D02*
X13461Y-3491D01*
X13461Y-3363D02*
X13461Y-3619D01*
X13033Y-3747D02*
X13461Y-3747D01*
X13461Y-3917D01*
X13375Y-4003D01*
X13333Y-4003D01*
X13247Y-3917D01*
X13247Y-3747D01*
X13375Y-4131D02*
X13461Y-4216D01*
X13461Y-4301D01*
X13375Y-4387D01*
X13333Y-4387D01*
X13033Y-4131D01*
X13033Y-4387D01*
X13075Y-4387D01*
X13208Y-6262D02*
X13637Y-6262D01*
X13637Y-6134D02*
X13637Y-6390D01*
X13208Y-6518D02*
X13637Y-6518D01*
X13637Y-6688D01*
X13551Y-6774D01*
X13508Y-6774D01*
X13422Y-6688D01*
X13422Y-6518D01*
X13594Y-6944D02*
X13637Y-6987D01*
X13637Y-7072D01*
X13551Y-7158D01*
X13465Y-7158D01*
X13422Y-7115D01*
X13380Y-7158D01*
X13294Y-7158D01*
X13208Y-7072D01*
X13208Y-6987D01*
X13251Y-6944D01*
X13422Y-6987D02*
X13422Y-7115D01*
X13922Y-10004D02*
X13922Y-10090D01*
X13794Y-10090D01*
X13708Y-10004D01*
X13708Y-9919D01*
X13794Y-9834D01*
X14051Y-9834D01*
X14137Y-9919D01*
X14137Y-10090D01*
X13708Y-10218D02*
X14137Y-10218D01*
X13708Y-10474D01*
X14137Y-10474D01*
X13708Y-10602D02*
X13708Y-10772D01*
X13794Y-10858D01*
X14051Y-10858D01*
X14137Y-10772D01*
X14137Y-10602D01*
X14137Y-10644D02*
X13708Y-10644D01*
X16894Y-9334D02*
X16808Y-9419D01*
X16808Y-9504D01*
X16894Y-9590D01*
X17237Y-9590D01*
X17151Y-9760D02*
X17237Y-9846D01*
X16808Y-9846D01*
X16808Y-9718D02*
X16808Y-9974D01*
X17237Y-10315D02*
X17237Y-10187D01*
X17151Y-10102D01*
X16980Y-10102D01*
X16894Y-10102D01*
X16808Y-10187D01*
X16808Y-10272D01*
X16894Y-10358D01*
X16980Y-10358D01*
X17065Y-10272D01*
X17065Y-10187D01*
X16980Y-10102D01*
X16808Y-13434D02*
X17237Y-13434D01*
X17237Y-13604D01*
X17151Y-13690D01*
X17108Y-13690D01*
X17022Y-13604D01*
X17022Y-13434D01*
X17022Y-13476D02*
X16808Y-13690D01*
X16808Y-13818D02*
X17065Y-13818D01*
X17237Y-13903D01*
X17237Y-13988D01*
X17065Y-14074D01*
X16808Y-14074D01*
X16937Y-13818D02*
X16937Y-14074D01*
X17237Y-14202D02*
X16808Y-14244D01*
X16980Y-14330D01*
X16808Y-14415D01*
X17237Y-14458D01*
X21694Y-6526D02*
X21608Y-6611D01*
X21608Y-6696D01*
X21694Y-6782D01*
X21951Y-6782D01*
X22037Y-6696D01*
X22037Y-6611D01*
X21951Y-6526D01*
X21694Y-6526D01*
X21694Y-6696D02*
X21608Y-6782D01*
X21951Y-6952D02*
X22037Y-7038D01*
X21608Y-7038D01*
X21608Y-6910D02*
X21608Y-7166D01*
X23237Y-9682D02*
X23237Y-9426D01*
X23065Y-9426D01*
X23065Y-9596D01*
X22980Y-9682D01*
X22894Y-9682D01*
X22808Y-9596D01*
X22808Y-9426D01*
X23237Y-9810D02*
X22808Y-9938D01*
X23237Y-10066D01*
X23204Y-4163D02*
X23204Y-4419D01*
X23461Y-4803D02*
X23461Y-4547D01*
X23290Y-4547D01*
X23290Y-4717D01*
X23204Y-4803D01*
X23118Y-4803D01*
X23033Y-4717D01*
X23033Y-4547D01*
X23461Y-4931D02*
X23033Y-5059D01*
X23461Y-5187D01*
X24394Y-8226D02*
X24308Y-8311D01*
X24308Y-8396D01*
X24394Y-8482D01*
X24651Y-8482D01*
X24737Y-8396D01*
X24737Y-8311D01*
X24651Y-8226D01*
X24394Y-8226D01*
X24394Y-8396D02*
X24308Y-8482D01*
X24651Y-8610D02*
X24737Y-8695D01*
X24737Y-8780D01*
X24651Y-8866D01*
X24608Y-8866D01*
X24308Y-8610D01*
X24308Y-8866D01*
X24351Y-8866D01*
X24708Y790D02*
X24965Y790D01*
X25137Y705D01*
X25137Y620D01*
X24965Y534D01*
X24708Y534D01*
X24837Y790D02*
X24837Y534D01*
X25008Y406D02*
X24794Y406D01*
X24708Y321D01*
X24708Y236D01*
X24794Y150D01*
X25008Y150D01*
X24794Y150D02*
X24708Y150D01*
X24794Y-234D02*
X24708Y-148D01*
X24708Y-63D01*
X24794Y22D01*
X24880Y22D01*
X24965Y-63D01*
X24965Y-148D01*
X24880Y-234D01*
X25137Y-234D02*
X24708Y-234D01*
X24708Y-490D02*
X24965Y-490D01*
X25051Y-490D02*
X25094Y-490D01*
X24794Y-746D02*
X24708Y-831D01*
X24708Y-916D01*
X24794Y-1002D01*
X24922Y-1002D01*
X25008Y-916D01*
X25008Y-831D01*
X24922Y-746D01*
X24794Y-746D01*
X24794Y-1514D02*
X24708Y-1599D01*
X24708Y-1684D01*
X24794Y-1770D01*
X25051Y-1770D01*
X25137Y-1684D01*
X25137Y-1599D01*
X25051Y-1514D01*
X24794Y-1514D01*
X25008Y-1898D02*
X24794Y-1898D01*
X24708Y-1983D01*
X24708Y-2068D01*
X24794Y-2154D01*
X25008Y-2154D01*
X24794Y-2154D02*
X24708Y-2154D01*
X24751Y-2495D02*
X24708Y-2452D01*
X24751Y-2410D01*
X25137Y-2410D01*
X25008Y-2324D02*
X25008Y-2495D01*
X24708Y-10510D02*
X24965Y-10510D01*
X25137Y-10595D01*
X25137Y-10680D01*
X24965Y-10766D01*
X24708Y-10766D01*
X24837Y-10510D02*
X24837Y-10766D01*
X25008Y-10894D02*
X24794Y-10894D01*
X24708Y-10979D01*
X24708Y-11064D01*
X24794Y-11150D01*
X25008Y-11150D01*
X24794Y-11150D02*
X24708Y-11150D01*
X24794Y-11534D02*
X24708Y-11448D01*
X24708Y-11363D01*
X24794Y-11278D01*
X24880Y-11278D01*
X24965Y-11363D01*
X24965Y-11448D01*
X24880Y-11534D01*
X25137Y-11534D02*
X24708Y-11534D01*
X24708Y-11790D02*
X24965Y-11790D01*
X25051Y-11790D02*
X25094Y-11790D01*
X24794Y-12046D02*
X24708Y-12131D01*
X24708Y-12216D01*
X24794Y-12302D01*
X24922Y-12302D01*
X25008Y-12216D01*
X25008Y-12131D01*
X24922Y-12046D01*
X24794Y-12046D01*
X24708Y-12899D02*
X24708Y-12984D01*
X25137Y-12899D02*
X25137Y-12984D01*
X24708Y-12942D02*
X25137Y-12942D01*
X24708Y-13198D02*
X24965Y-13198D01*
X25008Y-13198D01*
X24965Y-13198D02*
X25008Y-13240D01*
X25008Y-13326D01*
X24965Y-13368D01*
X24708Y-13368D01*
X30537Y-18481D02*
X30452Y-18396D01*
X30366Y-18396D01*
X30281Y-18481D01*
X30281Y-18824D01*
X30110Y-18738D02*
X30025Y-18824D01*
X30025Y-18396D01*
X30153Y-18396D02*
X29897Y-18396D01*
X29769Y-18738D02*
X29684Y-18824D01*
X29598Y-18824D01*
X29513Y-18738D01*
X29513Y-18696D01*
X29769Y-18396D01*
X29513Y-18396D01*
X29513Y-18438D01*
X29963Y4895D02*
X30048Y4809D01*
X30133Y4809D01*
X30219Y4895D01*
X30219Y5237D01*
X30517Y4809D02*
X30432Y4809D01*
X30347Y4895D01*
X30347Y4980D01*
X30389Y5023D01*
X30347Y5066D01*
X30347Y5152D01*
X30432Y5237D01*
X30517Y5237D01*
X30603Y5152D01*
X30603Y5066D01*
X30560Y5023D01*
X30603Y4980D01*
X30603Y4895D01*
X30517Y4809D01*
X30389Y5023D02*
X30560Y5023D01*
X30294Y674D02*
X30208Y589D01*
X30208Y504D01*
X30294Y418D01*
X30637Y418D01*
X30208Y162D02*
X30422Y162D01*
X30551Y34D01*
X30637Y34D01*
X30637Y290D01*
X30551Y290D01*
X30294Y-2726D02*
X30208Y-2811D01*
X30208Y-2896D01*
X30294Y-2982D01*
X30637Y-2982D01*
X30380Y-3366D02*
X30380Y-3110D01*
X30637Y-3323D01*
X30208Y-3323D01*
X30208Y-3280D02*
X30208Y-3366D01*
X30294Y-5734D02*
X30208Y-5819D01*
X30208Y-5904D01*
X30294Y-5990D01*
X30637Y-5990D01*
X30551Y-6160D02*
X30637Y-6246D01*
X30208Y-6246D01*
X30208Y-6118D02*
X30208Y-6374D01*
X30551Y-6544D02*
X30637Y-6630D01*
X30208Y-6630D01*
X30208Y-6502D02*
X30208Y-6758D01*
X30294Y-9034D02*
X30208Y-9119D01*
X30208Y-9204D01*
X30294Y-9290D01*
X30637Y-9290D01*
X30551Y-9460D02*
X30637Y-9546D01*
X30208Y-9546D01*
X30208Y-9418D02*
X30208Y-9674D01*
X30594Y-9844D02*
X30637Y-9887D01*
X30637Y-9972D01*
X30551Y-10058D01*
X30465Y-10058D01*
X30422Y-10015D01*
X30380Y-10058D01*
X30294Y-10058D01*
X30208Y-9972D01*
X30208Y-9887D01*
X30251Y-9844D01*
X30422Y-9887D02*
X30422Y-10015D01*
X-24543Y-17047D02*
X-24543Y-16704D01*
X-24628Y-16618D01*
X-24714Y-16618D01*
X-24799Y-16704D01*
X-24799Y-17047D01*
X-24970Y-16961D02*
X-25055Y-17047D01*
X-25055Y-16618D01*
X-24927Y-16618D02*
X-25183Y-16618D01*
X-9520Y-163D02*
X-9606Y-77D01*
X-9691Y-77D01*
X-9776Y-163D01*
X-9776Y-506D01*
X-9947Y-420D02*
X-10032Y-506D01*
X-10032Y-77D01*
X-9904Y-77D02*
X-10160Y-77D01*
X3537Y-18481D02*
X3452Y-18396D01*
X3366Y-18396D01*
X3281Y-18481D01*
X3281Y-18824D01*
X3110Y-18781D02*
X3068Y-18824D01*
X2982Y-18824D01*
X2897Y-18738D01*
X2897Y-18653D01*
X2940Y-18610D01*
X2897Y-18567D01*
X2897Y-18481D01*
X2982Y-18396D01*
X3068Y-18396D01*
X3110Y-18438D01*
X3068Y-18610D02*
X2940Y-18610D01*
X6485Y-10584D02*
X6400Y-10669D01*
X6400Y-10754D01*
X6485Y-10840D01*
X6828Y-10840D01*
X6743Y-11010D02*
X6828Y-11096D01*
X6400Y-11096D01*
X6400Y-10968D02*
X6400Y-11224D01*
X6571Y-11608D02*
X6571Y-11352D01*
X6828Y-11565D01*
X6400Y-11565D01*
X6400Y-11522D02*
X6400Y-11608D01*
X3094Y2590D02*
X3008Y2505D01*
X3008Y2420D01*
X3094Y2334D01*
X3437Y2334D01*
X3351Y2206D02*
X3437Y2121D01*
X3437Y2036D01*
X3351Y1950D01*
X3308Y1950D01*
X3008Y2206D01*
X3008Y1950D01*
X3051Y1950D01*
X26779Y2691D02*
X27208Y2691D01*
X27208Y2520D01*
X27122Y2435D01*
X27079Y2435D01*
X26993Y2520D01*
X26993Y2691D01*
X26993Y2648D02*
X26779Y2435D01*
X27122Y2264D02*
X27208Y2179D01*
X26779Y2179D01*
X26779Y2307D02*
X26779Y2051D01*
X27122Y1923D02*
X27208Y1837D01*
X27208Y1752D01*
X27122Y1667D01*
X26865Y1667D01*
X26779Y1752D01*
X26779Y1837D01*
X26865Y1923D01*
X27122Y1923D01*
X27122Y1667D02*
X26865Y1923D01*
X9294Y-7266D02*
X9208Y-7180D01*
X9208Y-7095D01*
X9294Y-7010D01*
X9551Y-7010D01*
X9637Y-7095D01*
X9637Y-7180D01*
X9551Y-7266D01*
X9294Y-7394D02*
X9208Y-7479D01*
X9208Y-7564D01*
X9294Y-7650D01*
X9465Y-7650D01*
X9551Y-7650D01*
X9637Y-7564D01*
X9637Y-7479D01*
X9551Y-7394D01*
X9465Y-7394D01*
X9380Y-7479D01*
X9380Y-7564D01*
X9465Y-7650D01*
X12994Y-10466D02*
X12908Y-10380D01*
X12908Y-10295D01*
X12994Y-10210D01*
X13251Y-10210D01*
X13337Y-10295D01*
X13337Y-10380D01*
X13251Y-10466D01*
X13251Y-10636D02*
X13337Y-10722D01*
X12908Y-10722D01*
X12908Y-10594D02*
X12908Y-10850D01*
X13337Y-11191D02*
X13337Y-11063D01*
X13251Y-10978D01*
X13080Y-10978D01*
X12994Y-10978D01*
X12908Y-11063D01*
X12908Y-11148D01*
X12994Y-11234D01*
X13080Y-11234D01*
X13165Y-11148D01*
X13165Y-11063D01*
X13080Y-10978D01*
X13044Y-8424D02*
X12958Y-8338D01*
X12958Y-8253D01*
X13044Y-8168D01*
X13301Y-8168D01*
X13387Y-8253D01*
X13387Y-8338D01*
X13301Y-8424D01*
X13301Y-8594D02*
X13387Y-8680D01*
X12958Y-8680D01*
X12958Y-8552D02*
X12958Y-8808D01*
X13344Y-8978D02*
X13387Y-9021D01*
X13387Y-9106D01*
X13301Y-9192D01*
X13215Y-9192D01*
X13172Y-9149D01*
X13130Y-9192D01*
X13044Y-9192D01*
X12958Y-9106D01*
X12958Y-9021D01*
X13001Y-8978D01*
X13172Y-9021D02*
X13172Y-9149D01*
X8918Y-319D02*
X8833Y-233D01*
X8833Y-148D01*
X8918Y-63D01*
X9175Y-63D01*
X9261Y-148D01*
X9261Y-233D01*
X9175Y-319D01*
X9175Y-489D02*
X9261Y-575D01*
X8833Y-575D01*
X8833Y-447D02*
X8833Y-703D01*
X8833Y-959D02*
X9047Y-959D01*
X9175Y-1087D01*
X9261Y-1087D01*
X9261Y-831D01*
X9175Y-831D01*
X10218Y-3142D02*
X10133Y-3057D01*
X10133Y-2972D01*
X10218Y-2886D01*
X10475Y-2886D01*
X10561Y-2972D01*
X10561Y-3057D01*
X10475Y-3142D01*
X10475Y-3313D02*
X10561Y-3398D01*
X10133Y-3398D01*
X10133Y-3270D02*
X10133Y-3526D01*
X10475Y-3654D02*
X10561Y-3740D01*
X10561Y-3825D01*
X10475Y-3910D01*
X10433Y-3910D01*
X10133Y-3654D01*
X10133Y-3910D01*
X10175Y-3910D01*
X9894Y-4474D02*
X9808Y-4388D01*
X9808Y-4303D01*
X9894Y-4218D01*
X10151Y-4218D01*
X10237Y-4303D01*
X10237Y-4388D01*
X10151Y-4474D01*
X10151Y-4644D02*
X10237Y-4730D01*
X9808Y-4730D01*
X9808Y-4602D02*
X9808Y-4858D01*
X10151Y-5028D02*
X10237Y-5114D01*
X9808Y-5114D01*
X9808Y-4986D02*
X9808Y-5242D01*
X16694Y-3374D02*
X16608Y-3288D01*
X16608Y-3203D01*
X16694Y-3118D01*
X16951Y-3118D01*
X17037Y-3203D01*
X17037Y-3288D01*
X16951Y-3374D01*
X16951Y-3544D02*
X17037Y-3630D01*
X16608Y-3630D01*
X16608Y-3502D02*
X16608Y-3758D01*
X16608Y-4056D02*
X16608Y-3971D01*
X16694Y-3886D01*
X16780Y-3886D01*
X16822Y-3928D01*
X16865Y-3886D01*
X16951Y-3886D01*
X17037Y-3971D01*
X17037Y-4056D01*
X16951Y-4142D01*
X16865Y-4142D01*
X16822Y-4099D01*
X16780Y-4142D01*
X16694Y-4142D01*
X16608Y-4056D01*
X16822Y-3928D02*
X16822Y-4099D01*
X17233Y-1778D02*
X17661Y-1778D01*
X17661Y-1949D01*
X17575Y-2034D01*
X17533Y-2034D01*
X17447Y-1949D01*
X17447Y-1778D01*
X17447Y-1821D02*
X17233Y-2034D01*
X17661Y-2376D02*
X17661Y-2248D01*
X17575Y-2162D01*
X17404Y-2162D01*
X17318Y-2162D01*
X17233Y-2248D01*
X17233Y-2333D01*
X17318Y-2418D01*
X17404Y-2418D01*
X17490Y-2333D01*
X17490Y-2248D01*
X17404Y-2162D01*
X16494Y-6074D02*
X16408Y-5988D01*
X16408Y-5903D01*
X16494Y-5818D01*
X16751Y-5818D01*
X16837Y-5903D01*
X16837Y-5988D01*
X16751Y-6074D01*
X16751Y-6244D02*
X16837Y-6330D01*
X16408Y-6330D01*
X16408Y-6202D02*
X16408Y-6458D01*
X16494Y-6586D02*
X16408Y-6671D01*
X16408Y-6756D01*
X16494Y-6842D01*
X16665Y-6842D01*
X16751Y-6842D01*
X16837Y-6756D01*
X16837Y-6671D01*
X16751Y-6586D01*
X16665Y-6586D01*
X16580Y-6671D01*
X16580Y-6756D01*
X16665Y-6842D01*
X16808Y-11210D02*
X17237Y-11210D01*
X17237Y-11466D01*
X17022Y-11210D02*
X17022Y-11380D01*
X17151Y-11636D02*
X17237Y-11722D01*
X16808Y-11722D01*
X16808Y-11594D02*
X16808Y-11850D01*
X19133Y-8763D02*
X19561Y-8763D01*
X19561Y-8933D01*
X19475Y-9019D01*
X19433Y-9019D01*
X19347Y-8933D01*
X19347Y-8763D01*
X19347Y-8805D02*
X19133Y-9019D01*
X19475Y-9189D02*
X19561Y-9275D01*
X19133Y-9275D01*
X19133Y-9147D02*
X19133Y-9403D01*
X19475Y-9531D02*
X19561Y-9616D01*
X19561Y-9701D01*
X19475Y-9787D01*
X19433Y-9787D01*
X19133Y-9531D01*
X19133Y-9787D01*
X19175Y-9787D01*
X21494Y-11566D02*
X21408Y-11480D01*
X21408Y-11395D01*
X21494Y-11310D01*
X21751Y-11310D01*
X21837Y-11395D01*
X21837Y-11480D01*
X21751Y-11566D01*
X21751Y-11694D02*
X21837Y-11779D01*
X21837Y-11864D01*
X21751Y-11950D01*
X21708Y-11950D01*
X21408Y-11694D01*
X21408Y-11950D01*
X21451Y-11950D01*
X21794Y-12120D02*
X21837Y-12163D01*
X21837Y-12248D01*
X21751Y-12334D01*
X21665Y-12334D01*
X21622Y-12291D01*
X21580Y-12334D01*
X21494Y-12334D01*
X21408Y-12248D01*
X21408Y-12163D01*
X21451Y-12120D01*
X21622Y-12163D02*
X21622Y-12291D01*
X21394Y-5266D02*
X21308Y-5180D01*
X21308Y-5095D01*
X21394Y-5010D01*
X21651Y-5010D01*
X21737Y-5095D01*
X21737Y-5180D01*
X21651Y-5266D01*
X21651Y-5394D02*
X21737Y-5479D01*
X21737Y-5564D01*
X21651Y-5650D01*
X21608Y-5650D01*
X21308Y-5394D01*
X21308Y-5650D01*
X21351Y-5650D01*
X21651Y-5778D02*
X21737Y-5863D01*
X21737Y-5948D01*
X21651Y-6034D01*
X21608Y-6034D01*
X21308Y-5778D01*
X21308Y-6034D01*
X21351Y-6034D01*
X22733Y-6063D02*
X23161Y-6063D01*
X23161Y-6233D01*
X23075Y-6319D01*
X23033Y-6319D01*
X22947Y-6233D01*
X22947Y-6063D01*
X22947Y-6105D02*
X22733Y-6319D01*
X23075Y-6489D02*
X23161Y-6575D01*
X22733Y-6575D01*
X22733Y-6447D02*
X22733Y-6703D01*
X23075Y-6873D02*
X23161Y-6959D01*
X22733Y-6959D01*
X22733Y-6831D02*
X22733Y-7087D01*
X20894Y-1866D02*
X20808Y-1780D01*
X20808Y-1695D01*
X20894Y-1610D01*
X21151Y-1610D01*
X21237Y-1695D01*
X21237Y-1780D01*
X21151Y-1866D01*
X21151Y-1994D02*
X21237Y-2079D01*
X21237Y-2164D01*
X21151Y-2250D01*
X21108Y-2250D01*
X20808Y-1994D01*
X20808Y-2250D01*
X20851Y-2250D01*
X21151Y-2420D02*
X21237Y-2506D01*
X20808Y-2506D01*
X20808Y-2378D02*
X20808Y-2634D01*
X30194Y-14610D02*
X30108Y-14695D01*
X30108Y-14780D01*
X30194Y-14866D01*
X30537Y-14866D01*
X30537Y-15250D02*
X30537Y-14994D01*
X30365Y-14994D01*
X30365Y-15164D01*
X30280Y-15250D01*
X30194Y-15250D01*
X30108Y-15164D01*
X30108Y-14994D01*
G54D13*
X-5438Y-14910D02*
X-5438Y-14465D01*
X-5930Y-14909D02*
X-5929Y-14470D01*
X-3755Y-13735D02*
X-4200Y-13735D01*
X-3757Y-14227D02*
X-4195Y-14226D01*
X-24503Y-1328D02*
X-24059Y-1328D01*
X-24502Y-835D02*
X-24063Y-836D01*
X25851Y1986D02*
X26295Y1987D01*
X25852Y2479D02*
X26291Y2478D01*
X9826Y-496D02*
X9826Y-51D01*
X9334Y-494D02*
X9334Y-56D01*
X11508Y-3120D02*
X11064Y-3120D01*
X11507Y-3613D02*
X11069Y-3612D01*
X17233Y-2938D02*
X17233Y-3383D01*
X17725Y-2939D02*
X17725Y-3378D01*
X19626Y-8296D02*
X19626Y-7851D01*
X19134Y-8294D02*
X19134Y-7856D01*
X23226Y-7896D02*
X23226Y-7451D01*
X22734Y-7894D02*
X22734Y-7456D01*
G54D14*
X-24207Y-4924D02*
X-22938Y-4924D01*
X-24207Y-6538D02*
X-22938Y-6538D01*
X-24552Y-6194D02*
X-24207Y-6538D01*
X-24552Y-5269D02*
X-24207Y-4924D01*
X-22938Y-6538D02*
X-22938Y-6194D01*
X-22938Y-4924D02*
X-22938Y-5269D01*
X9687Y-8494D02*
X9687Y-9763D01*
X8072Y-8494D02*
X8072Y-9763D01*
X8417Y-8149D02*
X8072Y-8494D01*
X9342Y-8149D02*
X9687Y-8494D01*
X8072Y-9763D02*
X8417Y-9763D01*
X9687Y-9763D02*
X9342Y-9763D01*
X11506Y-8960D02*
X12776Y-8960D01*
X11506Y-10574D02*
X12776Y-10574D01*
X11162Y-10230D02*
X11506Y-10574D01*
X11162Y-9304D02*
X11506Y-8960D01*
X12776Y-10574D02*
X12776Y-10230D01*
X12776Y-8960D02*
X12776Y-9304D01*
X11506Y-7160D02*
X12776Y-7160D01*
X11506Y-8774D02*
X12776Y-8774D01*
X11162Y-8430D02*
X11506Y-8774D01*
X11162Y-7504D02*
X11506Y-7160D01*
X12776Y-8774D02*
X12776Y-8430D01*
X12776Y-7160D02*
X12776Y-7504D01*
X11953Y-5474D02*
X10683Y-5474D01*
X11953Y-3860D02*
X10683Y-3860D01*
X12297Y-4204D02*
X11953Y-3860D01*
X12297Y-5130D02*
X11953Y-5474D01*
X10683Y-3860D02*
X10683Y-4204D01*
X10683Y-5474D02*
X10683Y-5130D01*
X14798Y-1724D02*
X16363Y-1724D01*
X14798Y-3810D02*
X16363Y-3810D01*
X14276Y-3220D02*
X14276Y-3289D01*
X14798Y-3810D01*
X14276Y-2314D02*
X14276Y-2245D01*
X14798Y-1724D01*
X16363Y-3810D02*
X16363Y-3220D01*
X16363Y-1724D02*
X16363Y-2314D01*
X15006Y-4760D02*
X16276Y-4760D01*
X15006Y-6374D02*
X16276Y-6374D01*
X14662Y-6030D02*
X15006Y-6374D01*
X14662Y-5104D02*
X15006Y-4760D01*
X16276Y-6374D02*
X16276Y-6030D01*
X16276Y-4760D02*
X16276Y-5104D01*
X21153Y-11474D02*
X19883Y-11474D01*
X21153Y-9860D02*
X19883Y-9860D01*
X21497Y-10204D02*
X21153Y-9860D01*
X21497Y-11130D02*
X21153Y-11474D01*
X19883Y-9860D02*
X19883Y-10204D01*
X19883Y-11474D02*
X19883Y-11130D01*
X19572Y-7140D02*
X19572Y-5870D01*
X21187Y-7140D02*
X21187Y-5870D01*
X20842Y-7485D02*
X21187Y-7140D01*
X19917Y-7485D02*
X19572Y-7140D01*
X21187Y-5870D02*
X20842Y-5870D01*
X19572Y-5870D02*
X19917Y-5870D01*
X19856Y-2810D02*
X21126Y-2810D01*
X19856Y-4424D02*
X21126Y-4424D01*
X19512Y-4080D02*
X19856Y-4424D01*
X19512Y-3154D02*
X19856Y-2810D01*
X21126Y-4424D02*
X21126Y-4080D01*
X21126Y-2810D02*
X21126Y-3154D01*
G54D15*
X-24956Y-5200D02*
G75*
D01*
G02X-24956Y-5200I50J0*
G01*
X9362Y-7795D02*
G75*
D01*
G02X9362Y-7795I49J0*
G01*
X10758Y-9235D02*
G75*
D01*
G02X10758Y-9235I49J0*
G01*
X10758Y-7435D02*
G75*
D01*
G02X10758Y-7435I49J0*
G01*
X12602Y-5198D02*
G75*
D01*
G02X12602Y-5198I50J0*
G01*
X13892Y-2255D02*
G75*
D01*
G02X13892Y-2255I50J0*
G01*
X14258Y-5035D02*
G75*
D01*
G02X14258Y-5035I49J0*
G01*
X21802Y-11198D02*
G75*
D01*
G02X21802Y-11198I50J0*
G01*
X19799Y-7839D02*
G75*
D01*
G02X19799Y-7839I49J0*
G01*
X19108Y-3085D02*
G75*
D01*
G02X19108Y-3085I49J0*
G01*
G54D16*
X-29084Y2919D02*
X416Y2819D01*
G54D17*
X443Y2867D02*
X-29084Y2867D01*
G54D18*
X27091Y-3884D02*
X26698Y-3884D01*
X26698Y-4119D01*
X26973Y-4276D02*
X26973Y-4394D01*
X26934Y-4433D01*
X26737Y-4433D01*
X26698Y-4394D01*
X26698Y-4276D01*
X26737Y-4237D01*
X26816Y-4237D01*
X26855Y-4276D01*
X26855Y-4433D01*
X26737Y-4433D02*
X26698Y-4472D01*
X26973Y-4590D02*
X26776Y-4590D01*
X26698Y-4668D01*
X26698Y-4746D01*
X26776Y-4825D01*
X26973Y-4825D01*
X26776Y-4825D02*
X26698Y-4825D01*
X26855Y-4942D02*
X26973Y-5060D01*
X26973Y-5099D01*
X26894Y-5178D01*
X26698Y-4942D02*
X26973Y-4942D01*
X26776Y-5530D02*
X26698Y-5452D01*
X26698Y-5373D01*
X26776Y-5295D01*
X26894Y-5295D01*
X26973Y-5373D01*
X26973Y-5452D01*
X26894Y-5530D01*
X26855Y-5491D01*
X26855Y-5295D01*
X26698Y-5648D02*
X26934Y-5648D01*
X26973Y-5648D01*
X26934Y-5648D02*
X26973Y-5687D01*
X26973Y-5765D01*
X26934Y-5805D01*
X26698Y-5805D01*
X26737Y-6197D02*
X26698Y-6157D01*
X26737Y-6118D01*
X27091Y-6118D01*
X26973Y-6040D02*
X26973Y-6197D01*
X26698Y-6824D02*
X27091Y-6824D01*
X27091Y-6706D02*
X27091Y-6941D01*
X26855Y-7059D02*
X26973Y-7176D01*
X26973Y-7216D01*
X26894Y-7294D01*
X26698Y-7059D02*
X26973Y-7059D01*
X26776Y-7647D02*
X26698Y-7568D01*
X26698Y-7490D01*
X26776Y-7412D01*
X26894Y-7412D01*
X26973Y-7490D01*
X26973Y-7568D01*
X26894Y-7647D01*
X26855Y-7608D01*
X26855Y-7412D01*
X26698Y-7764D02*
X26934Y-7764D01*
X26973Y-7764D01*
X26934Y-7764D02*
X26973Y-7804D01*
X26973Y-7843D01*
X26934Y-7882D01*
X26973Y-7921D01*
X26973Y-7960D01*
X26934Y-8000D01*
X26698Y-8000D01*
X26934Y-7882D02*
X26698Y-7882D01*
X26776Y-8117D02*
X26698Y-8196D01*
X26698Y-8274D01*
X26776Y-8352D01*
X26855Y-8352D01*
X26934Y-8274D01*
X26934Y-8196D01*
X26855Y-8117D01*
X27091Y-8117D02*
X26698Y-8117D01*
X27091Y-8509D02*
X26776Y-8509D01*
X26698Y-8587D01*
X26973Y-8862D02*
X26973Y-8979D01*
X26934Y-9019D01*
X26737Y-9019D01*
X26698Y-8979D01*
X26698Y-8862D01*
X26737Y-8823D01*
X26816Y-8823D01*
X26855Y-8862D01*
X26855Y-9019D01*
X26737Y-9019D02*
X26698Y-9058D01*
X26580Y-9175D02*
X26580Y-9215D01*
X26973Y-9411D01*
X26973Y-9175D02*
X26737Y-9293D01*
X26225Y-3943D02*
X26146Y-3864D01*
X26146Y-3786D01*
X26225Y-3708D01*
X26461Y-3708D01*
X26540Y-3786D01*
X26540Y-3864D01*
X26461Y-3943D01*
X26146Y-4178D02*
X26383Y-4178D01*
X26461Y-4178D02*
X26501Y-4178D01*
X26304Y-4413D02*
X26422Y-4531D01*
X26422Y-4570D01*
X26343Y-4648D01*
X26146Y-4413D02*
X26422Y-4413D01*
X26186Y-4962D02*
X26146Y-4923D01*
X26146Y-4844D01*
X26225Y-4766D01*
X26343Y-4766D01*
X26422Y-4844D01*
X26422Y-4923D01*
X26383Y-4962D01*
X26422Y-5119D02*
X26225Y-5119D01*
X26146Y-5197D01*
X26146Y-5276D01*
X26225Y-5354D01*
X26422Y-5354D01*
X26225Y-5354D02*
X26146Y-5354D01*
X26146Y-5589D02*
X26383Y-5589D01*
X26461Y-5589D02*
X26501Y-5589D01*
X26186Y-6020D02*
X26146Y-5981D01*
X26186Y-5942D01*
X26540Y-5942D01*
X26422Y-5863D02*
X26422Y-6020D01*
X26225Y-6530D02*
X26146Y-6608D01*
X26146Y-6687D01*
X26225Y-6765D01*
X26343Y-6765D01*
X26422Y-6687D01*
X26422Y-6608D01*
X26343Y-6530D01*
X26028Y-6530D02*
X26422Y-6530D01*
X26304Y-6883D02*
X26422Y-7000D01*
X26422Y-7039D01*
X26343Y-7118D01*
X26146Y-6883D02*
X26422Y-6883D01*
X26146Y-7353D02*
X26383Y-7353D01*
X26461Y-7353D02*
X26501Y-7353D01*
X26146Y-7588D02*
X26383Y-7588D01*
X26422Y-7588D01*
X26383Y-7588D02*
X26422Y-7627D01*
X26422Y-7706D01*
X26383Y-7745D01*
X26146Y-7745D01*
X26186Y-8137D02*
X26146Y-8098D01*
X26146Y-8019D01*
X26225Y-7941D01*
X26343Y-7941D01*
X26422Y-8019D01*
X26422Y-8098D01*
X26383Y-8137D01*
X26146Y-8411D02*
X26383Y-8411D01*
X26461Y-8411D02*
X26501Y-8411D01*
X26225Y-8646D02*
X26146Y-8725D01*
X26146Y-8803D01*
X26225Y-8881D01*
X26343Y-8881D01*
X26422Y-8803D01*
X26422Y-8725D01*
X26343Y-8646D01*
X26028Y-8646D02*
X26422Y-8646D01*
X26422Y-9038D02*
X26422Y-9156D01*
X26383Y-9195D01*
X26186Y-9195D01*
X26146Y-9156D01*
X26146Y-9038D01*
X26186Y-8999D01*
X26265Y-8999D01*
X26304Y-9038D01*
X26304Y-9195D01*
X26186Y-9195D02*
X26146Y-9234D01*
X26540Y-9391D02*
X26225Y-9391D01*
X26146Y-9469D01*
G54D19*
X-30140Y-18998D02*
X-30140Y-16553D01*
X-30140Y-18998D02*
X-24027Y-18998D01*
X30986Y-18998D02*
X24873Y-18998D01*
X30986Y-18998D02*
X30986Y-16553D01*
X30986Y5454D02*
X30986Y3009D01*
X30986Y5454D02*
X24873Y5454D01*
X-30140Y5454D02*
X-24027Y5454D01*
X-30140Y5454D02*
X-30140Y3009D01*
X-32109Y-18998D02*
X-36046Y-18998D01*
X-34077Y-20966D02*
X-34077Y-17029D01*
X-35553Y-18998D02*
G75*
D01*
G02X-35553Y-18998I1476J0*
G01*
X32954Y-18998D02*
X36891Y-18998D01*
X34923Y-20966D02*
X34923Y-17029D01*
X33446Y-18998D02*
G75*
D01*
G02X33446Y-18998I1477J0*
G01*
X34431Y-18998D02*
G75*
D01*
G02X34431Y-18998I492J0*
G01*
X-32109Y5454D02*
X-36046Y5454D01*
X-34077Y3486D02*
X-34077Y7423D01*
X-35553Y5454D02*
G75*
D01*
G02X-35553Y5454I1476J0*
G01*
X-35061Y5454D02*
G75*
D01*
G02X-35061Y5454I984J0*
G01*
X-34569Y5454D02*
G75*
D01*
G02X-34569Y5454I492J0*
G01*

M02*
