G04 Generated by Ultiboard 13.0 *
%FSLAX24Y24*%
%MOIN*%

%ADD10C,0.0001*%
%ADD11C,0.0050*%
%ADD12C,0.1575*%
%ADD13C,0.0800*%
%ADD14R,0.0400X0.0500*%
%ADD15R,0.0098X0.0472*%
%ADD16R,0.0500X0.0400*%
%ADD17R,0.0450X0.0450*%
%ADD18C,0.0350*%
%ADD19C,0.0700*%
%ADD20R,0.0408X0.0408*%
%ADD21C,0.0392*%
%ADD22R,0.0600X0.0600*%
%ADD23C,0.0200*%
%ADD24R,0.0472X0.0866*%
%ADD25R,0.1300X0.0860*%
%ADD26C,0.0400*%
%ADD27R,0.0866X0.0472*%
%ADD28R,0.0860X0.1300*%
%ADD29R,0.0236X0.0610*%


G04 ColorRGB 9900CC for the following layer *
%LNSolder Mask Bottom*%
%LPD*%
G54D10*
G54D11*
X-30140Y-18998D02*
X-30140Y-16553D01*
X-30140Y-18998D02*
X-24027Y-18998D01*
X30986Y-18998D02*
X24873Y-18998D01*
X30986Y-18998D02*
X30986Y-16553D01*
X30986Y5454D02*
X30986Y3009D01*
X30986Y5454D02*
X24873Y5454D01*
X-30140Y5454D02*
X-24027Y5454D01*
X-30140Y5454D02*
X-30140Y3009D01*
X-32109Y-18998D02*
X-36046Y-18998D01*
X-34077Y-20966D02*
X-34077Y-17029D01*
X-35553Y-18998D02*
G75*
D01*
G02X-35553Y-18998I1476J0*
G01*
X32954Y-18998D02*
X36891Y-18998D01*
X34923Y-20966D02*
X34923Y-17029D01*
X33446Y-18998D02*
G75*
D01*
G02X33446Y-18998I1477J0*
G01*
X34431Y-18998D02*
G75*
D01*
G02X34431Y-18998I492J0*
G01*
X-32109Y5454D02*
X-36046Y5454D01*
X-34077Y3486D02*
X-34077Y7423D01*
X-35553Y5454D02*
G75*
D01*
G02X-35553Y5454I1476J0*
G01*
X-35061Y5454D02*
G75*
D01*
G02X-35061Y5454I984J0*
G01*
X-34569Y5454D02*
G75*
D01*
G02X-34569Y5454I492J0*
G01*
G54D12*
X-28100Y-16700D03*
X-541Y-16700D03*
X-28100Y2867D03*
X-541Y2867D03*
G54D13*
X-19184Y-10981D03*
X-13284Y-10981D03*
X-15484Y-6581D03*
X-9684Y-6581D03*
X-20784Y-3281D03*
X-15691Y-16897D03*
X-14691Y-16897D03*
X-13691Y-16897D03*
X-12691Y-16897D03*
X-11691Y-16897D03*
X-10691Y-16897D03*
X-9691Y-16897D03*
X-8691Y-16897D03*
X-7691Y-16897D03*
X-6691Y-16897D03*
X-5691Y-16897D03*
X-4691Y-16897D03*
X-22691Y-16897D03*
X-16691Y-16897D03*
X-19691Y-16897D03*
X-21691Y-16897D03*
X-20691Y-16897D03*
X-17691Y-16897D03*
X-18691Y-16897D03*
X-7584Y-12681D03*
X-5684Y-12681D03*
X-3784Y-12681D03*
X-1884Y-12681D03*
X-15821Y-2138D03*
X-14821Y-2138D03*
X-13821Y-2138D03*
X-12821Y-2138D03*
X-11821Y-2138D03*
X-10821Y-2138D03*
X-9821Y-2138D03*
X-17821Y-2138D03*
X-12821Y-1138D03*
X-11821Y-1138D03*
X-10821Y-1138D03*
X-14821Y-1138D03*
X-13821Y-1138D03*
X-15821Y-1138D03*
X-17821Y-1138D03*
X-16821Y-1138D03*
X-18821Y-1138D03*
X-16821Y-2138D03*
X-18821Y-2138D03*
X3480Y-16767D03*
X4480Y-16767D03*
X4480Y-17767D03*
X5480Y-16767D03*
X5480Y-17767D03*
X6480Y-16767D03*
X6480Y-17767D03*
X7480Y-16767D03*
X7480Y-17767D03*
X12480Y-17767D03*
X12480Y-16767D03*
X9480Y-17767D03*
X8480Y-17767D03*
X10480Y-17767D03*
X11480Y-17767D03*
X9480Y-16767D03*
X8480Y-16767D03*
X11480Y-16767D03*
X10480Y-16767D03*
X25480Y-17767D03*
X25480Y-16767D03*
X19480Y-17767D03*
X19480Y-16767D03*
X18480Y-17767D03*
X15480Y-17767D03*
X13480Y-17767D03*
X14480Y-17767D03*
X17480Y-17767D03*
X16480Y-17767D03*
X14480Y-16767D03*
X13480Y-16767D03*
X15480Y-16767D03*
X17480Y-16767D03*
X16480Y-16767D03*
X18480Y-16767D03*
X21480Y-17767D03*
X20480Y-17767D03*
X23480Y-17767D03*
X22480Y-17767D03*
X24480Y-17767D03*
X22480Y-16767D03*
X20480Y-16767D03*
X21480Y-16767D03*
X23480Y-16767D03*
X24480Y-16767D03*
X26480Y-17767D03*
X27480Y-17767D03*
X26480Y-16767D03*
X27480Y-16767D03*
X29280Y-17767D03*
X5820Y-8267D03*
X5820Y-9267D03*
X5820Y-10267D03*
X5820Y-6267D03*
X5820Y-7267D03*
X5820Y-5267D03*
X4820Y-11267D03*
X4820Y-8267D03*
X4820Y-9267D03*
X4820Y-10267D03*
X4820Y-6267D03*
X4820Y-7267D03*
X4820Y-5267D03*
X5820Y-3267D03*
X5820Y-4267D03*
X5820Y-2267D03*
X4820Y-3267D03*
X4820Y-4267D03*
X4820Y-2267D03*
X12480Y3233D03*
X12480Y4233D03*
X6480Y3233D03*
X6480Y4233D03*
X4480Y3233D03*
X5480Y3233D03*
X3480Y4233D03*
X4480Y4233D03*
X5480Y4233D03*
X9480Y3233D03*
X7480Y3233D03*
X8480Y3233D03*
X10480Y3233D03*
X11480Y3233D03*
X9480Y4233D03*
X8480Y4233D03*
X7480Y4233D03*
X11480Y4233D03*
X10480Y4233D03*
X25480Y3233D03*
X25480Y4233D03*
X19480Y3233D03*
X19480Y4233D03*
X18480Y3233D03*
X15480Y3233D03*
X13480Y3233D03*
X14480Y3233D03*
X17480Y3233D03*
X16480Y3233D03*
X14480Y4233D03*
X13480Y4233D03*
X15480Y4233D03*
X17480Y4233D03*
X16480Y4233D03*
X18480Y4233D03*
X21480Y3233D03*
X20480Y3233D03*
X23480Y3233D03*
X22480Y3233D03*
X24480Y3233D03*
X22480Y4233D03*
X20480Y4233D03*
X21480Y4233D03*
X23480Y4233D03*
X24480Y4233D03*
X26480Y3233D03*
X27480Y3233D03*
X26480Y4233D03*
X27480Y4233D03*
X29280Y4233D03*
X28980Y1633D03*
X3980Y-1167D03*
X6980Y-12167D03*
X13980Y-9167D03*
X8880Y-10767D03*
X9180Y-1967D03*
X13380Y-5567D03*
X10280Y-11967D03*
X18380Y-3567D03*
X22380Y-4667D03*
X18580Y-4667D03*
X18580Y-8967D03*
X19980Y-12567D03*
X22380Y-5667D03*
X23080Y-10667D03*
X24080Y-10667D03*
X28480Y-12777D03*
X29480Y-12777D03*
X28480Y-14777D03*
X28480Y-13777D03*
X29480Y-13777D03*
X29480Y-10777D03*
X28480Y-10777D03*
X28480Y-11777D03*
X29480Y-11777D03*
X11880Y-667D03*
X12980Y-2767D03*
X15180Y-9167D03*
X16180Y-13167D03*
X23080Y-167D03*
X23080Y-12567D03*
X24080Y-2067D03*
X28980Y-1867D03*
X28980Y-867D03*
X28980Y-5167D03*
X28980Y-4167D03*
X28980Y-8467D03*
X28980Y-7467D03*
G54D14*
X-19964Y-9081D03*
X-19194Y-9081D03*
X-14074Y-8981D03*
X-13304Y-8981D03*
X-19974Y-7181D03*
X-19204Y-7181D03*
X10901Y-10936D03*
X11671Y-10936D03*
X20400Y-4667D03*
X21170Y-4667D03*
G54D15*
X-18380Y-9423D03*
X-18636Y-9423D03*
X-17612Y-9423D03*
X-17356Y-9423D03*
X-18124Y-9423D03*
X-17868Y-9423D03*
X-16844Y-9423D03*
X-16589Y-9423D03*
X-17100Y-9423D03*
X-16333Y-9423D03*
X-18636Y-7139D03*
X-18380Y-7139D03*
X-18124Y-7139D03*
X-17356Y-7139D03*
X-17868Y-7139D03*
X-17612Y-7139D03*
X-16589Y-7139D03*
X-17100Y-7139D03*
X-16844Y-7139D03*
X-16333Y-7139D03*
X-12736Y-9423D03*
X-11200Y-9423D03*
X-12480Y-9423D03*
X-12224Y-9423D03*
X-11968Y-9423D03*
X-11712Y-9423D03*
X-11456Y-9423D03*
X-10433Y-9423D03*
X-10944Y-9423D03*
X-10689Y-9423D03*
X-12736Y-7139D03*
X-12480Y-7139D03*
X-11968Y-7139D03*
X-12224Y-7139D03*
X-11712Y-7139D03*
X-11200Y-7139D03*
X-11456Y-7139D03*
X-10944Y-7139D03*
X-10433Y-7139D03*
X-10689Y-7139D03*
X9728Y-5609D03*
X9984Y-5609D03*
X10240Y-5609D03*
X10496Y-5609D03*
X10752Y-5609D03*
X11007Y-5609D03*
X11263Y-5609D03*
X11519Y-5609D03*
X11775Y-5609D03*
X12031Y-5609D03*
X9728Y-3325D03*
X9984Y-3325D03*
X10240Y-3325D03*
X10496Y-3325D03*
X10752Y-3325D03*
X11007Y-3325D03*
X11263Y-3325D03*
X11519Y-3325D03*
X11775Y-3325D03*
X12031Y-3325D03*
G54D16*
X-13384Y-7671D03*
X-13384Y-6901D03*
X28480Y-18557D03*
X28480Y-17787D03*
X28380Y3253D03*
X28380Y4023D03*
X9575Y-7952D03*
X9575Y-7182D03*
X10180Y-7957D03*
X10180Y-7187D03*
X12180Y-7457D03*
X12180Y-6687D03*
X18580Y-11147D03*
X18580Y-10377D03*
X19780Y-8657D03*
X19780Y-7887D03*
X20380Y-8647D03*
X20380Y-7877D03*
X19180Y-7847D03*
X19180Y-7077D03*
X25180Y-8547D03*
X25180Y-7777D03*
G54D17*
X-23691Y-16897D03*
G54D18*
X-23916Y-17122D02*
X-23466Y-17122D01*
X-23466Y-16672D01*
X-23916Y-16672D01*
X-23916Y-17122D01*D02*
X8380Y733D03*
X9380Y-5567D03*
X8880Y-7167D03*
X10180Y-6167D03*
X10880Y-1667D03*
X11680Y-2567D03*
X11280Y-7167D03*
X17980Y-6367D03*
X20980Y-7867D03*
X22780Y-2767D03*
X25180Y-7167D03*
G54D19*
X-21693Y-13025D03*
X-20984Y-13537D03*
X-20276Y-13025D03*
G54D20*
X-9821Y-1138D03*
X3480Y-17767D03*
X5820Y-11267D03*
X3480Y3233D03*
X29480Y-14777D03*
G54D21*
X-10025Y-1342D02*
X-9617Y-1342D01*
X-9617Y-934D01*
X-10025Y-934D01*
X-10025Y-1342D01*D02*
X3276Y-17971D02*
X3684Y-17971D01*
X3684Y-17563D01*
X3276Y-17563D01*
X3276Y-17971D01*D02*
X5616Y-11471D02*
X6024Y-11471D01*
X6024Y-11063D01*
X5616Y-11063D01*
X5616Y-11471D01*D02*
X3276Y3029D02*
X3684Y3029D01*
X3684Y3437D01*
X3276Y3437D01*
X3276Y3029D01*D02*
X29276Y-14981D02*
X29684Y-14981D01*
X29684Y-14573D01*
X29276Y-14573D01*
X29276Y-14981D01*D02*
G54D22*
X29280Y-16767D03*
X29280Y3233D03*
X28980Y633D03*
X16180Y-9167D03*
X24080Y-167D03*
X24080Y-12567D03*
X28980Y-2867D03*
X28980Y-6167D03*
X28980Y-9467D03*
G54D23*
X28980Y-17067D02*
X29580Y-17067D01*
X29580Y-16467D01*
X28980Y-16467D01*
X28980Y-17067D01*D02*
X28980Y2933D02*
X29580Y2933D01*
X29580Y3533D01*
X28980Y3533D01*
X28980Y2933D01*D02*
X28680Y333D02*
X29280Y333D01*
X29280Y933D01*
X28680Y933D01*
X28680Y333D01*D02*
X15880Y-9467D02*
X16480Y-9467D01*
X16480Y-8867D01*
X15880Y-8867D01*
X15880Y-9467D01*D02*
X23780Y-467D02*
X24380Y-467D01*
X24380Y133D01*
X23780Y133D01*
X23780Y-467D01*D02*
X23780Y-12867D02*
X24380Y-12867D01*
X24380Y-12267D01*
X23780Y-12267D01*
X23780Y-12867D01*D02*
X28680Y-3167D02*
X29280Y-3167D01*
X29280Y-2567D01*
X28680Y-2567D01*
X28680Y-3167D01*D02*
X28680Y-6467D02*
X29280Y-6467D01*
X29280Y-5867D01*
X28680Y-5867D01*
X28680Y-6467D01*D02*
X28680Y-9767D02*
X29280Y-9767D01*
X29280Y-9167D01*
X28680Y-9167D01*
X28680Y-9767D01*D02*
G54D24*
X10286Y-9968D03*
X11191Y-9968D03*
X12097Y-9968D03*
X19910Y-3648D03*
X20816Y-3648D03*
X21721Y-3648D03*
G54D25*
X11191Y-7898D03*
X20816Y-1578D03*
G54D26*
X9680Y-10767D03*
G54D27*
X19548Y-11572D03*
X19548Y-10667D03*
X19548Y-9761D03*
G54D28*
X21618Y-10667D03*
G54D29*
X21580Y-8691D03*
X22080Y-8691D03*
X22580Y-8691D03*
X23080Y-8691D03*
X23580Y-8691D03*
X24080Y-8691D03*
X24580Y-8691D03*
X21580Y-6643D03*
X22080Y-6643D03*
X22580Y-6643D03*
X23080Y-6643D03*
X23580Y-6643D03*
X24080Y-6643D03*
X24580Y-6643D03*

M02*
