M48
METRIC,TZ
VER,1
FMAT,2
DETECT,ON
ATC,ON
T1C2.5000
T2C0.9144
T3C1.0160
T4C0.8890
T5C0.3810
T6C0.5080
%
T1
X-71.3740Y-42.4180
X-1.3740
X-71.3740Y7.2820
X-1.3740
T2
X-48.7280Y-27.8920
X-33.7420
X-39.3300Y-16.7160
X-24.5980
X-52.7920Y-8.3340
X10.1080Y-2.9640
X17.7280Y-30.9040
X22.5540Y-27.3480
X23.3160Y-4.9960
X26.1100Y-30.3960
X46.6840Y-9.0600
X47.1920Y-11.8540
Y-22.7760
X50.7480Y-31.9200
X56.8440Y-14.3940
T3
X-39.8540Y-42.9180
X-37.3140
X-34.7740
X-32.2340
X-29.6940
X-27.1540
X-24.6140
X-22.0740
X-19.5340
X-16.9940
X-14.4540
X-11.9140
X-57.6340
X-42.3940
X-60.1740
X-50.0140
X-55.0940
X-52.5540
X-44.9340
X-47.4740
X-19.2640Y-32.2100
X-14.4380
X-9.6120
X-4.7860
X-40.1856Y-5.4296
X-37.6456
X-35.1056
X-32.5656
X-30.0256
X-27.4856
X-24.9456
X-45.2656
X-24.9456Y-2.8896
X-32.5656
X-30.0256
X-27.4856
X-37.6456
X-35.1056
X-40.1856
X-45.2656
X-42.7256
X-47.8056
X-42.7256Y-5.4296
X-47.8056
X8.8380Y-42.5880
Y-45.1280
X11.3780Y-42.5880
Y-45.1280
X13.9180Y-42.5880
Y-45.1280
X16.4580Y-42.5880
Y-45.1280
X18.9980Y-42.5880
Y-45.1280
X31.6980
Y-42.5880
X24.0780Y-45.1280
X21.5380
X26.6180
X29.1580
X24.0780Y-42.5880
X21.5380
X29.1580
X26.6180
X64.7180Y-45.1280
Y-42.5880
X49.4780Y-45.1280
Y-42.5880
X46.9380Y-45.1280
X39.3180
X34.2380
X36.7780
X44.3980
X41.8580
X36.7780Y-42.5880
X34.2380
X39.3180
X44.3980
X41.8580
X46.9380
X54.5580Y-45.1280
X52.0180
X59.6380
X57.0980
X62.1780
X57.0980Y-42.5880
X52.0180
X54.5580
X59.6380
X62.1780
X67.2580Y-45.1280
X69.7980
X67.2580Y-42.5880
X69.7980
X74.3700
Y-45.1280
X14.7816Y-28.6180
Y-20.9980
Y-23.5380
Y-26.0780
Y-15.9180
Y-18.4580
Y-13.3780
X12.2416Y-28.6180
Y-20.9980
Y-23.5380
Y-26.0780
Y-15.9180
Y-18.4580
Y-13.3780
X14.7816Y-8.2980
Y-10.8380
Y-5.7580
X12.2416Y-8.2980
Y-10.8380
Y-5.7580
X31.6980Y8.2120
Y10.7520
X16.4580Y8.2120
Y10.7520
X11.3780Y8.2120
X8.8380
X13.9180
X8.8380Y10.7520
X11.3780
X13.9180
X24.0780Y8.2120
X18.9980
X21.5380
X26.6180
X29.1580
X24.0780Y10.7520
X21.5380
X18.9980
X29.1580
X26.6180
X64.7180Y8.2120
Y10.7520
X49.4780Y8.2120
Y10.7520
X46.9380Y8.2120
X39.3180
X34.2380
X36.7780
X44.3980
X41.8580
X36.7780Y10.7520
X34.2380
X39.3180
X44.3980
X41.8580
X46.9380
X54.5580Y8.2120
X52.0180
X59.6380
X57.0980
X62.1780
X57.0980Y10.7520
X52.0180
X54.5580
X59.6380
X62.1780
X67.2580Y8.2120
X69.7980
X67.2580Y10.7520
X69.7980
X74.3700Y8.2120
Y10.7520
X73.6080Y1.6080
Y4.1480
X35.5080Y-23.2840
X33.9840Y-14.1400
X56.8440Y-11.8540
X58.6220Y-27.0940
X61.1620
X72.3380Y-32.4534
X74.8780
X72.3380Y-37.5334
X74.8780
X72.3380Y-34.9934
X74.8780
Y-27.3734
X72.3380
Y-29.9134
X74.8780
X30.1740Y-1.6940
X32.9680Y-7.0280
X41.0960Y-23.2840
X38.5560
X41.0960Y-33.4440
X61.1620Y-0.4240
X58.6220
X61.1620Y-31.9200
X58.6220
X61.1620Y-5.2500
X73.6080Y-7.2820
Y-4.7420
Y-2.2020
Y-15.6640
Y-13.1240
Y-10.5840
Y-24.0460
Y-21.5060
Y-18.9660
T4
X-55.1000Y-33.0840
X-53.3000Y-34.3840
X-51.5000Y-33.0840
T5
X21.2840Y1.8620
X23.8240Y-14.1400
X22.5540Y-18.2040
X25.8560Y-15.6640
X27.6340Y-4.2340
X29.6660Y-6.5200
X28.6500Y-18.2040
X45.6680Y-16.1720
X53.2880Y-19.9820
X57.8600Y-7.0280
X63.9560Y-18.2040
T6
X24.5860Y-27.3480
M30
