M48
INCH,TZ
VER,1
FMAT,2
DETECT,ON
ATC,ON
T1C0.04000
T2C0.03600
T3C0.01500
T4C0.02000
T5C0.03500
%
T1
X3.91000Y1.83000
X3.06000Y2.45000
X3.66000Y2.52000
Y2.62000
X3.15000Y1.55000
X2.27000Y3.14000
X2.17000
X2.53000Y3.11000
X2.43000
X2.61000Y2.62000
Y2.52000
X3.85000Y2.62000
Y2.52000
X2.88000Y3.11000
X2.78000
X2.68000
X3.51000Y1.83000
Y1.73000
X3.21000Y3.11000
X3.11000
X3.01000
X3.54000
X3.44000
X3.34000
X3.51000Y1.61000
X2.66000Y1.40000
X3.72000Y0.79400
X3.42000
X3.52000
X3.62000
X3.22000
X3.32000
X3.12000
X3.72000Y0.69400
X3.42000
X3.52000
X3.62000
X3.22000
X3.32000
X3.12000
X2.92000Y0.79400
X3.02000
X2.82000
X2.92000Y0.69400
X3.02000
X2.82000
X3.87100Y3.06000
Y3.16000
X4.07100Y3.06000
Y3.16000
X3.97100Y3.06000
Y3.16000
X3.67100
Y3.06000
X3.77100
Y3.16000
X2.27000Y1.46000
X2.17000
X2.27000Y0.86000
X2.17000
X2.27000Y0.66000
Y0.56000
Y0.76000
X2.17000Y0.56000
Y0.66000
Y0.76000
X2.27000Y1.16000
Y0.96000
Y1.06000
Y1.26000
Y1.36000
X2.17000Y1.16000
Y1.06000
Y0.96000
Y1.36000
Y1.26000
X2.27000Y2.76000
X2.17000
X2.27000Y2.16000
X2.17000
X2.27000Y2.06000
Y1.76000
Y1.56000
Y1.66000
Y1.96000
Y1.86000
X2.17000Y1.66000
Y1.56000
Y1.76000
Y1.96000
Y1.86000
Y2.06000
X2.27000Y2.36000
Y2.26000
Y2.56000
Y2.46000
Y2.66000
X2.17000Y2.46000
Y2.26000
Y2.36000
Y2.56000
Y2.66000
X2.27000Y2.86000
Y2.96000
X2.17000Y2.86000
Y2.96000
X4.27000Y0.56000
X4.37000
X4.27000Y0.66000
X4.37000
X4.27000Y0.76000
X4.37000
X4.27000Y0.86000
X4.37000
X4.27000Y0.96000
X4.37000
Y1.46000
X4.27000
X4.37000Y1.16000
Y1.06000
Y1.26000
Y1.36000
X4.27000Y1.16000
Y1.06000
Y1.36000
Y1.26000
X4.37000Y2.76000
X4.27000
X4.37000Y2.16000
X4.27000
X4.37000Y2.06000
Y1.76000
Y1.56000
Y1.66000
Y1.96000
Y1.86000
X4.27000Y1.66000
Y1.56000
Y1.76000
Y1.96000
Y1.86000
Y2.06000
X4.37000Y2.36000
Y2.26000
Y2.56000
Y2.46000
Y2.66000
X4.27000Y2.46000
Y2.26000
Y2.36000
Y2.56000
Y2.66000
X4.37000Y2.86000
Y2.96000
X4.27000Y2.86000
Y2.96000
Y3.14000
X4.37000
X2.80000Y2.70000
X2.86000Y1.51000
Y2.42000
Y2.52000
T2
X2.95000Y2.05000
X3.49000Y2.07000
X3.16000Y2.45000
X3.85000Y2.21000
X3.81000Y0.91000
X3.67000Y1.10000
X3.79000Y1.24000
X2.79000Y1.13000
X2.71000Y0.61000
T3
X3.38000Y2.31000
X3.31000Y2.73000
X3.23000Y2.01000
X2.76000Y1.30000
X3.31000Y1.10000
X2.85000Y1.38000
X3.21000Y1.23000
X3.15000Y1.15000
X2.52000Y1.05000
X3.31000Y1.34000
X3.01000Y2.24000
T4
X3.67000Y1.18000
T5
X2.61000Y2.15000
Y2.35000
Y2.25000
M30
