G04 Generated by Ultiboard 13.0 *
%FSLAX25Y25*%
%MOIN*%

%ADD10C,0.00001*%
%ADD11C,0.00394*%
%ADD12C,0.00039*%
%ADD13C,0.01000*%
%ADD14C,0.00500*%


G04 ColorRGB 000000 for the following layer *
%LNDrill Symbols-Copper Top-Copper Bottom*%
%LPD*%
G54D11*
X389000Y183000D02*
X393000Y183000D01*
X391000Y181000D02*
X391000Y185000D01*
X306000Y243000D02*
X306000Y247000D01*
X304000Y245000D02*
X308000Y245000D01*
X364000Y252000D02*
X368000Y252000D01*
X366000Y250000D02*
X366000Y254000D01*
X366000Y260000D02*
X366000Y264000D01*
X364000Y262000D02*
X368000Y262000D01*
X313000Y155000D02*
X317000Y155000D01*
X315000Y153000D02*
X315000Y157000D01*
X227000Y312000D02*
X227000Y316000D01*
X225000Y314000D02*
X229000Y314000D01*
X217000Y312000D02*
X217000Y316000D01*
X215000Y314000D02*
X219000Y314000D01*
X251000Y311000D02*
X255000Y311000D01*
X253000Y309000D02*
X253000Y313000D01*
X243000Y309000D02*
X243000Y313000D01*
X241000Y311000D02*
X245000Y311000D01*
X261000Y260000D02*
X261000Y264000D01*
X259000Y262000D02*
X263000Y262000D01*
X261000Y250000D02*
X261000Y254000D01*
X259000Y252000D02*
X263000Y252000D01*
X383000Y262000D02*
X387000Y262000D01*
X385000Y260000D02*
X385000Y264000D01*
X383000Y252000D02*
X387000Y252000D01*
X385000Y250000D02*
X385000Y254000D01*
X288000Y309000D02*
X288000Y313000D01*
X286000Y311000D02*
X290000Y311000D01*
X278000Y309000D02*
X278000Y313000D01*
X276000Y311000D02*
X280000Y311000D01*
X268000Y309000D02*
X268000Y313000D01*
X266000Y311000D02*
X270000Y311000D01*
X349000Y183000D02*
X353000Y183000D01*
X351000Y181000D02*
X351000Y185000D01*
X351000Y171000D02*
X351000Y175000D01*
X349000Y173000D02*
X353000Y173000D01*
X321000Y309000D02*
X321000Y313000D01*
X319000Y311000D02*
X323000Y311000D01*
X309000Y311000D02*
X313000Y311000D01*
X311000Y309000D02*
X311000Y313000D01*
X299000Y311000D02*
X303000Y311000D01*
X301000Y309000D02*
X301000Y313000D01*
X352000Y311000D02*
X356000Y311000D01*
X354000Y309000D02*
X354000Y313000D01*
X342000Y311000D02*
X346000Y311000D01*
X344000Y309000D02*
X344000Y313000D01*
X332000Y311000D02*
X336000Y311000D01*
X334000Y309000D02*
X334000Y313000D01*
X351000Y159000D02*
X351000Y163000D01*
X349000Y161000D02*
X353000Y161000D01*
X264000Y140000D02*
X268000Y140000D01*
X266000Y138000D02*
X266000Y142000D01*
X370000Y79400D02*
X374000Y79400D01*
X372000Y77400D02*
X372000Y81400D01*
X342000Y77400D02*
X342000Y81400D01*
X340000Y79400D02*
X344000Y79400D01*
X352000Y77400D02*
X352000Y81400D01*
X350000Y79400D02*
X354000Y79400D01*
X360000Y79400D02*
X364000Y79400D01*
X362000Y77400D02*
X362000Y81400D01*
X322000Y77400D02*
X322000Y81400D01*
X320000Y79400D02*
X324000Y79400D01*
X332000Y77400D02*
X332000Y81400D01*
X330000Y79400D02*
X334000Y79400D01*
X312000Y77400D02*
X312000Y81400D01*
X310000Y79400D02*
X314000Y79400D01*
X370000Y69400D02*
X374000Y69400D01*
X372000Y67400D02*
X372000Y71400D01*
X340000Y69400D02*
X344000Y69400D01*
X342000Y67400D02*
X342000Y71400D01*
X352000Y67400D02*
X352000Y71400D01*
X350000Y69400D02*
X354000Y69400D01*
X360000Y69400D02*
X364000Y69400D01*
X362000Y67400D02*
X362000Y71400D01*
X322000Y67400D02*
X322000Y71400D01*
X320000Y69400D02*
X324000Y69400D01*
X330000Y69400D02*
X334000Y69400D01*
X332000Y67400D02*
X332000Y71400D01*
X312000Y67400D02*
X312000Y71400D01*
X310000Y69400D02*
X314000Y69400D01*
X290000Y79400D02*
X294000Y79400D01*
X292000Y77400D02*
X292000Y81400D01*
X302000Y77400D02*
X302000Y81400D01*
X300000Y79400D02*
X304000Y79400D01*
X280000Y79400D02*
X284000Y79400D01*
X282000Y77400D02*
X282000Y81400D01*
X290000Y69400D02*
X294000Y69400D01*
X292000Y67400D02*
X292000Y71400D01*
X300000Y69400D02*
X304000Y69400D01*
X302000Y67400D02*
X302000Y71400D01*
X282000Y67400D02*
X282000Y71400D01*
X280000Y69400D02*
X284000Y69400D01*
X387100Y304000D02*
X387100Y308000D01*
X385100Y306000D02*
X389100Y306000D01*
X387100Y314000D02*
X387100Y318000D01*
X385100Y316000D02*
X389100Y316000D01*
X407100Y304000D02*
X407100Y308000D01*
X405100Y306000D02*
X409100Y306000D01*
X407100Y314000D02*
X407100Y318000D01*
X405100Y316000D02*
X409100Y316000D01*
X395100Y306000D02*
X399100Y306000D01*
X397100Y304000D02*
X397100Y308000D01*
X397100Y314000D02*
X397100Y318000D01*
X395100Y316000D02*
X399100Y316000D01*
X365100Y316000D02*
X369100Y316000D01*
X367100Y314000D02*
X367100Y318000D01*
X365100Y306000D02*
X369100Y306000D01*
X367100Y304000D02*
X367100Y308000D01*
X375100Y306000D02*
X379100Y306000D01*
X377100Y304000D02*
X377100Y308000D01*
X377100Y314000D02*
X377100Y318000D01*
X375100Y316000D02*
X379100Y316000D01*
X225000Y146000D02*
X229000Y146000D01*
X227000Y144000D02*
X227000Y148000D01*
X217000Y144000D02*
X217000Y148000D01*
X215000Y146000D02*
X219000Y146000D01*
X227000Y84000D02*
X227000Y88000D01*
X225000Y86000D02*
X229000Y86000D01*
X217000Y84000D02*
X217000Y88000D01*
X215000Y86000D02*
X219000Y86000D01*
X225000Y66000D02*
X229000Y66000D01*
X227000Y64000D02*
X227000Y68000D01*
X227000Y54000D02*
X227000Y58000D01*
X225000Y56000D02*
X229000Y56000D01*
X227000Y74000D02*
X227000Y78000D01*
X225000Y76000D02*
X229000Y76000D01*
X217000Y54000D02*
X217000Y58000D01*
X215000Y56000D02*
X219000Y56000D01*
X217000Y64000D02*
X217000Y68000D01*
X215000Y66000D02*
X219000Y66000D01*
X217000Y74000D02*
X217000Y78000D01*
X215000Y76000D02*
X219000Y76000D01*
X225000Y116000D02*
X229000Y116000D01*
X227000Y114000D02*
X227000Y118000D01*
X225000Y96000D02*
X229000Y96000D01*
X227000Y94000D02*
X227000Y98000D01*
X225000Y106000D02*
X229000Y106000D01*
X227000Y104000D02*
X227000Y108000D01*
X225000Y126000D02*
X229000Y126000D01*
X227000Y124000D02*
X227000Y128000D01*
X227000Y134000D02*
X227000Y138000D01*
X225000Y136000D02*
X229000Y136000D01*
X215000Y116000D02*
X219000Y116000D01*
X217000Y114000D02*
X217000Y118000D01*
X215000Y106000D02*
X219000Y106000D01*
X217000Y104000D02*
X217000Y108000D01*
X217000Y94000D02*
X217000Y98000D01*
X215000Y96000D02*
X219000Y96000D01*
X215000Y136000D02*
X219000Y136000D01*
X217000Y134000D02*
X217000Y138000D01*
X215000Y126000D02*
X219000Y126000D01*
X217000Y124000D02*
X217000Y128000D01*
X227000Y274000D02*
X227000Y278000D01*
X225000Y276000D02*
X229000Y276000D01*
X217000Y274000D02*
X217000Y278000D01*
X215000Y276000D02*
X219000Y276000D01*
X227000Y214000D02*
X227000Y218000D01*
X225000Y216000D02*
X229000Y216000D01*
X217000Y214000D02*
X217000Y218000D01*
X215000Y216000D02*
X219000Y216000D01*
X227000Y204000D02*
X227000Y208000D01*
X225000Y206000D02*
X229000Y206000D01*
X227000Y174000D02*
X227000Y178000D01*
X225000Y176000D02*
X229000Y176000D01*
X225000Y156000D02*
X229000Y156000D01*
X227000Y154000D02*
X227000Y158000D01*
X225000Y166000D02*
X229000Y166000D01*
X227000Y164000D02*
X227000Y168000D01*
X225000Y196000D02*
X229000Y196000D01*
X227000Y194000D02*
X227000Y198000D01*
X227000Y184000D02*
X227000Y188000D01*
X225000Y186000D02*
X229000Y186000D01*
X217000Y164000D02*
X217000Y168000D01*
X215000Y166000D02*
X219000Y166000D01*
X215000Y156000D02*
X219000Y156000D01*
X217000Y154000D02*
X217000Y158000D01*
X217000Y174000D02*
X217000Y178000D01*
X215000Y176000D02*
X219000Y176000D01*
X217000Y194000D02*
X217000Y198000D01*
X215000Y196000D02*
X219000Y196000D01*
X217000Y184000D02*
X217000Y188000D01*
X215000Y186000D02*
X219000Y186000D01*
X217000Y204000D02*
X217000Y208000D01*
X215000Y206000D02*
X219000Y206000D01*
X225000Y236000D02*
X229000Y236000D01*
X227000Y234000D02*
X227000Y238000D01*
X225000Y226000D02*
X229000Y226000D01*
X227000Y224000D02*
X227000Y228000D01*
X225000Y256000D02*
X229000Y256000D01*
X227000Y254000D02*
X227000Y258000D01*
X227000Y244000D02*
X227000Y248000D01*
X225000Y246000D02*
X229000Y246000D01*
X225000Y266000D02*
X229000Y266000D01*
X227000Y264000D02*
X227000Y268000D01*
X217000Y244000D02*
X217000Y248000D01*
X215000Y246000D02*
X219000Y246000D01*
X215000Y226000D02*
X219000Y226000D01*
X217000Y224000D02*
X217000Y228000D01*
X215000Y236000D02*
X219000Y236000D01*
X217000Y234000D02*
X217000Y238000D01*
X215000Y256000D02*
X219000Y256000D01*
X217000Y254000D02*
X217000Y258000D01*
X217000Y264000D02*
X217000Y268000D01*
X215000Y266000D02*
X219000Y266000D01*
X227000Y284000D02*
X227000Y288000D01*
X225000Y286000D02*
X229000Y286000D01*
X225000Y296000D02*
X229000Y296000D01*
X227000Y294000D02*
X227000Y298000D01*
X217000Y284000D02*
X217000Y288000D01*
X215000Y286000D02*
X219000Y286000D01*
X215000Y296000D02*
X219000Y296000D01*
X217000Y294000D02*
X217000Y298000D01*
X427000Y54000D02*
X427000Y58000D01*
X425000Y56000D02*
X429000Y56000D01*
X437000Y54000D02*
X437000Y58000D01*
X435000Y56000D02*
X439000Y56000D01*
X427000Y64000D02*
X427000Y68000D01*
X425000Y66000D02*
X429000Y66000D01*
X435000Y66000D02*
X439000Y66000D01*
X437000Y64000D02*
X437000Y68000D01*
X427000Y74000D02*
X427000Y78000D01*
X425000Y76000D02*
X429000Y76000D01*
X435000Y76000D02*
X439000Y76000D01*
X437000Y74000D02*
X437000Y78000D01*
X425000Y86000D02*
X429000Y86000D01*
X427000Y84000D02*
X427000Y88000D01*
X435000Y86000D02*
X439000Y86000D01*
X437000Y84000D02*
X437000Y88000D01*
X427000Y94000D02*
X427000Y98000D01*
X425000Y96000D02*
X429000Y96000D01*
X435000Y96000D02*
X439000Y96000D01*
X437000Y94000D02*
X437000Y98000D01*
X437000Y144000D02*
X437000Y148000D01*
X435000Y146000D02*
X439000Y146000D01*
X425000Y146000D02*
X429000Y146000D01*
X427000Y144000D02*
X427000Y148000D01*
X437000Y114000D02*
X437000Y118000D01*
X435000Y116000D02*
X439000Y116000D01*
X435000Y106000D02*
X439000Y106000D01*
X437000Y104000D02*
X437000Y108000D01*
X437000Y124000D02*
X437000Y128000D01*
X435000Y126000D02*
X439000Y126000D01*
X437000Y134000D02*
X437000Y138000D01*
X435000Y136000D02*
X439000Y136000D01*
X425000Y116000D02*
X429000Y116000D01*
X427000Y114000D02*
X427000Y118000D01*
X425000Y106000D02*
X429000Y106000D01*
X427000Y104000D02*
X427000Y108000D01*
X427000Y134000D02*
X427000Y138000D01*
X425000Y136000D02*
X429000Y136000D01*
X427000Y124000D02*
X427000Y128000D01*
X425000Y126000D02*
X429000Y126000D01*
X435000Y276000D02*
X439000Y276000D01*
X437000Y274000D02*
X437000Y278000D01*
X427000Y274000D02*
X427000Y278000D01*
X425000Y276000D02*
X429000Y276000D01*
X437000Y214000D02*
X437000Y218000D01*
X435000Y216000D02*
X439000Y216000D01*
X427000Y214000D02*
X427000Y218000D01*
X425000Y216000D02*
X429000Y216000D01*
X437000Y204000D02*
X437000Y208000D01*
X435000Y206000D02*
X439000Y206000D01*
X435000Y176000D02*
X439000Y176000D01*
X437000Y174000D02*
X437000Y178000D01*
X437000Y154000D02*
X437000Y158000D01*
X435000Y156000D02*
X439000Y156000D01*
X437000Y164000D02*
X437000Y168000D01*
X435000Y166000D02*
X439000Y166000D01*
X437000Y194000D02*
X437000Y198000D01*
X435000Y196000D02*
X439000Y196000D01*
X437000Y184000D02*
X437000Y188000D01*
X435000Y186000D02*
X439000Y186000D01*
X425000Y166000D02*
X429000Y166000D01*
X427000Y164000D02*
X427000Y168000D01*
X427000Y154000D02*
X427000Y158000D01*
X425000Y156000D02*
X429000Y156000D01*
X425000Y176000D02*
X429000Y176000D01*
X427000Y174000D02*
X427000Y178000D01*
X425000Y196000D02*
X429000Y196000D01*
X427000Y194000D02*
X427000Y198000D01*
X427000Y184000D02*
X427000Y188000D01*
X425000Y186000D02*
X429000Y186000D01*
X425000Y206000D02*
X429000Y206000D01*
X427000Y204000D02*
X427000Y208000D01*
X437000Y234000D02*
X437000Y238000D01*
X435000Y236000D02*
X439000Y236000D01*
X437000Y224000D02*
X437000Y228000D01*
X435000Y226000D02*
X439000Y226000D01*
X437000Y254000D02*
X437000Y258000D01*
X435000Y256000D02*
X439000Y256000D01*
X435000Y246000D02*
X439000Y246000D01*
X437000Y244000D02*
X437000Y248000D01*
X437000Y264000D02*
X437000Y268000D01*
X435000Y266000D02*
X439000Y266000D01*
X425000Y246000D02*
X429000Y246000D01*
X427000Y244000D02*
X427000Y248000D01*
X425000Y226000D02*
X429000Y226000D01*
X427000Y224000D02*
X427000Y228000D01*
X427000Y234000D02*
X427000Y238000D01*
X425000Y236000D02*
X429000Y236000D01*
X425000Y256000D02*
X429000Y256000D01*
X427000Y254000D02*
X427000Y258000D01*
X425000Y266000D02*
X429000Y266000D01*
X427000Y264000D02*
X427000Y268000D01*
X435000Y286000D02*
X439000Y286000D01*
X437000Y284000D02*
X437000Y288000D01*
X435000Y296000D02*
X439000Y296000D01*
X437000Y294000D02*
X437000Y298000D01*
X425000Y286000D02*
X429000Y286000D01*
X427000Y284000D02*
X427000Y288000D01*
X427000Y294000D02*
X427000Y298000D01*
X425000Y296000D02*
X429000Y296000D01*
X425000Y314000D02*
X429000Y314000D01*
X427000Y312000D02*
X427000Y316000D01*
X435000Y314000D02*
X439000Y314000D01*
X437000Y312000D02*
X437000Y316000D01*
X280000Y268000D02*
X280000Y272000D01*
X278000Y270000D02*
X282000Y270000D01*
X284000Y151000D02*
X288000Y151000D01*
X286000Y149000D02*
X286000Y153000D01*
X286000Y240000D02*
X286000Y244000D01*
X284000Y242000D02*
X288000Y242000D01*
X284000Y252000D02*
X288000Y252000D01*
X286000Y250000D02*
X286000Y254000D01*
X565433Y211906D02*
X569433Y211906D01*
X567433Y209906D02*
X567433Y213906D01*
X616383Y211906D02*
X608509Y211906D01*
X615071Y216967D01*
X615071Y208531D01*
X613759Y208531D02*
X616383Y208531D01*
X620320Y215280D02*
X622945Y216967D01*
X625570Y216967D01*
X628194Y215280D01*
X628194Y210218D01*
X625570Y208531D01*
X622945Y208531D01*
X620320Y210218D01*
X620320Y215280D01*
X628194Y215280D02*
X620320Y210218D01*
X636068Y208531D02*
X636068Y209375D01*
X643942Y215280D02*
X646567Y216967D01*
X649192Y216967D01*
X651816Y215280D01*
X651816Y210218D01*
X649192Y208531D01*
X646567Y208531D01*
X643942Y210218D01*
X643942Y215280D01*
X651816Y215280D02*
X643942Y210218D01*
X655753Y215280D02*
X658378Y216967D01*
X661003Y216967D01*
X663627Y215280D01*
X663627Y210218D01*
X661003Y208531D01*
X658378Y208531D01*
X655753Y210218D01*
X655753Y215280D01*
X663627Y215280D02*
X655753Y210218D01*
X667564Y215280D02*
X670189Y216967D01*
X672814Y216967D01*
X675438Y215280D01*
X675438Y210218D01*
X672814Y208531D01*
X670189Y208531D01*
X667564Y210218D01*
X667564Y215280D01*
X675438Y215280D02*
X667564Y210218D01*
X679375Y215280D02*
X682000Y216967D01*
X684625Y216967D01*
X687249Y215280D01*
X687249Y210218D01*
X684625Y208531D01*
X682000Y208531D01*
X679375Y210218D01*
X679375Y215280D01*
X687249Y215280D02*
X679375Y210218D01*
X691186Y215280D02*
X693811Y216967D01*
X696436Y216967D01*
X699060Y215280D01*
X699060Y210218D01*
X696436Y208531D01*
X693811Y208531D01*
X691186Y210218D01*
X691186Y215280D01*
X699060Y215280D02*
X691186Y210218D01*
X738168Y215280D02*
X740793Y216967D01*
X740793Y208531D01*
X736856Y208531D02*
X744730Y208531D01*
X755228Y216967D02*
X751291Y216967D01*
X748667Y215280D01*
X748667Y211906D01*
X748667Y210218D01*
X751291Y208531D01*
X753916Y208531D01*
X756541Y210218D01*
X756541Y211906D01*
X753916Y213593D01*
X751291Y213593D01*
X748667Y211906D01*
X760478Y215280D02*
X763102Y216967D01*
X765727Y216967D01*
X768352Y215280D01*
X768352Y214436D01*
X760478Y208531D01*
X768352Y208531D01*
X768352Y209375D01*
X823864Y208531D02*
X823864Y216967D01*
X829113Y216967D01*
X831738Y215280D01*
X831738Y214436D01*
X829113Y212749D01*
X823864Y212749D01*
X839612Y208531D02*
X839612Y216967D01*
X835675Y216967D02*
X843549Y216967D01*
X847486Y208531D02*
X847486Y216967D01*
X855360Y208531D02*
X855360Y216967D01*
X847486Y212749D02*
X855360Y212749D01*
X893155Y215280D02*
X895780Y216967D01*
X898404Y216967D01*
X901029Y215280D01*
X901029Y210218D01*
X898404Y208531D01*
X895780Y208531D01*
X893155Y210218D01*
X893155Y215280D01*
X901029Y215280D02*
X893155Y210218D01*
X923339Y208531D02*
X922026Y208531D01*
X919402Y210218D01*
X919402Y215280D01*
X922026Y216967D01*
X923339Y216967D01*
X928588Y208531D02*
X928588Y216967D01*
X933837Y216967D01*
X936462Y215280D01*
X936462Y214436D01*
X933837Y212749D01*
X928588Y212749D01*
X929900Y212749D02*
X936462Y208531D01*
X940399Y210218D02*
X943024Y208531D01*
X945648Y208531D01*
X948273Y210218D01*
X948273Y215280D01*
X945648Y216967D01*
X943024Y216967D01*
X940399Y215280D01*
X940399Y210218D01*
X952210Y216967D02*
X952210Y210218D01*
X954835Y208531D01*
X957459Y208531D01*
X960084Y210218D01*
X960084Y216967D01*
X964021Y208531D02*
X964021Y216967D01*
X971895Y208531D01*
X971895Y216967D01*
X975832Y208531D02*
X981081Y208531D01*
X983706Y210218D01*
X983706Y215280D01*
X981081Y216967D01*
X975832Y216967D01*
X977144Y216967D02*
X977144Y208531D01*
X988955Y216967D02*
X990268Y216967D01*
X992892Y215280D01*
X992892Y210218D01*
X990268Y208531D01*
X988955Y208531D01*
X609822Y232265D02*
X611134Y233109D01*
X613759Y233109D01*
X616383Y231422D01*
X616383Y229735D01*
X615071Y228891D01*
X616383Y228047D01*
X616383Y226360D01*
X613759Y224673D01*
X611134Y224673D01*
X609822Y225516D01*
X611134Y228891D02*
X615071Y228891D01*
X626882Y233109D02*
X622945Y233109D01*
X620320Y231422D01*
X620320Y228047D01*
X620320Y226360D01*
X622945Y224673D01*
X625570Y224673D01*
X628194Y226360D01*
X628194Y228047D01*
X625570Y229735D01*
X622945Y229735D01*
X620320Y228047D01*
X636068Y224673D02*
X636068Y225516D01*
X643942Y231422D02*
X646567Y233109D01*
X649192Y233109D01*
X651816Y231422D01*
X651816Y226360D01*
X649192Y224673D01*
X646567Y224673D01*
X643942Y226360D01*
X643942Y231422D01*
X651816Y231422D02*
X643942Y226360D01*
X655753Y231422D02*
X658378Y233109D01*
X661003Y233109D01*
X663627Y231422D01*
X663627Y226360D01*
X661003Y224673D01*
X658378Y224673D01*
X655753Y226360D01*
X655753Y231422D01*
X663627Y231422D02*
X655753Y226360D01*
X667564Y231422D02*
X670189Y233109D01*
X672814Y233109D01*
X675438Y231422D01*
X675438Y226360D01*
X672814Y224673D01*
X670189Y224673D01*
X667564Y226360D01*
X667564Y231422D01*
X675438Y231422D02*
X667564Y226360D01*
X679375Y231422D02*
X682000Y233109D01*
X684625Y233109D01*
X687249Y231422D01*
X687249Y226360D01*
X684625Y224673D01*
X682000Y224673D01*
X679375Y226360D01*
X679375Y231422D01*
X687249Y231422D02*
X679375Y226360D01*
X691186Y231422D02*
X693811Y233109D01*
X696436Y233109D01*
X699060Y231422D01*
X699060Y226360D01*
X696436Y224673D01*
X693811Y224673D01*
X691186Y226360D01*
X691186Y231422D01*
X699060Y231422D02*
X691186Y226360D01*
X748667Y226360D02*
X751291Y224673D01*
X753916Y224673D01*
X756541Y226360D01*
X756541Y229735D01*
X756541Y231422D01*
X753916Y233109D01*
X751291Y233109D01*
X748667Y231422D01*
X748667Y229735D01*
X751291Y228047D01*
X753916Y228047D01*
X756541Y229735D01*
X823864Y224673D02*
X823864Y233109D01*
X829113Y233109D01*
X831738Y231422D01*
X831738Y230578D01*
X829113Y228891D01*
X823864Y228891D01*
X839612Y224673D02*
X839612Y233109D01*
X835675Y233109D02*
X843549Y233109D01*
X847486Y224673D02*
X847486Y233109D01*
X855360Y224673D02*
X855360Y233109D01*
X847486Y228891D02*
X855360Y228891D01*
X893155Y231422D02*
X895780Y233109D01*
X898404Y233109D01*
X901029Y231422D01*
X901029Y226360D01*
X898404Y224673D01*
X895780Y224673D01*
X893155Y226360D01*
X893155Y231422D01*
X901029Y231422D02*
X893155Y226360D01*
X923339Y224673D02*
X922026Y224673D01*
X919402Y226360D01*
X919402Y231422D01*
X922026Y233109D01*
X923339Y233109D01*
X928588Y224673D02*
X928588Y233109D01*
X933837Y233109D01*
X936462Y231422D01*
X936462Y230578D01*
X933837Y228891D01*
X928588Y228891D01*
X929900Y228891D02*
X936462Y224673D01*
X940399Y226360D02*
X943024Y224673D01*
X945648Y224673D01*
X948273Y226360D01*
X948273Y231422D01*
X945648Y233109D01*
X943024Y233109D01*
X940399Y231422D01*
X940399Y226360D01*
X952210Y233109D02*
X952210Y226360D01*
X954835Y224673D01*
X957459Y224673D01*
X960084Y226360D01*
X960084Y233109D01*
X964021Y224673D02*
X964021Y233109D01*
X971895Y224673D01*
X971895Y233109D01*
X975832Y224673D02*
X981081Y224673D01*
X983706Y226360D01*
X983706Y231422D01*
X981081Y233109D01*
X975832Y233109D01*
X977144Y233109D02*
X977144Y224673D01*
X988955Y233109D02*
X990268Y233109D01*
X992892Y231422D01*
X992892Y226360D01*
X990268Y224673D01*
X988955Y224673D01*
X609822Y248407D02*
X611134Y249251D01*
X613759Y249251D01*
X616383Y247564D01*
X616383Y245876D01*
X615071Y245033D01*
X616383Y244189D01*
X616383Y242502D01*
X613759Y240814D01*
X611134Y240814D01*
X609822Y241658D01*
X611134Y245033D02*
X615071Y245033D01*
X628194Y249251D02*
X620320Y249251D01*
X620320Y245876D01*
X625570Y245876D01*
X628194Y244189D01*
X628194Y242502D01*
X625570Y240814D01*
X620320Y240814D01*
X636068Y240814D02*
X636068Y241658D01*
X643942Y247564D02*
X646567Y249251D01*
X649192Y249251D01*
X651816Y247564D01*
X651816Y242502D01*
X649192Y240814D01*
X646567Y240814D01*
X643942Y242502D01*
X643942Y247564D01*
X651816Y247564D02*
X643942Y242502D01*
X655753Y247564D02*
X658378Y249251D01*
X661003Y249251D01*
X663627Y247564D01*
X663627Y242502D01*
X661003Y240814D01*
X658378Y240814D01*
X655753Y242502D01*
X655753Y247564D01*
X663627Y247564D02*
X655753Y242502D01*
X667564Y247564D02*
X670189Y249251D01*
X672814Y249251D01*
X675438Y247564D01*
X675438Y242502D01*
X672814Y240814D01*
X670189Y240814D01*
X667564Y242502D01*
X667564Y247564D01*
X675438Y247564D02*
X667564Y242502D01*
X679375Y247564D02*
X682000Y249251D01*
X684625Y249251D01*
X687249Y247564D01*
X687249Y242502D01*
X684625Y240814D01*
X682000Y240814D01*
X679375Y242502D01*
X679375Y247564D01*
X687249Y247564D02*
X679375Y242502D01*
X691186Y247564D02*
X693811Y249251D01*
X696436Y249251D01*
X699060Y247564D01*
X699060Y242502D01*
X696436Y240814D01*
X693811Y240814D01*
X691186Y242502D01*
X691186Y247564D01*
X699060Y247564D02*
X691186Y242502D01*
X749979Y248407D02*
X751291Y249251D01*
X753916Y249251D01*
X756541Y247564D01*
X756541Y245876D01*
X755228Y245033D01*
X756541Y244189D01*
X756541Y242502D01*
X753916Y240814D01*
X751291Y240814D01*
X749979Y241658D01*
X751291Y245033D02*
X755228Y245033D01*
X823864Y240814D02*
X823864Y249251D01*
X829113Y249251D01*
X831738Y247564D01*
X831738Y246720D01*
X829113Y245033D01*
X823864Y245033D01*
X839612Y240814D02*
X839612Y249251D01*
X835675Y249251D02*
X843549Y249251D01*
X847486Y240814D02*
X847486Y249251D01*
X855360Y240814D02*
X855360Y249251D01*
X847486Y245033D02*
X855360Y245033D01*
X893155Y247564D02*
X895780Y249251D01*
X898404Y249251D01*
X901029Y247564D01*
X901029Y242502D01*
X898404Y240814D01*
X895780Y240814D01*
X893155Y242502D01*
X893155Y247564D01*
X901029Y247564D02*
X893155Y242502D01*
X923339Y240814D02*
X922026Y240814D01*
X919402Y242502D01*
X919402Y247564D01*
X922026Y249251D01*
X923339Y249251D01*
X928588Y240814D02*
X928588Y249251D01*
X933837Y249251D01*
X936462Y247564D01*
X936462Y246720D01*
X933837Y245033D01*
X928588Y245033D01*
X929900Y245033D02*
X936462Y240814D01*
X940399Y242502D02*
X943024Y240814D01*
X945648Y240814D01*
X948273Y242502D01*
X948273Y247564D01*
X945648Y249251D01*
X943024Y249251D01*
X940399Y247564D01*
X940399Y242502D01*
X952210Y249251D02*
X952210Y242502D01*
X954835Y240814D01*
X957459Y240814D01*
X960084Y242502D01*
X960084Y249251D01*
X964021Y240814D02*
X964021Y249251D01*
X971895Y240814D01*
X971895Y249251D01*
X975832Y240814D02*
X981081Y240814D01*
X983706Y242502D01*
X983706Y247564D01*
X981081Y249251D01*
X975832Y249251D01*
X977144Y249251D02*
X977144Y240814D01*
X988955Y249251D02*
X990268Y249251D01*
X992892Y247564D01*
X992892Y242502D01*
X990268Y240814D01*
X988955Y240814D01*
X608509Y263705D02*
X611134Y265393D01*
X613759Y265393D01*
X616383Y263705D01*
X616383Y262862D01*
X608509Y256956D01*
X616383Y256956D01*
X616383Y257800D01*
X620320Y263705D02*
X622945Y265393D01*
X625570Y265393D01*
X628194Y263705D01*
X628194Y258643D01*
X625570Y256956D01*
X622945Y256956D01*
X620320Y258643D01*
X620320Y263705D01*
X628194Y263705D02*
X620320Y258643D01*
X636068Y256956D02*
X636068Y257800D01*
X643942Y263705D02*
X646567Y265393D01*
X649192Y265393D01*
X651816Y263705D01*
X651816Y258643D01*
X649192Y256956D01*
X646567Y256956D01*
X643942Y258643D01*
X643942Y263705D01*
X651816Y263705D02*
X643942Y258643D01*
X655753Y263705D02*
X658378Y265393D01*
X661003Y265393D01*
X663627Y263705D01*
X663627Y258643D01*
X661003Y256956D01*
X658378Y256956D01*
X655753Y258643D01*
X655753Y263705D01*
X663627Y263705D02*
X655753Y258643D01*
X667564Y263705D02*
X670189Y265393D01*
X672814Y265393D01*
X675438Y263705D01*
X675438Y258643D01*
X672814Y256956D01*
X670189Y256956D01*
X667564Y258643D01*
X667564Y263705D01*
X675438Y263705D02*
X667564Y258643D01*
X679375Y263705D02*
X682000Y265393D01*
X684625Y265393D01*
X687249Y263705D01*
X687249Y258643D01*
X684625Y256956D01*
X682000Y256956D01*
X679375Y258643D01*
X679375Y263705D01*
X687249Y263705D02*
X679375Y258643D01*
X691186Y263705D02*
X693811Y265393D01*
X696436Y265393D01*
X699060Y263705D01*
X699060Y258643D01*
X696436Y256956D01*
X693811Y256956D01*
X691186Y258643D01*
X691186Y263705D01*
X699060Y263705D02*
X691186Y258643D01*
X749979Y263705D02*
X752604Y265393D01*
X752604Y256956D01*
X748667Y256956D02*
X756541Y256956D01*
X823864Y256956D02*
X823864Y265393D01*
X829113Y265393D01*
X831738Y263705D01*
X831738Y262862D01*
X829113Y261174D01*
X823864Y261174D01*
X839612Y256956D02*
X839612Y265393D01*
X835675Y265393D02*
X843549Y265393D01*
X847486Y256956D02*
X847486Y265393D01*
X855360Y256956D02*
X855360Y265393D01*
X847486Y261174D02*
X855360Y261174D01*
X893155Y263705D02*
X895780Y265393D01*
X898404Y265393D01*
X901029Y263705D01*
X901029Y258643D01*
X898404Y256956D01*
X895780Y256956D01*
X893155Y258643D01*
X893155Y263705D01*
X901029Y263705D02*
X893155Y258643D01*
X923339Y256956D02*
X922026Y256956D01*
X919402Y258643D01*
X919402Y263705D01*
X922026Y265393D01*
X923339Y265393D01*
X928588Y256956D02*
X928588Y265393D01*
X933837Y265393D01*
X936462Y263705D01*
X936462Y262862D01*
X933837Y261174D01*
X928588Y261174D01*
X929900Y261174D02*
X936462Y256956D01*
X940399Y258643D02*
X943024Y256956D01*
X945648Y256956D01*
X948273Y258643D01*
X948273Y263705D01*
X945648Y265393D01*
X943024Y265393D01*
X940399Y263705D01*
X940399Y258643D01*
X952210Y265393D02*
X952210Y258643D01*
X954835Y256956D01*
X957459Y256956D01*
X960084Y258643D01*
X960084Y265393D01*
X964021Y256956D02*
X964021Y265393D01*
X971895Y256956D01*
X971895Y265393D01*
X975832Y256956D02*
X981081Y256956D01*
X983706Y258643D01*
X983706Y263705D01*
X981081Y265393D01*
X975832Y265393D01*
X977144Y265393D02*
X977144Y256956D01*
X988955Y265393D02*
X990268Y265393D01*
X992892Y263705D01*
X992892Y258643D01*
X990268Y256956D01*
X988955Y256956D01*
X609822Y279847D02*
X612446Y281534D01*
X612446Y273098D01*
X608509Y273098D02*
X616383Y273098D01*
X628194Y281534D02*
X620320Y281534D01*
X620320Y278160D01*
X625570Y278160D01*
X628194Y276472D01*
X628194Y274785D01*
X625570Y273098D01*
X620320Y273098D01*
X636068Y273098D02*
X636068Y273942D01*
X643942Y279847D02*
X646567Y281534D01*
X649192Y281534D01*
X651816Y279847D01*
X651816Y274785D01*
X649192Y273098D01*
X646567Y273098D01*
X643942Y274785D01*
X643942Y279847D01*
X651816Y279847D02*
X643942Y274785D01*
X655753Y279847D02*
X658378Y281534D01*
X661003Y281534D01*
X663627Y279847D01*
X663627Y274785D01*
X661003Y273098D01*
X658378Y273098D01*
X655753Y274785D01*
X655753Y279847D01*
X663627Y279847D02*
X655753Y274785D01*
X667564Y279847D02*
X670189Y281534D01*
X672814Y281534D01*
X675438Y279847D01*
X675438Y274785D01*
X672814Y273098D01*
X670189Y273098D01*
X667564Y274785D01*
X667564Y279847D01*
X675438Y279847D02*
X667564Y274785D01*
X679375Y279847D02*
X682000Y281534D01*
X684625Y281534D01*
X687249Y279847D01*
X687249Y274785D01*
X684625Y273098D01*
X682000Y273098D01*
X679375Y274785D01*
X679375Y279847D01*
X687249Y279847D02*
X679375Y274785D01*
X691186Y279847D02*
X693811Y281534D01*
X696436Y281534D01*
X699060Y279847D01*
X699060Y274785D01*
X696436Y273098D01*
X693811Y273098D01*
X691186Y274785D01*
X691186Y279847D01*
X699060Y279847D02*
X691186Y274785D01*
X744073Y279847D02*
X746698Y281534D01*
X746698Y273098D01*
X742761Y273098D02*
X750635Y273098D01*
X755885Y279847D02*
X758509Y281534D01*
X758509Y273098D01*
X754572Y273098D02*
X762446Y273098D01*
X823864Y273098D02*
X823864Y281534D01*
X829113Y281534D01*
X831738Y279847D01*
X831738Y279003D01*
X829113Y277316D01*
X823864Y277316D01*
X839612Y273098D02*
X839612Y281534D01*
X835675Y281534D02*
X843549Y281534D01*
X847486Y273098D02*
X847486Y281534D01*
X855360Y273098D02*
X855360Y281534D01*
X847486Y277316D02*
X855360Y277316D01*
X893155Y279847D02*
X895780Y281534D01*
X898404Y281534D01*
X901029Y279847D01*
X901029Y274785D01*
X898404Y273098D01*
X895780Y273098D01*
X893155Y274785D01*
X893155Y279847D01*
X901029Y279847D02*
X893155Y274785D01*
X923339Y273098D02*
X922026Y273098D01*
X919402Y274785D01*
X919402Y279847D01*
X922026Y281534D01*
X923339Y281534D01*
X928588Y273098D02*
X928588Y281534D01*
X933837Y281534D01*
X936462Y279847D01*
X936462Y279003D01*
X933837Y277316D01*
X928588Y277316D01*
X929900Y277316D02*
X936462Y273098D01*
X940399Y274785D02*
X943024Y273098D01*
X945648Y273098D01*
X948273Y274785D01*
X948273Y279847D01*
X945648Y281534D01*
X943024Y281534D01*
X940399Y279847D01*
X940399Y274785D01*
X952210Y281534D02*
X952210Y274785D01*
X954835Y273098D01*
X957459Y273098D01*
X960084Y274785D01*
X960084Y281534D01*
X964021Y273098D02*
X964021Y281534D01*
X971895Y273098D01*
X971895Y281534D01*
X975832Y273098D02*
X981081Y273098D01*
X983706Y274785D01*
X983706Y279847D01*
X981081Y281534D01*
X975832Y281534D01*
X977144Y281534D02*
X977144Y273098D01*
X988955Y281534D02*
X990268Y281534D01*
X992892Y279847D01*
X992892Y274785D01*
X990268Y273098D01*
X988955Y273098D01*
G54D12*
X293727Y206273D02*
X296273Y203727D01*
X293727Y203727D02*
X296273Y206273D01*
X347727Y205727D02*
X350273Y208273D01*
X347727Y208273D02*
X350273Y205727D01*
X337250Y231000D02*
G75*
D01*
G02X337250Y231000I750J0*
G01*
X314727Y246273D02*
X317273Y243727D01*
X314727Y243727D02*
X317273Y246273D01*
X330250Y273000D02*
G75*
D01*
G02X330250Y273000I750J0*
G01*
X322250Y201000D02*
G75*
D01*
G02X322250Y201000I750J0*
G01*
X383727Y219727D02*
X386273Y222273D01*
X383727Y222273D02*
X386273Y219727D01*
X275250Y130000D02*
G75*
D01*
G02X275250Y130000I750J0*
G01*
X379727Y89727D02*
X382273Y92273D01*
X379727Y92273D02*
X382273Y89727D01*
X330250Y110000D02*
G75*
D01*
G02X330250Y110000I750J0*
G01*
X365727Y108727D02*
X368273Y111273D01*
X365727Y111273D02*
X368273Y108727D01*
X377727Y125273D02*
X380273Y122727D01*
X377727Y122727D02*
X380273Y125273D01*
X284250Y138000D02*
G75*
D01*
G02X284250Y138000I750J0*
G01*
X320250Y123000D02*
G75*
D01*
G02X320250Y123000I750J0*
G01*
X314250Y115000D02*
G75*
D01*
G02X314250Y115000I750J0*
G01*
X277727Y111727D02*
X280273Y114273D01*
X277727Y114273D02*
X280273Y111727D01*
X366000Y117000D02*
X368000Y117000D01*
X368000Y119000D01*
X366000Y119000D01*
X366000Y117000D01*
X251250Y105000D02*
G75*
D01*
G02X251250Y105000I750J0*
G01*
X330250Y134000D02*
G75*
D01*
G02X330250Y134000I750J0*
G01*
X269727Y59727D02*
X272273Y62273D01*
X269727Y62273D02*
X272273Y59727D01*
X300250Y224000D02*
G75*
D01*
G02X300250Y224000I750J0*
G01*
X261000Y212525D02*
X263475Y215000D01*
X261000Y217475D01*
X258525Y215000D01*
X261000Y212525D01*
X261000Y232525D02*
X263475Y235000D01*
X261000Y237475D01*
X258525Y235000D01*
X261000Y232525D01*
X261000Y222525D02*
X263475Y225000D01*
X261000Y227475D01*
X258525Y225000D01*
X261000Y222525D01*
X566160Y226774D02*
X568706Y229320D01*
X566160Y229320D02*
X568706Y226774D01*
X567433Y241714D02*
X569908Y244189D01*
X567433Y246664D01*
X564958Y244189D01*
X567433Y241714D01*
X566433Y259331D02*
X568433Y259331D01*
X568433Y261331D01*
X566433Y261331D01*
X566433Y259331D01*
X566683Y276472D02*
G75*
D01*
G02X566683Y276472I750J0*
G01*
G04 ColorRGB 00FFFF for the following layer *
%LNBoard Outline*%
%LPD*%
G54D10*
G54D13*
X206000Y46535D02*
X448126Y46535D01*
X448126Y330000D01*
X206000Y330000D01*
X206000Y46535D01*
G54D14*
X205000Y45535D02*
X205000Y74082D01*
X205000Y45535D02*
X229413Y45535D01*
X449126Y45535D02*
X424713Y45535D01*
X449126Y45535D02*
X449126Y74082D01*
X449126Y331000D02*
X449126Y302454D01*
X449126Y331000D02*
X424713Y331000D01*
X205000Y331000D02*
X229413Y331000D01*
X205000Y331000D02*
X205000Y302454D01*
X185315Y45535D02*
X145945Y45535D01*
X165630Y25850D02*
X165630Y65220D01*
X150866Y45535D02*
G75*
D01*
G02X150866Y45535I14764J0*
G01*
X468811Y45535D02*
X508181Y45535D01*
X488496Y25850D02*
X488496Y65220D01*
X473732Y45535D02*
G75*
D01*
G02X473732Y45535I14764J0*
G01*
X483575Y45535D02*
G75*
D01*
G02X483575Y45535I4921J0*
G01*
X185315Y331000D02*
X145945Y331000D01*
X165630Y311315D02*
X165630Y350685D01*
X150866Y331000D02*
G75*
D01*
G02X150866Y331000I14764J0*
G01*
X155787Y331000D02*
G75*
D01*
G02X155787Y331000I9843J0*
G01*
X160709Y331000D02*
G75*
D01*
G02X160709Y331000I4921J0*
G01*
G04 ColorRGB 66FFCC for the following layer *
%LNLegend Description*%
%LPD*%
G54D11*
X529835Y203835D02*
X1012118Y203835D01*
X1012118Y332969D01*
X529835Y332969D01*
X529835Y203835D01*
X605031Y300685D02*
X605031Y203835D01*
X703850Y300685D02*
X703850Y203835D01*
X802669Y300685D02*
X802669Y203835D01*
X877866Y300685D02*
X877866Y203835D01*
X1012118Y300685D02*
X1012118Y203835D01*
X529835Y219976D02*
X1012118Y219976D01*
X529835Y236118D02*
X1012118Y236118D01*
X529835Y252260D02*
X1012118Y252260D01*
X529835Y268402D02*
X1012118Y268402D01*
X533312Y290927D02*
X535937Y289240D01*
X538562Y289240D01*
X541186Y290927D01*
X533312Y295989D01*
X535937Y297676D01*
X538562Y297676D01*
X541186Y295989D01*
X545123Y286709D02*
X546436Y286709D01*
X552997Y295145D01*
X545123Y295145D02*
X549060Y290083D01*
X556934Y289240D02*
X556934Y294301D01*
X556934Y295145D01*
X556934Y294301D02*
X558247Y295145D01*
X559559Y295145D01*
X560871Y294301D01*
X562184Y295145D01*
X563496Y295145D01*
X564808Y294301D01*
X564808Y289240D01*
X560871Y294301D02*
X560871Y289240D01*
X568745Y290927D02*
X571370Y289240D01*
X573995Y289240D01*
X576619Y290927D01*
X576619Y292614D01*
X573995Y294301D01*
X571370Y294301D01*
X568745Y292614D01*
X568745Y297676D02*
X568745Y289240D01*
X580556Y290927D02*
X583181Y289240D01*
X585806Y289240D01*
X588430Y290927D01*
X588430Y293458D01*
X585806Y295145D01*
X583181Y295145D01*
X580556Y293458D01*
X580556Y290927D01*
X593680Y297676D02*
X593680Y290927D01*
X596304Y289240D01*
X529835Y284543D02*
X1012118Y284543D01*
X632131Y290927D02*
X634756Y289240D01*
X637381Y289240D01*
X640005Y290927D01*
X632131Y295989D01*
X634756Y297676D01*
X637381Y297676D01*
X640005Y295989D01*
X647879Y289240D02*
X647879Y294301D01*
X647879Y295989D02*
X647879Y296832D01*
X655753Y295145D02*
X663627Y295145D01*
X655753Y289240D01*
X663627Y289240D01*
X675438Y290927D02*
X672814Y289240D01*
X670189Y289240D01*
X667564Y290927D01*
X667564Y293458D01*
X670189Y295145D01*
X672814Y295145D01*
X675438Y293458D01*
X674126Y292614D01*
X667564Y292614D01*
X707328Y290927D02*
X709953Y289240D01*
X712577Y289240D01*
X715202Y290927D01*
X715202Y295989D01*
X712577Y297676D01*
X709953Y297676D01*
X707328Y295989D01*
X707328Y290927D01*
X712577Y290927D02*
X715202Y289240D01*
X719139Y295145D02*
X719139Y290927D01*
X721764Y289240D01*
X724388Y289240D01*
X727013Y290927D01*
X727013Y295145D01*
X727013Y290927D02*
X727013Y289240D01*
X732262Y295145D02*
X736199Y295145D01*
X737512Y294301D01*
X737512Y290083D01*
X736199Y289240D01*
X732262Y289240D01*
X730950Y290083D01*
X730950Y291771D01*
X732262Y292614D01*
X737512Y292614D01*
X737512Y290083D02*
X738824Y289240D01*
X742761Y289240D02*
X742761Y294301D01*
X742761Y295145D01*
X742761Y294301D02*
X744073Y295145D01*
X746698Y295145D01*
X748010Y294301D01*
X748010Y289240D01*
X761134Y290083D02*
X759822Y289240D01*
X758509Y290083D01*
X758509Y297676D01*
X755885Y295145D02*
X761134Y295145D01*
X770320Y289240D02*
X770320Y294301D01*
X770320Y295989D02*
X770320Y296832D01*
X784756Y290083D02*
X783444Y289240D01*
X782131Y290083D01*
X782131Y297676D01*
X779507Y295145D02*
X784756Y295145D01*
X790005Y286709D02*
X791318Y286709D01*
X797879Y295145D01*
X790005Y295145D02*
X793942Y290083D01*
X806147Y289240D02*
X806147Y297676D01*
X811396Y297676D01*
X814021Y295989D01*
X814021Y295145D01*
X811396Y293458D01*
X806147Y293458D01*
X819270Y297676D02*
X819270Y290927D01*
X821895Y289240D01*
X831081Y295145D02*
X835018Y295145D01*
X836331Y294301D01*
X836331Y290083D01*
X835018Y289240D01*
X831081Y289240D01*
X829769Y290083D01*
X829769Y291771D01*
X831081Y292614D01*
X836331Y292614D01*
X836331Y290083D02*
X837643Y289240D01*
X848142Y290083D02*
X846829Y289240D01*
X845517Y290083D01*
X845517Y297676D01*
X842892Y295145D02*
X848142Y295145D01*
X861265Y290927D02*
X858640Y289240D01*
X856016Y289240D01*
X853391Y290927D01*
X853391Y293458D01*
X856016Y295145D01*
X858640Y295145D01*
X861265Y293458D01*
X859953Y292614D01*
X853391Y292614D01*
X873076Y290927D02*
X870451Y289240D01*
X867827Y289240D01*
X865202Y290927D01*
X865202Y292614D01*
X867827Y294301D01*
X870451Y294301D01*
X873076Y292614D01*
X873076Y297676D02*
X873076Y289240D01*
X881344Y290927D02*
X883969Y289240D01*
X886593Y289240D01*
X889218Y290927D01*
X881344Y295989D01*
X883969Y297676D01*
X886593Y297676D01*
X889218Y295989D01*
X894467Y297676D02*
X894467Y290927D01*
X897092Y289240D01*
X904966Y290927D02*
X907591Y289240D01*
X910215Y289240D01*
X912840Y290927D01*
X912840Y293458D01*
X910215Y295145D01*
X907591Y295145D01*
X904966Y293458D01*
X904966Y290927D01*
X923339Y290083D02*
X922026Y289240D01*
X920714Y290083D01*
X920714Y297676D01*
X918089Y295145D02*
X923339Y295145D01*
X940399Y297676D02*
X940399Y289240D01*
X948273Y289240D01*
X960084Y290927D02*
X957459Y289240D01*
X954835Y289240D01*
X952210Y290927D01*
X952210Y293458D01*
X954835Y295145D01*
X957459Y295145D01*
X960084Y293458D01*
X958772Y292614D01*
X952210Y292614D01*
X964021Y289240D02*
X964021Y294301D01*
X964021Y295145D01*
X964021Y294301D02*
X965333Y295145D01*
X967958Y295145D01*
X969270Y294301D01*
X969270Y289240D01*
X975832Y288396D02*
X978457Y286709D01*
X981081Y286709D01*
X983706Y288396D01*
X983706Y290927D01*
X983706Y293458D01*
X981081Y295145D01*
X978457Y295145D01*
X975832Y293458D01*
X975832Y290927D01*
X978457Y289240D01*
X981081Y289240D01*
X983706Y290927D01*
X994205Y290083D02*
X992892Y289240D01*
X991580Y290083D01*
X991580Y297676D01*
X988955Y295145D02*
X994205Y295145D01*
X999454Y293458D02*
X1002079Y295145D01*
X1004703Y295145D01*
X1007328Y293458D01*
X1007328Y289240D01*
X999454Y297676D02*
X999454Y289240D01*
X529835Y300685D02*
X1012118Y300685D01*
X654178Y305381D02*
X654178Y310443D01*
X656803Y313818D01*
X659428Y313818D01*
X662052Y310443D01*
X662052Y305381D01*
X654178Y307912D02*
X662052Y307912D01*
X667302Y313818D02*
X667302Y307069D01*
X669927Y305381D01*
X679113Y313818D02*
X679113Y307069D01*
X681738Y305381D01*
X701423Y311287D02*
X701423Y307069D01*
X704047Y305381D01*
X706672Y305381D01*
X709297Y307069D01*
X709297Y311287D01*
X709297Y307069D02*
X709297Y305381D01*
X713234Y305381D02*
X713234Y310443D01*
X713234Y311287D01*
X713234Y310443D02*
X714546Y311287D01*
X717171Y311287D01*
X718483Y310443D01*
X718483Y305381D01*
X728982Y305381D02*
X728982Y310443D01*
X728982Y312130D02*
X728982Y312974D01*
X743417Y306225D02*
X742105Y305381D01*
X740793Y306225D01*
X740793Y313818D01*
X738168Y311287D02*
X743417Y311287D01*
X748667Y307069D02*
X751291Y305381D01*
X753916Y305381D01*
X756541Y307069D01*
X748667Y309600D01*
X751291Y311287D01*
X753916Y311287D01*
X756541Y309600D01*
X773601Y311287D02*
X777538Y311287D01*
X778850Y310443D01*
X778850Y306225D01*
X777538Y305381D01*
X773601Y305381D01*
X772289Y306225D01*
X772289Y307912D01*
X773601Y308756D01*
X778850Y308756D01*
X778850Y306225D02*
X780163Y305381D01*
X784100Y308756D02*
X788037Y311287D01*
X789349Y311287D01*
X791974Y309600D01*
X784100Y305381D02*
X784100Y311287D01*
X803785Y307069D02*
X801160Y305381D01*
X798535Y305381D01*
X795911Y307069D01*
X795911Y309600D01*
X798535Y311287D01*
X801160Y311287D01*
X803785Y309600D01*
X802472Y308756D01*
X795911Y308756D01*
X823470Y305381D02*
X823470Y310443D01*
X823470Y312130D02*
X823470Y312974D01*
X831344Y305381D02*
X831344Y310443D01*
X831344Y311287D01*
X831344Y310443D02*
X832656Y311287D01*
X835281Y311287D01*
X836593Y310443D01*
X836593Y305381D01*
X854966Y305381D02*
X854966Y310443D01*
X854966Y311287D01*
X854966Y310443D02*
X856278Y311287D01*
X857591Y311287D01*
X858903Y310443D01*
X860215Y311287D01*
X861528Y311287D01*
X862840Y310443D01*
X862840Y305381D01*
X858903Y310443D02*
X858903Y305381D01*
X870714Y305381D02*
X870714Y310443D01*
X870714Y312130D02*
X870714Y312974D01*
X879900Y313818D02*
X879900Y307069D01*
X882525Y305381D01*
X529835Y316827D02*
X1012118Y316827D01*
X701423Y321523D02*
X706672Y321523D01*
X709297Y323210D01*
X709297Y328272D01*
X706672Y329960D01*
X701423Y329960D01*
X702735Y329960D02*
X702735Y321523D01*
X713234Y324898D02*
X717171Y327429D01*
X718483Y327429D01*
X721108Y325741D01*
X713234Y321523D02*
X713234Y327429D01*
X728982Y321523D02*
X728982Y326585D01*
X728982Y328272D02*
X728982Y329116D01*
X738168Y329960D02*
X738168Y323210D01*
X740793Y321523D01*
X749979Y329960D02*
X749979Y323210D01*
X752604Y321523D01*
X772289Y329960D02*
X772289Y321523D01*
X780163Y321523D01*
X791974Y323210D02*
X789349Y321523D01*
X786724Y321523D01*
X784100Y323210D01*
X784100Y325741D01*
X786724Y327429D01*
X789349Y327429D01*
X791974Y325741D01*
X790661Y324898D01*
X784100Y324898D01*
X795911Y320679D02*
X798535Y318992D01*
X801160Y318992D01*
X803785Y320679D01*
X803785Y323210D01*
X803785Y325741D01*
X801160Y327429D01*
X798535Y327429D01*
X795911Y325741D01*
X795911Y323210D01*
X798535Y321523D01*
X801160Y321523D01*
X803785Y323210D01*
X815596Y323210D02*
X812971Y321523D01*
X810346Y321523D01*
X807722Y323210D01*
X807722Y325741D01*
X810346Y327429D01*
X812971Y327429D01*
X815596Y325741D01*
X814283Y324898D01*
X807722Y324898D01*
X819533Y321523D02*
X819533Y326585D01*
X819533Y327429D01*
X819533Y326585D02*
X820845Y327429D01*
X823470Y327429D01*
X824782Y326585D01*
X824782Y321523D01*
X839218Y323210D02*
X836593Y321523D01*
X833969Y321523D01*
X831344Y323210D01*
X831344Y324898D01*
X833969Y326585D01*
X836593Y326585D01*
X839218Y324898D01*
X839218Y329960D02*
X839218Y321523D01*

M02*
