G04 Generated by Ultiboard 13.0 *
%FSLAX25Y25*%
%MOIN*%

%ADD10C,0.00001*%
%ADD11C,0.00500*%
%ADD12C,0.08000*%
%ADD13C,0.03500*%
%ADD14R,0.06000X0.06000*%
%ADD15C,0.02000*%
%ADD16R,0.01402X0.02283*%
%ADD17R,0.03543X0.03543*%
%ADD18C,0.04000*%
%ADD19R,0.06496X0.10433*%
%ADD20R,0.10433X0.06496*%
%ADD21R,0.04331X0.04724*%
%ADD22R,0.05500X0.07100*%
%ADD23R,0.04000X0.05000*%
%ADD24R,0.05000X0.04000*%
%ADD25R,0.04083X0.04083*%
%ADD26C,0.03917*%
%ADD27R,0.06299X0.11811*%
%ADD28C,0.07166*%


G04 ColorRGB FF00CC for the following layer *
%LNSolder Mask Top*%
%LPD*%
G54D10*
G54D11*
X205000Y45535D02*
X205000Y74082D01*
X205000Y45535D02*
X229413Y45535D01*
X449126Y45535D02*
X424713Y45535D01*
X449126Y45535D02*
X449126Y74082D01*
X449126Y331000D02*
X449126Y302454D01*
X449126Y331000D02*
X424713Y331000D01*
X205000Y331000D02*
X229413Y331000D01*
X205000Y331000D02*
X205000Y302454D01*
X185315Y45535D02*
X145945Y45535D01*
X165630Y25850D02*
X165630Y65220D01*
X150866Y45535D02*
G75*
D01*
G02X150866Y45535I14764J0*
G01*
X468811Y45535D02*
X508181Y45535D01*
X488496Y25850D02*
X488496Y65220D01*
X473732Y45535D02*
G75*
D01*
G02X473732Y45535I14764J0*
G01*
X483575Y45535D02*
G75*
D01*
G02X483575Y45535I4921J0*
G01*
X185315Y331000D02*
X145945Y331000D01*
X165630Y311315D02*
X165630Y350685D01*
X150866Y331000D02*
G75*
D01*
G02X150866Y331000I14764J0*
G01*
X155787Y331000D02*
G75*
D01*
G02X155787Y331000I9843J0*
G01*
X160709Y331000D02*
G75*
D01*
G02X160709Y331000I4921J0*
G01*
G54D12*
X391000Y183000D03*
X295000Y205000D03*
X349000Y207000D03*
X306000Y245000D03*
X316000Y245000D03*
X366000Y252000D03*
X366000Y262000D03*
X315000Y155000D03*
X217000Y314000D03*
X385000Y221000D03*
X243000Y311000D03*
X261000Y252000D03*
X385000Y252000D03*
X278000Y311000D03*
X268000Y311000D03*
X351000Y173000D03*
X311000Y311000D03*
X301000Y311000D03*
X344000Y311000D03*
X334000Y311000D03*
X381000Y91000D03*
X367000Y110000D03*
X379000Y124000D03*
X351000Y161000D03*
X279000Y113000D03*
X266000Y140000D03*
X342000Y79400D03*
X352000Y79400D03*
X362000Y79400D03*
X322000Y79400D03*
X332000Y79400D03*
X312000Y79400D03*
X372000Y69400D03*
X342000Y69400D03*
X352000Y69400D03*
X362000Y69400D03*
X322000Y69400D03*
X332000Y69400D03*
X312000Y69400D03*
X292000Y79400D03*
X302000Y79400D03*
X282000Y79400D03*
X292000Y69400D03*
X302000Y69400D03*
X282000Y69400D03*
X387100Y306000D03*
X387100Y316000D03*
X407100Y306000D03*
X397100Y306000D03*
X397100Y316000D03*
X367100Y316000D03*
X367100Y306000D03*
X377100Y306000D03*
X377100Y316000D03*
X227000Y146000D03*
X217000Y146000D03*
X227000Y86000D03*
X217000Y86000D03*
X227000Y66000D03*
X227000Y76000D03*
X217000Y56000D03*
X217000Y66000D03*
X217000Y76000D03*
X227000Y116000D03*
X227000Y96000D03*
X227000Y106000D03*
X227000Y126000D03*
X227000Y136000D03*
X217000Y116000D03*
X217000Y106000D03*
X217000Y96000D03*
X217000Y136000D03*
X217000Y126000D03*
X227000Y276000D03*
X217000Y276000D03*
X227000Y216000D03*
X217000Y216000D03*
X227000Y206000D03*
X227000Y176000D03*
X227000Y156000D03*
X227000Y166000D03*
X227000Y196000D03*
X227000Y186000D03*
X217000Y166000D03*
X217000Y156000D03*
X217000Y176000D03*
X217000Y196000D03*
X217000Y186000D03*
X217000Y206000D03*
X227000Y236000D03*
X227000Y226000D03*
X227000Y256000D03*
X227000Y246000D03*
X227000Y266000D03*
X217000Y246000D03*
X217000Y226000D03*
X217000Y236000D03*
X217000Y256000D03*
X217000Y266000D03*
X227000Y286000D03*
X227000Y296000D03*
X217000Y286000D03*
X217000Y296000D03*
X427000Y56000D03*
X427000Y66000D03*
X437000Y66000D03*
X427000Y76000D03*
X437000Y76000D03*
X427000Y86000D03*
X437000Y86000D03*
X427000Y96000D03*
X437000Y96000D03*
X437000Y146000D03*
X427000Y146000D03*
X437000Y116000D03*
X437000Y106000D03*
X437000Y126000D03*
X437000Y136000D03*
X427000Y116000D03*
X427000Y106000D03*
X427000Y136000D03*
X427000Y126000D03*
X437000Y276000D03*
X427000Y276000D03*
X437000Y216000D03*
X427000Y216000D03*
X437000Y206000D03*
X437000Y176000D03*
X437000Y156000D03*
X437000Y166000D03*
X437000Y196000D03*
X437000Y186000D03*
X427000Y166000D03*
X427000Y156000D03*
X427000Y176000D03*
X427000Y196000D03*
X427000Y186000D03*
X427000Y206000D03*
X437000Y236000D03*
X437000Y226000D03*
X437000Y256000D03*
X437000Y246000D03*
X437000Y266000D03*
X427000Y246000D03*
X427000Y226000D03*
X427000Y236000D03*
X427000Y256000D03*
X427000Y266000D03*
X437000Y286000D03*
X437000Y296000D03*
X427000Y286000D03*
X427000Y296000D03*
X437000Y314000D03*
X271000Y61000D03*
X280000Y270000D03*
X286000Y151000D03*
X286000Y252000D03*
G54D13*
X338000Y231000D03*
X331000Y273000D03*
X323000Y201000D03*
X276000Y130000D03*
X331000Y110000D03*
X285000Y138000D03*
X321000Y123000D03*
X315000Y115000D03*
X252000Y105000D03*
X331000Y134000D03*
X301000Y224000D03*
G54D14*
X227000Y314000D03*
X253000Y311000D03*
X261000Y262000D03*
X385000Y262000D03*
X288000Y311000D03*
X351000Y183000D03*
X321000Y311000D03*
X354000Y311000D03*
X427000Y314000D03*
X286000Y242000D03*
G54D15*
X224000Y311000D02*
X230000Y311000D01*
X230000Y317000D01*
X224000Y317000D01*
X224000Y311000D01*D02*
X250000Y308000D02*
X256000Y308000D01*
X256000Y314000D01*
X250000Y314000D01*
X250000Y308000D01*D02*
X258000Y259000D02*
X264000Y259000D01*
X264000Y265000D01*
X258000Y265000D01*
X258000Y259000D01*D02*
X382000Y259000D02*
X388000Y259000D01*
X388000Y265000D01*
X382000Y265000D01*
X382000Y259000D01*D02*
X285000Y308000D02*
X291000Y308000D01*
X291000Y314000D01*
X285000Y314000D01*
X285000Y308000D01*D02*
X348000Y180000D02*
X354000Y180000D01*
X354000Y186000D01*
X348000Y186000D01*
X348000Y180000D01*D02*
X318000Y308000D02*
X324000Y308000D01*
X324000Y314000D01*
X318000Y314000D01*
X318000Y308000D01*D02*
X351000Y308000D02*
X357000Y308000D01*
X357000Y314000D01*
X351000Y314000D01*
X351000Y308000D01*D02*
X424000Y311000D02*
X430000Y311000D01*
X430000Y317000D01*
X424000Y317000D01*
X424000Y311000D01*D02*
X283000Y239000D02*
X289000Y239000D01*
X289000Y245000D01*
X283000Y245000D01*
X283000Y239000D01*D02*
G54D16*
X335969Y244150D03*
X332031Y244150D03*
X334000Y237850D03*
G54D17*
X331685Y264740D03*
X342315Y261000D03*
X331685Y257260D03*
G54D18*
X367000Y118000D03*
G54D19*
X315000Y168300D03*
X315000Y182700D03*
X306000Y129300D03*
X306000Y143700D03*
X366000Y221300D03*
X366000Y235700D03*
X339000Y133300D03*
X339000Y147700D03*
X357000Y133300D03*
X357000Y147700D03*
G54D20*
X341300Y110000D03*
X355700Y110000D03*
X319300Y225000D03*
X333700Y225000D03*
G54D21*
X262544Y124027D03*
X270811Y124027D03*
X262544Y130326D03*
X270811Y130326D03*
G54D22*
X368200Y183000D03*
X380800Y183000D03*
G54D23*
X258200Y117000D03*
X265900Y117000D03*
X336200Y215000D03*
X343900Y215000D03*
X332200Y251000D03*
X339900Y251000D03*
G54D24*
X293000Y130200D03*
X293000Y137900D03*
X237000Y285800D03*
X237000Y278100D03*
X286000Y191100D03*
X286000Y198800D03*
G54D25*
X372000Y79400D03*
X407100Y316000D03*
X227000Y56000D03*
X437000Y56000D03*
G54D26*
X369959Y77359D02*
X374041Y77359D01*
X374041Y81441D01*
X369959Y81441D01*
X369959Y77359D01*D02*
X405059Y313959D02*
X409141Y313959D01*
X409141Y318041D01*
X405059Y318041D01*
X405059Y313959D01*D02*
X224959Y53959D02*
X229041Y53959D01*
X229041Y58041D01*
X224959Y58041D01*
X224959Y53959D01*D02*
X434959Y53959D02*
X439041Y53959D01*
X439041Y58041D01*
X434959Y58041D01*
X434959Y53959D01*D02*
G54D27*
X286000Y163542D03*
X286000Y181258D03*
X286000Y210542D03*
X286000Y228258D03*
G54D28*
X261000Y215000D03*
X261000Y235000D03*
X261000Y225000D03*

M02*
