G04 Generated by Ultiboard 13.0 *
%FSLAX25Y25*%
%MOIN*%

%ADD11C,0.04000*%
%ADD12C,0.03600*%
%ADD13C,0.01500*%
%ADD14C,0.02000*%
%ADD15C,0.03500*%


G04 ColorRGB 000000 for the following layer *
%LNDrill-Copper Top-Copper Bottom*%
%LPD*%
G54D11*
X391000Y183000D03*
X306000Y245000D03*
X366000Y252000D03*
X366000Y262000D03*
X315000Y155000D03*
X227000Y314000D03*
X217000Y314000D03*
X253000Y311000D03*
X243000Y311000D03*
X261000Y262000D03*
X261000Y252000D03*
X385000Y262000D03*
X385000Y252000D03*
X288000Y311000D03*
X278000Y311000D03*
X268000Y311000D03*
X351000Y183000D03*
X351000Y173000D03*
X321000Y311000D03*
X311000Y311000D03*
X301000Y311000D03*
X354000Y311000D03*
X344000Y311000D03*
X334000Y311000D03*
X351000Y161000D03*
X266000Y140000D03*
X372000Y79400D03*
X342000Y79400D03*
X352000Y79400D03*
X362000Y79400D03*
X322000Y79400D03*
X332000Y79400D03*
X312000Y79400D03*
X372000Y69400D03*
X342000Y69400D03*
X352000Y69400D03*
X362000Y69400D03*
X322000Y69400D03*
X332000Y69400D03*
X312000Y69400D03*
X292000Y79400D03*
X302000Y79400D03*
X282000Y79400D03*
X292000Y69400D03*
X302000Y69400D03*
X282000Y69400D03*
X387100Y306000D03*
X387100Y316000D03*
X407100Y306000D03*
X407100Y316000D03*
X397100Y306000D03*
X397100Y316000D03*
X367100Y316000D03*
X367100Y306000D03*
X377100Y306000D03*
X377100Y316000D03*
X227000Y146000D03*
X217000Y146000D03*
X227000Y86000D03*
X217000Y86000D03*
X227000Y66000D03*
X227000Y56000D03*
X227000Y76000D03*
X217000Y56000D03*
X217000Y66000D03*
X217000Y76000D03*
X227000Y116000D03*
X227000Y96000D03*
X227000Y106000D03*
X227000Y126000D03*
X227000Y136000D03*
X217000Y116000D03*
X217000Y106000D03*
X217000Y96000D03*
X217000Y136000D03*
X217000Y126000D03*
X227000Y276000D03*
X217000Y276000D03*
X227000Y216000D03*
X217000Y216000D03*
X227000Y206000D03*
X227000Y176000D03*
X227000Y156000D03*
X227000Y166000D03*
X227000Y196000D03*
X227000Y186000D03*
X217000Y166000D03*
X217000Y156000D03*
X217000Y176000D03*
X217000Y196000D03*
X217000Y186000D03*
X217000Y206000D03*
X227000Y236000D03*
X227000Y226000D03*
X227000Y256000D03*
X227000Y246000D03*
X227000Y266000D03*
X217000Y246000D03*
X217000Y226000D03*
X217000Y236000D03*
X217000Y256000D03*
X217000Y266000D03*
X227000Y286000D03*
X227000Y296000D03*
X217000Y286000D03*
X217000Y296000D03*
X427000Y56000D03*
X437000Y56000D03*
X427000Y66000D03*
X437000Y66000D03*
X427000Y76000D03*
X437000Y76000D03*
X427000Y86000D03*
X437000Y86000D03*
X427000Y96000D03*
X437000Y96000D03*
X437000Y146000D03*
X427000Y146000D03*
X437000Y116000D03*
X437000Y106000D03*
X437000Y126000D03*
X437000Y136000D03*
X427000Y116000D03*
X427000Y106000D03*
X427000Y136000D03*
X427000Y126000D03*
X437000Y276000D03*
X427000Y276000D03*
X437000Y216000D03*
X427000Y216000D03*
X437000Y206000D03*
X437000Y176000D03*
X437000Y156000D03*
X437000Y166000D03*
X437000Y196000D03*
X437000Y186000D03*
X427000Y166000D03*
X427000Y156000D03*
X427000Y176000D03*
X427000Y196000D03*
X427000Y186000D03*
X427000Y206000D03*
X437000Y236000D03*
X437000Y226000D03*
X437000Y256000D03*
X437000Y246000D03*
X437000Y266000D03*
X427000Y246000D03*
X427000Y226000D03*
X427000Y236000D03*
X427000Y256000D03*
X427000Y266000D03*
X437000Y286000D03*
X437000Y296000D03*
X427000Y286000D03*
X427000Y296000D03*
X427000Y314000D03*
X437000Y314000D03*
X280000Y270000D03*
X286000Y151000D03*
X286000Y242000D03*
X286000Y252000D03*
G54D12*
X295000Y205000D03*
X349000Y207000D03*
X316000Y245000D03*
X385000Y221000D03*
X381000Y91000D03*
X367000Y110000D03*
X379000Y124000D03*
X279000Y113000D03*
X271000Y61000D03*
G54D13*
X338000Y231000D03*
X331000Y273000D03*
X323000Y201000D03*
X276000Y130000D03*
X331000Y110000D03*
X285000Y138000D03*
X321000Y123000D03*
X315000Y115000D03*
X252000Y105000D03*
X331000Y134000D03*
X301000Y224000D03*
G54D14*
X367000Y118000D03*
G54D15*
X261000Y215000D03*
X261000Y235000D03*
X261000Y225000D03*

M02*
