G04 Generated by Ultiboard 13.0 *
%FSLAX25Y25*%
%MOIN*%

%ADD10C,0.00001*%
%ADD11C,0.03000*%
%ADD12C,0.01000*%
%ADD13C,0.02000*%
%ADD14C,0.00500*%
%ADD15C,0.08000*%
%ADD16C,0.03500*%
%ADD17R,0.06000X0.06000*%
%ADD18C,0.02000*%
%ADD19R,0.06102X0.02362*%
%ADD20R,0.04724X0.08661*%
%ADD21R,0.13000X0.08600*%
%ADD22R,0.04724X0.00984*%
%ADD23C,0.04000*%
%ADD24R,0.04000X0.05000*%
%ADD25R,0.08600X0.13000*%
%ADD26R,0.08661X0.04724*%
%ADD27R,0.05000X0.04000*%
%ADD28R,0.04083X0.04083*%
%ADD29C,0.03917*%
%ADD30C,0.07166*%


G04 ColorRGB 0000FF for the following layer *
%LNCopper Bottom*%
%LPD*%
G54D10*
G54D11*
X295000Y205000D02*
X295000Y196000D01*
X316000Y245000D02*
X316000Y196000D01*
X330100Y213000D02*
X330100Y196100D01*
X375000Y196000D02*
X375000Y216626D01*
X385000Y202000D02*
X379000Y196000D01*
X385000Y252000D02*
X385000Y202000D01*
X349000Y207000D02*
X363100Y207000D01*
X356945Y216681D02*
X356945Y207055D01*
X370800Y207000D02*
X375000Y207000D01*
X366000Y216681D02*
X366000Y237381D01*
X325764Y242000D02*
X325764Y237000D01*
X325764Y267000D02*
X325764Y262000D01*
X346236Y267000D02*
X346236Y262000D01*
X231000Y327000D02*
X227000Y323000D01*
X227000Y314000D02*
X227000Y323000D01*
X253000Y311000D02*
X253000Y327000D01*
X288000Y311000D02*
X288000Y327000D01*
X321000Y311000D02*
X321000Y327000D01*
X354000Y311000D02*
X354000Y327000D01*
X268000Y311000D02*
X268000Y297000D01*
X272000Y293000D01*
X301000Y311000D02*
X301000Y293000D01*
X272000Y293000D02*
X301000Y293000D01*
X302000Y293000D02*
X407100Y293000D01*
X334000Y311000D02*
X334000Y294000D01*
X335000Y293000D01*
X282000Y61000D02*
X282000Y69400D01*
X288000Y55000D02*
X282000Y61000D01*
X295600Y91000D02*
X292000Y87400D01*
X292000Y79400D01*
X381000Y91000D02*
X295600Y91000D01*
X407100Y60100D02*
X402000Y55000D01*
X407100Y60100D02*
X407100Y306000D01*
X402000Y55000D02*
X288000Y55000D01*
X338306Y133118D02*
X359006Y133118D01*
X338850Y116950D02*
X338850Y103150D01*
X331200Y123000D02*
X331200Y117000D01*
X359006Y124063D02*
X366000Y124063D01*
X378937Y124063D01*
X368687Y130218D02*
X368687Y124376D01*
X385000Y103000D02*
X389000Y107000D01*
X330000Y167000D02*
X330000Y196000D01*
X336000Y161000D02*
X330000Y167000D01*
X336000Y161000D02*
X407100Y161000D01*
X326200Y143000D02*
X326200Y149200D01*
X329000Y152000D01*
X383000Y152000D02*
X389000Y146000D01*
X329000Y152000D02*
X383000Y152000D01*
X389000Y107000D02*
X389000Y146000D01*
X351000Y145179D02*
X354006Y142173D01*
X359006Y142173D01*
X368687Y137918D02*
X364432Y142173D01*
X359006Y142173D01*
X325000Y117000D02*
X325000Y103000D01*
X385000Y103000D02*
X367000Y103000D01*
X366121Y103000D02*
X367000Y103879D01*
X367000Y110000D02*
X367000Y103879D01*
X366121Y103000D02*
X289000Y103000D01*
X279000Y113000D01*
X227000Y296000D02*
X227000Y304800D01*
X427000Y314000D02*
X416000Y314000D01*
X415500Y322500D02*
X411000Y327000D01*
X231000Y327000D01*
X437000Y286000D02*
X437000Y305800D01*
X420000Y286000D02*
X415500Y290500D01*
X427000Y286000D02*
X420000Y286000D01*
X415500Y290500D02*
X415500Y322500D01*
X351000Y145179D02*
X351000Y173000D01*
X217000Y286000D02*
X212000Y286000D01*
X209000Y283000D01*
X209000Y53000D01*
X212500Y49500D01*
X254500Y49500D01*
X266000Y61000D01*
X271000Y61000D02*
X266000Y61000D01*
X246000Y249000D02*
X246000Y203000D01*
X253000Y196000D01*
X249000Y252000D02*
X246000Y249000D01*
X261000Y235000D02*
X246000Y235000D01*
X279000Y207200D02*
X279000Y197000D01*
X278000Y196000D01*
X253000Y196000D02*
X379000Y196000D01*
X261000Y225000D02*
X284000Y225000D01*
X286000Y227000D01*
X276000Y252000D02*
X286000Y252000D01*
X249000Y252000D02*
X275000Y252000D01*
X283000Y225000D02*
X286000Y228000D01*
X286000Y227000D01*
X286000Y242000D02*
X286000Y229000D01*
G54D12*
X337800Y213000D02*
X349000Y213000D01*
X337800Y213000D02*
X337800Y218600D01*
X338200Y213400D02*
X337800Y213000D01*
X349000Y213000D02*
X352000Y216000D01*
X352000Y240000D02*
X352000Y216000D01*
X338100Y225000D02*
X338100Y230900D01*
X337800Y218600D02*
X338200Y219000D01*
X346236Y237000D02*
X346236Y219336D01*
X345900Y219000D01*
X338000Y243000D02*
X338000Y231000D01*
X350000Y242000D02*
X352000Y240000D01*
X345900Y236664D02*
X346236Y237000D01*
X325764Y247000D02*
X334000Y247000D01*
X338000Y243000D01*
X346236Y247000D02*
X339000Y247000D01*
X337100Y248900D02*
X337100Y273000D01*
X339000Y247000D02*
X337100Y248900D01*
X346236Y242000D02*
X350000Y242000D01*
X337100Y273000D02*
X331000Y273000D01*
X346236Y271564D02*
X344800Y273000D01*
X346236Y267000D02*
X346236Y271564D01*
X325764Y237000D02*
X325764Y219764D01*
X323000Y217000D01*
X323000Y201000D02*
X323000Y217000D01*
X315000Y155000D02*
X315000Y141933D01*
X315417Y141516D01*
X234000Y196000D02*
X227000Y196000D01*
X232000Y186000D02*
X227000Y186000D01*
X292583Y131280D02*
X281720Y131280D01*
X292583Y128720D02*
X277280Y128720D01*
X276000Y130000D02*
X277280Y128720D01*
X281720Y131280D02*
X279500Y133500D01*
X292583Y121043D02*
X315417Y121043D01*
X303978Y121022D02*
X304000Y121043D01*
X302441Y118484D02*
X303978Y120022D01*
X292583Y118484D02*
X302441Y118484D01*
X303978Y121022D02*
X303978Y120022D01*
X337585Y133839D02*
X338306Y133118D01*
X306839Y133839D02*
X337585Y133839D01*
X306839Y133839D02*
X303978Y130978D01*
X303978Y121022D02*
X303978Y130978D01*
X323280Y128720D02*
X325000Y127000D01*
X315417Y128720D02*
X323280Y128720D01*
X331000Y110000D02*
X331000Y117000D01*
X315417Y136398D02*
X324398Y136398D01*
X326000Y138000D01*
X326000Y142800D01*
X326200Y143000D01*
X292583Y133839D02*
X283161Y133839D01*
X292583Y136398D02*
X286602Y136398D01*
X285000Y138000D02*
X286602Y136398D01*
X315417Y126161D02*
X303978Y126161D01*
X325000Y117000D02*
X325000Y127000D01*
X315417Y118484D02*
X324484Y118484D01*
X325000Y119000D01*
X227000Y176000D02*
X232000Y176000D01*
X234000Y174000D01*
X236000Y182000D02*
X232000Y186000D01*
X238000Y192000D02*
X234000Y196000D01*
X321000Y123000D02*
X320398Y123602D01*
X315417Y123602D01*
X315000Y115000D02*
X288000Y115000D01*
X282000Y121000D01*
X283161Y133839D02*
X277000Y140000D01*
X266000Y140000D01*
X217000Y314000D02*
X217000Y307100D01*
X219100Y305000D01*
X437000Y314000D02*
X444000Y314000D01*
X445000Y313000D01*
X445000Y268000D02*
X443000Y266000D01*
X437000Y266000D01*
X445000Y268000D02*
X445000Y313000D01*
X252000Y59000D02*
X252000Y105000D01*
X252000Y59000D02*
X249000Y56000D01*
X227000Y56000D02*
X249000Y56000D01*
X282000Y79400D02*
X252400Y79400D01*
X252000Y79000D01*
X240000Y202000D02*
X236000Y206000D01*
X227000Y206000D01*
X240000Y136793D02*
X243293Y133500D01*
X279500Y133500D01*
X240000Y136793D02*
X240000Y202000D01*
X238000Y129454D02*
X241293Y126161D01*
X292583Y126161D02*
X241293Y126161D01*
X238000Y129454D02*
X238000Y192000D01*
X236000Y126895D02*
X239293Y123602D01*
X292583Y123602D02*
X239293Y123602D01*
X236000Y126895D02*
X236000Y182000D01*
X237000Y121000D02*
X234000Y124000D01*
X234000Y174000D02*
X234000Y124000D01*
X282000Y121000D02*
X237000Y121000D01*
X357000Y262000D02*
X352000Y257000D01*
X385000Y262000D02*
X357000Y262000D01*
X352000Y257000D02*
X346236Y257000D01*
X327720Y131280D02*
X331200Y127800D01*
X331200Y123000D02*
X331200Y127800D01*
X315417Y131280D02*
X327720Y131280D01*
X325764Y262000D02*
X261000Y262000D01*
X280000Y270000D02*
X280000Y262000D01*
X299000Y226000D02*
X301000Y224000D01*
X301000Y257000D02*
X299000Y255000D01*
X299000Y226000D02*
X299000Y255000D01*
X325764Y257000D02*
X301000Y257000D01*
X288484Y141516D02*
X286000Y144000D01*
X286000Y151000D01*
X292583Y141516D02*
X288484Y141516D01*
G54D13*
X366000Y237381D02*
X366000Y252000D01*
X308000Y252000D02*
X306000Y250000D01*
X325764Y252000D02*
X308000Y252000D01*
X346236Y252000D02*
X366000Y252000D01*
X339487Y133618D02*
X338987Y133118D01*
X336000Y143000D02*
X338306Y140694D01*
X333900Y143000D02*
X336000Y143000D01*
X338306Y140694D02*
X338306Y133118D01*
X338306Y133118D02*
X338306Y123594D01*
X338900Y123000D01*
X350000Y118000D02*
X367000Y118000D01*
X348000Y120000D02*
X350000Y118000D01*
X348000Y133118D02*
X348000Y120000D01*
X261000Y215000D02*
X303000Y215000D01*
X306000Y218000D01*
X306000Y250000D01*
G54D14*
X205000Y45535D02*
X205000Y74082D01*
X205000Y45535D02*
X229413Y45535D01*
X449126Y45535D02*
X424713Y45535D01*
X449126Y45535D02*
X449126Y74082D01*
X449126Y331000D02*
X449126Y302454D01*
X449126Y331000D02*
X424713Y331000D01*
X205000Y331000D02*
X229413Y331000D01*
X205000Y331000D02*
X205000Y302454D01*
X185315Y45535D02*
X145945Y45535D01*
X165630Y25850D02*
X165630Y65220D01*
X150866Y45535D02*
G75*
D01*
G02X150866Y45535I14764J0*
G01*
X468811Y45535D02*
X508181Y45535D01*
X488496Y25850D02*
X488496Y65220D01*
X473732Y45535D02*
G75*
D01*
G02X473732Y45535I14764J0*
G01*
X483575Y45535D02*
G75*
D01*
G02X483575Y45535I4921J0*
G01*
X185315Y331000D02*
X145945Y331000D01*
X165630Y311315D02*
X165630Y350685D01*
X150866Y331000D02*
G75*
D01*
G02X150866Y331000I14764J0*
G01*
X155787Y331000D02*
G75*
D01*
G02X155787Y331000I9843J0*
G01*
X160709Y331000D02*
G75*
D01*
G02X160709Y331000I4921J0*
G01*
G54D15*
X391000Y183000D03*
X295000Y205000D03*
X349000Y207000D03*
X306000Y245000D03*
X316000Y245000D03*
X366000Y252000D03*
X366000Y262000D03*
X315000Y155000D03*
X217000Y314000D03*
X385000Y221000D03*
X243000Y311000D03*
X261000Y252000D03*
X385000Y252000D03*
X278000Y311000D03*
X268000Y311000D03*
X351000Y173000D03*
X311000Y311000D03*
X301000Y311000D03*
X344000Y311000D03*
X334000Y311000D03*
X381000Y91000D03*
X367000Y110000D03*
X379000Y124000D03*
X351000Y161000D03*
X279000Y113000D03*
X266000Y140000D03*
X342000Y79400D03*
X352000Y79400D03*
X362000Y79400D03*
X322000Y79400D03*
X332000Y79400D03*
X312000Y79400D03*
X372000Y69400D03*
X342000Y69400D03*
X352000Y69400D03*
X362000Y69400D03*
X322000Y69400D03*
X332000Y69400D03*
X312000Y69400D03*
X292000Y79400D03*
X302000Y79400D03*
X282000Y79400D03*
X292000Y69400D03*
X302000Y69400D03*
X282000Y69400D03*
X387100Y306000D03*
X387100Y316000D03*
X407100Y306000D03*
X397100Y306000D03*
X397100Y316000D03*
X367100Y316000D03*
X367100Y306000D03*
X377100Y306000D03*
X377100Y316000D03*
X227000Y146000D03*
X217000Y146000D03*
X227000Y86000D03*
X217000Y86000D03*
X227000Y66000D03*
X227000Y76000D03*
X217000Y56000D03*
X217000Y66000D03*
X217000Y76000D03*
X227000Y116000D03*
X227000Y96000D03*
X227000Y106000D03*
X227000Y126000D03*
X227000Y136000D03*
X217000Y116000D03*
X217000Y106000D03*
X217000Y96000D03*
X217000Y136000D03*
X217000Y126000D03*
X227000Y276000D03*
X217000Y276000D03*
X227000Y216000D03*
X217000Y216000D03*
X227000Y206000D03*
X227000Y176000D03*
X227000Y156000D03*
X227000Y166000D03*
X227000Y196000D03*
X227000Y186000D03*
X217000Y166000D03*
X217000Y156000D03*
X217000Y176000D03*
X217000Y196000D03*
X217000Y186000D03*
X217000Y206000D03*
X227000Y236000D03*
X227000Y226000D03*
X227000Y256000D03*
X227000Y246000D03*
X227000Y266000D03*
X217000Y246000D03*
X217000Y226000D03*
X217000Y236000D03*
X217000Y256000D03*
X217000Y266000D03*
X227000Y286000D03*
X227000Y296000D03*
X217000Y286000D03*
X217000Y296000D03*
X427000Y56000D03*
X427000Y66000D03*
X437000Y66000D03*
X427000Y76000D03*
X437000Y76000D03*
X427000Y86000D03*
X437000Y86000D03*
X427000Y96000D03*
X437000Y96000D03*
X437000Y146000D03*
X427000Y146000D03*
X437000Y116000D03*
X437000Y106000D03*
X437000Y126000D03*
X437000Y136000D03*
X427000Y116000D03*
X427000Y106000D03*
X427000Y136000D03*
X427000Y126000D03*
X437000Y276000D03*
X427000Y276000D03*
X437000Y216000D03*
X427000Y216000D03*
X437000Y206000D03*
X437000Y176000D03*
X437000Y156000D03*
X437000Y166000D03*
X437000Y196000D03*
X437000Y186000D03*
X427000Y166000D03*
X427000Y156000D03*
X427000Y176000D03*
X427000Y196000D03*
X427000Y186000D03*
X427000Y206000D03*
X437000Y236000D03*
X437000Y226000D03*
X437000Y256000D03*
X437000Y246000D03*
X437000Y266000D03*
X427000Y246000D03*
X427000Y226000D03*
X427000Y236000D03*
X427000Y256000D03*
X427000Y266000D03*
X437000Y286000D03*
X437000Y296000D03*
X427000Y286000D03*
X427000Y296000D03*
X437000Y314000D03*
X271000Y61000D03*
X280000Y270000D03*
X286000Y151000D03*
X286000Y252000D03*
G54D16*
X338000Y231000D03*
X331000Y273000D03*
X323000Y201000D03*
X276000Y130000D03*
X331000Y110000D03*
X285000Y138000D03*
X321000Y123000D03*
X315000Y115000D03*
X252000Y105000D03*
X331000Y134000D03*
X301000Y224000D03*
G54D17*
X227000Y314000D03*
X253000Y311000D03*
X261000Y262000D03*
X385000Y262000D03*
X288000Y311000D03*
X351000Y183000D03*
X321000Y311000D03*
X354000Y311000D03*
X427000Y314000D03*
X286000Y242000D03*
G54D18*
X224000Y311000D02*
X230000Y311000D01*
X230000Y317000D01*
X224000Y317000D01*
X224000Y311000D01*D02*
X250000Y308000D02*
X256000Y308000D01*
X256000Y314000D01*
X250000Y314000D01*
X250000Y308000D01*D02*
X258000Y259000D02*
X264000Y259000D01*
X264000Y265000D01*
X258000Y265000D01*
X258000Y259000D01*D02*
X382000Y259000D02*
X388000Y259000D01*
X388000Y265000D01*
X382000Y265000D01*
X382000Y259000D01*D02*
X285000Y308000D02*
X291000Y308000D01*
X291000Y314000D01*
X285000Y314000D01*
X285000Y308000D01*D02*
X348000Y180000D02*
X354000Y180000D01*
X354000Y186000D01*
X348000Y186000D01*
X348000Y180000D01*D02*
X318000Y308000D02*
X324000Y308000D01*
X324000Y314000D01*
X318000Y314000D01*
X318000Y308000D01*D02*
X351000Y308000D02*
X357000Y308000D01*
X357000Y314000D01*
X351000Y314000D01*
X351000Y308000D01*D02*
X424000Y311000D02*
X430000Y311000D01*
X430000Y317000D01*
X424000Y317000D01*
X424000Y311000D01*D02*
X283000Y239000D02*
X289000Y239000D01*
X289000Y245000D01*
X283000Y245000D01*
X283000Y239000D01*D02*
G54D19*
X325764Y237000D03*
X346236Y237000D03*
X325764Y242000D03*
X346236Y242000D03*
X325764Y247000D03*
X325764Y252000D03*
X346236Y247000D03*
X346236Y252000D03*
X325764Y257000D03*
X325764Y262000D03*
X346236Y257000D03*
X346236Y262000D03*
X325764Y267000D03*
X346236Y267000D03*
G54D20*
X356945Y216681D03*
X366000Y216681D03*
X375055Y216681D03*
G54D21*
X366000Y237381D03*
G54D22*
X292583Y118484D03*
X315417Y118484D03*
X292583Y121043D03*
X292583Y126161D03*
X292583Y123602D03*
X315417Y121043D03*
X315417Y126161D03*
X315417Y123602D03*
X292583Y128720D03*
X292583Y133839D03*
X292583Y131280D03*
X315417Y128720D03*
X315417Y133839D03*
X315417Y131280D03*
X292583Y136398D03*
X292583Y141516D03*
X292583Y138957D03*
X315417Y136398D03*
X315417Y141516D03*
X315417Y138957D03*
G54D23*
X367000Y118000D03*
G54D24*
X330100Y213000D03*
X337800Y213000D03*
X338200Y219000D03*
X345900Y219000D03*
X331150Y116950D03*
X338850Y116950D03*
X331200Y123000D03*
X338900Y123000D03*
X326200Y143000D03*
X333900Y143000D03*
X338100Y225000D03*
X345800Y225000D03*
X344800Y273000D03*
X337100Y273000D03*
X363100Y207000D03*
X370800Y207000D03*
X437200Y306000D03*
X444900Y306000D03*
X219100Y305000D03*
X226800Y305000D03*
G54D25*
X338306Y133118D03*
G54D26*
X359006Y124063D03*
X359006Y133118D03*
X359006Y142173D03*
G54D27*
X368687Y130218D03*
X368687Y137918D03*
X279000Y207200D03*
X279000Y214900D03*
G54D28*
X372000Y79400D03*
X407100Y316000D03*
X227000Y56000D03*
X437000Y56000D03*
G54D29*
X369959Y77359D02*
X374041Y77359D01*
X374041Y81441D01*
X369959Y81441D01*
X369959Y77359D01*D02*
X405059Y313959D02*
X409141Y313959D01*
X409141Y318041D01*
X405059Y318041D01*
X405059Y313959D01*D02*
X224959Y53959D02*
X229041Y53959D01*
X229041Y58041D01*
X224959Y58041D01*
X224959Y53959D01*D02*
X434959Y53959D02*
X439041Y53959D01*
X439041Y58041D01*
X434959Y58041D01*
X434959Y53959D01*D02*
G54D30*
X261000Y215000D03*
X261000Y235000D03*
X261000Y225000D03*

M02*
