G04 Generated by Ultiboard 13.0 *
%FSLAX25Y25*%
%MOIN*%

%ADD10C,0.00001*%
%ADD11C,0.00800*%
%ADD12C,0.00667*%
%ADD13C,0.00100*%
%ADD14C,0.00500*%


G04 ColorRGB FF14FF for the following layer *
%LNSilkscreen Bottom*%
%LPD*%
G54D10*
G54D11*
X343650Y269000D02*
X343650Y235000D01*
X328350Y235000D01*
X328350Y269000D01*
X341373Y266128D02*
G75*
D01*
G02X341373Y266128I985J0*
G01*
X334031Y269000D02*
X334039Y268828D01*
X334061Y268658D01*
X334099Y268491D01*
X334150Y268327D01*
X334216Y268168D01*
X334295Y268016D01*
X334387Y267871D01*
X334492Y267735D01*
X334608Y267608D01*
X334735Y267492D01*
X334871Y267387D01*
X335016Y267295D01*
X335168Y267216D01*
X335327Y267150D01*
X335491Y267099D01*
X335658Y267061D01*
X335828Y267039D01*
X336000Y267031D01*
X336172Y267039D01*
X336342Y267061D01*
X336509Y267099D01*
X336673Y267150D01*
X336832Y267216D01*
X336984Y267295D01*
X337129Y267387D01*
X337265Y267492D01*
X337392Y267608D01*
X337508Y267735D01*
X337613Y267871D01*
X337705Y268016D01*
X337784Y268168D01*
X337850Y268327D01*
X337901Y268491D01*
X337939Y268658D01*
X337961Y268828D01*
X337969Y269000D01*
X328350Y269000D02*
X334031Y269000D01*
X337969Y269000D02*
X343650Y269000D01*
X378795Y220141D02*
X353205Y220141D01*
X353205Y233920D01*
X378795Y233920D01*
X378795Y220141D01*
X312858Y142992D02*
X312858Y117008D01*
X295142Y117008D01*
X295142Y142992D01*
X302031Y142992D02*
X302039Y142821D01*
X302061Y142650D01*
X302099Y142483D01*
X302150Y142319D01*
X302216Y142160D01*
X302295Y142008D01*
X302387Y141863D01*
X302492Y141727D01*
X302608Y141600D01*
X302735Y141484D01*
X302871Y141380D01*
X303016Y141287D01*
X303168Y141208D01*
X303327Y141142D01*
X303491Y141091D01*
X303658Y141054D01*
X303828Y141031D01*
X304000Y141024D01*
X304172Y141031D01*
X304342Y141054D01*
X304509Y141091D01*
X304673Y141142D01*
X304832Y141208D01*
X304984Y141287D01*
X305129Y141380D01*
X305265Y141484D01*
X305392Y141600D01*
X305508Y141727D01*
X305613Y141863D01*
X305705Y142008D01*
X305784Y142160D01*
X305850Y142319D01*
X305901Y142483D01*
X305939Y142650D01*
X305961Y142821D01*
X305969Y142992D01*
X295142Y142992D02*
X302031Y142992D01*
X305969Y142992D02*
X312858Y142992D01*
X355546Y145913D02*
X355546Y120323D01*
X341766Y120323D01*
X341766Y145913D01*
X355546Y145913D01*
X446663Y298669D02*
X446663Y302606D01*
X445095Y302606D01*
X444311Y301819D01*
X444311Y301425D01*
X445095Y300638D01*
X446663Y300638D01*
X446271Y300638D02*
X444311Y298669D01*
X441568Y298669D02*
X442352Y298669D01*
X443136Y299457D01*
X443136Y300244D01*
X442744Y300638D01*
X443136Y301031D01*
X443136Y301819D01*
X442352Y302606D01*
X441568Y302606D01*
X440784Y301819D01*
X440784Y301031D01*
X441176Y300638D01*
X440784Y300244D01*
X440784Y299457D01*
X441568Y298669D01*
X442744Y300638D02*
X441176Y300638D01*
X235663Y303669D02*
X235663Y307606D01*
X234095Y307606D01*
X233311Y306819D01*
X233311Y306425D01*
X234095Y305638D01*
X235663Y305638D01*
X235271Y305638D02*
X233311Y303669D01*
X232136Y304457D02*
X231352Y303669D01*
X230568Y303669D01*
X229784Y304457D01*
X229784Y306031D01*
X229784Y306819D01*
X230568Y307606D01*
X231352Y307606D01*
X232136Y306819D01*
X232136Y306031D01*
X231352Y305244D01*
X230568Y305244D01*
X229784Y306031D01*
G54D12*
X328413Y274571D02*
X328413Y271143D01*
X327560Y270286D01*
X326707Y270286D01*
X325853Y271143D01*
X325853Y274571D01*
X322013Y274571D02*
X324573Y274571D01*
X324573Y272857D01*
X322867Y272857D01*
X322013Y272000D01*
X322013Y271143D01*
X322867Y270286D01*
X324573Y270286D01*
X340488Y205063D02*
X340488Y209348D01*
X338781Y209348D01*
X337928Y208491D01*
X337928Y208063D01*
X338781Y207206D01*
X340488Y207206D01*
X340061Y207206D02*
X337928Y205063D01*
X336648Y208491D02*
X335794Y209348D01*
X334941Y209348D01*
X334088Y208491D01*
X334088Y208063D01*
X336648Y205063D01*
X334088Y205063D01*
X334088Y205491D01*
X335941Y216530D02*
X335941Y220816D01*
X334234Y220816D01*
X333381Y219958D01*
X333381Y219530D01*
X334234Y218673D01*
X335941Y218673D01*
X335514Y218673D02*
X333381Y216530D01*
X330821Y216530D02*
X330821Y218673D01*
X329541Y219958D01*
X329541Y220816D01*
X332101Y220816D01*
X332101Y219958D01*
X363253Y149571D02*
X363253Y146143D01*
X362400Y145286D01*
X361547Y145286D01*
X360693Y146143D01*
X360693Y149571D01*
X356853Y147000D02*
X359413Y147000D01*
X357280Y149571D01*
X357280Y145286D01*
X357707Y145286D02*
X356853Y145286D01*
X312253Y148571D02*
X312253Y145143D01*
X311400Y144286D01*
X310547Y144286D01*
X309693Y145143D01*
X309693Y148571D01*
X307987Y148143D02*
X307560Y148571D01*
X306707Y148571D01*
X305853Y147714D01*
X305853Y146857D01*
X306280Y146429D01*
X305853Y146000D01*
X305853Y145143D01*
X306707Y144286D01*
X307560Y144286D01*
X307987Y144714D01*
X307560Y146429D02*
X306280Y146429D01*
X296253Y247571D02*
X296253Y244143D01*
X295400Y243286D01*
X294547Y243286D01*
X293693Y244143D01*
X293693Y247571D01*
X292413Y246714D02*
X291560Y247571D01*
X290707Y247571D01*
X289853Y246714D01*
X289853Y246286D01*
X292413Y243286D01*
X289853Y243286D01*
X289853Y243714D01*
X379253Y239571D02*
X379253Y236143D01*
X378400Y235286D01*
X377547Y235286D01*
X376693Y236143D01*
X376693Y239571D01*
X374987Y238714D02*
X374133Y239571D01*
X374133Y235286D01*
X375413Y235286D02*
X372853Y235286D01*
X345381Y110387D02*
X346234Y109530D01*
X347088Y109530D01*
X347941Y110387D01*
X347941Y112958D01*
X347088Y113816D01*
X346234Y113816D01*
X345381Y112958D01*
X344101Y112958D02*
X343248Y113816D01*
X342394Y113816D01*
X341541Y112958D01*
X341541Y112530D01*
X344101Y109530D01*
X341541Y109530D01*
X341541Y109958D01*
X347941Y114530D02*
X347941Y118816D01*
X346234Y118816D01*
X345381Y117958D01*
X345381Y117530D01*
X346234Y116673D01*
X347941Y116673D01*
X347514Y116673D02*
X345381Y114530D01*
X343674Y117958D02*
X342821Y118816D01*
X342821Y114530D01*
X344101Y114530D02*
X341541Y114530D01*
X379533Y134143D02*
X380387Y133286D01*
X381240Y133286D01*
X382093Y134143D01*
X382093Y136714D01*
X381240Y137571D01*
X380387Y137571D01*
X379533Y136714D01*
X377827Y136714D02*
X376973Y137571D01*
X376973Y133286D01*
X378253Y133286D02*
X375693Y133286D01*
X371853Y137571D02*
X374413Y137571D01*
X374413Y135857D01*
X372707Y135857D01*
X371853Y135000D01*
X371853Y134143D01*
X372707Y133286D01*
X374413Y133286D01*
X338693Y147143D02*
X339547Y146286D01*
X340400Y146286D01*
X341253Y147143D01*
X341253Y149714D01*
X340400Y150571D01*
X339547Y150571D01*
X338693Y149714D01*
X336987Y149714D02*
X336133Y150571D01*
X336133Y146286D01*
X337413Y146286D02*
X334853Y146286D01*
X333065Y223387D02*
X333918Y222530D01*
X334771Y222530D01*
X335625Y223387D01*
X335625Y225958D01*
X334771Y226816D01*
X333918Y226816D01*
X333065Y225958D01*
X331358Y225958D02*
X330505Y226816D01*
X330505Y222530D01*
X331785Y222530D02*
X329225Y222530D01*
X326238Y222530D02*
X327091Y222530D01*
X327945Y223387D01*
X327945Y224244D01*
X327518Y224673D01*
X327945Y225101D01*
X327945Y225958D01*
X327091Y226816D01*
X326238Y226816D01*
X325385Y225958D01*
X325385Y225101D01*
X325811Y224673D01*
X325385Y224244D01*
X325385Y223387D01*
X326238Y222530D01*
X327518Y224673D02*
X325811Y224673D01*
X346625Y276530D02*
X346625Y280816D01*
X344918Y280816D01*
X344065Y279958D01*
X344065Y279530D01*
X344918Y278673D01*
X346625Y278673D01*
X346198Y278673D02*
X344065Y276530D01*
X342358Y279958D02*
X341505Y280816D01*
X341505Y276530D01*
X342785Y276530D02*
X340225Y276530D01*
X338518Y280387D02*
X338091Y280816D01*
X337238Y280816D01*
X336385Y279958D01*
X336385Y279101D01*
X336811Y278673D01*
X336385Y278244D01*
X336385Y277387D01*
X337238Y276530D01*
X338091Y276530D01*
X338518Y276958D01*
X338091Y278673D02*
X336811Y278673D01*
X365381Y200387D02*
X366234Y199530D01*
X367088Y199530D01*
X367941Y200387D01*
X367941Y202958D01*
X367088Y203816D01*
X366234Y203816D01*
X365381Y202958D01*
X364101Y200387D02*
X363248Y199530D01*
X362394Y199530D01*
X361541Y200387D01*
X361541Y202101D01*
X361541Y202958D01*
X362394Y203816D01*
X363248Y203816D01*
X364101Y202958D01*
X364101Y202101D01*
X363248Y201244D01*
X362394Y201244D01*
X361541Y202101D01*
X282533Y219143D02*
X283387Y218286D01*
X284240Y218286D01*
X285093Y219143D01*
X285093Y221714D01*
X284240Y222571D01*
X283387Y222571D01*
X282533Y221714D01*
X280827Y221714D02*
X279973Y222571D01*
X279973Y218286D01*
X281253Y218286D02*
X278693Y218286D01*
X277413Y221714D02*
X276560Y222571D01*
X275707Y222571D01*
X274853Y221714D01*
X274853Y221286D01*
X277413Y218286D01*
X274853Y218286D01*
X274853Y218714D01*
G54D13*
X336189Y210534D02*
X331743Y210535D01*
X336175Y215459D02*
X331790Y215450D01*
X344289Y216534D02*
X339843Y216535D01*
X344275Y221459D02*
X339890Y221450D01*
X337239Y114484D02*
X332793Y114485D01*
X337225Y119409D02*
X332840Y119400D01*
X337289Y120534D02*
X332843Y120535D01*
X337275Y125459D02*
X332890Y125450D01*
X366221Y131829D02*
X366221Y136275D01*
X371146Y131843D02*
X371137Y136228D01*
X332289Y140534D02*
X327843Y140535D01*
X332275Y145459D02*
X327890Y145450D01*
X339711Y227466D02*
X344157Y227465D01*
X339725Y222541D02*
X344110Y222550D01*
X338711Y275466D02*
X343157Y275465D01*
X338725Y270541D02*
X343110Y270550D01*
X364711Y209466D02*
X369157Y209465D01*
X364725Y204541D02*
X369110Y204550D01*
X443289Y303534D02*
X438843Y303535D01*
X443275Y308459D02*
X438890Y308450D01*
X220711Y307466D02*
X225157Y307465D01*
X220725Y302541D02*
X225110Y302550D01*
X281466Y213289D02*
X281465Y208843D01*
X276541Y213275D02*
X276550Y208890D01*
G54D14*
X205000Y45535D02*
X205000Y74082D01*
X205000Y45535D02*
X229413Y45535D01*
X449126Y45535D02*
X424713Y45535D01*
X449126Y45535D02*
X449126Y74082D01*
X449126Y331000D02*
X449126Y302454D01*
X449126Y331000D02*
X424713Y331000D01*
X205000Y331000D02*
X229413Y331000D01*
X205000Y331000D02*
X205000Y302454D01*
X185315Y45535D02*
X145945Y45535D01*
X165630Y25850D02*
X165630Y65220D01*
X150866Y45535D02*
G75*
D01*
G02X150866Y45535I14764J0*
G01*
X468811Y45535D02*
X508181Y45535D01*
X488496Y25850D02*
X488496Y65220D01*
X473732Y45535D02*
G75*
D01*
G02X473732Y45535I14764J0*
G01*
X483575Y45535D02*
G75*
D01*
G02X483575Y45535I4921J0*
G01*
X185315Y331000D02*
X145945Y331000D01*
X165630Y311315D02*
X165630Y350685D01*
X150866Y331000D02*
G75*
D01*
G02X150866Y331000I14764J0*
G01*
X155787Y331000D02*
G75*
D01*
G02X155787Y331000I9843J0*
G01*
X160709Y331000D02*
G75*
D01*
G02X160709Y331000I4921J0*
G01*

M02*
